/* XPM */
static char *_08d5f5a7f9946059ae2e70df9b4b7669bF4lt49kN7VldeF[] = {
/* columns rows colors chars-per-pixel */
"64 64 32 1 ",
"  c #472D3C",
". c #5E3643",
"X c #431862",
"o c #4E4A4A",
"O c #524D4C",
"+ c #544E4C",
"@ c #584F4D",
"# c #57504D",
"$ c #5B524E",
"% c #5C534E",
"& c #5E554F",
"* c #61554F",
"= c #65554F",
"- c #615550",
"; c #645750",
": c #6A5750",
"> c #675952",
", c #695B52",
"< c #6C5B52",
"1 c #6B5C53",
"2 c #6E5D53",
"3 c #6E5E54",
"4 c #705E53",
"5 c #705F54",
"6 c #716054",
"7 c #766256",
"8 c #776457",
"9 c #7A6557",
"0 c #7B6658",
"q c #7D6758",
"w c #7F6859",
"e c white",
/* pixels */
"XXXXXXXXXXXXXXXXXXXXXXXXXXXXXXXXXXXXXXXXXXXXXXXXXXXXXXXXXXXXXXXX",
"XXXXXXXXXXXXXXXXXXXXXXXXXXXXXXXXXXXXXXXXXXXXXXXXXXXXXXXXXXXXXXXX",
"XXX...............XXXXXXXXXXXXXXXX......XXXXXXXX..XXX.XXXX.....X",
"X..XXXXXXXXXXXXXXXXXXXXXXXX.XXXXXXXXXXXXXXXXXXXXXXXXXXXXXXXXXXXX",
"XXXXXXXXXXXXXXXXXXXXXXXXXXXXXXXXXXXXXXXXXXXXXXXXXXXXXXXXXXXXXXXX",
"XXXXXXXXXXX        XXXXXXXXXXXXXXXXXXXXXXXXXXXXXXXXXXXXXXXXXXXXX",
"XX         XXXXXXXXXXXXXXXXXXX         XXXXXXXXXXXX     XXXXXXXX",
"XXXXXXXXXXXXXXXXXXXXXXXXXXX   XXXXXXXXX            XXXXXXXXXXXXX",
"XXXXXXXXXXXXXXXXXXXXXXXXXXXXXXXXXXXXXXXXXXXXXXXXXXXXXXXXXXXXXXXX",
"XXXXXXXXXXXXXXXXXXXXXXXXXXXXXXXXXXXXXXXXXXXXXXXXXXXXXXXXXXXXXXXX",
"XXXXXXXXXXXXXXXXXXXXXXXXXXXXXXXXXXXXXXX.XXXXXXXXXXXXXXXXXXXXXXXX",
"XXXX......XXXXXXXXXXXX......XXXXXXXXX..XXXXXXXXXXXXXXXXXX..XXXXX",
"XX..XXXXXX......XXXXXXXXXXXX......XX.XXXXX.........XXXXXXXX...XX",
"XXXXXXXXXXXXXXXXXXXXXXXXXXXXXXXXXXXXXXXXXX.XXXXXXXXXXXXXXXXXXXXX",
"XXXXX            .                       ...       .       XXXXX",
"XXXXX.   . ....     .......           ...           ..    .XXXXX",
"XXXXX. :>222222,**--**&>%%%-&&%  %$$$$$$$$$$%%&$$$$$$$$$$ .XXXXX",
"XXX... 77770000000000000000$&&-  ->>>>>>>>>>>>>,,,,,,3333. ....X",
"X..XX. >>>>&&&&&---------->--->  >----->>>,2233336666q897. XXXXX",
"XXXXX  776677776666333333eee352  3qq00099776655532eee3632  XXXXX",
"XXXXX  >>2112225677777777eee,>,  >>>22233237777777eee6www  XXXXX",
"XXXXX  7777777772,,>>>--*eee807  7773363>266777777eee0www   XXXX",
"XXXXX  >>>>>>>>>222222eee663777 .79977753076862eee2>>>---  XXXXX",
"XXXXX  633637777777767eee677652 .-&&&&+&-333337eee7777776  XXXXX",
"XXXXX  777788777777777eee7222>2 .77700377700wwweee77733,3. XXXXX",
"XXXXX  >2363677777000069,256777. 7000w077733,3$$&&>226677. XXXXX",
"XXXX. .952,>-&-->>&---*%%007366. 5222,336666632,,2,&&&&-- .XXXXX",
"XX..X .6666777662262>22668w--*-  >>2222233322555522656663 ....XX",
"XXXXX .77666777666777776650wwwq  32,222,,>>------55555566  XXXXX",
"XXXXX .>>----->,,,,,,>>,,,22,,,  >22223333333533322222,>;  XXXXX",
"XXXXX .&$&&&$$@+++OOOOO+OOOO@@$  $$$$%$$O$%$$&---;;;;;,,,  XXXXX",
"XXXXX  oooooooooooooooooooooooo  oooooooooooooooooooooooo  XXXXX",
"XXX..  $$$$%$$$$&&*%%%%%%%$$$$$  ++++++OOOOOOOOO++++&%%--  ....X",
"X..XX  22331112,,,,,,,,11>>>>>;  >>>>>>>,,,,,,,,>,,,2222<  XXXXX",
"XXXXX                ....      .          ....             XXXXX",
"XXXXX           .....           ..            .....        XXXXX",
"XXXXX  777667907777677266666522  =---$$$$++-*->---,>>2>>-    XXX",
"XXXXX. 7787633522323232;,,,,356  2323&>>,3326623,33776777  XXXXX",
"    X. ,,,,333,-*&%$$%&>>eee>>,  773666555677677967766666. XXXXX",
"XXXXX. 97772>>263,36>&&%$eee$--  6722,2336676667722eee677. XXXXX",
"XXXXX. 47770622,57770wwwweee>>- .&679qq99775552,**-eee&&- .XXXXX",
"XXXX.. 66622-235556366eee777775 .>>&>-,--,556677000eee997 .XXXXX",
"XX..X  &&&&$$---*--;>2eee655567. 767536665236665eee666777 ....XX",
"   XX  0000009999733,7eee222222. >-----&>,>-,,23eee666665  XXXXX",
"XXX    222222222222666666,78666  666666222>>>-+&eee,>,,,3  XXXXX",
"XXXXX  ,,,,,,,,,,,,>>>>>>$O+@$$  $$%$$$%%%%-----&$$###$%&  XXXXX",
"XXXXX  &&&&&--&&&&$+&&>>>>>*-%-  3322222222>>>>>>>>>-*$$$  XXXXX",
"XXX..  oooooooooooooooooooooooo. oooooooooooooooooooooooo  ....X",
"X..XX  2,,,,,,,,,,,,,,,>-***#$$ .+++**&&$$#$$#++++$+$$$$$  XXXXX",
"XXXXX  77777666322,,,,,,,>,*;-&  -*&&&--&&O+++$$****;->-;  XXXXX",
"XXXXX  $$--,,22336655222>>>,>,,  2356566662,>>,>>,>-->->-  XXXXX",
"XXXXX  &-&$$+$$$&$$&*,,36677763  2>&>,,2227>,>>>>,,333335  XXXXX",
"XXXXX  32563612,>>*>-&$$++O+$%-  36632367w2,,,>*&&%-26677 .XX   ",
"       *%%$$$&&---,>,>,-->-6666  43222---&&>>,,,2,>--$&%@ .  XXX",
"XXXXX    .        ....   .           .        ..         . XXXXX",
"XXXXX         .            ....    .......      ...        XXXXX",
"XXXX......XXXXXXXXXXXX......XXXXXXXXX..XXXXXXXXXXXXXXXXXX..XXXXX",
"XX..XXXXXX......XXXXXXXXXXXX......XX.XXXXX.........XXXXXXXX...XX",
"XXXXXXXXXXXXXXXXXXXXXXX     XXXXXXXXXXXXXX.XXXXXXXXXXXXXXXXXXXXX",
"XXXXXXXXXXXXXXXXXXX    XXXXX    XXXXXXXXXXXXXXXXXXXXXXXXXXXXXXXX",
"XXX         XXXXXXXXXXXXXXXXXXXX    XXXXXXXXXXXXXXXXXXXXXXXXXXXX",
"XXXXXXXXXXXXXXXXXXXXXXXXXXXXXXXXXXXX   XXXXXXXXXXXXXXXXXXXXXXXXX",
"XXX...............XXXXXXXXXXXXXXXX......XXXXXXXX..XXX.XXXX.....X",
"X..XXXXXXXXXXXXXXXXXXXXXXXX.XXXXXXXXXXXXXXXXXXXXXXXXXXXXXXXXXXXX"
};
