/* XPM */
static char *b22c0d75c9dc4fd3fb730725cc09beee2TWBiPFf1iM0FDqD[] = {
/* columns rows colors chars-per-pixel */
"64 64 43 1 ",
"  c #371602",
". c #3D0E17",
"X c #022737",
"o c #353333",
"O c #6A040B",
"+ c #680F15",
"@ c #4F260E",
"# c #5B2503",
"$ c #5B230C",
"% c #622500",
"& c #722C10",
"* c #782E11",
"= c #743A15",
"- c #591D29",
"; c #472D3C",
": c #495917",
"> c #556912",
", c #62732C",
"< c #39314B",
"1 c #342560",
"2 c #5E3643",
"3 c #59394F",
"4 c #5F3E4F",
"5 c #5C3B52",
"6 c #5F3D55",
"7 c #733460",
"8 c #00435F",
"9 c #7A444A",
"0 c #AE0712",
"q c #813213",
"w c #942930",
"e c #8B3137",
"r c #A34F07",
"t c #C9752D",
"y c #C23B44",
"u c #BF7958",
"i c #877F7F",
"p c #7F9731",
"a c #2958AA",
"s c #6852A7",
"d c #B0689B",
"f c #F969CF",
"g c #5486DC",
/* pixels */
"9999999999999999999999999999999999999999999999999999999999999999",
"9999999999999999999999999999999999999999999999999999999999999999",
"9992222222222222229999999999999999222222999999992299929999222229",
"9229999999999999999999999992999999999999999999999999999999999999",
"9999999999999999999999999999999999999999999999999999999999999999",
"9999999999999999999999999999999999999999999999999999999999999999",
"9999999999999999999999999999999999999999999999999999999999999999",
"9999999999999999999999999999999999999999999999999999999999999999",
"9999999999999999999999999999999999999999999999999999999999999999",
"9999999999999999999999999999999999999999999999999999999999999999",
"9999999999999999999999999999999999999992999999999999999999999999",
"9999222222999999999999222222999999999229999999999999999992299999",
"9922999999222222999999999999222222992999992222222229999999922299",
"9999999999999999999999999999999999999999992999999999999999999999",
"9999999999999999999999999999999999999999999999999999999999999999",
";;;;;;;;;;;222;;;;;;;;;;;222222;;;;222;;;;;;;;;;;;;;;2222;;;;;;;",
";;;;2222;;;;;;;;;;;;;;;;;;;;;;;;;;;;;;2222;;;;;;;2222;;;;;;;;;;;",
"<<<<<<<>>><<yyyyqqqq6554<<<<===;;;<<<<----iii<<<<<<<<<<<<<<<<<<<",
"<<<<<<<>>><<yyyyqqqq6666<<<<===2;;<<<<----iii<<<<<<<<<<<<<<<<<<<",
"<<<<<<<>>><<wwwwqqqq7777<<<<===2;;<<<<----iii<<<<<<<<<<<<<<<<<<<",
"<<<<<<<>>><<yyyy<qqqq7777<<<###2;;<<<----<iii<<<<<<<<<<<<<<<<<<<",
"<<<<<<<>>><<yyyy<qqqq6666<<<===;2;<<<----<iii<<<<<<<<<<<<<<<<<<<",
"<<<<<<<>>><<yyyy<qqqq6666<<<===;2;<<<----<iii<<<<<<<<<<<<<<<<<<<",
"<<<<<<<>>><<wwww<qqqq6666<<<===;2;<<<----<iii<<<<<<<<<<<<<<<<<<<",
"<<<<<<<>>><<yyyy<<qqqq6666<<===;;;<<----<<iii<<<<<<<<<<<<<<<<<<<",
"<<<<<<<>>><<yyyy<<qqqq6666<<===;;;<<----<<iii<<<<<<<<<<<<<<<<<<<",
"<<<<<<<>>><<yyyy<<qqqq6666<<===;;;<<----<<iii<<<<<<<<<<<<<<<<<<<",
"<<<<<<<ppp<<wwww<<qqqq7777<<###;;;<<....<<ooo<<<<<<<<<<<<<<<<<<<",
"<<<<<<<ppp<<wwww<<<$$$$7777<###;;;<....<<<ooo<<<<<<<<<<<<<<<<<<<",
"<<<<<<<>>><<yyyy<<<$$$$6666<===;;;<----<<<iii<<<<<<<<<<<<<<<<<<<",
"<<<<<<<>>><<yyyy<<<qq&*6636<===;;;<----<<<iii<<<<<<<<<<<<<<<<<<<",
";;;;;;;;;;;;22;;;;;;;;;;;222;;;;222;;;;;;;;;;;;;;;;;222222;;;;;;",
";;;;;;;;;;;;;;22;;;;;;;;;;;;222;;;;222;;;;;;;;222222;;;;;;;;;;;;",
"<@@@<aaaaaa<<<<<<<<<<<<<<<<<<<<;;;<<<<<<<<<<<111%%OOO<<,,,XXX<<<",
"<@@@<aaaaaa<<<<<<<<<<<<<<<<<<<<;2;<<<<<<<<<<<111%%OOO<<,,,XXX<<<",
"<===<aaaaaa<<<<<<<<<<<<<<<<<<<<;2;<<<<<<<<<<<111  OOO<<:::XXX<<<",
"<===<aaaaaa<<<<<<<<<<<<<<<<<<<<;;2<<<<<<<<<<<111%%OOOO<:::XXX<<<",
"<===<aaaaaa<<<<<<<<<<<<<<<<<<<<;;2<<<<<<<<<<<111%%OOOO<,,,XXX<<<",
"<===<aaaaaa<<<<<<<ddddddddffddd;;;<<<<<<<<<<<111%%<OOO<,,,XXX<<<",
"<===<aaaaaa<<<<<<<ddddddddffddd;;;<<<<<<<<<<1111%%<OOO<,,,888<<<",
"<===<aaaaaa<<<<<<<000+000000+00;;;<<<<<<<<<<1111%%<OOO<,,,888<<<",
"<===<aaaaaa<<<<<<<000+000000+00;;;<<<<<<<<<<111<%%<OOOO,,,XXX<<<",
"<===<gggggg<<<<<<<000+000000+00;;;<<<<<<<<<<sss<%%<eeee,,,XXX<<<",
"<===<gggggg<<<<<<<rrrrrrttrrrrr;;;<<<<<<<<<<sss<  <<eee,,,XXX<<<",
"<@@@<aaaaaa<<<<<<<rrrrrrttrrrrr;;;<<<<<<<<<<111<%%<<OOO,,,XXX<<<",
"<@@@<aaaaaa<<<<<<<rrrrrrttrrrrr;;;<<<<<<<<<<111<%%<<OOO,,,XXX<<<",
";;22;;;;;;;;22222;;22;;222222;;;;;22222;;22222;;;;;222222;;;;;;;",
";;;;;;;;;;;;;;;;;;;;;;;;;;;;;;;;;;;;;;;;;;;;;;;;;;;;;;;;;;;;;;;;",
";;299999999999;;;22222222222222;;;2222222222222222222222222222;;",
";;2999uuuu9999;;;22222222222222;;;2222222222222222222222222222;;",
";;299999999999;;;22;;;;;;;;;222;;;222;;;;;;;;;;;;;;;;;;;;;;222;;",
";;222222222222;;;22;99999999;22;;;22;999999999999999999999;222;;",
";;;;;;;;;;;;;;;;;22;92222299;22;;;22;999222222222222222299;222;;",
";;299999999999;;;22;92999929;u2;;;2u;992999999999999999299;222;;",
";;2999uuuu9999;;;22;92999929;u2;;;2u;992999999999999999299;222;;",
";;299999999999;;;22;92999929;u2;;;2u;992999999999999999299;222;;",
";;222222222222;;;22;92999929;u2;;;2u;992999999999999999299;222;;",
";;;;;;;;;;;;;;;;;22;92222299;22;;;22;999222222222222222299;222;;",
";;299999999999;;;22;99999999;22;;;22;999999999999999999999;222;;",
";;2999uuuu9999;;;22;;;;;;;;;222;;;222;;;;;;;;;;;;;;;;;;;;;;222;;",
";;299999999999;;;22222222222222;;;2222222222222222222222222222;;",
";;222222222222;;;22222222222222;;;2222222222222222222222222222;;",
";;;;;;;;;;;;;;;;;;;;;;;;;;;;;;;;;;;;;;;;;;;;;;;;;;;;;;;;;;;;;;;;",
";;;;;;;;;;;;;;;;;;;;;;;;;;;;;;;;;;;;;;;;;;;;;;;;;;;;;;;;;;;;;;;;"
};
