/* XPM */
static char *c5eb2412cb1141a88668c34bc44d6de6ROo6HGmVApzznPKV[] = {
/* columns rows colors chars-per-pixel */
"64 64 47 1 ",
"  c black",
". c #311432",
"X c #4A2C0F",
"o c #4B2D10",
"O c #4C2E11",
"+ c #4F3013",
"@ c #4F3114",
"# c #513215",
"$ c #523417",
"% c #543517",
"& c #533418",
"* c #553518",
"= c #58371A",
"- c #57381B",
"; c #59391B",
": c #5B3B1E",
"> c #5C3B1E",
", c #5B3C1E",
"< c #5D3C1F",
"1 c #5F3E20",
"2 c #603F20",
"3 c #614022",
"4 c #644323",
"5 c #644224",
"6 c #664425",
"7 c #6A4727",
"8 c #6B4827",
"9 c #694728",
"0 c #6A4828",
"q c #6E4B2A",
"w c #6F4C2B",
"e c #6F4C2C",
"r c #704B2B",
"t c #704C2B",
"y c #734F2E",
"u c #744F2E",
"i c #73502E",
"p c #76512F",
"a c #765130",
"s c #785331",
"d c #7A5432",
"f c #7C5633",
"g c #7D5734",
"h c #7F5936",
"j c #805936",
"k c #710193",
"l c white",
/* pixels */
"6qpppppggggjjjjjjjjjjpdpdqppaaaaaaaasssssssssyyyyyyppppyyyppaapp",
"77q00qq77776690000qqqwqqqyeyysssssssqqpppyyyyaaaaqpyyyyyppppyyss",
"ayyyqwyyyqqqq00wwwqq7367733gq<47q69936yyysssssddsq57qqaapppggjjj",
"ajjgdggdsdsssyyyq0766000qqwhdppyyaasdddddgghhpssgggapy7qyyayyqqy",
"*$#::336777qwywtwadggggghhhhhhjjjayqydpppyyqy51447yyq777qqq0qyjg",
"2<311238wwypqqqyppyyyyyyqqqqqqypaaayyqqjjjjjgu0yqq1137qyyyyyyqjj",
"7q9qqq05333:1333*<3366qqqqqqqqq77770007yyyyyywypyypyqq99qyyyqqqq",
"ggdspyya97767777766666666000qeeyyyytpaaaaaaassdddddddddsauyyyyyy",
"hgyasdsssffdspysaggdsspyq77q00wyyppqqyyyyyyyppuuqqqq07qyyaattq0q",
"pqjgy36w060ppssadasdddddssspprq74733ggpyyy99<<3333<<22pppq9qqppy",
"0q37yssddsy7q070qjgy66q79uqpyaapappppupuyyppssssgg6366qqqyp03ggd",
"6637yypssssayqtyepyyyye769wqy99qypsssggdppaadddysapppppyyyqq9777",
"777577553659775377q99qyaayqyaghhgggggggayyyuyyyyypaapppapsssddda",
"y63312211<1<133656qpssssss3332133777qqqqqqqyyyyyyyyypypppuuuyups",
"*#<;::<<333732<;*#O@:<<13333333<<666666666633333333111<<<:::<<;;",
"OO@#$@$$:OOOOO**##@++OooOOOoooOo$$**$$$$$$$$#$$$$$$*****;<<<<<<<",
"O*6666666qqqqqq0222222<6:::2<<:*<<::::::::::<<<:::::::::;;;;****",
"33pppppppppgggggggggggggggg:<<33335556666655555999999qqqqqqqqqqq",
"y3666666666<<<<<222333333363335555333336667qqqqqqyyyyhddssppyyya",
"hppppppppppaaaapyyywwwyyyyyqqyqqqyhhgggddssppyyywqqqytyqqqsdghhj",
"jp533<666q00qqqypaasssssssg7kkkkkkkkqqqqqqqpaassssasppjjjgapq9qp",
"hpaggytsssppppppq996663311kk        kkyq5qyppssssaagggjjjjjjjjgp",
"uuyqq72644666666qqqqqqqqyk  kkkkkkkk  kywgapdyqqqqq6663333336633",
"yyyyywqyyyyyaappppppuppyk kk........kk k3qqqqqppppppppppyq7r8533",
"jjjapdgssssddasssasaapyk k..l..ll..l..k kpggjjjjggpppqq9qqpppgjj",
"g;*13535qtytyaaaasggggk k.l..kkkkkk..l.k kqq9q::<<5qqyyppppppggg",
"pdhggggdyq963<3366<23k k.l..k      k..l.k kppwq99q7<1<<333566111",
"aappyyqyyyysssuuqqyq6k k...k  kkkk  k...k kqqyyyyqqyyyyywwe77qyy",
"qqyyyeqpppppppapppaak k.l.k  k....k  k.l.k k33311yyyyyyyygsdsayy",
"77767774433322677777k k..k  k.l..l.k  k..k kyyqqqqqqqq764535qqqy",
"<3>:;::<*,,<;**$$$##k k..k k.l.kk.l.k k..k k:<333444440077090060",
"XXXXXXXXXXXXXXXXXXXXk k.lk k..k  k..k kl.k kXXXXXXXXXXXXXXXXXX##",
"71<:<3::;;::**;;<<1>k k.lk k..k  k..k kl.k k####$$##1::1111<<<;*",
"377997qqqqq000q77777k k..k k.l.kk.l.k k..k k97776777qqqqqqqqqq99",
"gggggpppppppppupppppk k..k  k.l..l.k  k..k kypppyyyytqqyddddssdd",
"6qqqq<<366qqqqqqqqqqk k.l.k  k....k  k.l.k kgdssssppppppppuwyq77",
"dppyypdsapypsdgpppaask k...k  kkkk  k...k k3136333746q66369uyqay",
"gghhhgddsdppyqyqqtqwqk k.l..k      k..l.k kqyyqq9qqpauaasyyyadsg",
"qq999999999qqq73<<:*:>k k.l..kkkkkk..l.k kypapssdyppypyyyaaapppp",
"ysssgjggpppq66qyy0yy4<<k k..l..ll..l..k kuypyppssqqq0yppaapppppp",
"dyyyq0qyppagpqq9yppsgjjjk kk........kk kdppyyyq711313<<<15qppppa",
"3660ydaayyqq3qryyyyqyyyaak  kkkkkkkk  k330yypppsggggddddapyyyypd",
"333<<::<<<<::33313356qqq0ykk        kkyyyyqqyupyqqquuyaassdsppyq",
"gggggggggggggddddarq0aaaqqqqkkkkkkkk333<676377qwyapyppyyyqypyyaa",
"6636qqqqqqqqqqqqqqqyyyyyy7adyyyyyyyyyyyqqq6663*<<3376999qyqqyyqq",
"7qay000000000000000555555-#&*::::::::::::::11331<::***::<<<2777q",
"36:<22<<<<<<33<<<<:#115555513:36qqqqqqqqqqq66666655531:;-:<;$$$6",
"XXXXXXXXXXXXXXXXXXXXXXXXXXXXXXXXXXXXXXXXXXXXXXXXXXXXXXXXXXXXXXXX",
"6qqq999q99999999999999963111*-;;;*%%11<<:*******$$**;;;*;;<=*;%<",
"9006855asaapuyywqq777777767142<3231<<<33<<@#%#::2222436336699551",
"886:$**::3379qqryyiyyqqq65596700qqqyyyyyyyq76576676335343<<<355q",
"7qyyyqq121*-&**;<;;<279qyyaasurq0q51599qqqp57666679qqqqqyyyyyqq0",
"311339yqqyywy0q7662521-*&$#*-:3qywyyeqeyajq09951<<>3qyyppqqq9qqy",
"ppy221<1:::::1<333760673363pyyyyrrrqqq3231166007q7632-<:<56qqqqq",
"36yqq7637757ypgjggdq660qw7q0q77344<2<:<ppdy1633670yypawqq9067qqq",
"jgggdddpyyyyqqqqq7qyypyyyyyypppsppayyytqq7576557yy99639979377769",
"yyyyyyy767614331<6657797000q00933336777qq7qyiiyqypppaayyyuapuypp",
"065555554460qqwyuuyqq770576666qqqqyyypppssgg6qqpsgggddayy721-:<:",
"6<112<:*:-:-*-*$$##:>22379qqqq766q9097eyyyeyyyyyqqq777qyqypaapwq",
"yt0777799990qqqqqqqqqqqq0qqqqqyyyyyaapayyyqq997qqqqyyyyyappassdd",
"669qtyyaagggggggggggssssytt23q6222<*-::::<<<:<;<<:<:::;;-113687q",
"6466611666666665566666666769666qqqeyyqqqqqq7970700qqqq6656566660",
"<#***$###$#+###$+###@+@@*#*$*:*:******#**$*%;#$###*#*:21<1<qq776",
"XXXXXXXXXXXXXXXXXXXXXXXXXXXXXXXXXXXXXXXXXXXXXXXXXXXXXXXXXXXXXXXX"
};
