/* XPM */
static char *_aae3eabe18d46049184a6dba2255261Fvnld1aG0nNbYNEZ[] = {
/* columns rows colors chars-per-pixel */
"64 64 48 1 ",
"  c black",
". c #311432",
"X c #4A2C0F",
"o c #4B2D10",
"O c #4C2E11",
"+ c #4F3013",
"@ c #4F3114",
"# c #513215",
"$ c #523417",
"% c #543517",
"& c #533418",
"* c #553518",
"= c #58371A",
"- c #57381B",
"; c #59391B",
": c #5B3B1E",
"> c #5C3B1E",
", c #5B3C1E",
"< c #5D3C1F",
"1 c #5F3E20",
"2 c #603F20",
"3 c #614022",
"4 c #644323",
"5 c #644224",
"6 c #664425",
"7 c #6A4727",
"8 c #6B4827",
"9 c #694728",
"0 c #6A4828",
"q c #6E4B2A",
"w c #6F4C2B",
"e c #6F4C2C",
"r c #704B2B",
"t c #704C2B",
"y c #734F2E",
"u c #744F2E",
"i c #73502E",
"p c #76512F",
"a c #765130",
"s c #785331",
"d c #7A5432",
"f c #7C5633",
"g c #7D5734",
"h c #7F5936",
"j c #805936",
"k c #710193",
"l c #E39FF6",
"z c white",
/* pixels */
"6qpppppggggjjjjjjjjjjpdpdqppaaaaaaaasssssssssyyyyyyppppyyyppaapp",
"77q00qq77776690000qqqwqqqyeyysssssssqqpppyyyyaaaaqpyyyyyppppyyss",
"ayyyqwyyyqqqq00wwwqq7367733gq<47q69936yyysssssddsq57qqaapppggjjj",
"ajjgdggdsdsssyyyq0766000qqwhdppyyaasdddddgghhpssgggapy7qyyayyqqy",
"*$#::336777qwywtwadggggghhhhhhjjjayqydpppyyqy51447yyq777qqq0qyjg",
"2<311238wwypqqqyppyyyyyyqqqqqqypaaayyqqjjjjjgu0yqq1137qyyyyyyqjj",
"7q9qqq05333:1333*<3366qqqqqqqqq77770007yyyyyywypyypyqq99qyyyqqqq",
"ggdspyya97767777766666666000qeeyyyytpaaaaaaassdddddddddsauyyyyyy",
"hgyasdsssffdspysaggdsspyq77q00wyyppqqyyyyyyyaauuqqqq07qyyaattq0q",
"pqjgy36w060ppssadasdddddssspprq74733ggpyyy99<<3333<<22pppq9qqppy",
"0q37yssddsy7q070qjgy66   uqpy   appppupuyyppssssgg6366qqqyp03ggd",
"6637yypssssay   epyyyy    wqy   ypss   dppaadddysapppppyyyqq9777",
"7775775536597    7q99q    qya   gggg   ayyyuyyyyypaapppapsssddda",
"y63312211<1<1    lqpssl   l33    77    qqqqy   yyyyypypppuuuyups",
"*#<;::<<333732    l@:<l   l33 k  6l   k6666    3333111<<<:::<<;;",
"OO@#$@$$:OOOOO    l++Ol   l o k  $l  lk$k$     k$$$*****;<<<<<<<",
"O*6666666qqqqqq    l22<l  ll< k k<l  lk:k:l   <k:k::::::;;;;****",
"33ppppppppplgggg k lgggl   l  k k3l lk6k6 l l k9k9999qqqqqqqqqqq",
"y3666666666<l<<k2k  l33l   l  lkk5l lk3k l l kqkqyyyyhddssppyyya",
"hppppppppppaalapk k llyl   l  lkk l lkk  ll  kkywl   tyqqqsdghhj",
"jp533<666l   qlykak  lssl  ll lkkzll kk l l kkssl   lpjjjgapq9qp",
"hpaggytss ll   lqk9k  l3l zlllzkkz l zk ll kkssl  ll gjjjjjjjjgp",
"uuyqq7264   ll  lqkk zlzl  zllzkklz  z lz kkd l ll  663333336633",
"yyyyywqyyy    l  llkk zzlp zllzkklz zk lz k  l l   pppppyq7r8533",
"jjjapdgssssd   ll lkk zlzl  zlz klz z lz k  zll   pppqq9qqpppgjj",
"g;*13535qtyty    lzlkk zzl  zz  kl zk z k zzl    <5qqyyppppppggg",
"pdhgggllyq963<3    zlk  zl  lz  kl z lz zzl     9q7<1<<333566111",
"aappyyqyllll   u    zkk zz  lz  k    zzz      yyyq     yllll7qyy",
"qqyyyeqpp  llll      zzl z          zz            llllllygsdsayy",
"777677llllll  llllzzz  z               zzzzzllllll     64535qqqy",
"<3>:kkkk*,, lllllllllzzzz            llllll zzzzzllllllllllllll0",
"XXXXXXXXkkkkkkkk      llll       lllllllllllllllllllllllXXkkkk##",
"71<,<3::;;::**;kkkkkkkkk  ll       lllllll      $$kkkkkkkkk<<<;*",
"377................kkkkkkkkk        ....kkkk kkkkkkkkkqqqqqqqq99",
"gggggppppp kkkkkkkkkkkkkkk              ........kkkkkkkkkkkkkkdd",
"6qqqq<kkkkkkkkkkkkkk                       zzzkk........pppwyq77",
"dppykkkkkk          zzzzz              zzzz     kkkkk   .....qay",
"gghhhgddsdppyqyqzzzzkkzz                zz..      qpkkkksyyyadsg",
"qq999999999qqq73<kkkkzz    zz             zz..k     ypyykkaapppp",
"ysssgjggpppq66kkkk..zz    zzz   z   zz      z ..k     ppaapppppp",
"dyyyq0qyppakkkq... z k    zz   zz   zzz  .     k..k     15qppppa",
"3660ydaaykk....k  zkk.   zzz   z z  z z   .k   s k..k   apyyyypd",
"333<<::<<..::k   zkk.   zzz   z  z  z  z   ..k  qqkk..k ssdsppyq",
"gggggggggggkk  kk k.   .z k   z  z  z  zz   k.k  apkkpyyyqypyyaa",
"6636qqqqqqkq kk  k.yy kz  k. zkk  z .k .z    kkkk 376k99qyqqyyqq",
"7qay00000000    ..05 k.  kk.  .k  z .k  .z 1  k..kk***k:<<<2777q",
"36:<22<<<<<<33<.<<:kkk.  kk.  .k    .k  .k  6  k . k31:;-:<;$$$6",
"XXXXXXXXXXXXXX.XXXk k.   k.   .k    . k  .k XXXkk .  XXXXXXXXXXX",
"6qqq999q99999.999k k . 6 k.   .k *  k.k  k.k ***k  ..;;*;;<=*;%<",
"9006855asaapuyywk  k. 77k .   .k 3  k.k3  k.k#::2k   .6336699551",
"886:$**::3379qqr  k .qq k . 6k. kqq k.ky   . k7667k335343<<<355q",
"7qyyyqq121*-&**; k .279 k.k skk.kq5kk.kqq  k. k6679qqqqqyyyyyqq0",
"311339yqqyywy0q7   .21- k.k*-kk.kwykk.kyaj  k. k<<>3qyyppqqq9qqy",
"ppy221<1:::::1<3337606 k .kpyk .krrk . k311 k .7k7632-<:<56qqqqq",
"36yqq7637757ypgjggdq66 k .q0qk .k4<k . kpdy  k. 70yypawqq9067qqq",
"jgggdddpyyyyqqqqq7qyyp  . yypk .kpak  .kq757 k .yy99639979377769",
"yyyyyyy767614331<66577  .00q0  .33367 .kq7qyi k ypppaayyyuapuypp",
"065555554460qqwyuuyqq770.7666  .qqyyy . ssgg6qqpsgggddayy721-:<:",
"6<112<:*:-:-*-*$$##:>22379qqqq766q9097.yyyeyyyyyqqq777qyqypaapwq",
"yt0777799990qqqqqqqqqqqq0qqqqqyyyyyaapayyyqq997qqqqyyyyyappassdd",
"669qtyyaagggggggggggssssytt23q6222<*-::::<<<:<;<<:<:::;;-113687q",
"6466611666666665566666666769666qqqeyyqqqqqq9970700qqqq6656566660",
"<#***$###$#+###$+###@+@@*#*$*:*:******#**$*%;#$###*#*:21<1<qq776",
"XXXXXXXXXXXXXXXXXXXXXXXXXXXXXXXXXXXXXXXXXXXXXXXXXXXXXXXXXXXXXXXX"
};
