/* XPM */
static char *_db5c2d35e714c68efd61379f3138561GChFQBWHDaaSkK8w[] = {
/* columns rows colors chars-per-pixel */
"64 64 53 1 ",
"  c black",
". c #311432",
"X c #4A2C0F",
"o c #4C2E11",
"O c #4F3013",
"+ c #4F3114",
"@ c #513215",
"# c #523417",
"$ c #543517",
"% c #533418",
"& c #553518",
"* c #58371A",
"= c #57381B",
"- c #59391B",
"; c #5B3B1E",
": c #5C3B1E",
"> c #5B3C1E",
", c #5D3C1F",
"< c #5F3E20",
"1 c #603F20",
"2 c #614022",
"3 c #644323",
"4 c #644224",
"5 c #664425",
"6 c #6A4727",
"7 c #6B4827",
"8 c #694728",
"9 c #6A4828",
"0 c #6E4B2A",
"q c #6F4C2B",
"w c #6F4C2C",
"e c #704B2B",
"r c #704C2B",
"t c #734F2E",
"y c #744F2E",
"u c #7F4829",
"i c #7A4E2D",
"p c #7E4F2F",
"a c #73502E",
"s c #76512F",
"d c #765130",
"f c #785331",
"g c #7A5432",
"h c #7C5633",
"j c #7D5734",
"k c #7F5936",
"l c #813F24",
"z c #804E2E",
"x c #805936",
"c c #710193",
"v c #780490",
"b c #F1E39F",
"n c white",
/* pixels */
"50sssssjjjjxxxxxxxxxxsgsg0ssddddddddfffffffffttttttsssstttssddss",
"660990066665589999000q000twttfffffff00sssttttdddd0stttttssssttff",
"dttt0qttt000099qqq006256622j0,36058825tttfffffggf04600ddsssjjxxx",
"dxxjgjjgfgfffttt0965599900qkgssttddfgggggjjkksffjjjdst60ttdtt00t",
"&#@;;2256660qtqrqdgjjjjjkkkkkkxxxdt0tgssstt0t4<336tt066600090txj",
"1,2<<127qqts000tsstttttt000000tsdddtt00xxxxxjy9t00<<260tttttt0xx",
"60800094222;<222&,225500000000066669996ttttttqtsttst00880ttt0000",
"jjgfsttd866566666555555559990wwttttrsdddddddffgggggggggfdytttttt",
"kjtdfgfffhhgfstfdjjgffst066099qttss00tttttttssyy0000960ttddrr090",
"s0xjt25q959ssffdgdfgggggfffsse063622jjsttt88,,2222,,11sss0800sst",
"9026tffggft609690xjt55068y0stddsdssssysyttssffffjj5255000ts92jjg",
"5526ttsffffdt0rtwsttttw658q0t880tsfffjjgssddgggtfdsssssttt008666",
"6664664425486642660880tddt0tdjkkjjjjjjjdtttytttttsddsssdsfffgggd",
"t522<11<<,<,<225450sffffff...nnnnnn...u0000tttttttttstsssyyytysf",
"&@,-;;,,222621,-&@o+;,,..n............n..5522222222<<<,,,;;;,,--",
"oo+@#+##;ooooo&&@@+OO..n...cccccccccc...n..#@######&&&&&-,,,,,,,",
"o&55555550000009111...n..cc          cc..n...,,;;;;;;;;;----&&&&",
"22sssssssssjjjjjjj.....cc  cccccccccc  cc.....488888800000000000",
"t2555555555,,,,,1..n..c  cc...nnnn...cc  c..n..00ttttkggffsstttd",
"kssssssssssdddds..n..c cc..n........n..cc c..n..q000trt000fgjkkx",
"xs422,555099000t....c c..n..cccccccc..n..c c....ffdfssxxxjds080s",
"ksdjjtrfffsssss....c c..n.cc        cc.n..c c....ddjjjxxxxxxxxjs",
"yyt006153355555.n.c c....c  cccccccc  c....c c.n.005552222225522",
"tttttq0tttttdd.n.c c....c cc........cc c....c c.n.sssssst06e7422",
"xxxdsgjffffggd...c c.n.c c..n..nn..n..c c.n.c c...sss00800sssjxx",
"j-&<24240rtrtpn.c c.n.c c.n..cccccc..n.c c.n.c c.n400ttssssssjjj",
"sgkjjjjgt0852...c c..c c.n..c      c..n.c c..c c...,<,,222455<<<",
"ddsstt0ttttff..c c.n.c c...c  cccc  c...c c.n.c c..tttttqqw660tt",
"00tttw0ssssss..c c..c c.n.c  c....c  c.n.c c..c c..ttttttjfgfdtt",
"6665666332221n.c c..c c..c  c.n..n.c  c..c c..c c.n000653424000t",
",2:;-;;,&>>,-n.c cn.c c..c c.n.cc.n.c c..c c.nc c.n3339966989959",
"XXXXXXXXXXXXXn.c cn.c c.nc c..c  c..c cn.c c.nc c.nXXXXXXXXXXX@@",
"6<,;,2;;--;;&n.c cn.c c.nc c..c  c..c cn.c c.nc c.n@<;;<<<<,,,-&",
"2668860000099n.c cn.c c..c c.n.cc.n.c c..c c.nc c.n6000000000088",
"jjjjjssssssssb.c c..c c..c  c.n..n.c  c..c c..c c.ntr00tggggffgg",
"50000,,255000..c c..c c.n.c  c....c  c.n.c c..c c..ssssssssqt066",
"gssttsgfdstsf..c c.n.c c...c  cccc  c...c c.n.c c..35055258yt0dt",
"jjkkkjggfgsst...c c..c c.n..c      c..n.c c..c c...sdyddftttdgfj",
"00888888888000n.c c.n.c c.n..cccccc..n.c c.n.c c.nzststttdddssss",
"tfffjxjjsss055...c c.n.c c..n..nn..n..c c.n.c c...009tssddssssss",
"gttt090tssdjs0.n.c c....c cc........cc c....c c.n.2<2,,,<40ssssd",
"2559tgddtt0020e.n.c c....c  cccccccc  c....c c.n.jjjggggdsttttsg",
"222,,;;,,,,;;22....c c..n.cc        vc.n..c c....00yytddffgfsst0",
"jjjjjjjjjjjjjggg....c c..nn.cccccccc.nn..c c....tdstssttt0tsttdd",
"5525000000000000..n..c cc..n........n..cc c..n..,22658880t00tt00",
"60dt9999999999999..n..c  cc...nnnn...cc  c..n..<,;;&&&;;,,,16660",
"25;,11,,,,,,22,,,,.....cc  cccccccccc  cc.....5554442<;-=;,-###5",
"XXXXXXXXXXXXXXXXXXX...n..cc          cc..n...XXXXXXXXXXXXXXXXXXX",
"500088808888888888888..n...cccccccccc...n..&&&&&##&&---&--,*&-$,",
"8995744dfddsyttq0066666..n............n..,+@$@;;111132522558844<",
"775;#&&;;226800ettatt0005l...nnnnnn...ittt065465565224232,,,2440",
"60ttt00<1<&=%&&-,--,1680ttddfye0904<488000s4655556800000ttttt009",
"2<<228t00ttqt90655141<=&%#@&=;20tqttw0wtdx09884<,,:20ttss000800t",
"sst11<,<;;;;;<,222659562252stttteee000212<<5599606521=,;,4500000",
"25t006526646tsjxjjg05590q609066233,1,;,ssgt<522569ttsdq008956000",
"xjjjgggstttt0000060ttsttttttsssfssdtttr006465446tt88528868266658",
"ttttttt6565<322<,55466869990998222256660060taat0tsssddtttydsytss",
"95444444335900qtyyt006694655550000tttsssffjj500sfjjjggdtt61<=;,;",
"5,<<1,;&;=;=&=&##@@;:11268000065508986wtttwttttt0006660t0tsddsq0",
"tr9666688889000000000000900000tttttddsdttt008860000tttttdssdffgg",
"5580rttddjjjjjjjjjjjfffftrr1205111,&=;;;;,,,;,-,,;,;;;--=<<25760",
"53555<<555555554455555555658555000wtt000000686969900005545455559",
",@&&&#@@@#@O@@@#O@@@+O++&@&#&;&;&&&&&&@&&#&$-@#@@@&@&;1<,<,00665",
"XXXXXXXXXXXXXXXXXXXXXXXXXXXXXXXXXXXXXXXXXXXXXXXXXXXXXXXXXXXXXXXX"
};
