/* XPM */
static char *e5c2f00b0b5449b3a759377f2e5e74a5lQ7DOl0Uv1t1qjrz[] = {
/* columns rows colors chars-per-pixel */
"64 64 57 1 ",
"  c #15132A",
". c #34383C",
"X c #4A2C0F",
"o c #4B2D10",
"O c #4C2E11",
"+ c #4E3013",
"@ c #4F3114",
"# c #513215",
"$ c #523417",
"% c #543517",
"& c #533418",
"* c #553518",
"= c #58371A",
"- c #57381B",
"; c #59391B",
": c #5B3B1E",
"> c #5C3B1E",
", c #5B3C1E",
"< c #5D3C1F",
"1 c #5F3E20",
"2 c #603F20",
"3 c #614022",
"4 c #644323",
"5 c #644224",
"6 c #664425",
"7 c #6A4727",
"8 c #6B4827",
"9 c #694728",
"0 c #6A4828",
"q c #6E4B2A",
"w c #6F4C2B",
"e c #6F4C2C",
"r c #704B2B",
"t c #704C2B",
"y c #734F2E",
"u c #744F2E",
"i c #73502E",
"p c #76512F",
"a c #765130",
"s c #785331",
"d c #7A5432",
"f c #7C5633",
"g c #7D5734",
"h c #7F5936",
"j c #262941",
"k c #374B53",
"l c #4A4056",
"z c #685B6B",
"x c #727272",
"c c #805936",
"v c #83299B",
"b c #9B5692",
"n c #FF40E1",
"m c #48A7DC",
"M c #E3DDA9",
"N c #FFB6D8",
"B c white",
/* pixels */
"6qpppppggggccccccccccpdpdqppaaaaaaaasssssssssyyyyyyppppyyyppaapp",
"77q00qq77776690000qqqwqqqyeyysssssssqqpppyyyyaaaaqpyyyyyppppyyss",
"ayyyqwyyyqqqq00wwwqq7367733gq<47q69936yyysssssddsq57qqaapppggccc",
"accgdggdsdsssyyyq0766000qqwhdppyyaasdddddgghhpssgggapy7qyyayyqqy",
"*$#::336777qwywtwadggggghhvhhhcccayqydpppyyqy51447yyq777qqq0qycg",
"2<311238wwypqqqyppyyyyyyqqbvqqypaaayyqqcccccgu0yqq1137qyyyyyyqcc",
"7q9qqq05333:1333*<3366qqqqbBvqq77770007yyyyyywypyypyqq99qyyyqqqq",
"ggdspyya9776777776666666600BBeeyyyytpaaaaaaassdddddddddsauyyyyyy",
"hgyasdsssffdspysaggdsspyq7BBB0wyyppqqyyyyyyvaauuqqqq07qyyaattq0q",
"pqcgy36w060ppssadasdddddssNbNrq74733ggpyyy9vBb3333<<22pppq9qqppy",
"0q37yssddsy7q070qcgy66q79ubvyaapappppupuyyppBBssgg6366qqqyp03ggd",
"6637yypssssayqtyepyyyye769wvy99qypsssggdppaabNBysappjppyyyqq9777",
"777577553659775377q99vyaayvyaghhgggggggayyyuyvNyypljjppapsssddda",
"y63312211<1<133656qpvbjsss3332133777qqqqqqqyyvyyllzjpypppuuuyups",
"*#<;::bvv33732<;*#O@vBb13333333<<66666666663v3llzzzv11<<<:::<<;;",
"OO@#$@vBBvOOOO**##@vBBBbOOOoooOo$$**$$$$$$$$llzzzvvv****;<<<<<<<",
"O*66666bBBqqqqq0222jBBBbl::2<<:*<<::::::::llzzzzvBb:::::;;;;****",
"33ppppppBBBNbvggggjBBBBzzlg:<<3333555666llzzzzvBBBb99qqqqqqqqqqq",
"y36666666Nbvv<v<22jBbBBzzl633355553333llzzzzzxBBBBbyyhddssppyyya",
"hppppppppppaaaapyjlbBBxzzzlqqyqqqyhhllzzzzzzxBBBBbqqytyqqqsdghhc",
"cp533<666q00qqqyjlNbbNbzvzvl767006llvzzzzzzxBBBBzjaspvcNcgapq9qp",
"hpaggytssspppppjllxNNvvvzzzvlgppllvvzzzvxNbBBBbzkjagvNvvNBccccgp",
"uuyqq726446666jllllxxxxxlzzvlsllzzzzxxxzvvNNbbzkjqq66633bBB36633",
"yyyyywqyyyyyaapjllllllxxxxlzzlzzzxxxxzz..jjNb.zkjpppppppyBBr8533",
"cccapdgssssddasjllllll.jxxxxxzxxxxxzz.jjjjjjj.kjggpppqq9vBbppgcc",
"g;*13535qtytyaaajllll.jjjjxxxxxxxzz.jjjjjjjjj.kj<<5qqyyppvpppggg",
"pdhggggdyq963<33jlllljjjjjj.xxxz.jjjjjjjjjjjj.kj9q7<1<<333566111",
"aappyyqyyyysssuuqjllljjjMjjjjl.jjjjjMjjjjjjjjkjyyqqyyyyywwe77qyy",
"qqyyyeqpppppppapppjll.jjmMjjjjjmjjMMMjjjjjjj.k 11yyyyyyyygsdsayy",
"777677744333226777jllljjjmMMjjmMMMMm jjjjjjj.k qqqqqqq764535qqqy",
"<3>:;::<*,,<;**$$$# ll.jj m MMM  Mm  jjjjjj.k 333444440077090060",
"XXXXXXXXXXXXXXXXXXXX ll.jj       Mm jjjjjjj.k XXXXXXXXXXXXXXXX##",
"71<:<3::;;::**;;<<1> llljj      Mm jjjjjjj.k ###$$##1::1111<<<;*",
"377997qqqqq000q777777 ll.j      M jjjjjjj.. 97776777qqqqqqqqqq99",
"gggggpppppppppupppppp llljj     Mjjjjjj... yypppyyyytqqyddddssdd",
"6qqqq<<366qqqqqqqqqqqq lljj      Mjjjj... yygdssssppppppppuwyq77",
"dppyypdsapypsdgpppaasp lljj      Mjj.... **3136333746q66369uyqay",
"gghhhgddsdppyqyqqtqwqw l.jj      jj.... 8yyqyyqq9qqpauaasyyyadsg",
"qq999999999qqq73<<:*:> ..jj     jj...  yyyypapssdyppypyyyaaapppp",
"ysssgcggpppq66qyy0yy4 ...jj     jj.. 7qqquypyppssqqq0yppaapppppp",
"dyyyq0qyppagpqq9yppsg ..jjjj    jj. dhhddppyyyq711313<<<15qppppa",
"3660ydaayyqq3qryyyyqy ..jjjj    jj.. 37330yypppsggggddddapyyyypd",
"333<<::<<<<::33313356 ...jjjj    jj. yyyyyqqyupyqqquuyaassdsppyq",
"gggggggggggggddddarq0a ...jjjj   jj.. 3<666377qwyapyppyyyqypyyaa",
"6636qqqqqqqqqqqqqqqyyyy ...jjjj   jj. yqqq6663*<<3376999qyqqyyqq",
"7qay00000000000000055555 ...jjjj  jj.. ::::11331<::***::<<<2777q",
"36:<22<<<<<<33<<<<:#11555 ....jjjjjjj. qqqq66666655531:;-:<;$$$6",
"XXXXXXXXXXXXXXXXXXXXXXXXXX  ....jjjjj.. XXXXXXXXXXXXXXXXXXXXXXXX",
"6qqq999q99999999999999963111  ....jjjj. :*******$$**;;;*;;<=*;%<",
"9006855asaapuyywqq777777767142   ...jj.v <@#%#::2222436336699551",
"886:$**::3379qqryyiyyqqq65596700q   ...v Nq76576676335343<<<355q",
"7qyyyqq121*-&**;<;;<279qyyaasurq0q51  vvv N57666679qqqqqyyyyyqq0",
"311339yqqyywy0q7662521-*&$#*-:3qywyyeq    nN9951<<>3qyyppqqq9qqy",
"ppy221<1:::::1<333760673363pyyyyrrrqqq32n  N6007q7632-<:<56qqqqq",
"36yqq7637757ypgcggdq660qw7q0q77344<2<:<ppNnN633670yypawqq9067qqq",
"cgggdddpyyyyqqqqq7qyypyyyyyypppsppayyytqq7576557yy99639979377769",
"yyyyyyy767614331<6657797000q00933336777qq7qyiiyqypppaayyyuapuypp",
"065555554460qqwyuuyqq770576666qqqqyyypppssgg6qqpsgggddayy721-:<:",
"6<112<:*:-:-*-*$$##:>22379qqqq766q9097eyyyeyyyyyqqq777qyqypaapwq",
"yt0777799990qqqqqqqqqqqq0qqqqqyyyyyaapayyyqq997qqqqyyyyyappassdd",
"669qtyyaagggggggggggssssytt23q6222<*-::::<<<:<;<<:<:::;;-113687q",
"6466611666666665566666666769666qqqeyyqqqqqq7970700qqqq6656566660",
"<#***$###$#+###$+###@+@@*#*$*:*:******#**$*%;#$###*#*:21<1<qq776",
"XXXXXXXXXXXXXXXXXXXXXXXXXXXXXXXXXXXXXXXXXXXXXXXXXXXXXXXXXXXXXXXX"
};
