/* XPM */
static char *d4912d0e7b48417bc1538c9d175d0875oh6lhyQWmewWB5X7[] = {
/* columns rows colors chars-per-pixel */
"32 32 211 2 ",
"   c #8D5734",
".  c #835A36",
"X  c #8B5835",
"o  c #845B38",
"O  c #8A5A39",
"+  c #935733",
"@  c #9C5532",
"#  c #905835",
"$  c #9C5935",
"%  c #AF4F2D",
"&  c #B34F2C",
"*  c #BB4E2B",
"=  c #A6542F",
"-  c #AB542E",
";  c #AA592E",
":  c #B3542C",
">  c #BC532A",
",  c #B55A2C",
"<  c #BA5C2A",
"1  c #A25430",
"2  c #A15933",
"3  c #B05330",
"4  c #B5632C",
"5  c #BC632A",
"6  c #BC6C2D",
"7  c #BF7629",
"8  c #D94F1D",
"9  c #D6521F",
"0  c #DB541D",
"q  c #D55C1F",
"w  c #DC5B1C",
"e  c #EE5D0F",
"r  c #E35517",
"t  c #E65B16",
"y  c #EA5C12",
"u  c #E25119",
"i  c #E35A19",
"p  c #D7651F",
"a  c #DB641D",
"s  c #DB6C1D",
"d  c #D9761E",
"f  c #DC7B1D",
"g  c #EE650F",
"h  c #EF6A0F",
"j  c #F0650E",
"k  c #F26D0B",
"l  c #EF740F",
"z  c #F87E06",
"x  c #F3730B",
"c  c #F37C0A",
"v  c #EB6313",
"b  c #E96D14",
"n  c #E26419",
"m  c #E36C19",
"M  c #EC7112",
"N  c #E67C16",
"B  c #E97A14",
"V  c #E1721A",
"C  c #E47A18",
"Z  c #C64E27",
"A  c #CE4D22",
"S  c #C24F28",
"D  c #D04E22",
"F  c #C45527",
"G  c #CB5324",
"H  c #C65B26",
"J  c #CC5B24",
"K  c #C15428",
"L  c #C25929",
"P  c #D35421",
"I  c #D45D21",
"U  c #C56327",
"Y  c #CC6424",
"T  c #C96926",
"R  c #C36428",
"E  c #D56521",
"W  c #D46B21",
"Q  c #CA7525",
"!  c #CE7424",
"~  c #D17022",
"^  c #D47A21",
"/  c #DE8D1C",
"(  c #D8951F",
")  c #DF9A1C",
"_  c #F68406",
"`  c #F68C06",
"'  c #F98E06",
"]  c #F3830A",
"[  c #F28C0B",
"{  c #EF940F",
"}  c #F99304",
"|  c #F89B05",
" . c #F3950C",
".. c #F8920A",
"X. c #F59B0B",
"o. c #F99F0E",
"O. c #EB8413",
"+. c #E58A16",
"@. c #ED8D12",
"#. c #F48714",
"$. c #E79417",
"%. c #ED9412",
"&. c #EB9F15",
"*. c #E3961A",
"=. c #E39A1A",
"-. c #F09112",
";. c #F9951C",
":. c #F9A305",
">. c #F8A805",
",. c #F6A40B",
"<. c #F2AB0E",
"1. c #FAAD0A",
"2. c #FAB304",
"3. c #FBBB03",
"4. c #F9B40B",
"5. c #FABB09",
"6. c #EDA514",
"7. c #EAAE16",
"8. c #E2A21B",
"9. c #E3AC1B",
"0. c #E9A819",
"q. c #F8A713",
"w. c #EDB213",
"e. c #EEBD15",
"r. c #EBBA1B",
"t. c #FAB413",
"y. c #FAB915",
"u. c #F9B41A",
"i. c #F4B818",
"p. c #D28D23",
"a. c #CC9726",
"s. c #F88F23",
"d. c #F7972E",
"f. c #FB9839",
"g. c #D7B429",
"h. c #D9BB2A",
"j. c #FAA924",
"k. c #EDB829",
"l. c #F9B623",
"z. c #F4B82B",
"x. c #FABC2B",
"c. c #EEB63D",
"v. c #F6BD39",
"b. c #FBC407",
"n. c #FCCA03",
"m. c #F6C70F",
"M. c #FBC40B",
"N. c #FCCE0C",
"B. c #FDD709",
"V. c #F1C314",
"C. c #F4CB15",
"Z. c #FCCA14",
"A. c #FCC419",
"S. c #FCCA1C",
"D. c #FCDC11",
"F. c #FAD817",
"G. c #FDE419",
"H. c #DEC42E",
"J. c #EFC424",
"K. c #FAC425",
"L. c #FBC928",
"P. c #FBDA24",
"I. c #FCD52D",
"U. c #F7DD2A",
"Y. c #FBDD2B",
"T. c #FAC83A",
"R. c #FCD43B",
"E. c #FBD93C",
"W. c #FBE325",
"Q. c #FDE42D",
"!. c #FAE736",
"~. c #FAE33E",
"^. c #FB9648",
"/. c #F7C846",
"(. c #FACB45",
"). c #FAD544",
"_. c #F6C656",
"`. c #F9C551",
"'. c #F6CE52",
"]. c #FACB51",
"[. c #FAD256",
"{. c #FCDD53",
"}. c #FCD35C",
"|. c #FCDB5B",
" X c #FBEB44",
".X c #FBE64A",
"XX c #EFE35B",
"oX c #FBE953",
"OX c #F5E559",
"+X c #F9EE5D",
"@X c #FBCF67",
"#X c #FAC66D",
"$X c #FCDB67",
"%X c #F7C770",
"&X c #FCCC74",
"*X c #FCD373",
"=X c #FDD27B",
"-X c #FFE563",
";X c #FAEE64",
":X c #F6E96C",
">X c #FAED6B",
",X c #FBF166",
"<X c #FBEA78",
"1X c #FBF07C",
"2X c #FCD483",
"3X c #FDDB87",
"4X c #FEE289",
"5X c #FCF284",
"6X c #FCF38C",
"7X c #FEF495",
"8X c #FFF49B",
/* pixels */
". . . X # 1 : H ^ 0._.2X2X'.9.d J K & 1 +   X . . . . . . . . . ",
". . .   @ = > Y ^ =.c.#X%Xc.6.s 0 D S * % 1 @   . . . . . . . . ",
". . X + 1 , H p ^ =.9.k.z.6.O.v r i P J F > % @ + X . . . . . . ",
". .   @ ; 4 T d +.0.w.w.6.@.x v v b V s E G * = @   . . . . . . ",
". X + = , 5 Q ( 9.r.V.e.<. .c k l #.%.+.d w G * 1 @ + . . . . . ",
". # @ ; 5 Q p.9.J.T.'.T.i.,.[ ] #.f.f.;.O.n 0 Z & 1 +   . . . . ",
". + @ ; R Q ( r./.$X*X@X/.q.X.' s.^.^.d.#.b i D Z % @ + . . . . ",
". # @ , R Q 8.k.'.=X2X&X].u.:.| ;.f.f.;.] v t 0 8 * % @ . . . . ",
". + @ , Y d ) r.`.&X&X#X`.y.2.>.| o.o...z k e 0 8 A > & @ # X . ",
". # @ : H s +.6.z.`._.`.L.M.b.4.4.1.:.} _ x j e r 8 A > % = + X ",
". X = & G a N  .q.l.K.L.N.n.Z.A.y.y.1.:.} _ l h y n w G S - @ + ",
". X 1 & A w b ] } ,.5.M.B.F.P.I.T.L.y.>.:.} ` ] l b n q G : - @ ",
". X @ * A 0 e k _ | 2.n.D.Q.oX|.[.(.L.t.3.2.>.,. .@.N s J L , = ",
". X @ * A u e k _ | 3.B.W.oX<X3X=X@X(.S.n.n.b.b.2.<.%.C s H , ; ",
". X @ * A u e k _ >.n.B.!.>X4X3X2X&X[.I.D.D.W.U.P.C.w.&.f Y < , ",
". X = * D r j x } 3.B.G. X<X4X3X2X&X$XQ.G.!.;X>X+X~.C.7./ ! H , ",
".   = * D i h ] :.b.Y.Q. X:X4X3X=X*X{.Q.!.,X6X7X6X,XU.e.( ~ U , ",
".   @ * P i M [ :.S.)..X.XoX:X*X*X}.~.W. X5X8X8X7X1X~.V.8.p.T < ",
".   @ * G w M [ ,.K.[.-XoX).{.[.].).Y.Q. X5X8X8X7X1X!.V.=.p.U < ",
".   @ : G w M [ :.x.[.-X-X{.E.I.S.Z.I.E.~.>X5X6X5X,XW.e.) d U , ",
". X + : L I m @.X.u./.}.$X{.R.Z.M.A.T.R.E. X+X+XOXQ.C.0./ ! U , ",
"  X # - > P a B  .,.l.T.(.R.L.b.3.4.x.v.T.R.Y.P.F.C.w.*.d U < - ",
"+ X   1 : H I V O. .X.t.t.y.2.>.:.:.o.j.x.x.Z.m.V.w.$./ s U < - ",
"1   X @ - > J E V O.-. .,.:.| | } ' ' ..o.,.<.<.&.$.f W Y < - 1 ",
"1   . # 2 : < q a m N O.#.] ] ] c z ] ] ] @.{ @.C d s Y < : ; + ",
"1   . X + = : > J I a m b b h h g h h l B B B s a p J > : = @ # ",
"# X X X # + = : > F P I w i i t t t n t n a a q J F > - = @   X ",
"# 2 ; ; @ + + @ - 3 > K G G P 9 9 9 q 9 9 J H F : : ; 1 +   . . ",
"$ 4 7 7 5 1 #   + 1 = 3 & * * > > S K > : : : : = @ @ + X . . . ",
"4 a.H.H.a.4 $ O O # + $ @ 1 % = = = = ; = = @ @ @ +   X X X X . ",
"7 h.:X:Xh.6 2 O . o o           + + + +   + # + + + + + + + +   ",
"6 g.XXXXg.6 2 o . . o o o o X . X . X . #   + + @ = = = @ = @ + "
};
