/* XPM */
static char *bf998488f3e54feebbe86196ddbc5d1btHDY7CrgKiLpockt[] = {
/* columns rows colors chars-per-pixel */
"64 64 55 1 ",
"  c #15132A",
". c #34383C",
"X c #4A2C0F",
"o c #4B2D10",
"O c #4C2E11",
"+ c #4E3013",
"@ c #4F3114",
"# c #513215",
"$ c #523417",
"% c #543517",
"& c #533418",
"* c #553518",
"= c #58371A",
"- c #57381B",
"; c #59391B",
": c #5B3B1E",
"> c #5C3B1E",
", c #5B3C1E",
"< c #5D3C1F",
"1 c #5F3E20",
"2 c #603F20",
"3 c #614022",
"4 c #644323",
"5 c #644224",
"6 c #664425",
"7 c #6A4727",
"8 c #6B4827",
"9 c #694728",
"0 c #6A4828",
"q c #6E4B2A",
"w c #6F4C2B",
"e c #6F4C2C",
"r c #704B2B",
"t c #704C2B",
"y c #734F2E",
"u c #744F2E",
"i c #73502E",
"p c #76512F",
"a c #765130",
"s c #785331",
"d c #7A5432",
"f c #7C5633",
"g c #7D5734",
"h c #7F5936",
"j c #262941",
"k c #374B53",
"l c #4A4056",
"z c #685B6B",
"x c #727272",
"c c #805936",
"v c #83299B",
"b c #FF40E1",
"n c #48A7DC",
"m c #E3DDA9",
"M c #FFB6D8",
/* pixels */
"6qpppppggggccccccccccpdpdqppaaaaaaaasssssssssyyyyyyppppyyyppaapp",
"77q00qq77776690000qqqwqqqyeyysssssssqqpppyyyyaaaaqpyyyyyppppyyss",
"ayyyqwyyyqqqq00wwwqq7367733gq<47q69936yyysssssddsq57qqaapppggccc",
"accgdggdsdsssyyyq0766000qqwhdppyyaasdddddgghhpssgggapy7qyyayyqqy",
"*$#::336777qwywtwadggggghhhhhhcccayqydpppyyqy51447yyq777qqq0qycg",
"2<311238wwypqqqyppyyyyyyqqqqqqypaaayyqqcccccgu0yqq1137qyyyyyyqcc",
"7q9qqq05333:1333*<3366qqqqqqqqq77770007yyyyyywypyypyqq99qyyyqqqq",
"ggdspyya97767777766666666000qeeyyyytpaaaaaaassdddddddddsauyyyyyy",
"hgyasdsssffdspysaggdsspyq77q00wyyppqqyyyyyyyppuuqqqq07qyyaattq0q",
"pqcgy36w060ppssadasdddddssspprq74733ggpyyy99<<3333<<22pppq9qqppy",
"0q37yssddsy7q070qcgy66q79uqpyaapappppupuyyppssssgg6366qqqyp03ggd",
"6637yypssssayqtyepyyyye769wqy99qypsssggdppaadddysappjppyyyqq9777",
"777577553659775377q99jyaayqyaghhgggggggayyyuyyyyypljjppapsssddda",
"y63312211<1<133656qpjljsss3332133777qqqqqqqyyyyyllzjpypppuuuyups",
"*#<;::<<333732<;*#O@jlj13333333<<6666666666333llzzzj11<<<:::<<;;",
"OO@#$@$$:OOOOO**##@jllzlOOOoooOo$$**$$$$$$$$llzzzzzj****;<<<<<<<",
"O*6666666qqqqqq0222jllzzl::2<<:*<<::::::::llzzzzzzj:::::;;;;****",
"33pppppppppgggggggjlllzzzlg:<<3333555666llzzzzzxzzj99qqqqqqqqqqq",
"y3666666666<<<<<22jlxxxzzl633355553333llzzzzzxxzzzjyyhddssppyyya",
"hppppppppppaaaapyjlllxxzzzlqqyqqqyhhllzzzzzzxxxzzjqqytyqqqsdghhc",
"cp533<666q00qqqyjllxxxxzzzzl767006llzzzzzzzxxxzzzjasppcccgapq9qp",
"hpaggytssspppppjllxxxxxlzzzzlgppllzzzzzxxzxzxzzzkjagggccccccccgp",
"uuyqq726446666jllllxxxxxlzzzlsllzzzzxxxzzz.jjzzkjqq6663333336633",
"yyyyywqyyyyyaapjllllllxxxxlzzlzzzxxxxzz..jjjj.zkjpppppppyq7r8533",
"cccapdgssssddasjllllll.jxxxxxzxxxxxzz.jjjjjjj.kjggpppqq9qqpppgcc",
"g;*13535qtytyaaajllll.jjjjxxxxxxxzz.jjjjjjjjj.kj<<5qqyyppppppggg",
"pdhggggdyq963<33jlllljjjjjj.xxxz.jjjjjjjjjjjj.kj9q7<1<<333566111",
"aappyyqyyyysssuuqjllljjjmjjjjl.jjjjjmjjjjjjjjkjyyqqyyyyywwe77qyy",
"qqyyyeqpppppppapppjll.jjnmjjjjjnjjmmmjjjjjjj.k 11yyyyyyyygsdsayy",
"777677744333226777jllljjjnmmjjnmmmmn jjjjjjj.k qqqqqqq764535qqqy",
"<3>:;::<*,,<;**$$$# ll.jj n mmm  mn  jjjjjj.k 333444440077090060",
"XXXXXXXXXXXXXXXXXXXX ll.jj       mn jjjjjjj.k XXXXXXXXXXXXXXXX##",
"71<:<3::;;::**;;<<1> llljj      mn jjjjjjj.k ###$$##1::1111<<<;*",
"377997qqqqq000q777777 ll.j      m jjjjjjj.. 97776777qqqqqqqqqq99",
"gggggpppppppppupppppp llljj     mjjjjjj... yypppyyyytqqyddddssdd",
"6qqqq<<366qqqqqqqqqqqq lljj      mjjjj... yygdssssppppppppuwyq77",
"dppyypdsapypsdgpppaasp lljj      mjj.... **3136333746q66369uyqay",
"gghhhgddsdppyqyqqtqwqw l.jj      jj.... 8yyqyyqq9qqpauaasyyyadsg",
"qq999999999qqq73<<:*:> ..jj     jj...  yyyypapssdyppypyyyaaapppp",
"ysssgcggpppq66qyy0yy4 ...jj     jj.. 7qqquypyppssqqq0yppaapppppp",
"dyyyq0qyppagpqq9yppsg ..jjjj    jj. dhhddppyyyq711313<<<15qppppa",
"3660ydaayyqq3qryyyyqy ..jjjj    jj.. 37330yypppsggggddddapyyyypd",
"333<<::<<<<::33313356 ...jjjj    jj. yyyyyqqyupyqqquuyaassdsppyq",
"gggggggggggggddddarq0a ...jjjj   jj.. 3<666377qwyapyppyyyqypyyaa",
"6636qqqqqqqqqqqqqqqyyyy ...jjjj   jj. yqqq6663*<<3376999qyqqyyqq",
"7qay00000000000000055555 ...jjjj  jj.. ::::11331<::***::<<<2777q",
"36:<22<<<<<<33<<<<:#11555 ....jjjjjjj. qqqq66666655531:;-:<;$$$6",
"XXXXXXXXXXXXXXXXXXXXXXXXXX  ....jjjjj.vMXXXXXXXXXXXXXXXXXXXXXXXX",
"6qqq999q99999999999999963111  ....jjjjv M*******$$**;;;*;;<=*;%<",
"9006855asaapuyywqq777777767142   .vvjj.vMb@#%#::2222436336699551",
"886:$**::3379qqryyiyyqqq65596700q  Mvv.v Mb76576676335343<<<355q",
"7qyyyqq121*-&**;<;;<279qyyaasurq0q5M  vvv Mb7666679qqqqqyyyyyqq0",
"311339yqqyywy0q7662521-*&$#*-:3qywyyMM    Mb9951<<>3qyyppqqq9qqy",
"ppy221<1:::::1<333760673363pyyyyrrrqqqMMb  b6007q7632-<:<56qqqqq",
"36yqq7637757ypgcggdq660qw7q0q77344<2<:<ppbb1633670yypawqq9067qqq",
"cgggdddpyyyyqqqqq7qyypyyyyyypppsppayyytqq7576557yy99639979377769",
"yyyyyyy767614331<6657797000q00933336777qq7qyiiyqypppaayyyuapuypp",
"065555554460qqwyuuyqq770576666qqqqyyypppssgg6qqpsgggddayy721-:<:",
"6<112<:*:-:-*-*$$##:>22379qqqq766q9097eyyyeyyyyyqqq777qyqypaapwq",
"yt0777799990qqqqqqqqqqqq0qqqqqyyyyyaapayyyqq997qqqqyyyyyappassdd",
"669qtyyaagggggggggggssssytt23q6222<*-::::<<<:<;<<:<:::;;-113687q",
"6466611666666665566666666769666qqqeyyqqqqqq7970700qqqq6656566660",
"<#***$###$#+###$+###@+@@*#*$*:*:******#**$*%;#$###*#*:21<1<qq776",
"XXXXXXXXXXXXXXXXXXXXXXXXXXXXXXXXXXXXXXXXXXXXXXXXXXXXXXXXXXXXXXXX"
};
