/* XPM */
static char *_c02a7c5bd9849cda1fc5084c0b4bfa2[] = {
/* columns rows colors chars-per-pixel */
"64 64 46 1 ",
"  c #2E002F",
". c #4A2C0F",
"X c #4C2E11",
"o c #4F3013",
"O c #4F3114",
"+ c #513215",
"@ c #523417",
"# c #543517",
"$ c #533418",
"% c #553518",
"& c #58371A",
"* c #57381B",
"= c #59391B",
"- c #5B3B1E",
"; c #5C3B1E",
": c #5B3C1E",
"> c #5D3C1F",
", c #5F3E20",
"< c #603F20",
"1 c #614022",
"2 c #644323",
"3 c #644224",
"4 c #664425",
"5 c #6A4727",
"6 c #6B4827",
"7 c #694728",
"8 c #6A4828",
"9 c #6E4B2A",
"0 c #6F4C2B",
"q c #6F4C2C",
"w c #704B2B",
"e c #704C2B",
"r c #734F2E",
"t c #744F2E",
"y c #73502E",
"u c #76512F",
"i c #765130",
"p c #785331",
"a c #7A5432",
"s c #7C5633",
"d c #7D5734",
"f c #7F5936",
"g c #805936",
"h c #8D358F",
"j c #FDD7B0",
"k c #FEF0C3",
/* pixels */
"49uuuuuddddgggggggggguaua9uuiiiiiiiippppppppprrrrrruuuurrruuiiuu",
"5598899555544788889990999rq           uuurrrriiii9urrrrruuuurrpp",
"irrr90rrr9999880009951455  kkkkkkkkjjj rrpppppaap93599iiuuuddggg",
"iggdaddapappprrr98544888 kkkkkkkkkkkkjj addffuppdddiur59rrirr99r",
"%@+--11455590r0e0iadddd kkkkkkkkkkkkkkjj rr9r3,225rr955599989rgd",
"<>1,,<1600ru999ruurrrrr kkkkkkkkkkkkkkkj gggdt8r99,,159rrrrrr9gg",
"59799983111-,111%>1144 kkkkkkkkkkkkkkkkjj rrr0rurrur99779rrr9999",
"ddapurri75545555544444 kkkkkkkkkkkkkkkkkj iippaaaaaaaaapitrrrrrr",
"fdripapppssapurpiddapp kk    kkkk     kkj rruutt9999859rriiee989",
"u9gdr140848uuppiaipaa kk     kkkk      kkj 7>>1111>><<uuu9799uur",
"8915rppaapr598589gdr4 kk     kkkk      kkj uppppdd4144999ru81dda",
"4415rruppppir9erqurrr kk    kkkkkk     kkj iaaarpi     rrr997555",
"55535533143755315597 kkhhhhhkkkkkkhhhhhhkjj rrrrr jjjjj upppaaai",
"r411,<<,,    114349u kkhhhhkkkkkkkkhhhhhkjj rrrrr kkjjj utttrtup",
"%+>=-->> kkkk >=%+XO kkkkkkkkkkkkkkkkkkkkjj 1111 jkkkjj >--->>==",
"XXO+@O@@ kkkkk %++Oo kkkkkkkk   kkkkkkkkkkjj @@@ jkkkjj =>>>>>>>",
"X%444444 kkkkkj <<<< kkkkkkkk   kkkkkkkkkkjj >> jjkkkjj ====%%%%",
"11uuuuuu kkkkkj dddd kkkkkkkk   kkkkkkkkkkkjj  jjjkkkjj 99999999",
"r1444444 kkkkkkj << jkkkkkkkkkkkkkkkkkkkkkkjjjjjjkkkkjj ppuurrri",
"fuuuuuuu kkkkkkjj  jjkkkkkkkkkkkkkkkkkkkkkkjjjjjjkkkkjj 99padffg",
"gu311>444 jkkkkkjjjjjkkkkkkkkkkkkkkkkkkkkkkkjjjjkkkkjj ggdiu979u",
"fuiddrepp jkkkkkjjjjkkkkkkkkkkkkkkkkkkkkkkkkjjjjkkkkjj gggggggdu",
"ttr995<422 jkkkkkjjkkkkkkkkkkkkkkkkkkkkkkkkkkjjkkkkkjj 111114411",
"rrrrr09rrr jkkkkkkkkkkkkkkkkkkkkkkkkkkkkkkkkkkkkkkkjj uur95w6311",
"gggiuadppp jkkkkkkkkkkkkkkkkkkkkkkkkkkjkkkkkkkkkkkkjj 9799uuudgg",
"d=%,13139e jkkkkkkkkkkkkkkkkkkkkkkkkkkjkkkkkkkkkkkkjj ruuuuuuddd",
"uafddddar97 kkkkkkkkkkkkkkkkkkkkkkkkkkjkkkkkkkkkkkkjj >111344,,,",
"iiuurr9rrrr kkkkkkkkkkkkkkkkkkkkkkkkkkjkkkkkkkkkkkkjj rr00q559rr",
"99rrrq9uuuu kkkkkkkkkkkkkkkkkkkkkkkkkkjkkkkkkkkkkkjj rrrrdpapirr",
"55545552211 kkkkkkkkkkkkkkkkkkkkkkkkkkkkkkkkkkkkkkjj 9542313999r",
">1;-=-->%:: kkkkkkkkkkkkkkkkkkkkkkkkkkkkkkkkjkkkkkjj 28855878848",
"........... kkkkkkkkkkkkkkkkkkkkkkkkkkkkkkkkjkkkkjj ..........++",
"5,>->1--== jkkkkkkkjkkkkkkkkkkkkkkkkkkkkkkkkjkkkkjj ,--,,,,>>>=%",
"1557759999 jkkkkkkkjkkkkkkkkkkkkkkkkkkkkkkkkjkkkkjj 999999999977",
"ddddduuuuu jkkkkkkkjkkkkkkkkkkkkkkjkkkkkkkkkjjkkjj re99raaaappaa",
"49999>>144 jkkkkkkkjkkkkkkkkkkkkkkjkkkkkkkkkjjkkjj uuuuuuuu0r955",
"auurruapiu jkkkkkkkjkkkkkkkkkkkkkkjkkkkkkkkkjjjjj 524944147tr9ir",
"ddfffdaapa jkkkkkkkjkkkkkkkkkkkkkkjkkkkkkkkjjjjjj 9uitiiprrriapd",
"99777777777 kkkkkkjjkkkkkkkkkkkkkkjkkkkkkkkjjjjjj uururrriiiuuuu",
"rpppdgdduuu9 kkkkkjjkkkkkkkkkkkkkkjkkkkkkkjjjjjjj 998ruuiiuuuuuu",
"arrr989ruuid jkkkkjjjkkkkkkkkkkkkkjkkkkkkkjjjjjj ,1,1>>>,39uuuui",
"1448raiirr99 jkkkkjjjkkkkkkkkkkkkjjkkkkkkkjjjjjj dddaaaaiurrrrua",
"111>>-->>>>- jkkkkjjjkkkkkkkkkkkkjjkkkkkkkjj  jj 99ttriippapuur9",
"dddddddddddd jkkkkjjjkkkkkkkkkkkkjjkkkkkkkj 55  riuruurrr9rurrii",
"441499999999 j kkkjjjkjkkkkkkkkkkjjkkkkkkkj 41  >11547779r99rr99",
"59ir888888888 8 kkjjjkjkkkkkkkkkkjjjkkkkkkj ,11 >--%%%-->>><5559",
"14-><<>>>>>>11>> kjjjkjkkkkkkkkkkjjjkkkkkk 4444 43331,-=*->=@@@4",
"................ kjjjkjkkkkkkkkkkjjjkkkkk  .... ................",
"49997779777777777 jjjkjkkkkkkkkkkjjjkkkk % %%%%%@@%%===%==>&%=#>",
"7884633ipiiutrr099  jkjkkkkkkkkkkjjjkkk >> +#+--<<<<21411447733,",
"664-@%%--115799wrryr kjkkkkkkkkkkjjjkk  rr 54354454113121>>>1339",
"59rrr99,<,%*$%%=>==> kjkkkkkkjkkkjjjk 7999 3544445799999rrrrr998",
"1,,117r99rr0r89544<3< jkkkkkkjkkkjjj 9qrig98773,>>;19rruu999799r",
"uur<<,>,-----,>111548 jkkkkkkjkkkjjj 91<1,,448859541<*>->3499999",
"14r995415535rudgdda944 k  kkkjkkkj  >->uuar,411458rrui0997845999",
"gdddaaaurrrr9999959rru  rr kkjjkk i rre995354335rr77417757155547",
"rrrrrrr5454,211,>44355 588 kjjjkk 145559959ryyr9ruuuiirrrtiutruu",
"843333332248990rttr99558354 jjjk 9rrruuuppdd499updddaairr5<,*->-",
"4>,,<>-%-*-*%*%@@++-;<<1579 jjjk 97875qrrrqrrrrr9995559r9ruiiu09",
"re85555777789999999999998999 jjk rriiuirrr997759999rrrrriuuippaa",
"4479erriidddddddddddppppree<1 j <<>%*---->>>->=>>->---==*,,14659",
"42444,,44444444334444444454744 999qrr999999575858899994434344448",
">+%%%@+++@+o+++@o+++OoOO%+%@%- -%%%%%%+%%@%#=+@+++%+%-<,>,>99554",
"................................................................"
};
