/* XPM */
static char *e0355cad4cbb4c6682c5140900be4da4[] = {
/* columns rows colors chars-per-pixel */
"64 64 43 1 ",
"  c #2E002F",
". c #4A2C0F",
"X c #4D2F12",
"o c #4F3114",
"O c #523316",
"+ c #553619",
"@ c #58371A",
"# c #57381B",
"$ c #5B3B1D",
"% c #5F3E20",
"& c #603F21",
"* c #5F4023",
"= c #644324",
"- c #6B4827",
"; c #694728",
": c #6A4728",
"> c #6A4828",
", c #6E4B2A",
"< c #6F4C2B",
"1 c #6B4B2D",
"2 c #6E4B2C",
"3 c #6F4C2C",
"4 c #704B2B",
"5 c #704C2B",
"6 c #734F2E",
"7 c #744F2E",
"8 c #73502E",
"9 c #76512F",
"0 c #704F30",
"q c #715033",
"w c #765130",
"e c #775535",
"r c #785331",
"t c #7A5432",
"y c #7C5633",
"u c #7A5434",
"i c #7D5734",
"p c #7F5936",
"a c #805936",
"s c #805B39",
"d c #8D358F",
"f c #FDD7B0",
"g c #FEF0C3",
/* pixels */
"=,99999iyiiaaaaaaaaaa9t9t,99wwwwwwwwrrrrrrrrr666666999966699ww99",
"::,>>,,::::==:>>>>,,,<,,,63           9996666wwww,966666999966rr",
"w666,<666,,,,>><<<,,:==::  ggggggggfff 66rrrrrttr,=:,,ww999iiaaa",
"waaitiitrtrrr666,>:==>>> ggggggggggggff tiipp9rriiiw96:,66w66,,6",
"+OO$$===:::,<6<5<wtiiii ggggggggggggggff 66,6=%==:66,:::,,,>,6ai",
"&$=%%&=-<<69,,,69966666 gggggggggggggggf aaai7>6,,%%=:,666666,aa",
":,:,,,>====$%===+$==== ggggggggggggggggff 666<696696,,::,666,,,,",
"iitr966w:::=:::::===== gggggggggggggggggf wwrrtttttttttrw7666666",
"pi6wrtrrryytr96rwiitrr gg    gggg     ggf 669966,,,,>:,66ww55,>,",
"9,ai6==<>=>99rrwtwrtt gg     gggg      ggf :$$&===$$&&999,:,,996",
">,=:6rrttr6:,>:>,ai6= gg     gggg      ggf 9rrrrii====,,,69>=iit",
"===:669rrrrw6,5639666 gg    gggggg     ggf wttr6rw     666,,::::",
":::=::=====:::==::,: ggdddddggggggddddddgff 66666 fffff 9rrrtttw",
"6===%&    %$%=====,9 ggddddggggggggdddddgff 66666 ggfff 9777679r",
"+O$#$ gggg >=%$#+OXo ggggggggggggggggggggff ==== fgggff $$$$$$##",
"XXoOO ggggg OO++OOoo gggggggg   ggggggggggff OOO fgggff #$$$$$$$",
"X+=== gggggf 3,>&&&& gggggggg   ggggggggggff $$ ffgggff ####++++",
"==999 gggggf spiiiii gggggggg   gggggggggggff  fffgggff ,,,,,,,,",
"6==== ggggggf ==&&& fggggggggggggggggggggggffffffggggff rr99666w",
"p9999 ggggggff     ffggggggggggggggggggggggffffffggggff ,,rtippa",
"a9===$ fgggggffffffffgggggggggggggggggggggggffffggggff aaiw9,:,9",
"p9wii6 fggggggffffffggggggggggggggggggggggggffffggggff aaaaaaai9",
"776,,:& fggggggffffggggggggggggggggggggggggggffgggggff =========",
"66666<,6 fgggggggggggggggggggggggggggggggggggggggggff 996,:4-===",
"aaaw9tir fggggggggggggggggggggggggggggfggggggggggggff ,:,,999iaa",
"i#+%==== fggggggggggggggggggggggggggggfggggggggggggff 6999999iii",
"9tpiiiit6 fgggggggggggggggggggggggggggfggggggggggggff $======%%%",
"ww9966,666 gggggggggggggggggggggggggggfggggggggggggff 66<<3::,66",
",,6663,9999 ggggggggggggggggggggggggggfgggggggggggff 6666irtrw66",
":::=:::==== ggggggggggggggggggggggggggggggggggggggff ,:=====,,,6",
"$=$$#$$$+$$ ggggggggggggggggggggggggggggggggggggggff =>>::>:>>=>",
"........... gggggggggggggggggggggggggggggggggggggff ..........OO",
":%$$$=$$## fgggggggfgggggggggggggggggggggggggggggff %$$%%%%$$$#+",
"=:::::,,,, fgggggggfgggggggggggggggggggggggggggggff ,,,,,,,,,,::",
"iiiii99999 fgggggggfggggggggggggggfgggggggggggggff 65,,6ttttrrtt",
"=,,,,$$=== fgggggggfggggggggggggggfgggggggggggggff 99999999<6,::",
"t99669trw9 fgggggggfggggggggggggggfggggggggggggff :==,====:76,w6",
"iipppittrt fgggggggfggggggggggggggfggggggggggggff ,9w7wwr666wtri",
",,::::::::: ggggggffggggggggggggggfggggggggggggff 9969666www9999",
"6rrriaii999, gggggffggggggggggggggfgggggggfggggff ,,>699ww999999",
"t666,>,699wi fggggfffgggggggggggggffggggggfggggf %=%=$$$%=,9999w",
"===>6tww66,, fggggfffggggggggggggfffggggfgfggggf iiittttw966669t",
"===$$$$$$$$$ ffgggfffggggggggggggfffggggfffggggf ,,776wwrrtr996,",
"iiiiiiiiiiii ffgggfffggggggggggggffgggggfffgggg ww9699666,6966ww",
"====,,,,,,,, ffgggfffgfggggggggggffgggggfffgggg %==:=:::,6,,66,,",
":,w6>>>>>>> fffgggfffgfggggggggggfggggggggfgggg $$$+++$$$$$&:::,",
"==$$&&$$$$$ ffggggffggfggggggggggfgggggggggggg ::====%$##$$#OOO=",
"........... ffggggffggfgggggggfggggggggggggggg X................",
"=,,,:::,::: ffggggfgggfgggggggfgggggggggggggg %#OO++###+##$@+#+$",
":>>=-==wwww ffggggggggggggg ggffggggggggggggg %$%&&&=======::==%",
"--=$O++$$==: fgggggggggggg : gffggggggggggggg >==:=======$$$===,",
":,666,,%&%+$ gggfggggggggg w fffg  gggggggggg ===::,,,,,66666,,>",
"=%%==:6,,666w ggggggggggg O# ff  67 gggggggg 2=%$$$=,6699,,,:,,6",
"996&&%$%$$#$$* ggggggggg >=we f 644 gggggggg >>:,:==&#$$$==,,,,,",
"==6,,:==::=:6wp gggggggg :,,3q 1==$& gggggg ====:>669w<,,:>=:,,,",
"aiiittt96666,,3 ggggggg 66669t u99w26 ggggg ===:66::==::::=:::=:",
"6666666:=:=%===% gggggg >>>,>>:=====: ggggg 886,6999ww6667w97699",
">==========>,,<6 ggggg  =:====,,,,666 gggg p=,,9riiittw66:&%#$$$",
"=$%%&$$+$#$#+#+OO ggg &=::,,,20==,:>:: ggg 66666,,,:::,6,69ww9<,",
"65>::::::::>,>,,,, gg ,,>,,,,,66666ww9w g 3,:::,,,,66666w99wrrtt",
"==:,566wwiiiiiiiii gg rr655&=,1%&&$+#$$ g $$$$#$$$$$$$###%%==-:,",
"=====%%=========== g ====:=:===,,,366,,, ,>>::>:>>,,,,=========>",
"$O+++OOOOOOoOOOOoOO oooo+O+O+$+$++++++O+ O++#OOOOO+O+$&%$%$,,::=",
"................................................................"
};
