/* XPM */
static char *_3430d9680bd43b98c338be9db17bb93Ko4PNRG91YasP8LG[] = {
/* columns rows colors chars-per-pixel */
"32 32 167 2 ",
"   c #030303",
".  c #090606",
"X  c #090806",
"o  c #0C0C0C",
"O  c #100707",
"+  c #130A04",
"@  c #160E0A",
"#  c #12100D",
"$  c #1F100A",
"%  c #1F1B0F",
"&  c #0E0F10",
"*  c #121212",
"=  c #181611",
"-  c #1D1B15",
";  c #161819",
":  c #1B1B1B",
">  c #22130A",
",  c #2C1A0F",
"<  c #241E16",
"1  c #331F13",
"2  c #2B261D",
"3  c #2E291F",
"4  c #332214",
"5  c #392119",
"6  c #37291A",
"7  c #1B1E20",
"8  c #232425",
"9  c #2E2A23",
"0  c #24292B",
"q  c #292A2B",
"w  c #332D22",
"e  c #363024",
"r  c #3A3327",
"t  c #35332B",
"y  c #3B3629",
"u  c #3E382B",
"i  c #2D3134",
"p  c #2E3539",
"a  c #3A3B3C",
"s  c #402919",
"d  c #4C341E",
"f  c #533C1F",
"g  c #482424",
"h  c #482F2F",
"j  c #433C2C",
"k  c #453E31",
"l  c #493E36",
"z  c #41412D",
"x  c #474131",
"c  c #4A4333",
"v  c #4A4A35",
"b  c #4F493B",
"n  c #534733",
"m  c #504936",
"M  c #534B3A",
"N  c #495A33",
"B  c #595936",
"V  c #57503B",
"C  c #59513C",
"Z  c #654229",
"A  c #744F2D",
"S  c #76572C",
"D  c #625139",
"F  c #4F6639",
"G  c #57783C",
"H  c #3E4447",
"J  c #494849",
"K  c #544C49",
"L  c #5C5442",
"P  c #575A5B",
"I  c #555B5D",
"U  c #605741",
"Y  c #665C45",
"T  c #695F47",
"R  c #625B4A",
"E  c #655958",
"W  c #696047",
"Q  c #6C6249",
"!  c #71664C",
"~  c #74694E",
"^  c #796E52",
"/  c #7E7255",
"(  c #626262",
")  c #696768",
"_  c #736564",
"`  c #7C776A",
"'  c #6B6F71",
"]  c #815A36",
"[  c #89673E",
"{  c #976A3A",
"}  c #837759",
"|  c #867A5B",
" . c #997753",
".. c #86797B",
"X. c #9D7370",
"o. c #658344",
"O. c #718A45",
"+. c #638553",
"@. c #6A9353",
"#. c #77A35A",
"$. c #BC8F5F",
"%. c #8E8260",
"&. c #8F866B",
"*. c #938664",
"=. c #968865",
"-. c #988B67",
";. c #968B6B",
":. c #8F897A",
">. c #958B71",
",. c #9C9174",
"<. c #A2946E",
"1. c #A49670",
"2. c #A79975",
"3. c #AA9C74",
"4. c #A2987D",
"5. c #A99D7E",
"6. c #C3955C",
"7. c #D1816E",
"8. c #F8AE68",
"9. c #7D8081",
"0. c #848687",
"q. c #9C858A",
"w. c #9C9685",
"e. c #989896",
"r. c #B0858F",
"t. c #A69E87",
"y. c #BF9688",
"u. c #A89D9F",
"i. c #B1A686",
"p. c #A8A394",
"a. c #9EA3A5",
"s. c #A1A3A5",
"d. c #ABABAB",
"f. c #B2AFAB",
"g. c #B7B8B8",
"h. c #BCBABA",
"j. c #F69497",
"k. c #E7AF80",
"l. c #EABC8D",
"z. c #F795AB",
"x. c #CBA2AD",
"c. c #C4AEB2",
"v. c #C9AFB5",
"b. c #D7A4B1",
"n. c #C1BDB1",
"m. c #F8A0B5",
"M. c #C3C1B8",
"N. c #EFBCC9",
"B. c #FBB4C9",
"V. c #FDBBCC",
"C. c #BFC1C2",
"Z. c #C2C2C1",
"A. c #CBC9C5",
"S. c #CBCBCB",
"D. c #DBC2C7",
"F. c #D1D0CF",
"G. c #CECFD0",
"H. c #D3D3D4",
"J. c #D8D7D4",
"K. c #DBDBDC",
"L. c #FFC8D7",
"P. c #FFCAD9",
"I. c #E3E2DF",
"U. c #E2E2E2",
"Y. c #EDEDED",
"T. c #F5F5F5",
"R. c #FDFDFD",
/* pixels */
"] ] ] ] ] ] { ] ] ] ] ] ] ] ] ] ] ] ] ] ] ] ] ] ] ] ] ] ] ] ] ] ",
"] ] ] ] ] ] ] ] ] ] ] ] ] ] ] ] ] ] ] ] ] ] ] ] ] ] S ] ] ] ] ] ",
"] ] ] ] ] ] ] ] ] ] ] ] { ] ] ] ] ] ] ] ] ] ] ] ] ] ] ] ] ] ] ] ",
"] ] ] ] ] ] ] ] ] ] ] ] ] ] ] ] ] ] ] ] ] ] ] ] ] ] ] ] ] ] ] ] ",
"] ] ] ] ] ] ] ] ] ] ] ] ] ] ] ] ] ] ] ] ] ] ] ] B * . ] ] ] ] ] ",
"] ] ] ] ] ] ] ] ] ] ] ] ] ] ] ] ] ] ] ] ] ] S ]   q   [ ] ] ] ] ",
"] ] ] ] ] ] ] $ B ] ] ] ] ] ] ] ] ] ] ] ] ] ]   9 k   S ] ] ] ] ",
"] ] ] ] ] ] 1 . . ] ] ] ] ] ] ] ] ] ] ] ] ]   $ b c   ] ] ] ] ] ",
"] ] ] ] ] ] o 3     g ] ] l       > ] ]     - x M b   ] ] ] S ] ",
"] ] ] ] ] ] o e w j j >   & ( 0.( X % x j r j x c b   ] ] ] ] ] ",
"] ] ] ] ] ] # r x m W | ;.S.T.R.T.I.>.C m M j x j k   ] ] ] ] ] ",
"] ] O   X B 6 j :.p.| / M.T.R.R.R.T.A.} ^ T M r r w   ] ] ] ] ] ",
"]     o     j f.R.R.I.1.J.T.R.R.A.a.J.t.=./ W M u 9   ] ] ] ] ] ",
"] * ) 9.0 o L U.R.H.s.w.F.Y.R.K.) i h.i.<.%.^ C k 9   ] ] ] ] ] ",
"] a C.G.' 7 q H.U.i I ` M.K.Y.H 0 p Z.2.2.=./ T l 6   ] ] ] ] ] ",
"] i 0.a.I 0 & ` F.g.e.&.w.S.H.h.a.Z.t.3.1.*./ U x w   ] ] ] ] ] ",
"S 7 H I J 0 & t ,.&.,.5.2.5.n.M.n.4.2.2.-.| ~ C j 2 + ] ] ] ] ] ",
"] & 8 p i 7 X = ~ | =.<.2.3.3.3.3.3.<.-.| ~ D x r _   . d ] ] ] ",
"] 5 & ; ; &   < M Y ~ } %.=.-.-.=.%.| ! Q C x r _ N.D.J = 4 ] ] ",
"] ] 5   o   o t j x M U T ! ~ ~ ! W V n D j r K x.m.V.P.c.+ ] ] ",
"] ] ] ] # : 2 e r r r j k c c j r 3 w { l.[ r r.z.8.j.B.v., ] ] ",
"] ] ] ] ] ] l o 3 j b b b j j j u y u j S 6.$.q.b.j.z.L.K s ] ] ",
"] ] ] ] ] ] ] >   @ 9 b R R K b x x N N F o. .k.X.x.B.P._ f ] ] ",
"] ] ] ] ] ] ] ] ,       & 3 u u z G G G @.@.x.7.y.u...c.4 ] ] ] ",
"] ] ] ] ] ] ] ] ] ] h 4 = O X X . +.#.O.#.v q.V.b.h.d.* > Z ] S ",
"] ] ] ] ] ] ] ] ] ] ] ] ] ] ] ] ] A N F d l A ..E r d.e.:   g ] ",
"] ] ] ] ] ] ] ] ] ] ] ] ] ] ] ] ] S ] ] ] ] ] ] ] ] ] q P # + ] ",
"] ] ] ] ] ] ] ] ] ] ] ] ] ] ] ] ] ] ] ] ] ] ] ] ] ] ] X J a X ] ",
"] ] ] ] ] ] ] ] ] ] ] ] ] ] ] ] ] ] ] ] ] S ] ] ] ] ] 4 8 J o ] ",
"] ] ] { ] ] ] ] ] ] ] ] ] ] ] ] ] ] ] ] ] ] ] ] ] ] ] ] , q < ] ",
"] ] ] ] ] ] ] ] ] ] ] ] ] S ] ] ] ] ] ] ] ] [ S ] ] ] ] ] ] S ] ",
"] ] ] ] ] ] ] ] ] ] ] ] ] ] ] ] ] ] ] ] ] ] ] ] ] ] ] ] ] ] ] ] "
};
