/* XPM */
static char *_1eab876c3e04f4cf0dc6980e9ad8d19P8fEdpHmN0ZzFhlP[] = {
/* columns rows colors chars-per-pixel */
"32 32 87 1 ",
"  c #033E03",
". c #4A2B0F",
"X c #4A2C0F",
"o c #4E2F13",
"O c #4E3116",
"+ c #513115",
"@ c #533418",
"# c #573619",
"$ c #56381C",
"% c #58381B",
"& c #5A3A1E",
"* c #5D3C1F",
"= c #5F3D20",
"- c #603F20",
"; c #054F05",
": c #065406",
"> c #0D670D",
", c #0E690E",
"< c #0F6C0F",
"1 c #106D10",
"2 c #117111",
"3 c #137713",
"4 c #147914",
"5 c #157D15",
"6 c #634122",
"7 c #674425",
"8 c #694627",
"9 c #6B4728",
"0 c #6E492A",
"q c #704B2B",
"w c #714D2B",
"e c #714E2C",
"r c #744F2E",
"t c #75512E",
"y c #75552F",
"u c #775130",
"i c #785330",
"p c #795432",
"a c #7C5533",
"s c #7D5734",
"d c #7F5834",
"f c #406640",
"g c #72635B",
"h c #7D6F66",
"j c #A53F05",
"k c #BC3605",
"l c #EC0505",
"z c #E21A05",
"x c #D02A05",
"c c #D22929",
"v c #D02E2E",
"b c #CC3535",
"n c #C63F3F",
"m c #C93B3B",
"M c #C83D3D",
"N c #805935",
"B c #835E3E",
"V c #8B6B52",
"C c #8F7563",
"Z c #927561",
"A c #947965",
"S c #C34343",
"D c #C54040",
"F c #C14646",
"G c #168016",
"H c #188318",
"J c #198719",
"K c #1A8B1A",
"L c #99806E",
"P c #A18B7D",
"I c #9D928C",
"U c #A5968E",
"Y c #AB9A8F",
"T c #AC9A8F",
"R c #AC9B90",
"E c #B5A89F",
"W c #A9A3A0",
"Q c #BAACA3",
"! c #B3AEAB",
"~ c #C1B5AE",
"^ c #C5BBB4",
"/ c #C3BFBD",
"( c #C8C1BD",
") c #D7D0CC",
"_ c #E2DEDB",
"` c #F9F5F5",
"' c white",
/* pixels */
"dNNNNNNNNNNNNppNNNNNNtppNNNNNNNN",
"NNNNNN:::::::;pNNNNNNprpNNNNddNN",
"dNNN::,:4G3432::NNNNNNNNNNNNepNN",
"dNN:J3K:JG2J:544::NNNNNNNNNNteNN",
"sN:  JG:4G5:4KJ  :NNNNNNNNNNNNNN",
"aN:3j GJKK:KJ  k3G:NNNNNNNNNNNNN",
"sN:>zl  KKKK llzx>:tteUI0ssssNNN",
"O$:2zlll KK llllK::OO@!g@66--**9",
"Ny:GxllGGKKxxx53K::ssE_ssssNNNNd",
"NN:GGKKG5KK33,23::N^~RNNNNNNNNNN",
"Na:K:<3344KGG5KK::N^ANNw9NNNNNNN",
"Nd6:4:KKK::::::KK:NNNNNi0sNNNNNN",
"NNN:G:K::''''''::K:NNNR~NNNNNNNN",
"NNN:J4K:''c'c'c'`::NZ)RANNNNNNNN",
"RNNi:4:'c'cbMbmnm::NBPNNNNNNNNNd",
"I/Wh::''mDFSnbv'':1:%%oOOOOooo6@",
"NtQLN:cFDmvcc'c'':21::8uuuuppppe",
"NNNNN::c'c'c'''::G1,<K:NNNNNNNNN",
"TANNNN:''''''::KKG1:G,H:NNNddNNN",
"Y~(~R~f::::::KKK:JG:>J:3::NeeNNN",
"dNdCR~V:24KKKKKKKKK:52K:,3:wwNNN",
"NNdpNNNN:<3K:KKKKKK:K32K:2:NNNNN",
"dNNNNNNNN:3,H:KKK:KKKJ:33:K:sspu",
"o#####+#X.:J<:KKKK:KKKG:1G::###&",
"Nqqeeeeeeur:K3:GKKK:KKK<:24:NNNs",
"NNNNNNNNNNNN::J12JKK:K,14:,:NNNd",
"NNNNNNNNNNNNNN::5,5:K3GG3GK:NNNN",
"NNNNNseNNNNNNNNN::2>::J4G::NsNNd",
"NNNNNp7NNNNNNNNNNr:,44:::NNe8NNd",
"NNNsNNNNNNNNNNNNNar::::iNNN80NNN",
"ii0080eupppapiettww0wwtt0ttdsssN",
"-=788&&o&&&++++++&&&&&###++++==#"
};
