/* XPM */
static char *ec83a195e9f346268ffcc9b74423d991e19vQfg4yftd9pGQ[] = {
/* columns rows colors chars-per-pixel */
"64 64 227 2 ",
"   c #000000",
".  c #0B0502",
"X  c #120903",
"o  c #170C04",
"O  c #1D1106",
"+  c #241609",
"@  c #311F0E",
"#  c #311436",
"$  c #1D2525",
"%  c #26313B",
"&  c #4A2C0F",
"*  c #4C2E11",
"=  c #4F3114",
"-  c #523316",
";  c #553619",
":  c #58371A",
">  c #57381A",
",  c #5B3B1D",
"<  c #5F3E20",
"1  c #5F3C2F",
"2  c #502E33",
"3  c #603F21",
"4  c #644324",
"5  c #6B4827",
"6  c #6A4728",
"7  c #6D4A2A",
"8  c #724E2D",
"9  c #75512F",
"0  c #765C2C",
"q  c #6D4E34",
"w  c #775230",
"e  c #7A5532",
"r  c #7F5935",
"t  c #7E563F",
"y  c #7B612F",
"u  c #350F46",
"i  c #3A1547",
"p  c #451D4F",
"a  c #471759",
"s  c #562E49",
"d  c #5C3648",
"f  c #432855",
"g  c #572A58",
"h  c #5E3556",
"j  c #5D315A",
"k  c #643C4A",
"l  c #653A55",
"z  c #693E54",
"x  c #63365D",
"c  c #643959",
"v  c #6A3C5D",
"b  c #50136C",
"n  c #601E7D",
"m  c #5D2B64",
"M  c #5B276C",
"N  c #5B336B",
"B  c #5E2177",
"V  c #602C6B",
"C  c #633463",
"Z  c #673768",
"A  c #632876",
"S  c #673676",
"D  c #0F445C",
"F  c #1C465C",
"G  c #33475F",
"H  c #144E68",
"J  c #1A5A76",
"K  c #3B5069",
"L  c #235974",
"P  c #375C75",
"I  c #1E617F",
"U  c #37617C",
"Y  c #4D4A4E",
"T  c #554C56",
"R  c #58555A",
"E  c #6A4346",
"W  c #634844",
"Q  c #6C444C",
"!  c #744B4C",
"~  c #6A554A",
"^  c #775849",
"/  c #6B4253",
"(  c #6E435C",
")  c #734A53",
"_  c #754A5A",
"`  c #7A4F5A",
"'  c #6B5C59",
"]  c #7B5656",
"[  c #766B5D",
"{  c #4E506D",
"}  c #545A66",
"|  c #5C5C64",
" . c #484A74",
".. c #445B77",
"X. c #6A4463",
"o. c #734568",
"O. c #635866",
"+. c #7A5668",
"@. c #7C4C74",
"#. c #774578",
"$. c #7A5777",
"%. c #51606F",
"&. c #49667B",
"*. c #586577",
"=. c #5B6A7C",
"-. c #6B6365",
";. c #666369",
":. c #75746F",
">. c #656873",
",. c #636D7B",
"<. c #815A36",
"1. c #846735",
"2. c #91703D",
"3. c #835854",
"4. c #8E7451",
"5. c #86576A",
"6. c #845373",
"7. c #89577A",
"8. c #917074",
"9. c #9C843F",
"0. c #9E8541",
"q. c #9B864C",
"w. c #9A8457",
"e. c #A58946",
"r. c #A58C4B",
"t. c #B59D4B",
"y. c #B69D5B",
"u. c #BAA14E",
"i. c #BCA354",
"p. c #9B8767",
"a. c #938975",
"s. c #AF966B",
"d. c #B7A665",
"f. c #B7AA75",
"g. c #C5AC54",
"h. c #C6AE57",
"j. c #CDB558",
"k. c #C6B270",
"l. c #DBC15E",
"z. c #E5CB67",
"x. c #6B3783",
"c. c #6B3981",
"v. c #753D88",
"b. c #753491",
"n. c #246889",
"m. c #346A8B",
"M. c #237396",
"N. c #367AA3",
"B. c #475A84",
"V. c #7A4783",
"C. c #7A4E8F",
"Z. c #466B86",
"A. c #576B85",
"S. c #56738A",
"D. c #466396",
"F. c #586C97",
"G. c #477999",
"H. c #557A96",
"J. c #6E6B8F",
"K. c #7269A7",
"L. c #834D87",
"P. c #875486",
"I. c #8A5584",
"U. c #8D5883",
"Y. c #8B538C",
"T. c #925C89",
"R. c #854B96",
"E. c #8C5293",
"W. c #8C589B",
"Q. c #935A93",
"!. c #945998",
"~. c #965A9B",
"^. c #8C6895",
"/. c #8647A1",
"(. c #8D4EA3",
"). c #8D53A4",
"_. c #9455A4",
"`. c #9659A1",
"'. c #995CA3",
"]. c #9553AF",
"[. c #9C5CAA",
"{. c #9D5BB2",
"}. c #9B56B8",
"|. c #A15EB3",
" X c #A35DB9",
".X c #9E60A5",
"XX c #8E64B4",
"oX c #A263A9",
"OX c #A560B9",
"+X c #A562B8",
"@X c #AC75B6",
"#X c #A75DC5",
"$X c #AA62C3",
"%X c #AD63C9",
"&X c #B064CD",
"*X c #AE60D4",
"=X c #B264D3",
"-X c #B967DD",
";X c #3983A9",
":X c #2A89B3",
">X c #338BB5",
",X c #4E809F",
"<X c #76888E",
"1X c #4981A3",
"2X c #5788A3",
"3X c #6892A8",
"4X c #96928E",
"5X c #959C8B",
"6X c #A99491",
"7X c #95A39B",
"8X c #B5AB87",
"9X c #A8A994",
"0X c #AE93AB",
"qX c #90A4A0",
"wX c #B1AAAF",
"eX c #C3BB8F",
"rX c #C7BEBF",
"tX c #D0C6AE",
"yX c #B488C3",
"uX c #BF80E0",
"iX c #C1A4C9",
"pX c #CCB9D3",
"aX c #D3CCCB",
"sX c #FFF2C8",
"dX c #FFF5D7",
"fX c #FFF8E2",
"gX c #FFFFFF",
/* pixels */
"4 7 9 9 9 9 9 r r r r <.<.<.<.<.<.<.<.<.<.9 e 9 e 7 9 9 w w w w w w w w w w w w w w w w w 8 8 8 8 8 8 9 9 9 9 8 8 8 9 9 w w 9 9 ",
"6 6 7 5 5 7 7 6 6 6 6 4 4 6 5 5 5 5 7 7 7 7 7 7 7 8 7 8 8 w w w w w w w 7 7 9 9 9 8 8 8 8 w w w w 7 9 8 8 8 8 8 9 9 9 9 8 8 w w ",
"w 8 8 8 7 7 8 8 8 7 7 7 7 5 5 7 7 7 7 7 6 4 4 6 6 4 4 r 7 , 4 6 7 4 6 6 4 4 8 8 8 w w w w w e e w 7 4 6 7 7 w w 9 9 9 r r <.<.<.",
"w <.<.r e r r e w e w w w 8 8 8 7 5 6 4 4 5 5 5 7 7 7 r e 9 9 8 8 w w w e e e e e r r r r 9 w w r r r w 9 8 6 7 8 8 w 8 8 7 7 8 ",
"; - - , , 4 4 4 6 6 6 7 7 8 7 8 7 w e r r r r r r r r r r r <.<.<.w 8 7 8 e 9 9 9 8 8 7 8 4 3 4 4 6 8 8 7 6 6 6 7 7 7 5 7 8 <.r ",
"3 , 4 < < 3 4 5 7 7 8 9 7 7 7 8 9 9 8 8 8 8 8 8 7 7 7 7 7 7 8 9 w w w 8 8 7 7 <.<.<.<.<.r 8 5 8 7 7 < < 4 6 7 8 8 8 8 8 8 7 <.<.",
"6 7 6 7 7 7 5 4 4 4 4 , < 4 4 4 ; , 4 4 4 4 7 7 7 7 7 7 7 7 7 6 6 6 6 5 5 5 6 8 8 8 8 8 8 7 8 9 8 8 9 8 7 7 6 6 7 8 8 8 7 7 7 7 ",
"r r e w 9 8 8 w 6 6 6 4 6 6 6 6 6 4 4 4 4 4 4 4 4 5 5 5 7 7 7 8 8 8 8 8 9 w w w w w w w w w e e e e e e e e e w w 8 8 8 8 8 8 8 ",
"r r 8 w w e w w w e e e w 9 8 w w r r e w w 9 8 3.Q I.` 5 5 7 8 8 9 9 7 7 8 8 8 8 8 8 8 w w 8 8 7 7 7 7 5 6 7 8 8 w w 8 8 7 5 7 ",
"9 7 <.r 8 4 4 7 5 4 5 9 9 w ] 6.e w w e ) iXY.~.T.Y.U.` 9 8 5 4 4 6 4 4 r r 9 8 8 8 6 6 , , 4 4 4 4 , , 3 3 9 9 9 7 6 7 7 9 9 8 ",
"5 7 4 6 8 w w e e w 8 6 7 +XT.7.7 <.r @.Y.5.) 6 6 W ^ ~ >.w w 9 w 8 9 8 9 8 9 8 8 8 9 9 w w w w r r 4 4 4 4 7 7 7 8 9 5 4 r r e ",
"4 4 4 6 8 8 9 w w w w w T.) 8 8 7 9 8 @.8 8 7 [ -.G.,.=.S.} 6 / k 8 w w w r r *.>.7X=.w e e e 8 w w 9 9 9 9 9 8 8 8 7 7 6 6 6 6 ",
"6 6 6 4 6 6 4 4 4 4 ^ Y.Q 6 4 4 6 6 7 %X6 7 8 S.,.| -.=.A.Z.r / E l wXV r 6.6.*.>.;.=.Z.-.~ 8 8 8 9 w w 9 9 9 w 9 w w w e e e w ",
"8 4 4 4 < 3 3 < < , 5.+.< 4 4 4 4 ( #X#.w w w w ,.| -.4 4 3 < 4 4 0XW.+X X[.[.~.~.~.~.8 -.=.8 8 8 8 8 8 9 8 9 9 9 8 8 8 8 8 9 w ",
"; - , > , , , , 4 4 4 6 4 3 , > I. XV.= , , , < 4 4 4 4 4 4 4 , pX~.8.w.e.u.z.t.e.s.tX4 4 4 4 4 4 4 4 < < < , , , , , , , , > > ",
"* * = - - = - - , * >.S.* * ; &X`.#X= = = v * * * C A Z k * * 8Xp.y.y.w.p.3.Q 1.e.e.u.h.i.- - - - - - ; ; ; ; ; > , , , , , , , ",
"= ; 6 6 4 4 4 4 4 >.G.7 7 7 7 +XI.L.3 3 C v , X.A A A o.d z.y.r.r.] m m x x C m x / q 1 2., , , , , , , , , , , > > > > ; ; ; ; ",
"4 4 9 9 9 9 9 9 9 S.>.r r r r |.I.L.r w.p.Q Z Z ( r r , h k / j x k 2 P m.%.O.d l C C m ^.rX4 6 6 6 6 6 6 7 7 7 7 7 7 7 7 7 7 7 ",
"8 4 4 4 4 4 4 4 S.A.-., , , , |.'.( 3 y.$.A V ( 4 *.Z ! m C / #.Q.=X#.T O.A.Z.m.&.%.X.k / c {.0Xh 8 8 8 8 r e e w w 9 9 8 8 8 w ",
"r 9 9 9 9 9 9 9 | =.-.w w w w |.'.( 0 7 n Z z 8 ,.c z E.#.`. X_. X~.#.R.[.%X~.} } ;.Z.{ / Q l _._.! 7 7 8 8 8 7 7 7 w e r r r <.",
"<.9 4 4 4 , 4 4 4 G.>.5 7 7 7 |.|.w w w w w w ,.^ E P.oXQ.Q.'.V.E j 2 2 4 ] ~. XW.| ' &.O./ x d L.`.pXw 9 9 <.<.<.r w 9 7 6 7 9 ",
"r 9 w r r 8 8 w w ~ ^ 9 9 S.9 =X&X6 g 4 n 4 5X>.aXT.Q.T.~.P.z c Z j g s x Z ! / ~. XC.| &.fX4.l j @.R.pXr r <.<.<.<.<.<.<.<.r 9 ",
"8 8 8 7 7 5 4 4 4 4 4 4 ~ 1X4 iXiX7 s M A tXgX9 U.U.#X@.z z h  .B. .G f d c j m C o. X+XgXdXsX^ m C o.[.wX4 4 4 4 4 4 4 4 4 4 4 ",
"8 8 8 8 8 7 7 8 8 8 8 8 9 H.-.iX`._ s B A k.-.I.U.U.#.m N  . .K G n.L n.n.L U p m M S #X XgXp.d., m 4X0X X9 9 9 8 7 6 8 5 4 4 4 ",
"<.<.<.w 9 e r w w w w e e H.>.iX'._ s B $.8X' %X4 _.j  ...n.L F F H D D H J M.M.K f g m #X`.Z.[ h.p.w w {.U.7 6 7 7 9 9 9 r <.<.",
"r > ; < 4 4 4 / _ 8 8 8 8 8X:.iXI.P.s M 8.a.+.'.l (.P L J %                   $ J B. .P R.}.V.Z.{ i.0 7 Y.'.8 9 9 9 9 9 9 r r r ",
"9 e r r r r r Z ! 7 6 4 4 eX>.'.Q.P.s M $.f.+.(.V.V.J I @ .                     . O M  .K.W.].Z.Y %.t., < ~., 4 4 4 4 4 4 < < < ",
"w w 9 9 8 8 ! v 6.$X8 w <X8XgX.XQ.P.s M A k.+._.].F J F .                         X # b i (.(.W...R Y 8 8 8 8 8 7 7 7 6 6 7 8 8 ",
"7 7 8 8 8 7 ! Z w  XQ.9 9XdXgXgXQ.$Xs m b.5X6X(.V.n.F .                             X a a c.R.{.J.} P R 8 8 8 8 8 r w e w w 8 8 ",
"6 6 6 4 6 6 ) v 4 I.$X4 <X3XgXT.I.[.s M b.a.6X}.c.M.%                                 # a /.(.Q.XX} Y T 7 6X6 4 4 4 4 4 7 7 7 8 ",
", 4 , , > , ) v ; ` +XI.Z.;X,X-.[.7.V.m A S h.R.R.@ .                       gX        O i v.V.` XXR K { 4 E d 5 6 6 5 6 5 5 4 5 ",
"& & & & & & ) v & & '.+X| 1X1XH.`.E.V.m A V y.7.}.O                       gXgXgX      X # x.v.` _.A.:.:.& & l & & & & & & & - - ",
"6 < , , , 4 ) Z > > U.[.Y.1X3Xf.P.E.(.m V V p.s.*Xp                         gX            x.v.` W.XXa.d.T , z 3 < < < , , , > ; ",
"4 6 6 6 6 6 7 t 7 7 ` '.{.;.>X7Xp.} (.S B x 5.h..         gX                              S v.` R.`.P w.0.5 c G.7 7 7 7 7 7 6 6 ",
"r r r r r 9 9 9 9 9 9 |.-XQ.G.>Xd.<XV.V.B x Z i X       gXgXgX                            S v.I.R.~.Y ..h.7 C *.~ e e e w w e e ",
"4 7 7 7 8 Y.7.3.4 4 7 I.~.-X_ 3X3Xi.F.%Xm V x a #         gX                              S v.L.R.E.d m.u.i.z } ;.9 9 7 8 7 6 6 ",
"e 9 9 8 8 @.[.5.w 9 8 P.=X+X=XT.>XqXu.Z.h A 8 b u .                                   . . S #.8.yXE.d P d.1./ } ;.4 6 8 8 7 w 8 ",
"r r r r r r .X7.w e 9 9 &X X X%XK.>XqXk.5X$.Z i b O                   gX              .   C.E.7 W.@.#...tX8 ! ..=.8 8 8 w e w r ",
"7 7 6 6 6 6 Q.Q.6 z l 7 ` '.$X+X XC.;X;X5X8Xa.+.b a .               gXgXgX            X   [ w w R.L.S [ eX9 ! { ;.w w w 9 9 9 9 ",
"8 w w w r <.+.oX9 9 0X7 4 ` '.$X=X_.XXN.H.G.4X8Xs.8.n a               gX            +   o 9 9 w #.@.7 p.9X8 ! { | w 9 9 9 9 9 9 ",
"e 8 8 8 7 5 7 $X) 9 l l 9 7 _ '.+X=X#XXXH.G.S.F.J.4Xs.4..                           O   wX8 7 6 R.E.4 q.9X, E s 3 4 7 9 9 9 9 w ",
"4 4 4 5 8 e w Q.Q.8 7 7 4 7 8 3.+X#X#X].+XF.S.1XG.B.J.8.j.4.                    . +   + 9 8 9 w @.@.r t.S.e q s w 9 8 8 8 8 9 e ",
"4 4 4 , , , , Q.+X, , v Z 4 4 4 < {.}. XoX_.^.a.2X>X:XN.D.D.L               . @ @   C.%X8 9 ^ 8 @.@.0 u.&.~ E w 0 w e w 9 9 8 7 ",
"r r r r r r r r '.7.r r X.v e e e w =X=X+X Xk.eXp.gXH.:XN.N.M.+ O         + @ + x.}.}.4 6 ~ H.7 @.@.s.8X9 9 E d l.1.8 9 8 8 w w ",
"4 4 4 4 7 7 7 7 I.~.| -.7 l v Q 7 7 7 E.-X X@X0XsXdXgXT.M.M.M.+ O . X O . X c.R.C.(.4 4 4 O.-., , 4 4 6 4 6 k ^ u.8 7 7 8 8 7 7 ",
"6 7 w 8 5 5 5 5 5 [.o.,.6 l 6 c 7 7 5 4 7.=X-X=X{.dXoXQ.+X_.).c.c.c.c.c.c.}.R.L.`., , < ~ G.4 < , @., ; ; ; , 0.e., , 3 6 6 6 7 ",
"4 4 , , 3 4 , , , , , , A.4 / , , , , - < < 4 4 uX%X[.[..X X&X+X_.(.].].W.#X`.&X7 7 5 -.=.W 4 6.[.Y.4 4 4 < , 0.e., , > - - - 4 ",
"& & & & & & & & & & & & -.,.& & & & & &.& & & & & & =X$X&X}.$X+X#X#X}. X=X0XI.& & & & -.& @.~.'.6.& U | & & & t.& & & & & & & & ",
"4 7 7 7 6 6 6 7 6 6 6 6 6 S.>.6 6 6 6 &.,.6 6 4 4 < < aXrXiX0XyX'.V.R.@XP.< , , , E.6.U.[.[.U.6.- } U ; > > > h.> > , : ; > ; , ",
"6 5 5 4 5 4 4 w w w w 9 8 8 O.G.W 7 6 6 ,.N.=.6 6 4 6 < 4 3 , 4 _ wXpX, , , 4 4 , Y.Q.~.~.- , , | } 3 3 4 4 4 u.4 4 4 6 6 4 4 < ",
"5 5 4 , - ; ; , , 4 4 6 6 7 7 W 8 8 9 8 8 Z.=.G.G.G.4 6 4 6 5 5 7 7 7 8 8 8 8 8 8 8 6.6 4 4 6 =.| 6 4 4 4 4 e.j.4 , , , 4 4 4 7 ",
"6 7 8 8 8 7 7 < 3 0.; > - ; ; > , > > , 4 6 6 7 -.8 w w w 8 8 7 5 7 4 < 4 6 z ! 7 7 9 4 6 Z.S.*.l d 6 7 7 1.t.7 8 8 8 8 8 7 7 5 ",
"4 < < 4 4 6 8 7 7 0.h.e.8 5 7 ! Y.4 3 4 3 < > ; - - - ; > , 4 7 8 7 8 8 7 7 7 ! v E q E E l ( z E , , 4 7 h.8 9 9 7 7 7 6 7 7 8 ",
"9 9 8 3 3 < , < , , , e.e.< , 4 4 4 6 6 r.9.z.4.4 4 4 9 8 8 8 8 8 8 8 7 7 7 4 3 4 E C ! k 5 5 6 7 6 4 4 h.> , , , 4 4 7 7 7 7 7 ",
"4 4 8 7 7 6 4 4 6 6 4 6 e.h.h.e.t.h.h.u.e.9.e.7 7 6 7 5 7 6 6 4 4 4 , 3 , , , 9 9 e 8 < 4 4 4 4 6 5 8 u.2.w 7 7 7 6 5 4 6 7 7 7 ",
"<.r r r e e e 9 8 8 8 8 7 7 h.0.y 6 7 8 8 9 8 8 8 8 8 8 9 9 9 w 9 9 w 8 8 8 8 7 7 6 4 6 4 4 4 6 8 8 t.1.4 4 6 6 6 6 4 6 6 6 4 6 ",
"8 8 8 8 8 8 8 6 4 6 4 < 4 4 4 < , 4 4 4 6 6 6 6 5 5 5 7 5 5 6 4 4 4 4 4 6 6 6 7 7 6 7 8 9 9 8 7 8 9 9 9 w w 8 8 8 8 w 9 8 8 9 9 ",
"5 4 4 4 4 4 4 4 4 4 4 5 7 7 7 8 8 8 8 7 7 6 6 5 4 6 4 4 4 4 7 7 7 7 8 8 8 9 9 9 w w r r 4 7 7 9 w r r r e e w 8 8 6 3 < > , , , ",
"4 , < < 3 , , ; , > , > ; > ; - - - - , , 3 3 4 6 6 7 7 7 7 6 4 4 7 6 5 6 6 7 8 8 8 7 8 8 8 8 8 7 7 7 6 6 6 7 8 7 8 9 w w 9 7 7 ",
"8 8 5 6 6 6 6 6 6 6 6 5 7 7 7 7 7 7 7 7 7 7 7 7 5 7 7 7 7 7 8 8 8 8 8 w w 9 w 8 8 8 7 7 6 6 6 7 7 7 7 8 8 8 8 8 w 9 9 w w w e e ",
"4 4 6 7 8 8 8 w w r r r r r r r r r r r w w w w 8 8 8 3 4 7 4 3 3 3 , ; > , , , , , , , , , > , , , , , , , > > > < < 4 4 5 6 7 ",
"4 4 4 4 4 < < 4 4 4 4 4 4 4 4 4 4 4 4 4 4 4 4 4 4 6 4 6 4 4 4 7 7 7 7 8 8 7 7 7 7 7 7 5 6 6 5 6 5 5 7 7 7 7 4 4 4 4 4 4 4 4 4 5 ",
", - ; ; ; - - - - - - = - - - - = - - - = = = = ; - ; - ; , ; , ; ; ; ; ; ; - ; ; - ; ; > - - - - - ; - ; , 3 < , < , 7 7 6 6 4 ",
"& & & & & & & & & & & & & & & & & & & & & & & & & & & & & & & & & & & & & & & & & & & & & & & & & & & & & & & & & & & & & & & & "
};
