/* XPM */
static char *_4eb945ecb9841cac5f00bae1fc5f112OB3XkVfW4DGZycLO[] = {
/* columns rows colors chars-per-pixel */
"64 64 229 2 ",
"   c #000000",
".  c #0B0502",
"X  c #120903",
"o  c #170C04",
"O  c #1D1106",
"+  c #241609",
"@  c #311F0E",
"#  c #311436",
"$  c #1D2525",
"%  c #26313B",
"&  c #4A2C0F",
"*  c #4C2E12",
"=  c #4F3114",
"-  c #523316",
";  c #553619",
":  c #58371A",
">  c #57381A",
",  c #5B3B1D",
"<  c #5F3E20",
"1  c #5F3C2F",
"2  c #502E33",
"3  c #603F21",
"4  c #654324",
"5  c #694627",
"6  c #6B4827",
"7  c #6A4728",
"8  c #6D4A2A",
"9  c #724E2D",
"0  c #75512F",
"q  c #765C2C",
"w  c #6D4E34",
"e  c #775230",
"r  c #7A5532",
"t  c #7F5935",
"y  c #7E563F",
"u  c #7B612F",
"i  c #350F46",
"p  c #3A1547",
"a  c #451D4F",
"s  c #471759",
"d  c #562E49",
"f  c #5C3648",
"g  c #432855",
"h  c #572A58",
"j  c #5E3556",
"k  c #5D315A",
"l  c #643C4A",
"z  c #653A55",
"x  c #693E54",
"c  c #63365D",
"v  c #643959",
"b  c #6A3C5D",
"n  c #50136C",
"m  c #601E7D",
"M  c #5D2B64",
"N  c #5B276C",
"B  c #5B336B",
"V  c #5E2177",
"C  c #602C6B",
"Z  c #633463",
"A  c #673768",
"S  c #632876",
"D  c #673676",
"F  c #0F445C",
"G  c #1C465C",
"H  c #33475F",
"J  c #144E68",
"K  c #1A5A76",
"L  c #3B5069",
"P  c #235974",
"I  c #375C75",
"U  c #1E617F",
"Y  c #37617C",
"T  c #4D4A4E",
"R  c #554C56",
"E  c #58555A",
"W  c #6A4346",
"Q  c #634844",
"!  c #6C444C",
"~  c #744B4C",
"^  c #68544A",
"/  c #775849",
"(  c #6B4253",
")  c #6E435C",
"_  c #744A56",
"`  c #7A4F5A",
"'  c #6B5D5A",
"]  c #7B5656",
"[  c #766B5D",
"{  c #4E506D",
"}  c #545A66",
"|  c #5C5C64",
" . c #484A74",
".. c #445B77",
"X. c #6A4463",
"o. c #734568",
"O. c #635866",
"+. c #795669",
"@. c #734274",
"#. c #7C4C74",
"$. c #7C487D",
"%. c #7A5777",
"&. c #51606F",
"*. c #49667B",
"=. c #576679",
"-. c #5B6A7C",
";. c #6A6365",
":. c #66646A",
">. c #75746F",
",. c #666973",
"<. c #636D7B",
"1. c #815A36",
"2. c #846735",
"3. c #91703D",
"4. c #835854",
"5. c #8E7451",
"6. c #86576A",
"7. c #845373",
"8. c #89577A",
"9. c #917074",
"0. c #9C843F",
"q. c #9E8541",
"w. c #9B864C",
"e. c #9A8457",
"r. c #A58946",
"t. c #A58C4B",
"y. c #B59D4B",
"u. c #B69D5B",
"i. c #BAA14E",
"p. c #BCA354",
"a. c #9B8767",
"s. c #938975",
"d. c #AF966B",
"f. c #B7A665",
"g. c #B7AA75",
"h. c #C5AC54",
"j. c #C6AE57",
"k. c #CDB558",
"l. c #C6B270",
"z. c #DBC15E",
"x. c #E5CB67",
"c. c #6B3783",
"v. c #6B3981",
"b. c #753D88",
"n. c #753491",
"m. c #246889",
"M. c #346A8B",
"N. c #237396",
"B. c #367AA3",
"V. c #475A84",
"C. c #7A4783",
"Z. c #7A4E8F",
"A. c #466B86",
"S. c #576B85",
"D. c #56738A",
"F. c #466396",
"G. c #586C97",
"H. c #477999",
"J. c #557A96",
"K. c #6E6B8F",
"L. c #7269A7",
"P. c #834D87",
"I. c #875486",
"U. c #8A5584",
"Y. c #8D5883",
"T. c #8B538C",
"R. c #925C89",
"E. c #854B96",
"W. c #8C5293",
"Q. c #8C589B",
"!. c #915793",
"~. c #935A93",
"^. c #955A9A",
"/. c #965A9B",
"(. c #8D6C92",
"). c #8647A1",
"_. c #8D4EA3",
"`. c #8D53A4",
"'. c #9455A4",
"]. c #9659A1",
"[. c #995CA3",
"{. c #9553AF",
"}. c #9C5CAA",
"|. c #9D5BB2",
" X c #9B56B8",
".X c #A15EB3",
"XX c #A35DB9",
"oX c #9E60A5",
"OX c #8F62B2",
"+X c #8C66B6",
"@X c #A263A9",
"#X c #A560B9",
"$X c #A562B8",
"%X c #AC75B6",
"&X c #A75DC5",
"*X c #AA62C3",
"=X c #AD63C9",
"-X c #B064CD",
";X c #AF61D3",
":X c #AE60D4",
">X c #B264D3",
",X c #B967DD",
"<X c #3983A9",
"1X c #2A89B3",
"2X c #338BB5",
"3X c #4E809F",
"4X c #76888E",
"5X c #4981A3",
"6X c #5788A3",
"7X c #6892A8",
"8X c #96928E",
"9X c #959C8B",
"0X c #AD9192",
"qX c #95A39B",
"wX c #B4AB86",
"eX c #A8A994",
"rX c #AE91AB",
"tX c #90A4A0",
"yX c #B2ADAD",
"uX c #C3BB8F",
"iX c #D2C8A6",
"pX c #B882D2",
"aX c #C1A2CA",
"sX c #C8B7CC",
"dX c #D7D4D3",
"fX c #FFF2C8",
"gX c #FFF5D7",
"hX c #FFF8E2",
"jX c #FFFFFF",
/* pixels */
"4 8 0 0 0 0 0 t t t t 1.1.1.1.1.1.1.1.1.1.0 r 0 r 8 0 0 e e e e e e e e e e e e e e e e e 9 9 9 9 9 9 0 0 0 0 9 9 9 0 0 e e 0 0 ",
"7 7 8 6 6 8 8 7 7 7 7 4 4 5 6 6 6 6 8 8 8 8 8 8 8 9 8 9 9 e e e e e e e 8 8 0 0 0 9 9 9 9 e e e e 8 0 9 9 9 9 9 0 0 0 0 9 9 e e ",
"e 9 9 9 8 8 9 9 9 8 8 8 8 6 6 8 8 8 8 8 7 4 4 7 7 4 4 t 8 , 4 7 8 4 5 5 4 4 9 9 9 e e e e e r r e 8 4 7 8 8 e e 0 0 0 t t 1.1.1.",
"e 1.1.t r t t r e r e e e 9 9 9 8 6 7 4 4 6 6 6 8 8 8 t r 0 0 9 9 e e e r r r r r t t t t 0 e e t t t e 0 9 7 8 9 9 e 9 9 8 8 9 ",
"; - - , , 4 4 4 7 7 7 8 8 9 8 9 8 e r t t t t t t t t t t t 1.1.1.e 9 8 9 r 0 0 0 9 9 8 9 4 3 4 4 7 9 9 8 7 7 7 8 8 8 6 8 9 1.t ",
"3 , 4 < < 3 4 6 8 8 9 0 8 8 8 9 0 0 9 9 9 9 9 9 8 8 8 8 8 8 9 0 e e e 9 9 8 8 t 1.1.1.2.t 9 6 9 8 8 < < 4 7 8 9 9 9 9 9 9 8 1.1.",
"7 8 5 8 8 8 6 4 4 4 4 , < 4 4 4 ; , 4 4 4 4 8 8 8 8 8 8 8 8 8 7 7 7 7 ;.;.-.;.} 9 9 q z.i.r.r.0 9 9 0 9 8 8 5 5 8 9 9 9 8 8 8 8 ",
"t t r e 0 9 9 e 5 7 7 4 7 7 7 7 7 4 4 4 4 4 4 4 4 6 6 6 8 8 8 9 9 H.=.} } ..{ { d d e f / q.q.y.j.i.k.r r r r e e 9 9 9 9 9 9 9 ",
"t t 9 e e r e e e r r r e 0 9 e e t t r 0 e 0 9 8 7 7 8 6 6 f z x v Z x ( ~ ~ ~ ! w W W l e 9 9 8 8 t.y.6 7 8 9 9 e e 9 9 8 6 8 ",
"0 8 1.t 9 4 4 8 6 4 6 0 0 e e e r e e r r r r r Y.}.^.0 0 9 ! 7 4 7 4 p.2.t 0 9 9 9 ^ 5 , , 4 4 4 4 , 2.j.3 0 0 0 8 5 8 8 0 0 9 ",
"6 8 4 7 9 e e r r e 9 7 8 6 7 6 8 1.t 9 4 4 yXXX|.T.8 0 9 e e 0 R 0.j.i.f.iXuXeXeXD.*.0 e e e e t t 4 4 4 j.3.8 8 9 0 6 4 t t r ",
"4 4 4 7 9 9 0 e e e e e 9 8 9 9 8 0 9 9 9 sX}.rX4 5 8 8 E R { >.f.e.I M.....[ a.w.y.i.wXr r r | e e 0 0 0 0 i.2.9 9 8 8 5 7 7 7 ",
"7 7 7 4 7 7 4 4 4 4 4 5 7 7 4 4 7 7 8 5 sXW.@.dXe q y.T I T L >.s.I H f f @.@.e 9 9 q d.9 9 9 Y Y 0 0 0 0 0 0 y.0 e e e r r r e ",
"9 4 4 4 < 3 3 < < , < , < 4 4 4 4 4 8 ~ ].#.Z C a.p.&.E } } E S.OX].^.W.E.#.P.#.W.#.#.#.9 #.T.9 } } 9 f 0 9 0 0 0 9 9 9 9 9 0 e ",
"; - , > , , , , 4 4 4 7 4 3 , > ; - j '.P.k M , j.{ R ..K.+XOX'.'.E.W.W.pXQ.E.@.W.#.#.#.4 4 [.7.4 | | z W < , , , , , , , , > > ",
"* * = - - = - - , * * * * * ; ; - - rX'.j v / f.[ M.M.Q.|.!.` ` ` ` U.P.9.- - - - ; ; ; - - 7.[.7.- -.=.x ; ; ; > , , , , , , , ",
"= ; 7 7 4 4 4 4 4 8 8 8 8 8 8 6 3 3 |.z c 5.fXa.Y %.{._.E._.b.b.b.b.b.b.$.W., , , , / J.;., , ^.Y., , D.) , , , > > > > ; ; ; ; ",
"4 4 0 0 0 0 0 0 0 0 0 t t t t t t t v ! ( hXgXjX]. XQ._.v.).b.c.c.D D D D Z.[ 4 4 4 4 ^ O.H.Q #.[.5 5 A.z 8 8 8 8 8 8 8 8 8 8 8 ",
"9 4 4 4 4 4 4 4 4 4 4 , , , , p.3.(.( ( O.*.jX#X&XE.L.p s s p #         .     o yX4 7 8 8 ^ =.8 }.^.9 9 W l r r e e 0 0 9 9 9 e ",
"t 0 0 0 0 0 0 0 0 0 0 e =.e e j.1 M l { *.| #X&XM I  .n a # O X         . . X     + =X0 0 9 ;.;.Y.^.8 8 W ~ 9 8 8 8 e r t t t 1.",
"1.0 4 4 4 , 4 4 4 8 6 6 8 ^.8 i.w Z X.A.' Z.XXD h  .N # X                     + O   Z. Xe e e e 7.~.7.e w Z 1.1.1.t e 0 8 5 8 0 ",
"t 0 e t t 9 9 e e e 0 0 ' ^.d.r.( Z &.:.| XXo.N g V.O X                           +   {._.e e e T.T.e t ! ! 1.1.1.1.1.1.1.1.t 0 ",
"9 9 9 8 8 7 3 4 4 4 4 4 4 ^.r.r.c z *.} Q.^.Z M  .K .                             . @ c.Z.].8 8 8 8 8 4 b 4 4 4 4 4 4 4 4 4 4 4 ",
"9 9 9 9 9 8 8 9 9 9 9 9 e !.y.2.M j M.} XX( M a N.$           jX                    @ + E.P.-X0 0 0 0 ~ ~ 0 0 0 9 8 7 9 6 4 4 4 ",
"1.1.1.e 0 r t e e e e r 7.}.x.! Z O.A.Q.^.~ k Y N.          jXjXjX                  . @ c.E.].U.t t 0 x 0 8 8 5 8 8 0 0 0 t 1.1.",
"t > ; < 4 4 4 4 8 9 9 9 7.}.i.4.c &.S.=X] Z v P K             jX                      + X  X&XrX, , 4 8 8 9 9 0 0 0 0 0 0 t t t ",
"0 r t t t t t r 9 8 5 4 4 XXr.a.c M.O.}.7 c f m.J                           jX        . . v.Q.>XI.8 7 , < , , 4 4 4 4 4 4 < < < ",
"e e 0 0 9 9 8 9 9 9 9 e C #Xe.e.M I R E.2 d g m.F                         jXjXjX        O c.{.XX%X8 8 9 9 9 9 9 8 8 8 7 7 8 9 9 ",
"8 8 9 9 9 8 8 0 0 0 0 0 e Q.9.u.M 2 @.@.2 h H P F                           jX          X v.{. XE.9 9 9 9 9 9 9 9 t e r e e 9 9 ",
"7 7 7 4 7 7 7 4 4 4 4 4 z 3 ^.u.] l >X^.k k  .m.J                                       . v._.&XC.8 8 8 8 8 7 4 4 4 4 4 8 8 8 9 ",
", 4 , , > , , , ; , , l W ; ; a.t.c !.XX! A V.H G                                     O O v.'.&X[.4 4 4 4 4 6 6 7 7 6 5 6 6 4 6 ",
"& & & & & & & & & & & ( ( & & & w.k $.'.C.v  .L G                                     + + v.#X#X+.& & & & & & & & & & & & & - - ",
"7 < , , , 4 , , > > , , ; ; > > u.( ( XX[.x j  .P                   jX              P N.N.`.-X*X- - - - < , , < < < < , , , > ; ",
"4 7 7 5 5 7 8 8 8 8 8 } A.6 8 7 x.l Z ].~.8.x  .m.% .             jXjXjX          5.F.B.N.'.XX X(.7 7 7 8 8 8 8 8 8 8 8 8 8 5 5 ",
"t t t t t 0 0 0 0 0 ,.D.S.0 9 l f j M $.!.^.x B V.K @ .             jX          . k.F.B.N.#X[.-X9 9 9 9 9 8 8 9 r r r r e e r r ",
"4 8 8 8 8 , , 4 ` ` ^ =.=.8 8 A o.8 ~ W.@XR.#.M  .P U G .                     s 5.9.B.1XR.^.}.*Xe e 0 0 0 0 0 0 0 0 0 8 9 8 7 7 ",
"r 0 0 9 9 0 r e U.Y./ <.;.;.t S S 0 A x I.!.&X$.k I K K F % .               . m d.K.1XJ.jX@X}.>X4 4 6 4 4 8 4 4 4 4 5 9 9 8 e 9 ",
"t t t t t t r r ! T.Q H.| | 9 Z S 9 =.v W Y.Y.Y.'._.C.G m.N.@ O a       . O s 9.8XV.2XjXgXgX=X9 5 9 H.0 e 9 e e e 9 9 9 e r e t ",
"8 8 5 5 5 5 5 5 4.R.5 ;.<.<.7 4 S ) , <./ dXY.Y.4 z C.{.C.v.E. X:X. X # i n n d.K.H.6Xa.fX|.pXe r 9 H.;.9 0 9 9 9 e e e 0 0 0 0 ",
"9 e e e t 1.t t 0 ^.0 [ D.4 8 9 X.A ) 9 <.:.0 U.=X[._.'._. XE.8.d.j.p s n p o.wXG.5Xs.uXrX>X0 e e 8 H.8 6 5.0 0 e e 0 0 0 0 0 0 ",
"r 9 9 9 8 6 8 9 0 T.~ t 0 8 8 7 9 A C ( t 9XjX;.' +.+.+.0X0Xj.u.a.6.A c 9 Z s.8XD.D.(.l.%X,X8 7 < -.-.< 4 x.r., 3 4 8 0 0 0 0 e ",
"4 4 4 6 9 r e e 9 aX6.8 4 8 9 b b ! S A 9 9 iXl.wXs.g.l.9Xs.B C C Z c C V %.wXH.H.G.'.XXXX>X0 e t B.A.t r 0.0.r e 0 9 9 9 9 0 r ",
"4 3 4 , , , , , , _ T., , 4 4 4 Z a.%.m 4 m S S %.9.%.S n.n.S S C V V C j 9X9XJ.J.#X@X#X,X8.9 9 <.<.8 9 9 t.t.e e e r e 0 0 9 8 ",
"t t t t t t t t t t #.#.=X@.r r r e.u.8 6 e N V V N N N M N M M M D C.&XA.l.<X<X+X{.XX;XW.5 8 *.*.e 0 9 0 0 i.9 9 8 9 0 9 9 e e ",
"4 4 4 4 8 8 8 8 8 8 8 8 8 &XC.8 8 8 8 q 9 h d d d d d d d d C.C._._.C.G.i.tX<X+X&X&X X>X7 4 ; , , 4 4 7 4 5 j.5 8 9 8 8 9 9 8 8 ",
"7 8 e 9 6 6 6 6 6 6 6 6 6 ) |.&XP.P.) ) 4 4 4 _ _ I.I.I.*X}.8.W.W.} 4Xp.tX2XZ.'.>X&X|.< < 4 4 < , , , ; ; ; j., , , , 3 7 7 7 8 ",
"4 4 , , 3 3 , , , , , , 4 4 U.].U.U.[.[..X-XaX].].U.~.~.!.U.}.].I.a.f.7X2XL.XX>X#X#X8 4 4 4 4 4 4 Q 4 4 T.< y.u > , , > - - - 4 ",
"& & & & & & & & & 7.8.& & & & -X#X.X.X.X.X>XaXaXaXaX[.oXjXR.,.J.g.qX2X7XR.=X#X*X[.4.& & ! v & & & H.Q & ~ & r.q.& & & & & & & & ",
"4 8 8 8 5 5 5 8 5 ] R.5 5 5 5 5 5 5 5 5 5 5 5 ;.,.>.,.jXjXjX3X5X7X2XH.` >XXX*X[._ ; ; ; b ; ( ; :.O.; ; > > j.j.> > , : ; > ; , ",
"5 6 6 4 6 4 4 e e e #X~ 9 9 9 8 8 8 7 7 7 D.5XJ.J.wXuXwXgX7X<X5X5X:.^.,X#XXX[.` , , = b z z , <.D.3 3 3 4 4 j.4 4 4 4 5 5 4 4 < ",
"6 6 4 , - ; ; , , 4 4 R.! 8 8 9 9 9 0 9 9 8 ^ 8 4 4 4 4XeX4XA.| T.|.,X^.>X-X` 9 9 9 A ) 4 4 D.;.4 7 7 4 4 r.r.4 4 , , , 4 4 4 8 ",
"7 8 9 9 9 8 8 < 3 < ; > T.+.; D., > > , 3 7 5 8 9 9 e e e 0 U.#X}.[..XU.I.5 5 8 z 8 b 4 ;.<.4 4 4 7 6 8 r.r.8 8 9 9 9 9 9 8 8 8 ",
"4 < < 4 4 5 9 8 8 9 9 8 / 6.8 ,.H.,.;.;.,./ > ; - - - ; ^.*XXX[.Y.` 9 9 8 8 z rXz 1.8 6 | o.4 < , , , 4 j.9 9 0 0 8 8 8 5 8 8 9 ",
"0 0 9 3 3 < , < , , , , , < , 4 ,.D.S.-.H.^ 7 4 4 4 4 *XXXI.` 9 9 9 9 8 8 8 x 3 4 < , 8.^.}.6 7 8 7 4 q.q.> , , , 4 4 8 8 8 8 8 ",
"4 4 9 8 8 7 4 4 7 7 4 7 9 0 t 1.t t D.| 4 4 6 8 8 _ ~ 7.8 7 7 4 4 4 , 3 , , , 0 _ ~.#X[.U.4 4 4 7 6 9 9 0 e 8 8 8 5 6 4 7 8 8 8 ",
"1.t t t r r r 0 9 9 9 9 8 8 8 8 8 7 8 9 9 0 9 9 9 ( A b A b b b A y e 4.6.8.~.@X*X~.~.7 4 4 4 7 9 9 5 5 4 4 5 5 7 5 4 7 7 7 4 5 ",
"9 9 9 9 9 9 9 7 4 7 4 < 4 4 4 < , 4 4 4 7 7 5 7 6 6 6 ~ ~ _ _ ! ( 4 4 8.}.oX~.+.8 7 8 9 0 0 9 8 9 0 0 0 e e 9 9 9 9 e 0 9 9 0 0 ",
"6 4 4 4 4 4 4 4 4 4 4 6 8 8 8 9 9 9 9 8 8 7 7 6 4 7 4 4 4 4 8 8 8 8 9 T.#.0 0 0 e e t t 4 8 8 0 e t t t r r e 9 9 7 3 < > , , , ",
"4 , < < 3 , , ; , > , > ; > ; - - - - , , 3 3 4 7 5 8 8 8 8 7 4 4 8 5 6 5 7 8 9 9 9 8 9 9 9 9 9 8 8 8 7 7 7 8 9 8 9 0 e e 0 8 8 ",
"9 9 6 7 7 7 7 5 5 5 5 6 8 8 8 8 8 8 8 8 8 8 8 8 6 8 8 8 8 8 9 9 9 9 9 e e 0 e 9 9 9 8 8 5 5 7 8 8 8 8 9 9 9 9 9 e 0 0 e e e r r ",
"4 4 5 8 9 9 9 e e t t t t t t t t t t t e e e e 9 9 9 3 4 8 4 3 3 3 , ; > , , , , , , , , , > , , , , , , , > > > < < 4 4 6 7 8 ",
"4 4 4 4 4 < < 4 4 4 4 4 4 4 4 4 4 4 4 4 4 4 4 4 4 7 4 5 4 4 4 8 8 8 8 9 9 8 8 8 8 8 8 6 5 7 6 7 6 6 8 8 8 8 4 4 4 4 4 4 4 4 4 6 ",
", - ; ; ; - - - - - - = - - - - = - - - = = = = ; - ; - ; , ; , ; ; ; ; ; ; - ; ; - ; ; > - - - - - ; - ; , 3 < , < , 8 8 7 7 4 ",
"& & & & & & & & & & & & & & & & & & & & & & & & & & & & & & & & & & & & & & & & & & & & & & & & & & & & & & & & & & & & & & & & "
};
