/* XPM */
static char *_40bcc76b77e4e048aa359c5afad56e5n5uqCEhSXwIz2d8C[] = {
/* columns rows colors chars-per-pixel */
"64 64 60 1 ",
"  c black",
". c #060201",
"X c #4A2C0F",
"o c #4B2D10",
"O c #4C2E11",
"+ c #4F3013",
"@ c #4F3114",
"# c #513215",
"$ c #523417",
"% c #543517",
"& c #533418",
"* c #553518",
"= c #58371A",
"- c #57381B",
"; c #59391B",
": c #5B3B1E",
"> c #5C3B1E",
", c #5B3C1E",
"< c #5D3C1F",
"1 c #5F3E20",
"2 c #603F20",
"3 c #614022",
"4 c #644323",
"5 c #644224",
"6 c #664425",
"7 c #6A4727",
"8 c #6B4827",
"9 c #694728",
"0 c #6A4828",
"q c #6E4B2A",
"w c #6F4C2B",
"e c #6F4C2C",
"r c #704B2B",
"t c #704C2B",
"y c #734F2E",
"u c #744F2E",
"i c #73502E",
"p c #76512F",
"a c #765130",
"s c #785331",
"d c #7A5432",
"f c #7C5633",
"g c #7D5734",
"h c #7F5936",
"j c #86110D",
"k c #88120E",
"l c #D2231E",
"z c #D4231E",
"x c #D3241E",
"c c #D5271E",
"v c #805936",
"b c #FB782E",
"n c #FC792E",
"m c #FAE723",
"M c #FBE724",
"N c #FCE724",
"B c #FBE823",
"V c #FCE823",
"C c #FBE824",
"Z c #FCE924",
/* pixels */
"6qpppppggggvvvvvvvvvvpdpdqppaaaaaaaasssssssssyyyyyyppppyyyppaapp",
"77q00qq77776690000qqqwqqqyeyysssssssqqpppyyyyaaaaqpyyyyyppppyyss",
"ayyyqwyyyqqqq00wwwqq7367733gq<47q69936yyysssssddsq57qqaapppggvvv",
"avvgdggdsdsssyyyq0766000qqwhdppyyaasdddddgghhpssgggapy7qyyayyqqy",
"*$#::336777qwywtwadggggghhhhhhvvvayqydpppyyqy51447yyq777qqq0qyvg",
"2<311238wwypqqqyppyyyyyyqqqqqqypaaayyqqvvvvvgu0yqq1137qyyyyyyqvv",
"7q9qqq05333:1333*<3366qqqqqqqqq77770007yyyyyywypyypyqq99qyyyqqqq",
"ggdspyya97767777766666666000qeeyyyytpaaaaaaassdddddddddsauyyyyyy",
"hgyasdsssffdspysaggdsspyq77q00wyyppqqyyyyyyyppuuqqqq07qyyaattq0q",
"pqvgy36w060ppssadasdddddssspprq74733ggpyyy99<<3333<<22pppq9qqppy",
"0q37yssddsy7q070qvgy66q79uqpyaapappppupuyyppssssgg6366qqqyp03ggd",
"6637yypssssayqtyepyyyye769wqy99qypsssggdppaadddysapppppyyyqq9777",
"777577553659775377q99qyaayqyaghhgggggggayyyuyyyyypaapppapsssddda",
"y63312211<1<133656qpssssss33nnnnnnnnqqqqqqqyyyyyyyyypypppuuuyups",
"*#<;::<<333732<;*#O@:<<133nnccccnnnnnnbb66633333333111<<<:::<<;;",
"OO@#$@$$:OOOOO**##@++OoonnnczzzMMzzznnnnbb$$#$$$$$$*****;<<<<<<<",
"O*6666666qqqqqq0222222<nnnzznnNNNNnnzznnnbb:<<<:::::::::;;;;****",
"33pppppppppgggggggggggnnzznnZCCCCCCZnnzznnbb555999999qqqqqqqqqqq",
"y3666666666<<<<<22233nnznnZZ        ZZnnznnbbqqqqyyyyhddssppyyya",
"hppppppppppaaaapyyywnnznZZ            ZZnznnbyyywqqqytyqqqsdghhv",
"vp533<666q00qqqypaasnnznZ              Znznnbassssasppvvvgapq9qp",
"hpaggytsssppppppq99nnznZ                Znznnssssaagggvvvvvvvvgp",
"uuyqq72644666666qqnnznZ                  Znznnqqqqq6663333336633",
"yyyyywqyyyyyaappppnnznZ                  Znznnppppppppppyq7r8533",
"vvvapdgssssddasssnnznZ                    Znznnvggpppqq9qqpppgvv",
"g;*13535qtytyaaaannznZ                    Znznn:<<5qqyyppppppggg",
"pdhggggdyq963<33nnznZ                      Znznn9q7<1<<333566111",
"aappyyqyyyyssnnnnnznZ                      Znznnnnnyyyyywwe77qyy",
"qqyyyeqpnnnnnzzzzznZ                        Znzzzzznnnnnygsdsayy",
"77767zzzzzzzzcccnnZ                          Znnnnnzzzzzzzz5qqqy",
"<3zzzznnnnnnnnnVZZZ                          CZVVnnnnnnnnnzzzz60",
"XXXXXzzzzzzzzcnnnnnVZVVVZB            ZZVVVVZnnnnnnzzzzzzzzXXX##",
"71<,<3::zzzzzzzzzzzcnnnnnnVZVZ    ZVVZnnnnnnnnzzzzzzzzzz111<<<;*",
"377997qqqqq00zzzzzzzzzzznnnnnnVZZVnnnnnnzzzzzzzzzzz7qqqqqqqqqq99",
"gggggpppppppppuzjzzzzzzzzzbbbnnnnnnzzzzzzzzzzzzjzyyytqqyddddssdd",
"6qqqq<<366qqqqqzjzzM    zzzzzbbnzzzzzzzz    Mzzjzsppppppppuwyq77",
"dppyypdsapypsdgzjzzM         zzzzzz         Zzzjz3746q66369uyqay",
"gghhhgddsdppyqyqzjkzM                      Zzzjz9qqpauaasyyyadsg",
"qq999999999qqq73zjjzZ                      Zzzjzdyppypyyyaaapppp",
"ysssgvggpppq66qyyzjkzm                    Zzzjzssqqq0yppaapppppp",
"dyyyq0qyppagpqq9yzjkzM                    Zzzjz711313<<<15qppppa",
"3660ydaayyqq3qryyxzjkzM                  ZMzjzpsggggddddapyyyypd",
"333<<::<<<<::3331xxzjkzM                ZMzjzppyqqquuyaassdsppyq",
"gggggggggggggddddaxzjkzZ                ZMzjz7qwyapyppyyyqypyyaa",
"6636qqqqqqqqqqqqqqxxzjzzZZ            ZZMzjz63*<<3376999qyqqyyqq",
"7qay00000000000000xxxzjzzzZZ.       ZZMMzjz11331<::***::<<<2777q",
"36:<22<<<<<<33<<<<:lxxzjzzzzZmMMMMMZMMzzjzq66666655531:;-:<;$$$6",
"XXXXXXXXXXXXXXXXXXXXlllzjjzzzzzzzzzzzzjjzXXXXXXXXXXXXXXXXXXXXXXX",
"6qqq999q99999999999999xxzzjjzzzzzzzzjjzz:*******$$**;;;*;;<=*;%<",
"9006855asaapuyywqq77777xxxzzjjjjjjjjzz33<<@#%#::2222436336699551",
"886:$**::3379qqryyiyyqqq6559zzzzzzzzyyyyyyq76576676335343<<<355q",
"7qyyyqq121*-&**;<;;<279qyyaasurq0q51599qqqp57666679qqqqqyyyyyqq0",
"311339yqqyywy0q7662521-*&$#*-:3qywyyeqeyavq09951<<>3qyyppqqq9qqy",
"ppy221<1:::::1<333760673363pyyyyrrrqqq3231166007q7632-<:<56qqqqq",
"36yqq7637757ypgvggdq660qw7q0q77344<2<:<ppdy1633670yypawqq9067qqq",
"vgggdddpyyyyqqqqq7qyypyyyyyypppsppayyytqq7576557yy99639979377769",
"yyyyyyy767614331<6657797000q00933336777qq7qyiiyqypppaayyyuapuypp",
"065555554460qqwyuuyqq770576666qqqqyyypppssgg6qqpsgggddayy721-:<:",
"6<112<:*:-:-*-*$$##:>22379qqqq766q9097eyyyeyyyyyqqq777qyqypaapwq",
"yt0777799990qqqqqqqqqqqq0qqqqqyyyyyaapayyyqq997qqqqyyyyyappassdd",
"669qtyyaagggggggggggssssytt23q6222<*-::::<<<:<;<<:<:::;;-113687q",
"6466611666666665566666666769666qqqeyyqqqqqq7970700qqqq6656566660",
"<#***$###$#+###$+###@+@@*#*$*:*:******#**$*%;#$###*#*:21<1<qq776",
"XXXXXXXXXXXXXXXXXXXXXXXXXXXXXXXXXXXXXXXXXXXXXXXXXXXXXXXXXXXXXXXX"
};
