/* XPM */
static char *c6ea05f909514844d818f1e0af6f15510xIAjRAcIIk9rSlP[] = {
/* columns rows colors chars-per-pixel */
"64 64 61 1 ",
"  c black",
". c #060201",
"X c #4A2C0F",
"o c #4B2D10",
"O c #4C2E11",
"+ c #4F3013",
"@ c #4F3114",
"# c #513215",
"$ c #523417",
"% c #543517",
"& c #533418",
"* c #553518",
"= c #58371A",
"- c #57381B",
"; c #59391B",
": c #5B3B1E",
"> c #5C3B1E",
", c #5B3C1E",
"< c #5D3C1F",
"1 c #5F3E20",
"2 c #603F20",
"3 c #614022",
"4 c #644323",
"5 c #644224",
"6 c #664425",
"7 c #6A4727",
"8 c #6B4827",
"9 c #694728",
"0 c #6A4828",
"q c #6E4B2A",
"w c #6F4C2B",
"e c #6F4C2C",
"r c #704B2B",
"t c #704C2B",
"y c #734F2E",
"u c #744F2E",
"i c #73502E",
"p c #76512F",
"a c #765130",
"s c #785331",
"d c #7A5432",
"f c #7C5633",
"g c #7D5734",
"h c #7F5936",
"j c #86110D",
"k c #88120E",
"l c #D2231E",
"z c #D4231E",
"x c #D3241E",
"c c #D5271E",
"v c #805936",
"b c #F8772E",
"n c #FB782E",
"m c #FC792E",
"M c #FAE723",
"N c #FBE524",
"B c #FCE524",
"V c #FBE823",
"C c #FCE823",
"Z c #FBE824",
"A c #FCE924",
/* pixels */
"6qpppppggggvvvvvvvvvvpdpdqppaaaaaaaasssssssssyyyyyyppppyyyppaapp",
"77q00qq77776690000qqqwqqqyeyysssssssqqpppyyyyaaaaqpyyyyyppppyyss",
"ayyyqwyyyqqqq00wwwqq7367733gq<47q69936yyysssssddsq57qqaapppggvvv",
"avvgdggdsdsssyyyq0766000qqwhdppyyaasdddddgghhpssgggapy7qyyayyqqy",
"*$#::336777qwywtwadggggghhhhhhvvvayqydpppyyqy51447yyq777qqq0qyvg",
"2<311238wwypqqqyppyyyyyyqqqqqqypaaayyqqvvvvvgu0yqq1137qyyyyyyqvv",
"7q9qqq05333:1333*<3366qqqqqqqqq77770007yyyyyywypyypyqq99qyyyqqqq",
"ggdspyya97767777766666666000qeeyyyytpaaaaaaassdddddddddsauyyyyyy",
"hgyasdsssffdspysaggdsspyq77q00wyyppqqyyyyyyyppuuqqqq07qyyaattq0q",
"pqvgy36w060ppssadasdddddssspprq74733ggpyyy99<<3333<<22pppq9qqppy",
"0q37yssddsy7q070qvgy66q79uqpyaapappppupuyyppssssgg6366qqqyp03ggd",
"6637yypssssayqtyepyyyye769wqy99qypbbbggdppaadddysapppppyyyqq9777",
"777577553659775377q99qyaayqyaghhbbbnnbgayyyuyyyyypaapppapsssddda",
"y63312211<1<133656qpssssss33mmmmmmmmbnbbqqqyyyyyyyyypypppuuuyups",
"*#<;::<<333732<;*#O@:<<133mmmmmmmmmmmmbbb6633333333111<<<:::<<;;",
"OO@#$@$$:OOOOO**##@++Ooomccczzzzzzzzmmmmbb$$#$$$$$$*****;<<<<<<<",
"O*6666666qqqqqq0222222<mcczNBmmmmmmmzzmmmbb:<<<:::::::::;;;;****",
"33pppppppppgggggggggggmczNBBAZZZZZZAmmzzmmb5555999999qqqqqqqqqqq",
"y3666666666<<<<<22233mczmBAA        AAmmzmmqqqqqqyyyyhddssppyyya",
"hppppppppppaaaapyyywmczcAA            AAmzmmpyyywqqqytyqqqsdghhv",
"vp533<666q00qqqypaasmczmA              Amzmmaassssasppvvvgapq9qp",
"hpaggytsssppppppq99mmzmA                Amzmmssssaagggvvvvvvvvgp",
"uuyqq72644666666qqmmzmA                  Amzmmqqqqq6663333336633",
"yyyyywqyyyyyaappppmmzmA                  Amzmmppppppppppyq7r8533",
"vvvapdgssssddasssmmzmA                    Amzmmvggpppqq9qqpppgvv",
"g;*13535qtytyaaaammzmA                    Amzmm:<<5qqyyppppppggg",
"pdhggggdyq963<33mmzmA                      Amzmm9q7<1<<333566111",
"aappyyqyyyyssmmmmmzmA                      Amzmmmmmyyyyywwe77qyy",
"qqyyyeqpmmmmmzzzzzmA                        Amzzzzzmmmmmygsdsayy",
"77767zzzzzzzzmmmmmA                          Ammmmmzzzzzzzz5qqqy",
"<3zzzzmmmmmmmmmCAAA                          ZACCmmmmmmmmmzzzz60",
"XXXXXzzzzzzzzmmmmmmCACCCAV            AACCCCAmmmmmmzzzzzzzzXXX##",
"71<,<3::zzzzzzzzzzmmmmmmmmCACA    ACCAmmmmmmmmzzzzzzzzzz111<<<;*",
"377997qqqqq00zzzzzzzzzzzmmmmmmCAACmmmmmmzzzzzzzzzzz7qqqqqqqqqq99",
"gggggpppppppppuzjzzzzzzzzzzzzmmmmmmnnnzzzzzzzzzjzyyytqqyddddssdd",
"6qqqq<<366qqqqqzjzzNN   zzzzzzzznnnzzzzz   NNNzjzsppppppppuwyq77",
"dppyypdsapypsdgzjzzNN        zzzzzz        NANzjz3746q66369uyqay",
"gghhhgddsdppyqyqzjzzNN                     ANzjz9qqpauaasyyyadsg",
"qq999999999qqq73zjzzAN                     Azzjzdyppypyyyaaapppp",
"ysssgvggpppq66qyyzjzzM                    ANzjzssqqq0yppaapppppp",
"dyyyq0qyppagpqq9yzjzzNN                   Azzjz711313<<<15qppppa",
"3660ydaayyqq3qryyyzjzzN                  Azzjzpsggggddddapyyyypd",
"333<<::<<<<::333133zjzzN                Azzjzppyqqquuyaassdsppyq",
"gggggggggggggddddarzjzzA                Azzjz7qwyapyppyyyqypyyaa",
"6636qqqqqqqqqqqqqqqyzjkzAA            AAzzjz63*<<3376999qyqqyyqq",
"7qay0000000000000005xzjkzzAA.       AAzzzjz11331<::***::<<<2777q",
"36:<22<<<<<<33<<<<:#xxkjkzzzAMNNNNNAzzzzjzq66666655531:;-:<;$$$6",
"XXXXXXXXXXXXXXXXXXXXXllkjjkzzzzzzzzzzzjjzXXXXXXXXXXXXXXXXXXXXXXX",
"6qqq999q9999999999999xxxzkjjkzzzzzzzjjzz:*******$$**;;;*;;<=*;%<",
"9006855asaapuyywqq7777xxxxzkjjjjjjjjzz33<<@#%#::2222436336699551",
"886:$**::3379qqryyiyyqqxxxxxzzzzzzzzyyyyyyq76576676335343<<<355q",
"7qyyyqq121*-&**;<;;<279qyxxxxxxxxq51599qqqp57666679qqqqqyyyyyqq0",
"311339yqqyywy0q7662521-*&$#*-:3qywyyeqeyavq09951<<>3qyyppqqq9qqy",
"ppy221<1:::::1<333760673363pyyyyrrrqqq3231166007q7632-<:<56qqqqq",
"36yqq7637757ypgvggdq660qw7q0q77344<2<:<ppdy1633670yypawqq9067qqq",
"vgggdddpyyyyqqqqq7qyypyyyyyypppsppayyytqq7576557yy99639979377769",
"yyyyyyy767614331<6657797000q00933336777qq7qyiiyqypppaayyyuapuypp",
"065555554460qqwyuuyqq770576666qqqqyyypppssgg6qqpsgggddayy721-:<:",
"6<112<:*:-:-*-*$$##:>22379qqqq766q9097eyyyeyyyyyqqq777qyqypaapwq",
"yt0777799990qqqqqqqqqqqq0qqqqqyyyyyaapayyyqq997qqqqyyyyyappassdd",
"669qtyyaagggggggggggssssytt23q6222<*-::::<<<:<;<<:<:::;;-113687q",
"6466611666666665566666666769666qqqeyyqqqqqq7970700qqqq6656566660",
"<#***$###$#+###$+###@+@@*#*$*:*:******#**$*%;#$###*#*:21<1<qq776",
"XXXXXXXXXXXXXXXXXXXXXXXXXXXXXXXXXXXXXXXXXXXXXXXXXXXXXXXXXXXXXXXX"
};
