/* XPM */
static char *_666d3a85a8249d8c4b046756f02390dNPUcp38HUj0Bvw3u[] = {
/* columns rows colors chars-per-pixel */
"32 32 22 1 ",
"  c #7C5633",
". c #7D5734",
"X c #7F5734",
"o c #FE0301",
"O c #FA1107",
"+ c #F51A0C",
"@ c #D7371F",
"# c #EB2714",
"$ c #EC2614",
"% c #F12010",
"& c #E2301A",
"* c #CB3E24",
"= c #D13B22",
"- c #875533",
"; c #915331",
": c #995130",
"> c #A14E2E",
", c #A24E2E",
"< c #AA4C2D",
"1 c #BE4428",
"2 c #B1492B",
"3 c #C54126",
/* pixels */
"......@:  ................#,....",
"......$o1-..............$oo,....",
"......$ooo, ..........,%oo1-....",
"......,%ooo=;........#oooo,.....",
".......$ooooo>.-...1+ooooo,.....",
".......$ooooooo,..$ooooooo,.....",
".......@Oooooooo@+ooooooo1-.....",
"........#oooooooooooooooo,......",
"........#oooooooooooooooo,......",
"........#oooooooooooooooo,......",
"......-.=Ooooooooooooooo1- .....",
".........#oooooooooooooo> ......",
"........@Oooooooooooooooo,......",
".......$oooooooooooooooooo, ....",
"......$oooooooooooooooooooo,....",
".....$oooooooooooooooooooooo1-..",
"...,%oooooooooooooooooooooooo#:.",
"..1+ooooooooooooooooooooooooooo,",
".@Oooooooooooooooooooooooooooooo",
"#ooooooooooooooooooooooooooooooo",
",<3*&Oooooooooooooooooooo$=*<-..",
".......... .#oooooooo>..........",
"............3+ooooooo, .........",
".............$oooooo>  .........",
".............$oooooo:...........",
"..............$oooo=;...........",
"..............$oooo,-.....-.....",
"..............1+ooo:............",
"...............$oo,.............",
"...............$oo,......-......",
"................$@;.............",
"................#,.....-........"
};
