/* XPM */
static char *_1608e6b423746d0aa4d385251189375Vyar4T9ijXQQGioj[] = {
/* columns rows colors chars-per-pixel */
"64 64 49 1 ",
"  c #000000",
". c #4A2C0F",
"X c #4D2E12",
"o c #4F3114",
"O c #523316",
"+ c #553619",
"@ c #58371A",
"# c #57381A",
"$ c #5B3B1D",
"% c #5F3E20",
"& c #603F21",
"* c #644324",
"= c #694627",
"- c #6B4827",
"; c #6A4728",
": c #6B4828",
"> c #6E4B2A",
", c #6F4C2B",
"< c #6F4C2C",
"1 c #704B2B",
"2 c #704C2B",
"3 c #734F2E",
"4 c #744F2E",
"5 c #73502E",
"6 c #76512F",
"7 c #765130",
"8 c #785331",
"9 c #7A5432",
"0 c #7C5633",
"q c #7D5734",
"w c #7F5936",
"e c #86110D",
"r c #D2231E",
"t c #D4231E",
"y c #D3251E",
"u c #D5271E",
"i c #D5331E",
"p c #805936",
"a c #FA782E",
"s c #FC792E",
"d c #FC7D2E",
"f c #FAE723",
"g c #FCE623",
"h c #FBE724",
"j c #FCE724",
"k c #FBE823",
"l c #FCE823",
"z c #FBE824",
"x c #FCE924",
/* pixels */
"*>66666q0qqpppppppppp6969>66777777778888888883333336666333667766",
";;>::>>;;;;**=::::>>>,>>>3<338888888>>66633337777>63333366663388",
"7333>,333>>>>::,,,>>;**;;**q>$*;>*==**33388888998>*;>>77666qqppp",
"7ppq9qq989888333>:;**:::>>,w9663377899999qqww688qqq763;>33733>>3",
"+OO$$***;;;>,3,2,79qqqqqwwwwwwppp73>3966633>3*%**;33>;;;>>>:>3pq",
"&$*%%&*-,,36>>>366333333>>>>>>3677733>>pppppq4:3>>%%*;>333333>pp",
";>=>>>:****$%***+$****>>>>>>>>>;;;;:::;333333,363363>>==>333>>>>",
"qq986337=;;*;;;;;********:::><<333326777777788999999999874333333",
"wq378988800986387qq98863>;;>::,3366>>33333336633>>>>:;>337722>:>",
"6>pq3**,:*:6688797899999888661>;*;**qq6333==$$&***$$&&666>=>>663",
":>*;3889983;>:;:>pq3**>;=4>637767666646333668878qq****>>>36:*qq9",
"***;336888873>23<63333<;*=aaaa=>36888qq9667799838766666333>>=;;;",
";;;*;;*****=;;**;;>==>37aaaa7swaqqqqqqq7333433333677466768889997",
"3***%&&%%$%$%*****>6888a8a*assssssss>>>>>>>333333333636664443468",
"+O$#$$$$***;*&$#+OXo$$$%aassssssssssss*************%%%$$$$$$$$##",
"XXoOOoOO$XXXXX++OOoooXaassssttttttttssssOOOOOOOOOOO+++++#$$$$$$$",
"X+*******>>>>>>:&&&&aa$sssttssssssssttsss$$$$$$$$$$$$$$$####++++",
"**666666666qqqqqqqqqaassttssxzzzzzzxssttss*****======>>>>>>>>>>>",
"3**********$$$$$&&&**sstssxx        xxsstss>>>>>>3333w9988663337",
"w666666666677776333,sstsxx            xxstss6333,>>>323>>>89qwwp",
"p6***$***>::>>>3677yujhsx              xstss7788887866pppq76>=>6",
"w67qq32888666666>=ysshsx                xstss888877qqqppppppppq6",
"443>>;&*********>ytutjx                  xstss>>>>>*************",
"33333,>3333377666yuuhjx                  xstss66666666663>;1-***",
"ppp769q8888997888ustsxh                   xstsspqq666>>=>>666qpp",
"q#+%****>2323777yushsx                    xstss$$$*>>33666666qqq",
"69wqqqq93>=**$**sutsx                      xstss=>;$%$$******%%%",
"776633>333388sssuutsx                      xstsssss33333,,<;;>33",
">>333aa6ssssstttttsx                        xstttttsssss3q898733",
";;;*aataaatttsssssx                          xssssstttttttt*>>>3",
"$*ttttssssssssslxxx                   ff asf zxllssssssssstttt*:",
".....ttttttttsssssslxlllxk            dxddidxssshsstttttttt...OO",
";%$$$*$$ttttttttttsssssssslxlx    xllxsusgsusshhhttttttt%%%$$$#+",
"*;;==;>>>>>::tttttttttttsssssslxxlsssssutfatthttttt;>>>>>>>>>>==",
"qqqqq6666666664tettttttttttttssssssttttttftttttet3332>>399998899",
"*>>>>$$***>>>>>tetth    tttttttttttttttt    httet8666666664,3>;;",
"96633698763689qtetth         tttttt         xttet*;**>****=43>73",
"qqwwwq9989663>3>tetth                      xttet=>>674778333798q",
">>=========>>>;*tettxh                     xttet9366363337776666",
"3888qpqq666>**>33tettf                    xttety8>>>:36677666666",
"9333>:>3667q6>>=3tetthh                   xttety%%*%*$$$%*>66667",
"***:397733>>*>1333tetthh                 xttetyyqqqq999976333369",
"***$$$$$$$$$$***%**tehthh               xttetyyy>>>443778898663>",
"qqqqqqqqqqqqq999971tettx hh             xttety>,376366333>363377",
"****>>>>>>>>>>>>>>>3tethxx            xxttetyy+$$**;*===>3>>33>>",
";>73::::::::=::::::**tetthxx        xxtttetyy**%$$$+++$$$$$&;;;>",
"**$$&&$$$$$$**$$$$$O%%tettttxfhhhhhxttttety**********%$##$$#OOO*",
".......................teetttttttttttteetyr.r...................",
"*>>>===>===============*tteetttttttteettyy++++++OO++###+##$@+#O$",
"=::*-**78776433,>>;;;;;;;*tteeeeeeeettyyyyoOOO$$&&&&*******==**%",
"--*$O++$$***=>>133533>>>***=ttttttttyy3333>;**;**;*******$$$***>",
";>333>>%&%++O++#$##$&;=>3377841>:>*y*yy>>>6*;****;=>>>>>33333>>:",
"*%%**=3>:33>3:>;**&*&%#+OOo+#$*>3,33<><37p>:==*%$$$*>3366>>>=>>3",
"663&&%$%$$$$$%$***;*:*;****63333111>>>*&*%%**::;>;**&#$$$**>>>>>",
"**3>>;**;;*;36qpqq9>**:>,;>:>;;***$&$$$6693%****;:3367,>>=:*;>>>",
"pqqq99963333>>>>>;>33633333366686673332>>;*;***;33==**==;=*;;;*=",
"3333333;*;*%***%$***;;=;:::>::=*****;;;>>;>3553>3666773334764366",
":**********:>>,3443>>;;:*;****>>>>33366688qq*>>68qqq99733;&%#$$$",
"*$%%&$$+$#$#+#+OOOO$$&&*;=>>>>;**>=:=;<333<33333>>>;;;>3>36776,>",
"32:;;;;====:>>>>>>>>>>>>:>>>>>333337767333>>==;>>>>3333376678899",
"**=>23377qqqqqqqqqqq8888322&*>*&&&$+#$$$$$$$$$#$$$$$$$###%%**-;>",
"*****%%******************;*=***>>><33>>>>>>==;:;::>>>>*********:",
"$O+++OOOOOOoOOOOoOOOoooo+O+O+$+$++++++O++O+O#OOOOO+O+$&%$%$>>;;*",
"................................................................"
};
