/* XPM */
static char *_e49305b8f0d443cbc110ff253feff1c[] = {
/* columns rows colors chars-per-pixel */
"32 32 188 2 ",
"   c #0D1D2F",
".  c #151D2F",
"X  c #1B1E2F",
"o  c #0E1E31",
"O  c #131E30",
"+  c #1B1E30",
"@  c #221F2D",
"#  c #211E30",
"$  c #0F233A",
"%  c #122237",
"&  c #1C2337",
"*  c #15253D",
"=  c #1A2439",
"-  c #2B242E",
";  c #31292A",
":  c #202437",
">  c #4E2416",
",  c #5A2716",
"<  c #5A261B",
"1  c #4E341F",
"2  c #672D1E",
"3  c #6B2B1E",
"4  c #722D1F",
"5  c #6B311E",
"6  c #643A1F",
"7  c #70331E",
"8  c #5E2A2B",
"9  c #593921",
"0  c #642C2B",
"q  c #772F23",
"w  c #683A28",
"e  c #733323",
"r  c #7D3323",
"t  c #763F27",
"y  c #7C3B25",
"u  c #78312F",
"i  c #7A382C",
"p  c #653735",
"a  c #703237",
"s  c #753A3D",
"d  c #674427",
"f  c #6E4426",
"g  c #664428",
"h  c #6D4529",
"j  c #6C482C",
"k  c #724326",
"l  c #7D4626",
"z  c #754529",
"x  c #7C442C",
"c  c #734B2C",
"v  c #7B4D2C",
"b  c #75512F",
"n  c #7A512F",
"m  c #7F4431",
"M  c #7D5333",
"N  c #112741",
"B  c #142A44",
"V  c #1B2A42",
"C  c #132E4A",
"Z  c #15314F",
"A  c #1B314F",
"S  c #163454",
"D  c #193454",
"F  c #183758",
"G  c #193A5C",
"H  c #253955",
"J  c #2A3D5C",
"K  c #3B3F55",
"L  c #1B3E63",
"P  c #5B3846",
"I  c #523E59",
"U  c #703E46",
"Y  c #693E58",
"T  c #3B435C",
"R  c #1F446D",
"E  c #254262",
"W  c #2C4767",
"Q  c #24466B",
"!  c #28496E",
"~  c #344D6C",
"^  c #2A4C74",
"/  c #2F5075",
"(  c #345274",
")  c #3A5374",
"_  c #3E5877",
"`  c #33557C",
"'  c #3D5A7C",
"]  c #574543",
"[  c #5C4157",
"{  c #5A485B",
"}  c #6C494F",
"|  c #6B4455",
" . c #6F4D50",
".. c #7B4751",
"X. c #474765",
"o. c #514764",
"O. c #5F5664",
"+. c #4B5473",
"@. c #415879",
"#. c #475878",
"$. c #535472",
"%. c #695670",
"&. c #625977",
"*. c #8E3E1D",
"=. c #843226",
"-. c #8C3E25",
";. c #843728",
":. c #8A3328",
">. c #843E2B",
",. c #8C3B2B",
"<. c #943D2A",
"1. c #863E32",
"2. c #874626",
"3. c #8C4127",
"4. c #8E4B25",
"5. c #83452D",
"6. c #8A442B",
"7. c #834C2D",
"8. c #8A4C2B",
"9. c #954E27",
"0. c #954728",
"q. c #934C2B",
"w. c #994F29",
"e. c #82502D",
"r. c #8D522C",
"t. c #94542C",
"y. c #9F522C",
"u. c #854338",
"i. c #9A4330",
"p. c #835532",
"a. c #8A5633",
"s. c #855B35",
"d. c #8C5B35",
"f. c #865938",
"g. c #945332",
"h. c #935C33",
"j. c #9B5C32",
"k. c #9C573E",
"l. c #955A38",
"z. c #985A38",
"x. c #A9572B",
"c. c #A95F2F",
"v. c #A04F34",
"b. c #A95237",
"n. c #A35D32",
"m. c #AA5A33",
"M. c #AE5938",
"N. c #B25D32",
"B. c #B3553A",
"V. c #BB5838",
"C. c #C1573E",
"Z. c #8D4F49",
"A. c #914A4F",
"S. c #905146",
"D. c #8D4950",
"F. c #87505C",
"G. c #A55246",
"H. c #A05B43",
"J. c #B45343",
"K. c #BE5640",
"L. c #375B83",
"P. c #3E5E82",
"I. c #3F6085",
"U. c #3D6189",
"Y. c #425E80",
"T. c #495F82",
"R. c #496687",
"E. c #44658B",
"W. c #4A6589",
"Q. c #4A6A8E",
"!. c #5F6181",
"~. c #456A93",
"^. c #4B6E94",
"/. c #4F7196",
"(. c #4E729A",
"). c #537297",
"_. c #53769D",
"`. c #57799E",
"'. c #5679A2",
"]. c #597EA6",
"[. c #567DA8",
"{. c #5F84AE",
"}. c #5E86B2",
"|. c #6185AD",
" X c #628AB5",
".X c #638BB7",
"XX c #6E97C4",
"oX c #729CCB",
/* pixels */
"R G L L L R R R R R R R R R R L R R R Q Q R R L L L G S S F C L ",
"R G L L L G G ( L.R R R R R R L F S Z Z S Z S G G G L G S F L B ",
"R R L.[.` R R ~. XE.L L L G ( _.P.S S F  XQ.' $ $ C ]./.E C G S ",
"C C ( XXY.H V ~ |.R.V V * * _ `.H B B B ~ _ J A D A _.{.{.* $ S ",
"        . .                                                     ",
"L L L o p 7.t., p.8.k f > w z z e y 0 3.7.6.6.m < -.0.-.- D D F ",
"R S G % j d h 3 8.9.q.7.< 2.c v 2.-.> y z 2.4.t < k 6 5.X G G R ",
"R S G % f.s.h.:.r.b c l 3 n r.8.t.y.3 x.a.g.p.1.< w.l 5.X L G R ",
"R Z L % l.s.d.,.d.j.j.j.r r.n n v h < r.7.p.j.v.x 8.7.8.. (.' R ",
"^ '.L % d.s.h.6.j.n.d.h.=.h.s.s.h.d.r t.t.4.h <.3 l v x X  X XR ",
"^ '.L % d.s.d.6.h.h.d.j.=.h.s.d.h.h.r j.d.d.s.g.e k 1 5.X Q / L ",
"L G L % h.s.s.,.d.d.d.d.;.d.h.h.h.j.r d.s.d.d.h.>.s.d p.X R L L ",
"L G Z % d.d.s.,.h.h.s.d.=.d.d.s.d.j.r m.d.d.s.m.>.s.h 7.X R L Z ",
"G L F = d.d.d.,.d.d.h.d.5.h.j.h.h.d.r h.s.d.h.m.=.s.c 7.X R R G ",
"C L F = s.s.s.>.d.d.d.h.;.n.d.h.d.d.y h.d.s.j.m.=.s.c 5.X R L S ",
"L G F & h.h.h.>.d.d.s.h.=.j.d.d.d.h.r n.h.h.h.m.=.s.v l X L.L.G ",
"! ]._.& j.h.h.7.d.j.d.j.,.h.c.j.n.d.x j.j.s.d.M.r s.n v X ^. XG ",
"^ ]._.: j.h.j.>.s.d.h.j.,.m.[ [ } h.y j.j.h.j.M.q h.v 7.X Q U.G ",
"R S F & j.d.j.>.h.h.s.j.u J.@.( O.H.q j.n.h.j.M.4 d.v v . R R G ",
"R F S = j.h.n.>.h.d.j.G.Y ) W.$.+.#.Y J.h.s.j.V.4 h.p.z . L Z S ",
"Q L C * j.d.z.5.j.h.z.!.^.%.z.N.J.J P.F.n.d.j.V.3 h.p.z . G Z S ",
"Q L C * j.h.z.;.j.h.Z.( @.S.h.s.z.[ ( $.z.h.h.V.3 m.p.v . L C S ",
"Q R C * j.d.h.=.h.j.Z.P.T.k.s.s.s...E P.K.h.s.B.3 N.s.d.. L C S ",
"R G S * n.d.h.=.n.d.G.o.Y.D.m.s.k.I G ).C.h.h.b.4 n.M p.. G Z S ",
"R G W * n.j.h.=.z.d.m.A.E.+.| | X.( E. .x.r.v x > l j 9 . F Z S ",
"R oX'.* h.j.j.=.j.s.s.B.&.+.#.Y.) T K s l v n 5.4 g.d.v - F Z S ",
"R ~ ` * j.p.a.2 0.l h d a 1.U { P s a i.7.e.e.q.2 v g f ; '.{.G ",
"R C G o M j h < 6.p.9.a.u.5 *.5 7 e 8 e y t t 0 < u i p.] E.J G ",
"R C N   o O O # + O + + @ @ X X . . X . . . . X . . . X   $ C F ",
"R N F ).I.G G G G E.E.S S S S ( Q.I.G L L |.^.D D G D S S S N C ",
"G G R oXI.G R R }.~.E.G L L L Q.^.E S Z C |.Q.Z S G L (. XG S R ",
"R R R ` R S G S S S N F G S G Q ! L L R R S S S Z Z S S G G Z R "
};
