/* XPM */
static char *d3ebf854be1e4e0df10300a9646c5a91deaAA77dy0aaoljD[] = {
/* columns rows colors chars-per-pixel */
"64 64 48 1 ",
"  c black",
". c #060201",
"X c #311432",
"o c #4A2C0F",
"O c #4C2E11",
"+ c #4F3013",
"@ c #4F3114",
"# c #513215",
"$ c #523417",
"% c #543517",
"& c #533418",
"* c #553518",
"= c #58371A",
"- c #57381B",
"; c #59391B",
": c #5B3B1E",
"> c #5C3B1E",
", c #5B3C1E",
"< c #5D3C1F",
"1 c #5F3E20",
"2 c #603F20",
"3 c #614022",
"4 c #644323",
"5 c #644224",
"6 c #664425",
"7 c #6A4727",
"8 c #6B4827",
"9 c #694728",
"0 c #6A4828",
"q c #6E4B2A",
"w c #6F4C2B",
"e c #6F4C2C",
"r c #704B2B",
"t c #704C2B",
"y c #734F2E",
"u c #744F2E",
"i c #73502E",
"p c #76512F",
"a c #765130",
"s c #785331",
"d c #7A5432",
"f c #7C5633",
"g c #7D5734",
"h c #7F5936",
"j c #805936",
"k c #710193",
"l c #E39FF6",
"z c white",
/* pixels */
"6qpppppggggjjjjjjjjjjpdpdqppaaaaaaaasssssssssyyyyyyppppyyyppaapp",
"77q00qq77776690000qqqwqqqyeyysssssssqqpppyyyyaaaaqpyyyyyppppyyss",
"ayyyqwyyyqqqq00wwwqq7367733gq<47q69936yyysssssddsq57qqaapppggjjj",
"ajjgdggdsdsssyyyq0766000qqwhdppyyaasdddddgghhpssgggapy7qyyayyqqy",
"*$#::336777qwywtwadggggghhhhhhjjjayqydpppyyqy51447yyq777qqq0qyjg",
"2<311238wwypqqqyppyyyyyyqqqqqqypaaayyqqjjjjjgu0yqq1137qyyyyyyqjj",
"7q9qqq05333:1333*<3366qqqqqqqqq77770007yyyyyywypyypyqq99qyyyqqqq",
"ggdspyya97767777766666666000qeeyyyytpaaaaaaassdddddddddsauyyyyyy",
"hgyasdsssffdspysaggdsspyq77q00wyyppqqyyyyyyyppuuqqqq07qyyaattq0q",
"pqjgy36w060ppssadasdddddssspprq74733ggpyyy99<<3333<<22pppq9qqppy",
"0q37yssddsy7q070qjgy66q79uqpyaapappppupuyyppssssgg6366qqqyp03ggd",
"6637yypssssayqtyepyyyye769llll9qypsssggdppaadddysapppppyyyqq9777",
"777577553659775377q99qyallllalhlgggggggayyyuyyyyypaapppapsssddda",
"y63312211<1<133656qpssslsl3lllllllllqqqqqqqyyyyyyyyypypppuuuyups",
"*#<;::<<333732<;*#O@:<<1llllllllllllll6666633333333111<<<:::<<;;",
"OO@#$@$$:OOOOO**##@++Ollllllkkkkkkkkllll$$$$#$$$$$$*****;<<<<<<<",
"O*6666666qqqqqq02222ll<lllkkllllllllkklll:::<<<:::::::::;;;;****",
"33pppppppppgggggggggllllkkllzzzzzzzzllkkll55555999999qqqqqqqqqqq",
"y3666666666<<<<<22233llkllzz        zzllkllqqqqqqyyyyhddssppyyya",
"hppppppppppaaaapyyywllklzz            zzlkllpyyywqqqytyqqqsdghhj",
"jp533<666q00qqqypaakkzzlz              zlkllaassssasppjjjgapq9qp",
"hpaggytsssppppppq9kllzlz                zlkllssssaagggjjjjjjjjgp",
"uuyqq72644666666qkkkkzz                  zlkllqqqqq6663333336633",
"yyyyywqyyyyyaapppkkkzzz                  zlkllppppppppppyq7r8533",
"jjjapdgssssddasssklklzz                   zlklljggpppqq9qqpppgjj",
"g;*13535qtytyaaakklzlz                    zlkll:<<5qqyyppppppggg",
"pdhggggdyq963<33lkklz                      zlkll9q7<1<<333566111",
"aappyyqyyyysslllkkklz                      zlklllllyyyyywwe77qyy",
"qqyyyllplllllkkkkklz                        zlkkkkklllllygsdsayy",
"7776llklllkkklllllz                          zlllllkkkkkkkk5qqqy",
"<3kkkklllllllllzzzz                   zz llz zzzzlllllllllkkkk60",
"oooookkkkkkkkllllllzzzzzzz            lzllXlzlllzllkkkkkkkkooo##",
"71<,<3::kkkkkkkkkkllllllllzzzz    zzzzlklzlkllzzzkkkkkkk111<<<;*",
"377997qqqqq00kkkkkkkkkkkllllllzzzzlllllkkzlkkzkkkkk7qqqqqqqqqq99",
"gggggpppppppppukXkkkkkkkkkkkkllllllkkkkkkzkkkkkXkyyytqqyddddssdd",
"6qqqq<<366qqqqqkXkkz    kkkkkkkkkkkkkkkk    zkkXksppppppppuwyq77",
"dppyypdsapypsdgkXkkz         kkkkkk         zkkXk3746q66369uyqay",
"gghhhgddsdppyqyqkXkkz                      zkkXk9qqpauaasyyyadsg",
"qq999999999qqq73kXkkzz                     zkkXkdyppypyyyaaapppp",
"ysssgjggpppq66qyykXkkz                    zkkXkksqqq0yppaapppppp",
"dyyyq0qyppagpqq9ykXkkzz                   zkkXkk11313<<<15qppppa",
"3660ydaayyqq3qryyykXkkzz                 zkkXkkkggggddddapyyyypd",
"333<<::<<<<::333133kXzkzz               zkkXkkkkqqquuyaassdsppyq",
"gggggggggggggddddarkXkkz zz             zkkXkkqwyapyppyyyqypyyaa",
"6636qqqqqqqqqqqqqqqykXkzzz            zzkkXkkk*<<3376999qyqqyyqq",
"7qay00000000000000055kXkkzzz.       zzkkkXkkk331<::***::<<<2777q",
"36:<22<<<<<<33<<<<:#11kXkkkkzzzzzzzzkkkkXkk66666655531:;-:<;$$$6",
"oooooooooooooooooooooookXXkkkkkkkkkkkkXXkkkokooooooooooooooooooo",
"6qqq999q9999999999999996kkXXkkkkkkkkXXkkkk******$$**;;;*;;<=*;%<",
"9006855asaapuyywqq77777776kkXXXXXXXXkkkkkk@#%#::2222436336699551",
"886:$**::3379qqryyiyyqqq6559kkkkkkkkkkyyyyq76576676335343<<<355q",
"7qyyyqq121*-&**;<;;<279qyyaasurq0q5k5kkqqqp57666679qqqqqyyyyyqq0",
"311339yqqyywy0q7662521-*&$#*-:3qywyyeqeyajq09951<<>3qyyppqqq9qqy",
"ppy221<1:::::1<333760673363pyyyyrrrqqq3231166007q7632-<:<56qqqqq",
"36yqq7637757ypgjggdq660qw7q0q77344<2<:<ppdy1633670yypawqq9067qqq",
"jgggdddpyyyyqqqqq7qyypyyyyyypppsppayyytqq7576557yy99639979377769",
"yyyyyyy767614331<6657797000q00933336777qq7qyiiyqypppaayyyuapuypp",
"065555554460qqwyuuyqq770576666qqqqyyypppssgg6qqpsgggddayy721-:<:",
"6<112<:*:-:-*-*$$##:>22379qqqq766q9097eyyyeyyyyyqqq777qyqypaapwq",
"yt0777799990qqqqqqqqqqqq0qqqqqyyyyyaapayyyqq997qqqqyyyyyappassdd",
"669qtyyaagggggggggggssssytt23q6222<*-::::<<<:<;<<:<:::;;-113687q",
"6466611666666665566666666769666qqqeyyqqqqqq7970700qqqq6656566660",
"<#***$###$#+###$+###@+@@*#*$*:*:******#**$*%;#$###*#*:21<1<qq776",
"oooooooooooooooooooooooooooooooooooooooooooooooooooooooooooooooo"
};
