/* XPM */
static char *fdb1f1a74814428bed88ad2e60ea8277MdQUTvML4ym6GvXQ[] = {
/* columns rows colors chars-per-pixel */
"32 32 131 2 ",
"   c #4A2B0E",
".  c #4A2C0F",
"X  c #4C2E12",
"o  c #4E3116",
"O  c #523216",
"+  c #523417",
"@  c #543417",
"#  c #523418",
"$  c #56371B",
"%  c #56381C",
"&  c #58381B",
"*  c #5B3B1F",
"=  c #5D3C1F",
"-  c #722D13",
";  c #732F15",
":  c #773519",
">  c #7C3C1F",
",  c #5F3F21",
"<  c #603F21",
"1  c #5F4023",
"2  c #634122",
"3  c #634224",
"4  c #674425",
"5  c #684526",
"6  c #6E4A2A",
"7  c #704B2B",
"8  c #714D2D",
"9  c #744F2E",
"0  c #74502E",
"q  c #765130",
"w  c #785230",
"e  c #7B5532",
"r  c #7C5633",
"t  c #7D5734",
"y  c #7F5834",
"u  c #B71F08",
"i  c #86270D",
"p  c #9E391E",
"a  c #A5270F",
"s  c #A42811",
"d  c #B52E16",
"f  c #A83018",
"g  c #AF3E23",
"h  c #C81F0C",
"j  c #DC1707",
"k  c #D71A09",
"l  c #D81F0C",
"z  c #EE0E03",
"x  c #F60701",
"c  c #FB0301",
"v  c #FE0301",
"b  c #FB0401",
"n  c #FD0602",
"m  c #F70802",
"M  c #F10E04",
"N  c #FD0803",
"B  c #FB0B04",
"V  c #FC0B04",
"C  c #FB0F06",
"Z  c #FC0C04",
"A  c #E51103",
"S  c #E61607",
"D  c #EE1306",
"F  c #E61C0C",
"G  c #ED1809",
"H  c #EE1E0E",
"J  c #FA1107",
"K  c #F91308",
"L  c #F91509",
"P  c #F3190B",
"I  c #F5190B",
"U  c #F51B0C",
"Y  c #F31F0F",
"T  c #F41D0E",
"R  c #CA240F",
"E  c #D9210F",
"W  c #DE230F",
"Q  c #DB2914",
"!  c #DB2C18",
"~  c #DC2E18",
"^  c #C53119",
"/  c #CF331C",
"(  c #D6371F",
")  c #DD321B",
"_  c #DD331C",
"`  c #DE351E",
"'  c #D5381F",
"]  c #DA381F",
"[  c #E42110",
"{  c #E12512",
"}  c #E82210",
"|  c #EF2312",
" . c #ED2412",
".. c #EB2614",
"X. c #ED2715",
"o. c #E62815",
"O. c #EB2916",
"+. c #EC2815",
"@. c #E32E19",
"#. c #E72D19",
"$. c #F22010",
"%. c #E2311B",
"&. c #E4301A",
"*. c #E2321C",
"=. c #CB3F24",
"-. c #D23B21",
";. c #D53B22",
":. c #D23D23",
">. c #DA3820",
",. c #864628",
"<. c #88492B",
"1. c #8B4D2C",
"2. c #8D4E2D",
"3. c #815A36",
"4. c #915331",
"5. c #935532",
"6. c #945633",
"7. c #945734",
"8. c #A74629",
"9. c #A94A2B",
"0. c #AC4E2E",
"q. c #B14225",
"w. c #BF4327",
"e. c #B64A2B",
"r. c #B64B2C",
"t. c #A25230",
"y. c #C54327",
"u. c #CB4125",
"i. c #CC4025",
"p. c #C04629",
"a. c #C54428",
/* pixels */
"-.p.3.3.3.3.3.3.3.3.3.3.3.3.3.3.3.3.3.3.3.9 e e 3.3.3.3.3.3.3.3.",
"C &.3.3.3.3.3.3.3.3.3.3.3.3.3.3.3.3.3.3.3.r 8 e 3.3.3.3.r 3.3.3.",
"N $.3.3.2 6 3.3.3.3.3.3.3.0 3.3.3.3.3.3.3.3.3.3.3.3.3.3.8 r 3.3.",
"v $.p.3.t 3.3.3.3.3.3.3.3.8 8 3.3.3.3.3.3.3.3.3.3.3.3.3.9 8 3.3.",
"U V %.3.3.3.3.3.3.3.3.3.3.q 3.3.3.3.3.3.3.3.3.3.3.3.3.3.3.3.3.3.",
" .v $.0.3.3.3.3.3.3.3.3.3.3.3.3.3.3.3.3.3.3.3.3.3.3.3.3.3.3.3.3.",
"_ L L / w 0 0 8 0 0 0 0 0 0 0 0 6 0 0 0 0 8 8 < 6 r r 3.y 3.3.i.",
"s D b F p 5 5 * 5 5 5 5 5 5 4 O o O o o o @ + o @ 2 2 , 2 = d [ ",
"6.) K L :.3.3.3.3.3.3.3.3.3.0.9.8.t t t t t t r y r y y 3.a.$.n ",
"3.r.U V O.3.3.3.3.3.3.3.3.i.#.Y i.3.3.3.3.3.3.3.3.y 3.3.7.&.V N ",
"3.4.G v $.6.3.3.3.3.3.3.0.#.v J #.3.3.3.3.3.3.8 6 y 3.3.;.K n U ",
"3.y G n J u.3.3.3.3.3.3.;.C n v X.0.3.3.3.3.3.w 6 y 3.0.+.n C ;.",
"3.3.*.N N *.3.3.3.3.3.3.O.N n J L ] 0.3.3.3.3.3.3.3.3.;.Z N T r.",
"3.3.u.L n  .7.3.3.3.3.6.$.v K X.L U :.3.3.3.3.3.3.3.6.O.N N ;.y ",
"3.3.7.O.N P q.0 e 0 0 =.J n | r.U V O.3.3.3.3.3.3.3.r.T n T a.y ",
"1 % # R m m l : 2 o O j v v W > M v m f $ % o X o X k x x h 3 # ",
"3.0 3.0.O.V $.r.3.3.3. .n J u.y } n N Q ,.6 5 9 q 8.| v  .9.q 0 ",
"3.3.3.3.;.L L ;.3.3.3.$.v Y 6.3.:.U n $.t.3.3.3.3.:.L L ` 3.3.3.",
"3.3.3.3.r.Y V O.6.3.0.Y v X.3.3.3.+.n J :.3.3.3.0.O.V $.e.3.3.3.",
"y 3.7 3.6.O.V Y r.3.a.L L &.r 8 r ` N N #.3.3.3.:.L L ! <.3.3.3.",
"y 3.3.w 3.:.L L ` 3.` L L u.r 6 6 a.L v $.3.3.6.O.V Y g 8 3.3.3.",
"y 3.3.w 3.0.X.v X.0.O.V U r.3.3.3.3.$.v L a.3.r.Y V O.5.3.3.3.3.",
"3.3.3.3.3.3.` L L ;.$.v $.6.3.3.3.3.&.N N @.t ;.L K ( 3.y r e 0 ",
"O @ & @ $ $ a D c z x c A   . X     u x v z i S b M s $ # O $ * ",
"3.8 8 8 8 8 1.{ J C B J ~ 0 9 q q e e | V I ' K n | 2.3.3.3.3.3.",
"3.3.3.3.3.3.3.y.L Z N L ;.3.3.3.3.3.3.+.n J $.N N *.3.3.3.3.3.y ",
"3.3.3.3.3.3.3.0.$.v n C ;.3.3.3.3.3.3.*.N N J n J u.3.3.3.3.3.3.",
"3.3.3.3.3.3.8 3.#.n n V ;.3.3.3.3.3.3.:.J n C v X.6.3.3.t 3.3.t ",
"3.3.3.3.3.e 4 3.u.C n N *.3.3.3.3.9 6 t.U n n C O.3.3.8 5 3.3.3.",
"3.3.3.r 3.3.3.3.6.O.n n ` 3.3.3.3.r 9 6.$.v v n >.3.3.6 8 3.3.y ",
"q w 6 6 5 6 8 0 q w.o...-.q 8 0 9 7 8 6 H v v N ^ 0 8 3.r r r 3.",
"< 2 4 6 5 = & O * = > ; - O O O O * & = E v v b : O O O O , < $ "
};
