/* XPM */
static char *bc3d84ba39724a89fe141bc14f943a51d8tyI5EmnbiLyoqR[] = {
/* columns rows colors chars-per-pixel */
"32 32 115 2 ",
"   c #4A2B0E",
".  c #4A2C0F",
"X  c #4C2F13",
"o  c #4E3116",
"O  c #523216",
"+  c #523417",
"@  c #543417",
"#  c #523418",
"$  c #55371A",
"%  c #56381C",
"&  c #58381B",
"*  c #5B3B1F",
"=  c #5D3C1F",
"-  c #5F3F21",
";  c #603F21",
":  c #3C7117",
">  c #3C7717",
",  c #3E7719",
"<  c #3E7818",
"1  c #474210",
"2  c #524A1B",
"3  c #445C15",
"4  c #52611E",
"5  c #437E1D",
"6  c #487A1E",
"7  c #5F4023",
"8  c #634122",
"9  c #634224",
"0  c #664324",
"q  c #674425",
"w  c #684526",
"e  c #6E4A2A",
"r  c #704B2B",
"t  c #714D2D",
"y  c #744F2E",
"u  c #675527",
"i  c #6F5B2D",
"p  c #74502E",
"a  c #765130",
"s  c #785330",
"d  c #7B5532",
"f  c #7C5633",
"g  c #7D5734",
"h  c #765F30",
"j  c #7F5834",
"k  c #586320",
"l  c #5B7A27",
"z  c #6A6C2C",
"x  c #6D6E2E",
"c  c #706F2F",
"v  c #65712A",
"b  c #68732C",
"n  c #6D762F",
"m  c #637D2B",
"M  c #667B2C",
"N  c #637F2C",
"B  c #657E2C",
"V  c #687A2E",
"C  c #7B6334",
"Z  c #766B32",
"A  c #727031",
"S  c #815A36",
"D  c #1F9B1A",
"F  c #1B9E1A",
"G  c #1E9E1B",
"H  c #398019",
"J  c #328C1B",
"K  c #358D1C",
"L  c #3A8A1D",
"P  c #3D8E1E",
"I  c #279319",
"U  c #269419",
"Y  c #299119",
"T  c #2B961B",
"R  c #2D941B",
"E  c #21991A",
"W  c #259A1B",
"Q  c #219D1B",
"!  c #229D1C",
"~  c #249D1C",
"^  c #2A9B1D",
"/  c #2E9A1E",
"(  c #299C1D",
")  c #32971E",
"_  c #319A1E",
"`  c #37981F",
"'  c #379720",
"]  c #3D9120",
"[  c #399720",
"{  c #3E9521",
"}  c #40801D",
"|  c #44821E",
" . c #42881F",
".. c #498621",
"X. c #448920",
"o. c #408F20",
"O. c #448D21",
"+. c #498A23",
"@. c #4F8824",
"#. c #4B8F25",
"$. c #4E8D25",
"%. c #528225",
"&. c #568727",
"*. c #558927",
"=. c #518C26",
"-. c #5C8028",
";. c #598729",
":. c #5C8529",
">. c #578828",
",. c #419322",
"<. c #459223",
"1. c #409422",
"2. c #479124",
"3. c #489124",
"4. c #60812B",
/* pixels */
"G / n S S S S S S S S S S S S S S S S S S y d d S S S S S S S ;.",
"G ! =.S S S S S S S S S S S S S S S S S S f t d S S S S f S A [ ",
"^ G _ n 8 e S S S S S S S p S S S S S S S S S S S S S S t x *.~ ",
",.G ~ >.g S S S S S S S S t t S S S S S S S S S S S S S y .._ ( ",
"&.^ G _ B S S S S S S S S a S S S S S S S S S S S S S S M 1.G <.",
"h #.! ! #.S S S S S S S S S S S S S S S S S S S S S S S $.~ _ :.",
"g B / G / l p t p p p p p p p p e p p p p t t ; e f f M [ G <.C ",
"o % J G G  .w * w w w w w w q O o O o o o @ + o @ 8 k L Q R 5 w ",
"S d -.^ Q { S S S S S S S S S d s g g g g g g f j f m / / #.C j ",
"S S C 1.G _ ;.S S S S S S S S S S S S S S S S S S c #./ _ B S j ",
"S g 0 @.~ G 1.S S S S S S S A :.:.n S S S S S t e ;.( ~ ,.A S S ",
"S j 8 z _ G _ A S S S S S S B ~ Q / n S S S S s e ,.! ! ;.S S j ",
"S S S S $.^ ^ ;.S S S S S A #.Q G ! 4.S S S S S A [ G _ B S S S ",
"S S S j n ` ~ <.C S S S S ;.( G G ! $.S S S S S B / / #.S S S j ",
"S S S d i ] Q ) b p p j f ,.Q Q ^ Q ` B S S S S #./ / B S S S j ",
"7 % # $ $ H E E | o O X : E G W T G G } $ % o 3 Y G Y 3 X o 9 # ",
"S p S S S n ` ~ <.C S S =.! ! <...Q Q P e e w %.^ ^ +.f d d a p ",
"S S S S S C { Q / 4.S C { Q / 4.n ` ~ <.C S A <.~ [ n S S S S S ",
"S S S S S S $.! ! $.S Z ` ~ { C C { Q / 4.S B / / #.C S S S S S ",
"j S r S S S 4./ Q { C :.^ Q ,.t f 3.! ! >.C #./ / B S t t S S S ",
"j S S s S S C <.~ ` n $.! ! #.e e >.~ ~ 3.n [ ~ <.A S r t S S S ",
"j S S s S S S >./ / >.{ Q ^ 4.S S V _ ~ 3.>.~ ~ 3.S S S S S S S ",
"S S S S S S S n ` ~ <.[ G ' C S S Z _ ! { <.! ! *.f f S j f d p ",
"O @ & @ $ $ O 2 Y G D E F Y . X   1 I F U I G E , @ O $ # O $ * ",
"S t t t t t p e o.Q G Q ^ O.y a a d [ Q ~ ^ ! O.h d s S S S S S ",
"S S S S S S S S >.~ ! ! / ;.S S S S $.! G Q _ N S S S S S S S j ",
"S S S S S S S S n _ Q ! / ;.S S S S :.( G G [ C S S S S S S S S ",
"S S S S S S t S C 1.G G ~ 4.S S S S Z _ G G { S S S S S g S S g ",
"S S S S S d q S S *.Q G ! :.S S S y u _ G G 2.S S S S t w S S S ",
"S S S f S S S S S A ~ G Q V S S S f y [ G Q ,.s S S S e t S S j ",
"a s e e w e t p a f ] G ` v t p y r t X.! Q o.p w p t S f f f S ",
"; 8 q e w = & O * = 6 < > O O O O * & 4 K T H O & O O O O - ; $ "
};
