/* XPM */
static char *_bae55ed789747fd814368495428cba0oA8HcdDlPVLj3P6i[] = {
/* columns rows colors chars-per-pixel */
"64 64 229 2 ",
"   c #000000",
".  c #0B0502",
"X  c #120903",
"o  c #170C04",
"O  c #1D1106",
"+  c #241609",
"@  c #311F0E",
"#  c #311436",
"$  c #1D2525",
"%  c #26313B",
"&  c #4A2C0F",
"*  c #4C2E11",
"=  c #4F3114",
"-  c #523316",
";  c #553619",
":  c #58371A",
">  c #57381A",
",  c #5B3B1D",
"<  c #5F3E20",
"1  c #502E33",
"2  c #603F21",
"3  c #654324",
"4  c #694627",
"5  c #6B4827",
"6  c #6A4728",
"7  c #6D4A2A",
"8  c #724E2D",
"9  c #75512F",
"0  c #765C2C",
"q  c #6D4E34",
"w  c #775230",
"e  c #7A5532",
"r  c #7F5935",
"t  c #7E563F",
"y  c #7B612F",
"u  c #350F46",
"i  c #3A1547",
"p  c #451D4F",
"a  c #471759",
"s  c #562E49",
"d  c #5C3648",
"f  c #432855",
"g  c #572A58",
"h  c #5E3556",
"j  c #5D315A",
"k  c #643C4A",
"l  c #613655",
"z  c #653A55",
"x  c #693E54",
"c  c #63365D",
"v  c #653A5B",
"b  c #6A3C5D",
"n  c #50136C",
"m  c #601E7D",
"M  c #5D2B64",
"N  c #5B276C",
"B  c #5B336B",
"V  c #5E2177",
"C  c #602C6B",
"Z  c #633463",
"A  c #673768",
"S  c #632876",
"D  c #673676",
"F  c #0F445C",
"G  c #1C465C",
"H  c #33475F",
"J  c #144E68",
"K  c #1A5A76",
"L  c #3B5069",
"P  c #235974",
"I  c #375C75",
"U  c #1E617F",
"Y  c #37617C",
"T  c #4D4A4E",
"R  c #554C56",
"E  c #58555A",
"W  c #6A4346",
"Q  c #634844",
"!  c #6C444C",
"~  c #744B4C",
"^  c #6A554A",
"/  c #775849",
"(  c #6B4253",
")  c #6E435C",
"_  c #734A53",
"`  c #754A5A",
"'  c #7A4F5A",
"]  c #6B5C59",
"[  c #7B5656",
"{  c #766B5D",
"}  c #4E506D",
"|  c #545A66",
" . c #5C5C64",
".. c #484A74",
"X. c #445B77",
"o. c #6A4463",
"O. c #734568",
"+. c #635866",
"@. c #7A5668",
"#. c #734274",
"$. c #7C4C74",
"%. c #7C487D",
"&. c #7A5777",
"*. c #51606F",
"=. c #49667B",
"-. c #586577",
";. c #5B6A7C",
":. c #6B6365",
">. c #666369",
",. c #75746F",
"<. c #656873",
"1. c #636D7B",
"2. c #815A36",
"3. c #846735",
"4. c #91703D",
"5. c #835854",
"6. c #8E7451",
"7. c #86576A",
"8. c #845373",
"9. c #89577A",
"0. c #917272",
"q. c #9C843F",
"w. c #9E8541",
"e. c #9B864C",
"r. c #9A8457",
"t. c #A58946",
"y. c #A58C4B",
"u. c #B59D4B",
"i. c #B69D5B",
"p. c #BAA14E",
"a. c #BCA354",
"s. c #9B8767",
"d. c #938975",
"f. c #B19669",
"g. c #B7A665",
"h. c #B7AA75",
"j. c #C5AC54",
"k. c #C6AE57",
"l. c #CDB558",
"z. c #C6B270",
"x. c #DBC15E",
"c. c #E5CB67",
"v. c #6B3783",
"b. c #6B3981",
"n. c #753D88",
"m. c #753491",
"M. c #246889",
"N. c #346A8B",
"B. c #237396",
"V. c #367AA3",
"C. c #475A84",
"Z. c #7A4783",
"A. c #7A4E8F",
"S. c #466B86",
"D. c #576B85",
"F. c #56738A",
"G. c #466396",
"H. c #586C97",
"J. c #487797",
"K. c #457B9B",
"L. c #557A96",
"P. c #6E6B8F",
"I. c #7269A7",
"U. c #834D87",
"Y. c #865183",
"T. c #8A5584",
"R. c #8D5883",
"E. c #8B538C",
"W. c #885C8D",
"Q. c #925C89",
"!. c #854B96",
"~. c #8C5293",
"^. c #8C589B",
"/. c #915793",
"(. c #935A93",
"). c #955A9A",
"_. c #965A9B",
"`. c #8C6895",
"'. c #8647A1",
"]. c #8D4EA3",
"[. c #8D53A4",
"{. c #9455A4",
"}. c #9659A1",
"|. c #995CA3",
" X c #9553AF",
".X c #9C5CAA",
"XX c #9D5BB2",
"oX c #9B56B8",
"OX c #A15EB3",
"+X c #A35DB9",
"@X c #9E60A5",
"#X c #8F62B2",
"$X c #8C66B6",
"%X c #A263A9",
"&X c #A560B9",
"*X c #A562B8",
"=X c #AC75B6",
"-X c #A75DC5",
";X c #AA62C3",
":X c #AD63C9",
">X c #B064CD",
",X c #AF61D3",
"<X c #AE60D4",
"1X c #B264D3",
"2X c #B967DD",
"3X c #3983A9",
"4X c #2A89B3",
"5X c #338BB5",
"6X c #4E809F",
"7X c #76888E",
"8X c #4981A3",
"9X c #5788A3",
"0X c #6892A8",
"qX c #96928E",
"wX c #959C8B",
"eX c #AC9494",
"rX c #B3AB85",
"tX c #B88EAD",
"yX c #90A4A0",
"uX c #9FA5A0",
"iX c #C3B982",
"pX c #DAC394",
"aX c #FFEFB7",
"sX c #B882D2",
"dX c #C1A2C7",
"fX c #FFF2C8",
"gX c #FFF5D7",
"hX c #FFF8E2",
"jX c #FFFFFF",
/* pixels */
"3 7 9 9 9 9 9 r r r r 2.2.2.2.2.2.2.2.2.2.9 e 9 e 7 9 9 w w w w w w w w w w w w w w w w w 8 8 8 8 8 8 9 9 9 9 8 8 8 9 9 w w 9 9 ",
"6 6 7 5 5 7 7 6 6 6 6 3 3 4 5 5 5 5 7 7 7 7 7 7 7 8 7 8 8 w w w w w w w 7 7 9 9 9 8 8 8 8 w w w w 7 9 8 8 8 8 8 9 9 9 9 8 8 w w ",
"w 8 8 8 7 7 8 8 8 7 7 7 7 5 5 7 7 7 7 7 6 3 3 6 6 3 3 r 7 , 3 6 7 3 4 4 3 3 8 8 8 w w w w w e e w 7 3 6 7 7 w w 9 9 9 r r 2.2.2.",
"w 2.2.r e r r e w e w w w 8 8 8 7 5 6 3 3 5 5 5 7 7 7 r e 9 9 8 8 w w w e e e e e r r r r 9 w w r r r w 9 8 6 7 8 8 w 8 8 7 7 8 ",
"; - - , , 3 3 3 6 6 6 7 7 8 7 8 7 w e r r r r r r r r r r r 2.2.2.w 8 7 8 e 9 9 9 8 8 7 8 3 2 3 3 6 8 8 7 6 6 6 7 7 7 5 7 8 2.r ",
"2 , 3 < < 2 3 5 7 7 8 9 7 7 7 8 9 9 8 8 8 8 8 8 7 7 7 7 7 7 8 9 w w w 8 8 7 7 2.2.2.2.2.r 8 5 8 7 7 < < 3 6 7 8 8 8 8 8 8 7 2.2.",
"6 7 4 7 7 7 5 3 3 3 3 , < 3 3 3 ; , 3 3 3 3 7 7 7 7 7 7 7 7 7 6 6 6 6 5 5 5 6 8 8 8 8 8 8 7 8 9 8 8 9 8 7 7 4 4 7 8 8 8 7 7 7 7 ",
"r r e w 9 8 8 w 4 6 6 3 6 6 6 6 6 3 3 3 3 3 3 3 3 5 5 5 7 7 7 8 8 8 8 8 9 w w w w w w w w w e e e e e e e e e w w 8 8 8 8 8 8 8 ",
"r r 8 w w e w w w e e 3.u.9 8 w w r r e w w 9 8 7 6 6 7 7 7 7 8 8 9 9 7 7 8 8 8 8 8 8 8 w w y w.j.7 7 7 5 6 7 8 8 w w 8 8 7 5 7 ",
"9 7 2.r 8 3 3 7 5 3 4.p.9 w w w e w w e e e e e w w w 9 9 8 7 6 3 6 3 3 r r 9 8 t.q.y.p.j.j.u.t.j.j.t., 2 2 9 9 9 7 4 7 7 9 9 8 ",
"5 7 3 6 8 w w e e w j.6 7 5 6 5 7 2.k ~ Z W 7 6 4 8 8 9 8 w w 9 w 9 9 9 9 8 9 6.c.q.y.9 w w w w r r t.t.3 3 7 7 7 8 9 5 3 r r e ",
"3 3 3 6 8 8 9 w w j.w w 8 7 W x ) l W W q W b ~ 3 4 7 7 8 4 4 7 8 9 w w w r r e 9 9 w w e e E.~ w w 9 t.j.w.9 8 8 8 7 7 4 6 6 6 ",
"6 6 6 3 6 6 3 3 u.3.3 4 6 d z -.F.S.7 4 4 7 8 ~ x 8 7 8 w r r r r r r r r r :.w 8 8 8 8 8 8 8 8 8 9 w w 9 w.9 w 9 w w w e e e w ",
"8 3 3 3 < 2 2 l.y., < , , 3  .;.3 3 7 9 8.w w w w w 3 3 3 2 < 3 3 6 6 6 7 J.J.K.;.S.7 8 8 8 8 Q 8 8 8 8 9 8 9 9 9 8 8 8 8 8 9 w ",
"; - , > , , , p.3 3 3 6 3 |  .> ; - ).)./.E., < 3 3 3 3 3 3 ` , , 3 3 3 3 3 3 3 ;.V.1.3 3 3 Q J.+.3 3 < < < , , , , , , , , > > ",
"* * = - - = - j., * * * Y | jX8.R.|..XR.8.E.* * * * Y.=X!.Z.|.* - - ; ; - - - - - - 1.=.- - - - <.F.- ; ; ; ; ; > , , , , , , , ",
"= ; 3 3 3 3 3 u.3 7 7  .Y jX8.|.).$.2 :.< < , 3 T.tX1X+XoX-X-X&X;XoX>X;X1X, , , , > > =., , , , , 1.:., , , , , > > > > ; ; ; ; ",
"3 3 9 9 9 9 t.w.9 9 9 r r E.|.8.r Q ;.:.r r r >X}.-X^. X X].{.&X>X+X@X.X.X:XsX3 3 3 3 3 3 3 3 4 ( 4 D.4 4 7 7 7 7 7 7 7 7 7 7 7 ",
"8 3 3 3 3 3 t.w.3 3 3 , , $., , 2 K.^ 3 3 3 }.U.!.oXb.b.b.v.b.b.[.{.&X(.%XgXXX1X2X1X9.7 7 7 7 v 7 z 8 1.O..Xe e w w 9 9 8 8 8 w ",
"r 9 9 9 9 9 p./ k 9 9 w w w w 9 :.+.8 7 7 ].A.!.b.X . O X . o + B.B.B.W.jXgXfXtX=X+X2X~.9 8 8 ! b z 7 :. .).R.7 7 7 w e r r r 2.",
"2.9 3 3 3 3.x.d W 7 5 5 7 $.$.8 L.^ w w oXoXv.+ @ + .     . o + B.V.V.4XL.jXs.pXz.+X&X,X1Xw w w w x o.w 9 9.|.2.2.r w 9 7 4 7 9 ",
"r 9 w r r 9 0 w W ^ =.p.0 $.$.9 / 4 4 :XA.. @ @ .             . P G.G.V.4X5X9Xd.`.}.%X+XoXoXw w w w A x r r &X(.2.2.2.2.2.2.r 9 ",
"8 8 8 7 7 5 2 s q 3 F.u.jX$.$.3 7 7 7 +   + .                     6.l.0.P.C.J.8XF.H.&X X-X-X&X5.7 7 7 3 3 3 /.(.3 3 3 3 3 3 3 3 ",
"8 8 8 8 8 8 7 s W 8 8 e.jX~.~.9 9 9 uX. o .                         . 6.f.qXP.H.F.K.L.$X-X1X&X}.` 9 9 z z 9 _ ;X8 7 6 8 5 3 3 3 ",
"2.2.2.w 9 e  .} ~ w w r.jX$.#.e w w o . +             jX              a m 0.f.rXqXK.6X3X$X{.1X;X}.' 9 9 9 7 7 %X@.7 9 9 9 r 2.2.",
"r > ; < 3 3 :.} ~ 8 8 { #.U.!.w w { . X             jXjXjX              . a n O.d.rXwX3X3XA.+X&X;X|.' 7 z x 8 (.(.9 9 9 9 r r r ",
"9 e r r r r ;.X.~ 7 0.X.#.$.^.3 ~.A.. .               jX                  o n i Z &.wXz.yX5XI.:X+X+X>X, < , , 9.@X3 3 3 3 < 2 < ",
"w w 9 9 8 8 :.| ( 3.g.I d !.sX0.%.D . .                                   . u n 8 V h S.p.yX5XQ.1X&X1XT.8 8 8 7..X$.7 6 6 7 8 8 ",
"7 7 8 8 8 7 :.| x a.p.N.d ~.~.U.n.D                               jX        # a c C C -XH.a.0X0X` 2X).T.8 8 8 5.9.E.w e w w 8 8 ",
"6 6 6 3 6 6 ^ -.Z 3 j.I T ).~.T.n.D                             jXjXjX      X i A c V Z.Z.7Xg.5XJ.(.2XOX7 7 5 6 3 3 3 3 7 7 7 8 ",
", 3 , , > , , K.v , w.r.I }.!.' n.D                               jX        . j.7.c S D [.| s.yX5X>.XX}.' 3 5 t 6 6 5 4 5 5 3 5 ",
"& & & & & & & & x & R g.d.#X{.' n.v.            jX                        p <Xf.s.C C M [.~.Y.h.0X8XW..XR.& & A ( & & & & & - - ",
"6 < , , , 3 , , z > , ,.,.D.{.' n.v.# X       jXjXjX                      O oX9.i.N S M Z.~.}.L.8X8X .&X|., , b _ < < , , , > ; ",
"3 6 6 4 4 6 7 7 d W 7 } L E #X' Z.n.i O         jX                      . @ !.!.j.B S N Z.Y..X:.6X3XS.T.+X' 7 b _ 7 7 7 7 7 4 4 ",
"r r r r r 9 9 9 9 eX9 R H | $X/.].'.a #                                 % B.b.oXeXd.m.N s .XT.Q.jX0X7X8 ;XT.7 A _ e e e w w e e ",
"3 7 7 7 7 , , 3 3 3 7 E I | P.XX!.b.a p X   .                         . G M.Z.].eXwXm.N s ;X/.jXjXgX9 9 (.+Xw A ~ 9 9 7 8 7 6 6 ",
"e 9 9 8 8 9 e w w w 8 9 T E X.^.].].i n # X                         . G K G  X{.@.z.S N s Y./.@XjXrX7X3 3 ;X8.b ~ 3 4 8 8 7 w 8 ",
"r r r r r r e e w ).9 9 u.*.T N. X[.I...N O .                     . @ U K Z.Z.[.@.h.&.N s Y./.|.<.iX7 9 w 8 ~ A w 8 8 8 w e w r ",
"7 7 4 4 4 4 4 4 4 |.E.7 0 a.} S.Z.oX!.I ..C.K $                   % K P I ].z }.@.d.0.N s Y.T.w ,.rX9 9 8 9 ` ) 8 w w w 9 9 9 9 ",
"8 w w w r 2.r r 9 R.XX5 3 s.j.{ S.}.-XM g f ..B.B.K J F F J G G P M.X...j {.3 ;X] rX&.V s ` }.w <.L.7 7 5 8 9 9 w w 9 9 9 9 9 9 ",
"e 8 8 8 7 5 7 8 9 9 +Xr 9 M , g.s.jX+X-XD N M p M.P M.M.P M.H L ....B M %.R.R.T.:.z.S V s ` }.6 :.J.3 < 3 , , , 2 3 7 9 9 9 9 w ",
"3 3 3 5 8 e w w 8 8 7 .X#.Z M / aXgXjX&X+XO.Z M j l d f H ..C...h x x $.-XR.R.9 3 pXS N s 9 9 w r 8X^ r e e e e w 9 8 8 8 8 9 e ",
"3 2 3 , , , , , , , , , ~.$.j z 6.hX=. .A.+X).( ~ Z c s g j A l x 9.).Q./.R.8 <.wX8 m 8 g 9 >X1X7 F.7 8 / ^ w w w w e w 9 9 8 7 ",
"r r r r r r r r r r r r r }.U.d c ( +.=.]  .^.XX).[ 6 1 1 j W Z.}././.%XY.W / 1.3 6 3 3 6 6 OXOX8 w 9 8 <.J.8 8 8 7 8 9 8 8 w w ",
"3 3 3 3 7 7 7 7 7 7 7 7 7 ~ {.{.z ! ( } S.>.| | ^.:X|.!.#.).+X{.+X}.%.~.x v 1.7 ( A m aX0 ) }.OX, 3 3 6 :.;. .4 7 8 7 7 8 8 7 7 ",
"6 7 w 8 5 5 5 5 5 5 5 5 5 5 h 5 XXv ( k o.*.=.N.S.D.+.R #.1X/.%.( Z M ~ A -., ) C S &.i.< ) }.OX, , , ; :.D.F., , , , 2 6 6 6 7 ",
"3 3 , , 2 2 , , , , , , 3 3 , < , , `.M Z Z z d +.*.N.I 1 k c j ( k h 7 7 7 ) D A ! s.r.3 U.T.OX3 3 3 3 <.F., > > , , > - - - 3 ",
"& & & & & & & & & & & & & & & * & & 4.2 q ( c M Z v c M M [ y.y.i.c.d O.S S S o.& b Z & & U.T.&X& & & & K.<.& & & & & & & & & & ",
"3 7 7 7 4 4 4 7 4 4 4 4 4 4 4 4 4 4 a.j.p.t.t.3.! 5.s.r.i.i.s.> > ; k D S A , , , b ; ; ; -X}.>X- - ; F.<.> > ; > > , : ; > ; , ",
"4 5 5 3 5 3 3 w w w w 9 8 8 8 7 7 7 6 6 6 f.t.u.c.p.t.r.9.)., 2 2 3 < , , , 3 3 , , = - Z.+XT., 2 2 2 2 3 3 3 3 3 3 3 4 4 3 3 < ",
"5 5 3 , - ; ; , , 3 3 6 4 7 7 8 8 ;.:.8 ).).).)..X.X+X&X^.6 5 5 7 7 7 8 :. .1.8 8 8 7 $.-X) 6 3 3 6 3 @.7.3 3 3 3 , , , 3 3 3 7 ",
"6 7 8 8 8 7 7 < 2 < ; > - ; ; > , ^ :.S.;.:.<.-.8.8.w C w z W ( 5 S.D.;.:. .1.F.7 7 9 >X6 3 3 3 3 6 ! E./ 7 7 7 8 8 8 8 8 7 7 7 ",
"3 < < 3 3 4 8 7 7 8 8 7 8 5 7 6 3 3 2 3 ;.< <.-.- - - ; > , W ( 8 | F.;.1.K.:.{ w 2.7 $.4 4 3 < , _ Q.3 7 8 8 9 9 7 7 7 4 7 7 8 ",
"9 9 8 2 2 < , < , , , , , < , 3 3 3 6 3 5 3 6 3 3 3 3 9 8 8 8 8 8 8 <.^ / Q 3 2 _ 7.E.$.3 5 5 9.Q.&X3 3 2 > , , , 3 3 7 7 7 7 7 ",
"3 3 8 7 7 6 3 3 6 6 3 6 8 9 r 2.r r e 7 3 3 5 7 7 6 7 5 7 6 6 3 3 3 , ' R.E.Q.).E.dX_ < 3 3 3 9.[ 5 8 8 9 w 7 7 7 4 5 3 6 7 7 7 ",
"2.r r r e e e 9 8 8 8 8 7 7 7 7 7 6 7 8 8 9 8 8 8 8 8 8 9 9 9 w 9 9 w ' T.! 5.7 7 6 3 6 3 3 3 6 8 8 4 4 3 3 4 4 6 4 3 6 6 6 3 4 ",
"8 8 8 8 8 8 8 6 3 6 3 < 3 3 3 < , 3 3 3 6 6 4 6 5 5 5 7 5 5 4 3 3 3 3 3 6 6 6 7 7 6 7 8 9 9 8 7 8 9 9 9 w w 8 8 8 8 w 9 8 8 9 9 ",
"5 3 3 3 3 3 3 3 3 3 3 5 7 7 7 8 8 8 8 7 7 6 6 5 3 6 3 3 3 3 7 7 7 7 8 8 8 9 9 9 w w r r 3 7 7 9 w r r r e e w 8 8 6 2 < > , , , ",
"3 , < < 2 , , ; , > , > ; > ; - - - - , , 2 2 3 6 4 7 7 7 7 6 3 3 7 4 5 4 6 7 8 8 8 7 8 8 8 8 8 7 7 7 6 6 6 7 8 7 8 9 w w 9 7 7 ",
"8 8 5 6 6 6 6 4 4 4 4 5 7 7 7 7 7 7 7 7 7 7 7 7 5 7 7 7 7 7 8 8 8 8 8 w w 9 w 8 8 8 7 7 4 4 6 7 7 7 7 8 8 8 8 8 w 9 9 w w w e e ",
"3 3 4 7 8 8 8 w w r r r r r r r r r r r w w w w 8 8 8 2 3 7 3 2 2 2 , ; > , , , , , , , , , > , , , , , , , > > > < < 3 3 5 6 7 ",
"3 3 3 3 3 < < 3 3 3 3 3 3 3 3 3 3 3 3 3 3 3 3 3 3 6 3 4 3 3 3 7 7 7 7 8 8 7 7 7 7 7 7 5 4 6 5 6 5 5 7 7 7 7 3 3 3 3 3 3 3 3 3 5 ",
", - ; ; ; - - - - - - = - - - - = - - - = = = = ; - ; - ; , ; , ; ; ; ; ; ; - ; ; - ; ; > - - - - - ; - ; , 2 < , < , 7 7 6 6 3 ",
"& & & & & & & & & & & & & & & & & & & & & & & & & & & & & & & & & & & & & & & & & & & & & & & & & & & & & & & & & & & & & & & & "
};
