/* XPM */
static char *_07c64b6954b4075b7230f8d4a443770iAJo63rwGiUY8Ltv[] = {
/* columns rows colors chars-per-pixel */
"64 64 49 1 ",
"  c black",
". c #060201",
"X c #311432",
"o c #4A2C0F",
"O c #4B2D10",
"+ c #4C2E11",
"@ c #4F3013",
"# c #4F3114",
"$ c #513215",
"% c #523417",
"& c #543517",
"* c #533418",
"= c #553518",
"- c #58371A",
"; c #57381B",
": c #59391B",
"> c #5B3B1E",
", c #5C3B1E",
"< c #5B3C1E",
"1 c #5D3C1F",
"2 c #5F3E20",
"3 c #603F20",
"4 c #614022",
"5 c #644323",
"6 c #644224",
"7 c #664425",
"8 c #6A4727",
"9 c #6B4827",
"0 c #694728",
"q c #6A4828",
"w c #6E4B2A",
"e c #6F4C2B",
"r c #6F4C2C",
"t c #704B2B",
"y c #704C2B",
"u c #734F2E",
"i c #744F2E",
"p c #73502E",
"a c #76512F",
"s c #765130",
"d c #785331",
"f c #7A5432",
"g c #7C5633",
"h c #7D5734",
"j c #7F5936",
"k c #805936",
"l c #710193",
"z c #E39FF6",
"x c white",
/* pixels */
"7waaaaahhhhkkkkkkkkkkafafwaassssssssddddddddduuuuuuaaaauuuaassaa",
"88wqqww8888770qqqqwwwewwwuruudddddddwwaaauuuusssswauuuuuaaaauudd",
"suuuweuuuwwwwqqeeeww8478844hw158w70047uuudddddffdw68wwssaaahhkkk",
"skkhfhhfdfddduuuwq877qqqwwejfaauussdfffffhhjjaddhhhsau8wuusuuwwu",
"=%$>>447888weueyesfhhhhhjjjjjjkkksuwufaaauuwu62558uuw888wwwqwukh",
"31422349eeuawwwuaauuuuuuwwwwwwuasssuuwwkkkkkhiquww2248wuuuuuuwkk",
"8w0wwwq6444>2444=14477wwwwwwwww8888qqq8uuuuuueuauuauww00wuuuwwww",
"hhfdauus08878888877777777qqqwrruuuuyasssssssddfffffffffdsiuuuuuu",
"jhusdfdddggfdaudshhfddauw88wqqeuuaawwuuuuuuuaaiiwwwwq8wuussyywqw",
"awkhu47eq7qaaddsfsdfffffdddaatw85844hhauuu001144441133aaaw0wwaau",
"qw48uddffdu8wq8qwkhu77w80iwaussasaaaaiaiuuaaddddhh7477wwwuaq4hhf",
"7748uuaddddsuwyurauuuur870ewu00wuazzzhhfaassfffudsaaaaauuuww0888",
"888688664760886488w00wussuwushjjzzzzzzhsuuuiuuuuuassaaasadddfffs",
"u74423322121244767wadddddd44zzzzzzzzzzzzwwwuuuuuuuuuauaaaiiiuiad",
"=$1:>>114448431:=$+#>11244zzzzzzzzzzzzzzz7744444444222111>>>11::",
"++#$%#%%>+++++==$$#@@+OOzlllllllllllzzzzzz%%$%%%%%%=====:1111111",
"+=7777777wwwwwwq3333331zlllxxzzzzzzzllzzzzz>111>>>>>>>>>::::====",
"44aaaaaaaaahhhhhhhhhhhzllxxxxxxxxxxxzzllzzz6666000000wwwwwwwwwww",
"u47777777771111133344zllzxxx        xxzzlzzwwwwwwuuuujffddaauuus",
"jaaaaaaaaaassssauuuezlllxx            xxzlzzauuuewwwuyuwwwdfhjjk",
"ka6441777wqqwwwuassdzllzx              xzlzzssddddsdaakkkhsaw0wa",
"jashhuydddaaaaaaw00zzlzx                xzlzzddddsshhhkkkkkkkkha",
"iiuww83755777777wwzzlzx                  xzlzzwwwww7774444447744",
"uuuuuewuuuuussaaaazzlzx                  xzlzzaaaaaaaaaauw8t9644",
"kkksafhddddffsdddzzlzx                    xzlzzkhhaaaww0wwaaahkk",
"h:=24646wyuyusssszzlzx                    xzlzz>116wwuuaaaaaahhh",
"afjhhhhfuw074144zzlzx                      xzlzz0w81211444677222",
"ssaauuwuuuuddzzzzzlzx                      xzlzzzzzuuuuueer88wuu",
"wwuuurwazzzzzlllllzx                        xzlllllzzzzzuhdfdsuu",
"88878llllllllzzzzzx                          xzzzzzllllllll6wwwu",
"14llllzzzzzzzzzxxxx                          xxxxzzzzzzzzzllll7q",
"ooooollllllllzzzzzzxxxxxxx            xxxxxxxzzzzzzllllllllooo$$",
"821<14>>llllllllllzzzzzzzzxxxx    xxxxzzzzzzzzllllllllll222111:=",
"488008wwwwwqqlllllllllllzzzzzzxxxxzzzzzzlllllllllll8wwwwwwwwww00",
"hhhhhaaaaaaaaailXllllllllllllzzzzzzzzzlllllllllXluuuywwuffffddff",
"7wwww11477wwwwwlXllxx   llllllllzzzlllll   xxxlXldaaaaaaaaieuw88",
"faauuafdsauadfhlXllxx        llllll        xxxlXl4857w77470iuwsu",
"hhjjjhffdfaauwuwlXllxx                     xxlXl0wwasissduuusfdh",
"ww000000000www84lXllxx                     xllXlfuaauauuusssaaaa",
"udddhkhhaaaw77wuulXllx                    xxlXlddwwwquaassaaaaaa",
"fuuuwqwuaashaww0ulXllxx                   xllXl82242411126waaaas",
"477qufssuuww4wtuuulXllx                  xllXladhhhhffffsauuuuaf",
"44411>>1111>>444244lXllx                xllXlaauwwwiiussddfdaauw",
"hhhhhhhhhhhhhffffstlXllx                xllXl8weusauaauuuwuauuss",
"7747wwwwwwwwwwwwwwwulXXlxx            xxllXl74=114487000wuwwuuww",
"8wsuqqqqqqqqqqqqqqq6llXXllxx.       xxlllXl224421>>===>>1113888w",
"47>133111111441111>$llXXXlllxxxxxxxxllllXlw77777766642>:;>1:%%%7",
"ooooooooooooooooooooollXXXXlllllllllllXXlooooooooooooooooooooooo",
"7www000w0000000000000llllXXXXlllllllXXll>=======%%==:::=::1-=:&1",
"0qq7966sdssaiuueww8888lllllXXXXXXXXXll4411#$&$>>3333547447700662",
"997>%==>>4480wwtuupuuwwllllllllllllluuuuuuw87687787446454111466w",
"8wuuuww232=;*==:1::1380wullllllllw62600wwwa68777780wwwwwuuuuuwwq",
"422440uwwuueuqw8773632;=*%$=;>4wueuurwruskwq006211,4wuuaawww0wwu",
"aau33212>>>>>2144487q784474auuuutttwww4342277qq8w8743;1>167wwwww",
"47uww8748868uahkhhfw77qwe8wqw88455131>1aafu274478quuaseww0q78www",
"khhhfffauuuuwwwww8wuuauuuuuuaaadaasuuuyww8687668uu00740080488870",
"uuuuuuu87872544217768808qqqwqq044447888ww8wuppuwuaaassuuuisaiuaa",
"q7666666557qwweuiiuww88q687777wwwwuuuaaaddhh7wwadhhhffsuu832;>1>",
"712231>=>;>;=;=%%$$>,33480wwww877w0q08ruuuruuuuuwww888wuwuassaew",
"uyq88880000qwwwwwwwwwwwwqwwwwwuuuuussasuuuww008wwwwuuuuusaasddff",
"770wyuusshhhhhhhhhhhdddduyy34w73331=;>>>>111>1:11>1>>>::;224798w",
"7577722777777776677777777870777wwwruuwwwwww808q8qqwwww776767777q",
"1$===%$$$%$@$$$%@$$$#@##=$=%=>=>======$==%=&:$%$$$=$=>32121ww887",
"oooooooooooooooooooooooooooooooooooooooooooooooooooooooooooooooo"
};
