/* XPM */
static char *_2f57874d52341d291b9ba1b911f3362[] = {
/* columns rows colors chars-per-pixel */
"32 32 129 2 ",
"   c #0C1D2F",
".  c #5A4132",
"X  c #7A4F3D",
"o  c #725036",
"O  c #7D5636",
"+  c #7F5834",
"@  c #7C5539",
"#  c #7F593B",
"$  c #24175B",
"%  c #25195C",
"&  c #281D5D",
"*  c #122B47",
"=  c #132D49",
"-  c #15314F",
";  c #173555",
":  c #183759",
">  c #193A5D",
",  c #3B2A48",
"<  c #26215E",
"1  c #2D225E",
"2  c #30255C",
"3  c #332A5F",
"4  c #2E355D",
"5  c #303B54",
"6  c #1C3D63",
"7  c #242E63",
"8  c #2B2D64",
"9  c #253465",
"0  c #293367",
"q  c #2B366A",
"w  c #2D3A6C",
"e  c #313664",
"r  c #3E3462",
"t  c #303D6F",
"y  c #55384F",
"u  c #5C3D4D",
"i  c #442D55",
"p  c #4B3152",
"a  c #433D54",
"s  c #483E59",
"d  c #513550",
"f  c #553950",
"g  c #623E4A",
"h  c #463B64",
"j  c #483C65",
"k  c #1F446C",
"l  c #224064",
"z  c #26476F",
"x  c #2C416F",
"c  c #3B4F69",
"v  c #3E506E",
"b  c #2D4371",
"n  c #264A71",
"m  c #2D4B74",
"M  c #314473",
"N  c #324E79",
"B  c #2C5077",
"V  c #2D5178",
"C  c #355477",
"Z  c #33547D",
"A  c #38527F",
"S  c #404156",
"D  c #404458",
"F  c #5A4F58",
"G  c #5D5358",
"H  c #6E4646",
"J  c #6C4B42",
"K  c #634249",
"L  c #714D42",
"P  c #7E5C44",
"I  c #7C5D4D",
"U  c #685E57",
"Y  c #715B58",
"T  c #7F604C",
"R  c #7F6257",
"E  c #7B6F55",
"W  c #7E7354",
"Q  c #4C4267",
"!  c #574F6D",
"~  c #5B5D74",
"^  c #6C5263",
"/  c #6A5B62",
"(  c #64576D",
")  c #605B6D",
"_  c #645971",
"`  c #56607C",
"'  c #865532",
"]  c #8A5632",
"[  c #815934",
"{  c #815A3A",
"}  c #825D43",
"|  c #805E49",
" . c #82604B",
".. c #8C7F52",
"X. c #DBCB3D",
"o. c #E0CF3B",
"O. c #E9D736",
"+. c #ECDA35",
"@. c #E4D339",
"#. c #9B8E4F",
"$. c #8C8053",
"%. c #948750",
"&. c #A3964E",
"*. c #AB9D4C",
"=. c #BDAE47",
"-. c #B2A34A",
";. c #B7A849",
":. c #BBAC48",
">. c #C5B645",
",. c #CEBE42",
"<. c #D0BF41",
"1. c #D2C141",
"2. c #3A5783",
"3. c #365A82",
"4. c #395D85",
"5. c #3B5F88",
"6. c #3E628B",
"7. c #4B5E81",
"8. c #40658F",
"9. c #516282",
"0. c #436791",
"q. c #456A92",
"w. c #446A94",
"e. c #456B95",
"r. c #476D97",
"t. c #486E98",
"y. c #49709B",
"u. c #4A719C",
"i. c #4C749F",
/* pixels */
"k > 6 6 6 k k k k k k k k k k 6 k k k k k k k 6 6 6 > ; ; : = 6 ",
"k > 6 6 6 > > C 3.k k m k k k l v S - - ; - ; > > : 6 > ; : 6 * ",
"k k { { { # # {  .P # 7.7.7.7.7.7.7.~ /  .I P @ [ @ T P # @ > ; ",
"q.D #  .I { @ # } } [ Y Y ) ~ ` ~ ~ ~ / # P { @ @ # | R } [ o 5 ",
"4.c O O O O O O @ @ O [ O [ [ [ [ [ [ [ [ O O + [ [ [ [ [ [ .   ",
"5.9.{ J u f p i i i i p p d y u u g K H L X @ @ O ' ] ' @ # 3.3.",
"Z 0.6 4 % % & % % & & & & & 1 1 1 1 1 3 r h j Q ! _ ( ^ , a 5.6.",
"5.y.z e $ $ $ $ % & & & & & & & & % % % % % % % $ $ $ % 3 6 6.3.",
"0.6.6 8 $ $ $ $ $ $ $ $ $ U U $ $ $ $ $ $ $ $ $ $ $ $ $ 1 b r.n ",
"6.u.2.< $ $ &.$.$ $ $ $ $ U U $ $ $ $ $ $ $ $ $ :.-.$ $ & x e.n ",
"5.y.Z < % $ +.>.$ $ $ $ $ W W $ $ $ $ $ $ $ $ =.O.X.$ $ % w e.r.",
"5.y.5.& % $ ....$ $ % $ $ s s $ $ $ $ $ $ $ $ $ ,.W $ $ % 0 t.8.",
"5.u.m < % $ $ $ $ $ % % $ $ $ $ $ $ $ $ $ $ $ $ $ $ $ $ % 0 t.8.",
"5.u.Z < % $ $ $ $ $ $ $ $ $ $ $ $ % =.$ $ $ $ $ $ $ $ $ % w y.6.",
"3.u.Z < $ $ $ $ $ $ 2 G % $ $ $ $ $ o.$ $ $ $ $ $ $ $ $ % w t.5.",
"8.u.Z < $ $ 2 F W >.F #.$ $ $ $ $ G X.$ $ $ $ $ $ $ $ $ % w r.5.",
"r.e.5.< $ $ F #.*...$ $ $ $ $ $ -.*.+.@.*.$ $ $ $ $ $ $ % q r.5.",
"5.e.5.< $ $ $ *.G $ $ $ $ $ $ $ ..>.+.#.G $ $ $ s W $ $ % w 5.6.",
"5.e.6.& $ $ $ $ $ $ $ $ $ $ $ $ $ W 1...$ $ $ $ %.@.$ $ % w 5.6.",
"e.q.5.& $ $ $ $ $ $ $ $ $ $ $ $ $ $ ,.-.$ $ $ $ <.-.$ $ % w 3.6.",
"e.6.e.< $ $ $ $ $ =.$ $ $ $ $ $ $ $ $ $ $ $ $ $ $ $ $ $ % t Z 6.",
"r.e.2.< $ $ $ $ $ =.$ $ $ $ $ $ $ $ $ $ $ $ $ $ $ $ $ $ % w Z 6.",
"e.6.5.& $ $ $ s s ;.G $ $ $ $ $ $ $ $ $ $ $ $ $ $ $ $ $ % w Z 6.",
"8.6.2.& $ $ $ W W X.X.>...$ $ $ $ $ $ $ $ $ $ $ $ $ s ,.% w Z 6.",
"8.6.2.% $ $ $ $ $ #.-.#...$ $ $ $ $ $ $ $ $ $ $ $ $ ;.>.% q B 6.",
"5.8.Z & $ $ $ $ $ ....$ $ $ $ $ $ $ $ $ $ $ $ $ $ E @.-.% w B 6.",
"5.8.Z & $ $ $ $ $ $ $ $ $ $ $ $ $ $ $ $ $ $ $ ,.1.+.X.$ % M V 6.",
"3.r.m < $ $ $ $ $ $ $ $ $ $ $ $ $ $ $ $ $ $ $ ..=.W $ $ % N n 6.",
"3.e.Z < $ $ $ $ $ $ % % % % % % % % $ $ $ $ & % $ $ $ $ % A n 6.",
"Z i.6.M < < < & & 8 w w b b b x w 0 7 9 9 9 7 < $ $ $ $ % 2.n 5.",
"k 5.5.Z N 2.2.N N N 5.8.8.8.8.8.8.e.r.i.r.r.8.2.2.2.2.2.A 8.3.8.",
"k e.e.5.5.5.5.5.6.6.6.6.6.6.6.6.6.5.5.5.5.5.6.6.6.6.e.6.5.e.Z 8."
};
