/* XPM */
static char *_79140c699fc49d48d1a4c081bc81deaI6mUY3bp2QXH3xt9[] = {
/* columns rows colors chars-per-pixel */
"64 64 58 1 ",
"  c black",
". c #4A2C0F",
"X c #4B2D10",
"o c #4C2E11",
"O c #4F3013",
"+ c #4F3114",
"@ c #513215",
"# c #523417",
"$ c #543517",
"% c #533418",
"& c #553518",
"* c #58371A",
"= c #57381B",
"- c #59391B",
"; c #5B3B1E",
": c #5C3B1E",
"> c #5B3C1E",
", c #5D3C1F",
"< c #5F3E20",
"1 c #603F20",
"2 c #614022",
"3 c #644323",
"4 c #644224",
"5 c #664425",
"6 c #6A4727",
"7 c #6B4827",
"8 c #694728",
"9 c #6A4828",
"0 c #6E4B2A",
"q c #6F4C2B",
"w c #6F4C2C",
"e c #704B2B",
"r c #704C2B",
"t c #734F2E",
"y c #744F2E",
"u c #73502E",
"i c #76512F",
"p c #765130",
"a c #785331",
"s c #7A5432",
"d c #7C5633",
"f c #7D5734",
"g c #7F5936",
"h c #86110D",
"j c #D2231E",
"k c #D4231E",
"l c #D3251E",
"z c #D5271E",
"x c #805936",
"c c #FA782E",
"v c #FC792E",
"b c #FAE723",
"n c #FCE623",
"m c #FBE724",
"M c #FBE823",
"N c #FCE823",
"B c #FBE824",
"V c #FCE924",
/* pixels */
"50iiiiiffffxxxxxxxxxxisis0iippppppppaaaaaaaaattttttiiiitttiippii",
"660990066665589999000q000twttaaaaaaa00iiittttpppp0itttttiiiittaa",
"pttt0qttt000099qqq006256622f0,36058825tttaaaaassa04600ppiiiffxxx",
"pxxfsffsasaaattt0965599900qgsiittppasssssffggiaafffpit60ttptt00t",
"&#@;;2256660qtqrqpsfffffggggggxxxpt0tsiiitt0t4<336tt066600090txf",
"1,2<<127qqti000tiitttttt000000tippptt00xxxxxfy9t00<<260tttttt0xx",
"60800094222;<222&,225500000000066669996ttttttqtittit00880ttt0000",
"ffsaittp866566666555555559990wwttttripppppppaasssssssssapytttttt",
"gftpasaaaddsaitapffsaait066099qttii00tttttttiiyy0000960ttpprr090",
"i0xft25q959iiaapspasssssaaaiie063622ffittt88,,2222,,11iii0800iit",
"9026taassat609690xft55068y0itppipiiiiyiyttiiaaaaff5255000ti92ffs",
"5526ttiaaaapt0rtwittttw658q0t880tiaaaffsiippssstapiiiiittt008666",
"6664664425486642660880tppt0tpfggfffffffptttytttttippiiipiaaasssp",
"t522<11<<,<,<225450iaaaaaa22vvvvvvvv0000000tttttttttitiiiyyytyia",
"&@,-;;,,222621,-&@o+;,,<22vvvvvvvvvvvv5555522222222<<<,,,;;;,,--",
"oo+@#+##;ooooo&&@@+OOoXXvvvvkkkkkkkkvvvv####@######&&&&&-,,,,,,,",
"o&55555550000009111111,vvvkkvvvvvvvvkkvvv;;;,,,;;;;;;;;;----&&&&",
"22iiiiiiiiifffffffffffvvkkvvVBBBBBBVvvkkvv4444488888800000000000",
"t2555555555,,,,,111c2vvkvvVV        VVvvkvv000000ttttgssaaiitttp",
"giiiiiiiiiippppittcqvvkvVV            VVvkvvitttq000trt000asfggx",
"xi422,555099000ticcavvkvV              Vvkvvppaaaapaiixxxfpi080i",
"gipfftraaaiiiiii0cvvvkvV                Vvkvvcaaappfffxxxxxxxxfi",
"yyt0061533555555ccvvkvV                  Vvkvv000005552222225522",
"tttttq0tttttppicvivvkvV                  Vvkvvcciiiiiiiit06e7422",
"xxxpisfaaaasspacavvkvV                    Vvkvvccfiii00800iiifxx",
"f-&<24240rtrtppcpvvkvV                    Vvkvvccc400ttiiiiiifff",
"isgffffst0852kzcvvkvV                      Vvkvvccc,<,,222455<<<",
"ppiitt0ttllllkzzvvkvV                      Vvkvvvvvccttkqqw660tt",
"00tttw0izkzzvkkkkkvV                        Vvkkkkkvvvvzkfasaptt",
"66656kkkkkkkkvvvvvV                        b Vvnvvvkkkkkkkk4ll0t",
",2kkkkvvvvvvvvvNVVV                        bjBVNNvnvvvvvvvkkkkl9",
".....kkkkkkkkvvvvvvNVNNNVM            VVNNNNkbzzvvnkkbkkkkkjjjj@",
"6<,>,2;;kkkkkkkkkkvvvvvvvvNVNV    VNNVvvvvvzvbkkkkkkkkkkkk<l,,-&",
"26688600000llkkkkkkkkkkkvvvvvvNVVNvvvvvvkkkkkkkkkkklllll00000088",
"fffffiiiiiiiiikkhkkkkkkkkkkkkvvvvvvkkkkkkkkkkkkhkltlr00tssssaass",
"50000,,25500llkkhkkm    kkkkkkkkkkkkkkkk    mkkhkaiiiiiiiiiqt066",
"siittisapitiallkhkkm         kkkkkk         Vkkhk2635055258yt0pt",
"ffgggfssasiitltlkhkkm                      Vkkhk800ipyppatttpsaf",
"00888888888000l2khkkV                      Vkkhkstiititttpppiiii",
"taaafxffiii055lltkhkkb                    Vkkhkaa0009tiippiiiiii",
"sttt090tiipfi00llkhkkm                    Vkkhk6<<2<2,,,<40iiiip",
"2559tspptt0020etttkhkkm                  Vkkhkiaffffsssspittttis",
"222,,;;,,,,;;222<22khkkm                Vkkhkiit000yytppaasaiit0",
"fffffffffffffsssspekhkkV                Vkkhk60qtpitiittt0tittpp",
"5525000000000000000tkhkkVV   m     m  VVkkhk52&,,22658880t00tt00",
"60pt99999999999999944khkkkVVm  m m  VVkkkhk<<22<,;;&&&;;,,,16660",
"25;,11,,,,,,22,,,,;@<<khkkkkVbmVmmmVkmkkhk05555554442<;-=;,-###5",
".......................khhkkkkmmkkkmmkhhk.......................",
"500088808888888888888885kkhhkkkkkkkkhhkk;&&&&&&&##&&---&--,*&-$,",
"8995744pappiyttq0066666665kkhhhhhhhhkk22,,+@$@;;111132522558844<",
"775;#&&;;226800ettutt0005448kkkkkkkktttttt065465565224232,,,2440",
"60ttt00<1<&=%&&-,--,1680ttppaye0904<488000i4655556800000ttttt009",
"2<<228t00ttqt90655141<=&%#@&=;20tqttw0wtpx09884<,,:20ttii000800t",
"iit11<,<;;;;;<,222659562252itttteee000212<<5599606521=,;,4500000",
"25t006526646tifxffs05590q609066233,1,;,iist<522569ttipq008956000",
"xfffsssitttt0000060ttittttttiiiaiiptttr006465446tt88528868266658",
"ttttttt6565<322<,55466869990998222256660060tuut0tiiipptttypiytii",
"95444444335900qtyyt006694655550000tttiiiaaff500iafffssptt61<=;,;",
"5,<<1,;&;=;=&=&##@@;:11268000065508986wtttwttttt0006660t0tippiq0",
"tr9666688889000000000000900000tttttppipttt008860000tttttpiipaass",
"5580rttppfffffffffffaaaatrr1205111,&=;;;;,,,;,-,,;,;;;--=<<25760",
"53555<<555555554455555555658555000wtt000000686969900005545455559",
",@&&&#@@@#@O@@@#O@@@+O++&@&#&;&;&&&&&&@&&#&$-@#@@@&@&;1<,<,00665",
"................................................................"
};
