/* XPM */
static char *f555e1ab985148989c9df72aaa0ca8b0[] = {
/* columns rows colors chars-per-pixel */
"64 64 46 1 ",
"  c black",
". c #311432",
"X c #4A2C0F",
"o c #4C2E11",
"O c #4E3013",
"+ c #4F3114",
"@ c #513215",
"# c #523417",
"$ c #543517",
"% c #533418",
"& c #553518",
"* c #58371A",
"= c #57381B",
"- c #59391B",
"; c #5B3B1E",
": c #5C3B1E",
"> c #5B3C1E",
", c #5D3C1F",
"< c #5F3E20",
"1 c #603F20",
"2 c #614022",
"3 c #644323",
"4 c #644224",
"5 c #664425",
"6 c #6A4727",
"7 c #6B4827",
"8 c #694728",
"9 c #6A4828",
"0 c #6E4B2A",
"q c #6F4C2B",
"w c #6F4C2C",
"e c #704B2B",
"r c #704C2B",
"t c #734F2E",
"y c #744F2E",
"u c #73502E",
"i c #76512F",
"p c #765130",
"a c #785331",
"s c #7A5432",
"d c #7C5633",
"f c #7D5734",
"g c #7F5936",
"h c #805936",
"j c #710193",
"k c white",
/* pixels */
"50iiiiiffffhhhhhhhhhhisis0iippppppppaaaaaaaaattttttiiiitttiippii",
"660990066665589999000q000twttaaaaaaa00iiittttpppp0itttttiiiittaa",
"pttt0qttt000099qqq006256622f0,36058825tttaaaaassa04600ppiiiffhhh",
"phhfsffsasaaattt0965599900qgsiittppasssssffggiaafffpit60ttptt00t",
"&#@;;2256660qtqrqpsfffffgggggghhhpt0tsiiitt0t4<336tt066600090thf",
"1,2<<127qqti000tiitttttt000000tippptt00hhhhhfy9t00<<260tttttt0hh",
"60800094222;<222&,225500000000066669996ttttttqtittit00880ttt0000",
"ffsaittp8665666665555555599jjjjjjjjjjpppppppaasssssssssapytttttt",
"gftpasaaaddsaitapffsaaijjjj          jjjjtttppyy0000960ttpprr090",
"i0hft25q959iiaapspassjj    jjjjjjjjjj    jj8,,2222,,11iii0800iit",
"9026taassat609690hfjj  jjjj.kkkkkkkk.jjjj  jjaaaff5255000ti92ffs",
"5526ttiaaaapt0rtwij  jjkk..............kkjj  jstapiiiiittt008666",
"6664664425486642jj jj......jjjjjjjjjj......jj jjtippiiipiaaasssp",
"t522<11<<,<,<22j  jkk..jjjj          jjjj..kkj  jtttitiiiyyytyia",
"&@,-;;,,222621j jj...jj    jjjjjjjjjj    jj...jj j2<<<,,,;;;,,--",
"oo+@#+##;ooooj j.k.jj  jjjj..kkkkkk..jjjj  jj.k.j j&&&&&-,,,,,,,",
"o&5555555000j j.k.j  jj..kk..........kk..jj  j.k.j j;;;;----&&&&",
"22iiiiiiiiifj jk.j jj.k....jjjjjjjjjj....k.jj j.kj j800000000000",
"t2555555555j j..j j....jjjj          jjjj....j j..j jgssaaiitttp",
"giiiiiiiiij jk.j j.k.jj    jjjjjjjjjj    jj.k.j j.kj jt000asfggh",
"hi422,5550j jk.j j..j  jjjj...kkkk...jjjj  j..j j.kj jhhhfpi080i",
"gipfftraaj j..j j..j jj...k..........k...jj j..j j..j jhhhhhhhfi",
"yyt006153j j..j jk.j j.k...jjjjjjjjjj...k.j j.kj j..j j222225522",
"tttttq0tj jk.j j..j j.k..jj          jj..k.j j..j j.kj jt06e7422",
"hhhpisfaj jk.j j..j j...j  jjjjjjjjjj  j...j j..j j.kj j00iiifhh",
"f-&<2424j j..j jk.j j..j jj....kk....jj j..j j.kj j..j jiiiiifff",
"isgffffsj j..j jk.j jk.j j.k........k.j j.kj j.kj j..j j22455<<<",
"ppiitt0j j..j j..j j..j j.k..jjjjjj..k.j j..j j..j j..j jqw660tt",
"00tttw0j jk.j j..j j..j j...j      j...j j..j j..j j.kj jfasaptt",
"6665666j jk.j jk.j j..j j..j jjjjjj j..j j..j j.kj j.kj j424000t",
",2:;-;;j jk.j jk.j jk.j j..j j....j j..j j.kj j.kj j.kj j6989959",
"XXXXXXXj jk.j jk.j jk.j jk.j j.kk.j j.kj j.kj j.kj j.kj jXXXXX@@",
"6<,>,2;j jk.j jk.j jk.j jk.j j.kk.j j.kj j.kj j.kj j.kj j<<,,,-&",
"2668860j jk.j jk.j jk.j j..j j....j j..j j.kj j.kj j.kj j0000088",
"fffffiij jk.j jk.j j..j j..j jjjjjj j..j j..j j.kj j.kj jsssaass",
"50000,,j jk.j j..j j..j j...j      j...j j..j j..j j.kj jiiqt066",
"siittisj j..j j..j j..j j.k..jjjjjj..k.j j..j j..j j..j j58yt0pt",
"ffgggfssj j..j jk.j jk.j j.k........k.j j.kj j.kj j..j jatttpsaf",
"00888888j j..j jk.j j..j jj....kk....jj j..j j.kj j..j jtpppiiii",
"taaafhffj jk.j j..j j...j  jjjjjjjjjj  j...j j..j j.kj jppiiiiii",
"sttt090tj jk.j j..j j.k..jj          jj..k.j j..j j.kj j<40iiiip",
"2559tspptj j..j jk.j j.k...jjjjjjjjjj...k.j j.kj j..j jspittttis",
"222,,;;,,j j..j j..j jj...k..........k...jj j..j j..j jpaasaiit0",
"ffffffffffj jk.j j..j  jjjj...kkkk...jjjj  j..j j.kj jttt0tittpp",
"5525000000j jk.j j.k.jj    jjjjjjjjjj    jj.k.j j.kj j880t00tt00",
"60pt9999999j j..j j....jjjj          jjjj....j j..j j&;;,,,16660",
"25;,11,,,,,,j jk.j jj.k....jjjjjjjjjj....k.jj j.kj j2<;-=;,-###5",
"XXXXXXXXXXXXj j.k.j  jj..kk..........kk..jj  j.k.j jXXXXXXXXXXXX",
"5000888088888j j.k.jj  jjjj..kkkkkk..jjjj  jj.k.j j&---&--,*&-$,",
"8995744pappiytj jj...jj    jjjjjjjjjj    jj...jj j1132522558844<",
"775;#&&;;226800j  jkk..jjjj          jjjj..kkj  j65224232,,,2440",
"60ttt00<1<&=%&&-jj jj......jjjjjjjjjj......jj jj56800000ttttt009",
"2<<228t00ttqt90655j  jjkk..............kkjj  j4<,,:20ttii000800t",
"iit11<,<;;;;;<,2226jj  jjjj.kkkkkkkk.jjjj  jj99606521=,;,4500000",
"25t006526646tifhffs05jj    jjjjjjjjjj    jj<522569ttipq008956000",
"hfffsssitttt0000060ttitjjjj          jjjj6465446tt88528868266658",
"ttttttt6565<322<,5546686999jjjjjjjjjj660060tuut0tiiipptttypiytii",
"95444444335900qtyyt006694655550000tttiiiaaff500iafffssptt61<=;,;",
"5,<<1,;&;=;=&=&##@@;:11268000065508986wtttwttttt0006660t0tippiq0",
"tr9666688889000000000000900000tttttppipttt008860000tttttpiipaass",
"5580rttppfffffffffffaaaatrr1205111,&=;;;;,,,;,-,,;,;;;--=<<25760",
"53555<<555555554455555555658555000wtt000000686969900005545455559",
",@&&&#@@@#@O@@@#O@@@+O++&@&#&;&;&&&&&&@&&#&$-@#@@@&@&;1<,<,00665",
"XXXXXXXXXXXXXXXXXXXXXXXXXXXXXXXXXXXXXXXXXXXXXXXXXXXXXXXXXXXXXXXX"
};
