/* XPM */
static char *fd834539cd2f46b2ba2c10594625fac1n3gYwxANm82vtNvV[] = {
/* columns rows colors chars-per-pixel */
"64 64 232 2 ",
"   c #000000",
".  c #0B0502",
"X  c #120903",
"o  c #170C04",
"O  c #1D1106",
"+  c #241609",
"@  c #311F0E",
"#  c #372413",
"$  c #311436",
"%  c #082A39",
"&  c #26313B",
"*  c #4A2C0F",
"=  c #4D2E12",
"-  c #4F3114",
";  c #4A301A",
":  c #523316",
">  c #553619",
",  c #58371A",
"<  c #57381A",
"1  c #5B3B1D",
"2  c #5F3E20",
"3  c #5F3C2F",
"4  c #512F32",
"5  c #603F21",
"6  c #5B453A",
"7  c #654324",
"8  c #6B4827",
"9  c #67462A",
"0  c #6A4728",
"q  c #6D4A2A",
"w  c #724E2D",
"e  c #6F5927",
"r  c #75512F",
"t  c #775B2D",
"y  c #6A4539",
"u  c #714B3B",
"i  c #765230",
"p  c #7A5532",
"a  c #7F5935",
"s  c #79523D",
"d  c #7B612E",
"f  c #350F46",
"g  c #3A1547",
"h  c #451D4F",
"j  c #471759",
"k  c #562D49",
"l  c #5C3648",
"z  c #432855",
"x  c #572A58",
"c  c #5D3358",
"v  c #643C48",
"b  c #653A55",
"n  c #693E54",
"m  c #63365D",
"M  c #643959",
"N  c #6A3C5D",
"B  c #50136C",
"V  c #601E7D",
"C  c #5D2B64",
"Z  c #5B276C",
"A  c #5B336B",
"S  c #5E2177",
"D  c #602C6B",
"F  c #643464",
"G  c #673768",
"H  c #632876",
"J  c #673676",
"K  c #0F445C",
"L  c #1C465C",
"P  c #33475F",
"I  c #144E68",
"U  c #1A5A76",
"Y  c #3B5069",
"T  c #235974",
"R  c #375C75",
"E  c #1E617F",
"W  c #37617C",
"Q  c #4D4A4E",
"!  c #554C56",
"~  c #58555A",
"^  c #6A4345",
"/  c #634844",
"(  c #6C444C",
")  c #704945",
"_  c #744B4B",
"`  c #6A554A",
"'  c #76594A",
"]  c #6B4253",
"[  c #6E435B",
"{  c #744A53",
"}  c #754A5A",
"|  c #7A4F5A",
" . c #6B5C59",
".. c #7B5556",
"X. c #766B5D",
"o. c #4E506D",
"O. c #545A66",
"+. c #5C5C64",
"@. c #484A74",
"#. c #445B77",
"$. c #6A4463",
"%. c #724469",
"&. c #635866",
"*. c #7A5668",
"=. c #7C4C74",
"-. c #784578",
";. c #7A5777",
":. c #51606F",
">. c #49667B",
",. c #586577",
"<. c #5B6A7C",
"1. c #6B6365",
"2. c #666369",
"3. c #656873",
"4. c #636D7B",
"5. c #767873",
"6. c #815A36",
"7. c #846735",
"8. c #91703D",
"9. c #835A48",
"0. c #82565C",
"q. c #8E7253",
"w. c #86576A",
"e. c #845373",
"r. c #885679",
"t. c #917074",
"y. c #9A833E",
"u. c #9E8541",
"i. c #9B864C",
"p. c #9A8457",
"a. c #A48846",
"s. c #A68A46",
"d. c #A48A4D",
"f. c #B59D4B",
"g. c #B69D5B",
"h. c #BAA14E",
"j. c #BBA355",
"k. c #9B8766",
"l. c #948B75",
"z. c #AE9369",
"x. c #B7A665",
"c. c #B5A874",
"v. c #C5AC54",
"b. c #C6AE57",
"n. c #CDB558",
"m. c #C5B271",
"M. c #DBC15E",
"N. c #E5CB67",
"B. c #6B3783",
"V. c #6B3981",
"C. c #753D88",
"Z. c #753791",
"A. c #246889",
"S. c #346A8B",
"D. c #237396",
"F. c #367AA3",
"G. c #475A84",
"H. c #7A4783",
"J. c #7B518D",
"K. c #466B86",
"L. c #576B85",
"P. c #56738A",
"I. c #466396",
"U. c #586C97",
"Y. c #477999",
"T. c #557A96",
"R. c #6E6B8F",
"E. c #7269A7",
"W. c #834C88",
"Q. c #865183",
"!. c #8A5584",
"~. c #8D5883",
"^. c #8B538C",
"/. c #885C8D",
"(. c #925C89",
"). c #864B96",
"_. c #8C5293",
"`. c #8C589B",
"'. c #915793",
"]. c #935A93",
"[. c #955A9A",
"{. c #965A9B",
"}. c #8B639B",
"|. c #8647A1",
" X c #8D4EA3",
".X c #8D53A4",
"XX c #9455A4",
"oX c #9659A1",
"OX c #9A5BA3",
"+X c #9553AF",
"@X c #9C5CAA",
"#X c #9D5BB2",
"$X c #9B56B8",
"%X c #A15EB2",
"&X c #A35DB9",
"*X c #9E60A5",
"=X c #8E64B4",
"-X c #A263A9",
";X c #A560B9",
":X c #A562B8",
">X c #B076B3",
",X c #A75DC5",
"<X c #AA61C3",
"1X c #AD61CA",
"2X c #B064CD",
"3X c #AF61D3",
"4X c #AE60D4",
"5X c #B264D3",
"6X c #B867DD",
"7X c #3983A9",
"8X c #2A89B3",
"9X c #338BB5",
"0X c #51809F",
"qX c #76888E",
"wX c #4981A3",
"eX c #5788A3",
"rX c #6A95A9",
"tX c #95918D",
"yX c #959C8B",
"uX c #AD9192",
"iX c #B3AB85",
"pX c #A7AE97",
"aX c #AA9AA0",
"sX c #90A4A0",
"dX c #C3B982",
"fX c #E3C387",
"gX c #FFEFB7",
"hX c #FFF2C8",
"jX c #FFF5D7",
"kX c #FFF8E2",
"lX c #FFFDF7",
"zX c #FFFFFF",
/* pixels */
"7 q r r r r r a a a a 6.6.6.6.6.6.6.6.6.6.r p r p q r r i i i i i i i i i i i i i i i i i w w w w w w r r r r w w w r r i i r r ",
"0 0 q 8 8 q q 0 0 0 0 7 7 0 8 8 8 8 q q q q q q q w q w w i i i i i i i q q r r r w w w w i i i i q r w w w w w r r r r w w i i ",
"i w w w q q w w w q q q q 8 8 q q q q q 0 7 7 0 0 7 7 a q =.^.0 q 7 0 0 7 7 w w w i i i i i p p i q 7 0 q q i i r r r a a 6.6.6.",
"i 6.6.a p a a p i p i i i w w w q 8 0 7 7 8 8 8 q q *.].*X@Xr.w w ] { { { _ _ p p a a a a r i i a a a i r w 0 q w w i w w q q w ",
"> : : 1 1 7 7 7 0 0 0 q q w q w q i p a a a a ].].<X-X].r.0.9.6.s G N N N G G G ] w w q w 7 5 7 7 0 w w q 0 0 0 q q q 8 q w 6.a ",
"5 1 7 2 2 5 7 8 q q w r q q q w r r w w w ~.OX:X'.{ q q q q w r i i i w w q e._ } 6.6.6.a w +.P.q q 2 2 7 0 q w w w w w w q 6.6.",
"0 q 0 q q q 8 7 7 7 7 1 2 u.u.7 > 1 7 7 @X{.r.q q q w n w q q 0 0 0 8 | !.&X<Xw w w w w ` Y.<.L.P.3.r w q q 0 0 q w w w q q q q ",
"a a p i r w w i 0 0 0 7 0 b.0 0 0 7 7 7 %.+.7 7 7 b G n q q q w | ~.OX&X<X].i i i i i i ' 3.1.1.3.Y.3.p w.' p i i w w w w w w w ",
"a a w i i p i i i p p p s.s.w i i a a p 4.1.r N D b y q q !.!.%XOX@X:X!.q w w w w w w w i i w w q q P.q *.^.q w w i i w w q 8 q ",
"r q 6.a w 7 7 q 8 7 8 s.s.i i i p i 1.L.' s $.G s i i 0.2X5X{.6X#X/.+.K.qXpXqXw w w 0 ` 1 1 7 7 7 7 1 1 5 ( (.r r q 0 q q r r w ",
"8 q 7 0 w i i p p i w b.q 8 0 8 q P.4.u b b N 0 8 r | OX&X:X6X].2.wXwX7XrXjXiXdXiXT.T.wXP.i i i a a 7 7 7 7 { :Xq w r 8 7 a a p ",
"7 7 7 0 w w r i i i b.b.w q w w &.3.w ] u N q 0 7 } OX<X&X5X} Y.9XrXwX0XzXzXzX3.5.3.1.i p p p w i i r r r r r (...w q q 0 0 0 0 ",
"0 0 0 7 0 0 7 7 7 7 u.s.0 _ 7 / Y.0 q 0 M ( w i 0.OX<X:X1X(.0X9XsXc.T.1.(.zX*XOX%X%X%X%X5X%X%X%X%X:X2Xi r r r r.r.i i i p p p i ",
"w 7 7 7 2 5 5 2 2 1 d f.2 ^.7 9 / 7 q r s i i i :X:X5X&XE.9XrXx.k.Q.oX#X!.'.'.'.!.oXoX%X2X%XOXOX!.!.oX!.r w r r r w w w w w r i ",
"> : 1 < 1 1 1 1 7 7 7 b.7 5 1 < > : = - 1 1 1 $X,X5XXXJ.9XsXj.qXO._._.Q.#X<XQ.Q.Q.} } 7 7 7 [ [ Q.Q.,X&X[ 2 1 1 1 1 1 1 1 1 < < ",
"= = - : : - : : 1 = = v.= = > > : : - - - = 5X$X,X,X=X7XsXh.U.H. X XH.H.k k k k k k k k x zXe : : : : H.,X> > > < 1 1 1 1 1 1 1 ",
"- > 0 0 7 7 7 7 0 q q h.7.q q q 5 >.>.5 2 _.3X&X+X=X7X7Xm.K.,XH.J C C C Z C Z Z Z S S Z zXlXgXg.p.1 1 < -.1X=.=.< < < < > > > > ",
"7 7 r r r r r r r r r s.s.a a a 4.4.a a r.6X:X*X:XT.T.yXyXc D S S D H H Z.Z.H ;.t.;.H H V zXV ;.k.F y 0 0 q q ^.{ q q q q q q q ",
"w 7 7 7 7 7 7 7 7 7 7 y.y.1 1 K.F.5 5 7 5X&X&XXXU.Y.Y.iX;.S D m F D D J l.tXm.c.l.iXm.j.d.k.G H ( N N w w a p w.-Xi r r w w w i ",
"a r r r r r r r r r r s.N.i i <.<.w w q 6X>Xm.}.P.P.tXl.G w m G w.k.g.b.aXuX*.*.*. .1.5.yXs.] D G q q q w w w { ^.q i p a a a 6.",
"6.r 7 7 7 1 7 7 7 q 8 t q.q q Y.` i i ].5XaXfXl.wXU.c.%.g B j g b.c.r.$X$X XXX XOX<X!.r 3.4.i [ J $.i i r P.X.a {.a i r q 0 q r ",
"a r i a a w w i i i r r r r 1.Y.q 0 0 6X#XhXk.eXY.R.z.B B f $ X . 4X$X).V.H.+XH.b 7 ~.~.r ' 4.i [ H i a 4.4.1.6.(.0.6.6.6.6.a r ",
"w w w q q 0 5 7 7 7 7 7 7 7 7 Y.q q '.1XjXjXzX9XG.tXt.j O .       h O @ D.A.L H. XXX~.~.~.^ M ,.q H F 7 +.+.Y./ ^.( 7 7 7 7 7 7 ",
"w w w w w q q w w w w w i i r r r 0.5X@X-XlXT.8XR.z.V .               . & L U U R c H.,X'.Q.n G r H H r 1.1.4.' ~.~.8 w 8 7 7 7 ",
"6.6.6.i r p a i i i i p p i i i i 0.<X@X]./.8XF.t.q.j                     . L E T @.C =.(.-X_._ _ %.J r ' <.<.` } } r r r a 6.6.",
"a < > 2 7 7 7 7 q w w w w i i i i 0.2X*X:XD.F.I.n..           zX            . @ U #.A n {.'.-.C c l v q q L.P.3.r r r r r a a a ",
"r p a a a a a p w q 0 7 7 1 7 7 7 _.$X$XXXD.F.I.q.          zXzXzX            . & A.@.n r.'.oXF v N.0 1 1 K.O.7 7 7 7 7 7 2 5 2 ",
"i i r r w w q w w w w i i i w w q !.<X2X.XD.D.T               zX                  T @.c n OX&X] ] g.7.w w u u w q q q 0 0 q w w ",
"q q w w w q q r r r r r r r i r r :X:X:XV.+ +                                     L Y @.M H.XXH.c d.d.w w ] ] w w a i p i i w w ",
"0 0 0 7 0 0 0 7 7 7 7 7 5 5 7 0 } oX,XXXV.O O                                     L P G.G ( &X'.m d.k.&Xq ^ ^ 7 7 7 7 7 q q q w ",
"1 7 1 1 < 1 1 1 > 1 1 1 < > > : H.H.,X XV..                                       I A.@.c c {.5Xb ..g.{.r.b y 8 0 0 8 0 8 8 7 8 ",
"* * * * * * * * * * * * * * * * $X).$X+XV.X           zX                          K T P x 4 J J ; C g.t.`.k 4 * * * * * * * : : ",
"0 2 1 1 1 7 1 1 < < 1 1 > > < < 1 #X&X+XV.O         zXzXzX                        K A.z k 4 ).! R C p.p.:XD 1 2 2 2 2 1 1 1 < > ",
"7 0 0 0 0 0 q q q q q 8 8 8 q 0 0 Q.5X`.V.. .         zX                          I A.l m 0 XX&.S.m k.s.&X^ q q q q q q q q 0 0 ",
"a a a a a r r r r r r r r r w r r r OX,X$XX +                       zX            U T M G ..1XL.:.M 0.h.@Xe.w w p p p p i i p p ",
"7 q q q q 1 1 7 7 7 q q q y n q q q !.oX).V.@ .                   zXzXzX          D.W c _ ].`.K.&.F ( N.@Xr.r r r r r q w q 0 0 ",
"p r r w w r p i i r w r i _ _ r r r i 2XW.).+ @                     zX          % D.h C ] &XO.S.l C 7.f.{.,.,.7 7 7 0 w w q i w ",
"a a a a a a p p i p r r w N w q q w q q oXH.B.@ .                             . U @.C F {.`.O.>.b m s.s.{.3.3.i i w w w i p i a ",
"q q 0 0 0 0 0 0 0 0 0 q ^ ^ 0 7 _._.1 > 1  X$X  +                           X O G.z Z %.&X+.2.:.F ] s.z.{.2.2.w w i i i r r r r ",
"w i i i a 6.a a r r r q F y q e.'.e.w w 7 1 $XZ.  O +                     X $ Z @.x J &XJ. .K.$.F y h.q.{.<.<.r i i r r r r r r ",
"p w w w q 8 q w r r i a ) ^ q 0 {.~.1.1.a 6.6.1X+ .   X . .         X O $ h B @.R C ,X:X+.>.o.v C 3 b.2 7 K.1 1 5 7 q r r r r i ",
"7 7 7 8 w p i i w w q q v ^ w w {.@Xw <.` w w i i # o     .         $ g j j g E.).,X&XzX>.&.] ] [ 8.j.a 1.1.p p i r w w w w r p ",
"7 7 7 1 1 1 1 1 1 1 1 1 3 b K.7 1 OX=./ Y.&.` q 8 w 7 ; H.J J J J B.B.C.|.V. X X$X.XzXjXkX] ] M ^ q q w <.` i i i i p i r r w q ",
"a a a a a a a a a a a a a [ P.' p ~.{.q 8 1.T.' q q q q _.-.C.C.C.C.C.H. X). X.XJ.W k.gXq.m b #X| i r w r r w w w q w r w w i i ",
"7 7 7 7 q q q q q q q q q n ,.<.q e.OXe.w w w w w 0 i p w ..W.~.| | | | '.#X}.S.K.X.x.' M b XXW.1 7 7 0 7 0 0 0 q w q q w w q q ",
"0 q i w 8 8 8 8 8 8 8 8 8 ^ b +.+.8 e.OX7 7 =.=.=._.-.).`.$X_._.).XXXX=X=XR.#.! o.b.1 C c W.XXc 1 1 1 > > > 1 1 1 1 1 5 0 0 0 q ",
"7 7 1 1 5 5 1 1 1 1 1 1 7 5 l 1 O.O.1 ^.=.2 =.=.=._.=.W.=.^._.{.oX=XL.~ O.O.~ :.j.7.C C =.XX_ 7 7 7 7 7 7 2 1 < < 1 1 < : : : 7 ",
"* * * * * * * * * * f.* * * * * * W W * * * y.e * * * -.-.l l P R l.5.Y Q R Q f.e = 4 %._.%.* * * * * * * * * * * * * * * * * * ",
"7 q q q 0 0 0 q 0 0 7.h.0 0 0 0 0 0 +.0 0 0 s.h.f.i.k.X.#.#.S.R p.x.5.o.! ~ 1 1 1 > =.@X@X> > > : : > > < < < > < < 1 , > < > 1 ",
"0 8 8 7 8 7 7 i i i i 8.b.w w q q q 0 0 0 0 0 >.P.l.l.c.m.x.h.b.u.! 6 1 1 1 7 7 ^.#X&Xv > : 1 1 5 5 5 5 7 7 7 7 7 7 7 0 0 7 7 2 ",
"8 8 7 1 : > > 1 1 7 7 0 0 b.7.w w w r w w q q ` 7 7 7 0 0 7.b.8 q y y ( ) w r {.OX~.q 0 7 7 0 7 7 0 7 7 7 7 7 7 7 1 1 1 7 7 7 q ",
"0 q w w w q q 2 5 2 > < : > f.s.d < < 1 5 v ^ ^ u ^ ) ) _ ] ] G M n b l 3 8 8 q q q r 7 0 7 7 7 7 0 0 q q q q q w w w w w q q 8 ",
"7 2 2 7 7 0 w q q w w q w 8 q n.h.b.f.u.u.' l C k k o.o.#.O.O.,.Y.q w w q q q w i 6.q 8 0 0 7 2 1 1 1 7 q w w r r q q q 0 q q w ",
"r r w 5 5 2 1 2 1 1 1 1 1 2 1 7 7 7 7.s.s.h.M.t 7 7 +.2.<.2.2.` w w w q q q 7 2 7 2 2 7 7 8 8 0 q 0 7 7 5 < 1 1 1 7 7 q q q q q ",
"7 7 w q q 0 7 7 0 0 7 0 w r a 6.a a p q 7 7 7.w w 0 q 8 q 0 0 7 7 7 1 5 1 1 1 r r p w 2 7 7 7 7 0 8 w w r i q q q 0 8 7 0 q q q ",
"6.a a a p p p r w w w w q q q q q 0 q w w r w w w w w w r r r i r r i w w w w q q 0 7 0 7 7 7 0 w w 0 0 7 7 0 0 0 0 7 0 0 0 7 0 ",
"w w w w w w w 0 7 0 7 2 7 7 7 2 1 7 7 7 0 0 0 0 8 8 8 q 8 8 0 7 7 7 7 7 0 0 0 q q 0 q w r r w q w r r r i i w w w w i r w w r r ",
"8 7 7 7 7 7 7 7 7 7 7 8 q q q w w w w q q 0 0 8 7 0 7 7 7 7 q q q q w w w r r r i i a a 7 q q r i a a a p p i w w 0 5 2 < 1 1 1 ",
"7 1 2 2 5 1 1 > 1 < 1 < > < > : : : : 1 1 5 5 7 0 0 q q q q 0 7 7 q 0 8 0 0 q w w w q w w w w w q q q 0 0 0 q w q w r i i r q q ",
"w w 8 0 0 0 0 0 0 0 0 8 q q q q q q q q q q q q 8 q q q q q w w w w w i i r i w w w q q 0 0 0 q q q q w w w w w i r r i i i p p ",
"7 7 0 q w w w i i a a a a a a a a a a a i i i i w w w 5 7 q 7 5 5 5 1 > < 1 1 1 1 1 1 1 1 1 < 1 1 1 1 1 1 1 < < < 2 2 7 7 8 0 q ",
"7 7 7 7 7 2 2 7 7 7 7 7 7 7 7 7 7 7 7 7 7 7 7 7 7 0 7 0 7 7 7 q q q q w w q q q q q q 8 0 0 8 0 8 8 q q q q 7 7 7 7 7 7 7 7 7 8 ",
"1 : > > > : : : : : : - : : : : - : : : - - - - > : > : > 1 > 1 > > > > > > : > > : > > < : : : : : > : > 1 5 2 1 2 1 q q 0 0 7 ",
"* * * * * * * * * * * * * * * * * * * * * * * * * * * * * * * * * * * * * * * * * * * * * * * * * * * * * * * * * * * * * * * * "
};
