/* XPM */
static char *_b9d4d296bb54f5caf945af4d9f1c21d[] = {
/* columns rows colors chars-per-pixel */
"64 64 46 1 ",
"  c black",
". c #311432",
"X c #4A2C0F",
"o c #4C2E11",
"O c #4E3013",
"+ c #4F3114",
"@ c #513215",
"# c #523417",
"$ c #543517",
"% c #533418",
"& c #553518",
"* c #58371A",
"= c #57381B",
"- c #59391B",
"; c #5B3B1E",
": c #5C3B1E",
"> c #5B3C1E",
", c #5D3C1F",
"< c #5F3E20",
"1 c #603F20",
"2 c #614022",
"3 c #644323",
"4 c #644224",
"5 c #664425",
"6 c #6A4727",
"7 c #6B4827",
"8 c #694728",
"9 c #6A4828",
"0 c #6E4B2A",
"q c #6F4C2B",
"w c #6F4C2C",
"e c #704B2B",
"r c #704C2B",
"t c #734F2E",
"y c #744F2E",
"u c #73502E",
"i c #76512F",
"p c #765130",
"a c #785331",
"s c #7A5432",
"d c #7C5633",
"f c #7D5734",
"g c #7F5936",
"h c #805936",
"j c #710193",
"k c white",
/* pixels */
"50iiiiiffffhhhhhhhhhhisis0iippppppppaaaaaaaaattttttiiiitttiippii",
"660990066665589999000q000twttaaaaaaa00iiittttpppp0itttttiiiittaa",
"pttt0qttt000099qqq006256622f0,36058825tttaaaaassa04600ppiiiffhhh",
"phhfsffsasaaattt0965599900qgsiittppasssssffggiaafffpit60ttptt00t",
"&#@;;2256660qtqrqpsfffffgggggghhhpt0tsiiitt0t4<336tt066600090thf",
"1,2<<127qqti000tiitttttt000000tippptt00hhhhhfy9t00<<260tttttt0hh",
"60800094222;<222&,225500000000066669996ttttttqtittit00880ttt0000",
"ffsaittp8665666665555555599..........pppppppaasssssssssapytttttt",
"gftpasaaaddsaitapffsaai.....kkkkkkkk.....tttppyy0000960ttpprr090",
"i0hft25q959iiaapspass..kkk............kkk..8,,2222,,11iii0800iit",
"9026taassat609690hf.......jjjjjjjjjjjj.......aaaff5255000ti92ffs",
"5526ttiaaaapt0rtwi.kk..jjj            jjj..kk.stapiiiiittt008666",
"6664664425486642.....jj   jjjjjjjjjjjj   jj.....tippiiipiaaasssp",
"t522<11<<,<,<22.k..jj  jjj...kkkkkk...jjj  jj..k.tttitiiiyyytyia",
"&@,-;;,,222621.k..j  jj..k............k..jj  j..k.2<<<,,,;;;,,--",
"oo+@#+##;oooo.k..j jj..k...jjjjjjjjjj...k..jj j..k.&&&&&-,,,,,,,",
"o&5555555000.k..j j...k..jj          jj..k...j j..k.;;;;----&&&&",
"22iiiiiiiiif...j j.....jj  jjjjjjjjjj  jj.....j j...800000000000",
"t2555555555...j j..k..j  jj...kkkk...jj  j..k..j j...gssaaiitttp",
"giiiiiiiii.k.j j..k..j jj..k........k..jj j..k..j j.k.t000asfggh",
"hi422,5550.k.j j....j j..k..jjjjjjjj..k..j j....j j.k.hhhfpi080i",
"gipfftraa...j j....j j..k.jj        jj.k..j j....j j...hhhhhhhfi",
"yyt006153...j j.k.j j....j  jjjjjjjj  j....j j.k.j j...222225522",
"tttttq0t.k.j j.k.j j....j jj...kk...jj j....j j.k.j j.k.t06e7422",
"hhhpisfa.k.j j...j j.k.j j..k......k..j j.k.j j...j j.k.00iiifhh",
"f-&<2424.k.j jk.j j.k.j j.k..jjjjjj..k.j j.k.j j.kj j.k.iiiiifff",
"isgffffs..j j...j j..j j.k..j      j..k.j j..j j...j j..22455<<<",
"ppiitt0...j j..j j.k.j j...j  jjjj  j...j j.k.j j..j j...qw660tt",
"00tttw0.k.j j..j j..j j.k.j  j....j  j.k.j j..j j..j j.k.fasaptt",
"6665666.k.j jk.j j..j j..j  j.k..k.j  j..j j..j j.kj j.k.424000t",
",2:;-;;.k.j jk.j jk.j j..j j.k.jj.k.j j..j j.kj j.kj j.k.6989959",
"XXXXXXX.k.j jk.j jk.j jk.j j..j  j..j j.kj j.kj j.kj j.k.XXXXX@@",
"6<,>,2;.k.j jk.j jk.j jk.j j..j  j..j j.kj j.kj j.kj j.k.<<,,,-&",
"2668860.k.j jk.j jk.j j..j j.k.jj.k.j j..j j.kj j.kj j.k.0000088",
"fffffii.k.j jk.j j..j j..j  j.k..k.j  j..j j..j j.kj j.k.sssaass",
"50000,,.k.j j..j j..j j.k.j  j....j  j.k.j j..j j..j j.k.iiqt066",
"siittis...j j..j j.k.j j...j  jjjj  j...j j.k.j j..j j...58yt0pt",
"ffgggfss..j j...j j..j j.k..j      j..k.j j..j j...j j..atttpsaf",
"00888888.k.j jk.j j.k.j j.k..jjjjjj..k.j j.k.j j.kj j.k.tpppiiii",
"taaafhff.k.j j...j j.k.j j..k......k..j j.k.j j...j j.k.ppiiiiii",
"sttt090t.k.j j.k.j j....j jj...kk...jj j....j j.k.j j.k.<40iiiip",
"2559tsppt...j j.k.j j....j  jjjjjjjj  j....j j.k.j j...spittttis",
"222,,;;,,...j j....j j..k.jj        jj.k..j j....j j...paasaiit0",
"ffffffffff.k.j j....j j..kk.jjjjjjjj.kk..j j....j j.k.ttt0tittpp",
"5525000000.k.j j..k..j jj..k........k..jj j..k..j j.k.880t00tt00",
"60pt9999999...j j..k..j  jj...kkkk...jj  j..k..j j...&;;,,,16660",
"25;,11,,,,,,...j j.....jj  jjjjjjjjjj  jj.....j j...2<;-=;,-###5",
"XXXXXXXXXXXX.k..j j...k..jj          jj..k...j j..k.XXXXXXXXXXXX",
"5000888088888.k..j jj..k...jjjjjjjjjj...k..jj j..k.&---&--,*&-$,",
"8995744pappiyt.k..j  jj..k............k..jj  j..k.1132522558844<",
"775;#&&;;226800.k..jj  jjj...kkkkkk...jjj  jj..k.65224232,,,2440",
"60ttt00<1<&=%&&-.....jj   jjjjjjjjjjjj   jj.....56800000ttttt009",
"2<<228t00ttqt90655.kk..jjj            jjj..kk.4<,,:20ttii000800t",
"iit11<,<;;;;;<,2226.......jjjjjjjjjjjj.......99606521=,;,4500000",
"25t006526646tifhffs05..kkk............kkk..<522569ttipq008956000",
"hfffsssitttt0000060ttit.....kkkkkkkk.....6465446tt88528868266658",
"ttttttt6565<322<,5546686999..........660060tuut0tiiipptttypiytii",
"95444444335900qtyyt006694655550000tttiiiaaff500iafffssptt61<=;,;",
"5,<<1,;&;=;=&=&##@@;:11268000065508986wtttwttttt0006660t0tippiq0",
"tr9666688889000000000000900000tttttppipttt008860000tttttpiipaass",
"5580rttppfffffffffffaaaatrr1205111,&=;;;;,,,;,-,,;,;;;--=<<25760",
"53555<<555555554455555555658555000wtt000000686969900005545455559",
",@&&&#@@@#@O@@@#O@@@+O++&@&#&;&;&&&&&&@&&#&$-@#@@@&@&;1<,<,00665",
"XXXXXXXXXXXXXXXXXXXXXXXXXXXXXXXXXXXXXXXXXXXXXXXXXXXXXXXXXXXXXXXX"
};
