/* XPM */
static char *_06909136ace4645dee514370cc5df7224jtDC4tUwApF6DQ[] = {
/* columns rows colors chars-per-pixel */
"64 64 43 1 ",
"  c #4A2C0F",
". c #4B2D10",
"X c #4C2E11",
"o c #4F3013",
"O c #4F3114",
"+ c #513215",
"@ c #523417",
"# c #543517",
"$ c #533418",
"% c #553518",
"& c #58371B",
"* c #57381B",
"= c #59391B",
"- c #5B3B1E",
"; c #5C3B1E",
": c #5B3C1E",
"> c #5D3C1F",
", c #5F3E20",
"< c #603F20",
"1 c #614022",
"2 c #644323",
"3 c #644224",
"4 c #664425",
"5 c #6A4727",
"6 c #6B4827",
"7 c #694728",
"8 c #6A4828",
"9 c #6E4B2A",
"0 c #6F4C2B",
"q c #6F4C2C",
"w c #704B2B",
"e c #704C2B",
"r c #734F2E",
"t c #744F2E",
"y c #73502E",
"u c #76512F",
"i c #765130",
"p c #785331",
"a c #7A5432",
"s c #7C5633",
"d c #7D5734",
"f c #7F5936",
"g c #805936",
/* pixels */
"49uuuuuddddgggggggggguaua9uuiiiiiiiippppppppprrrrrruuuurrruuiiuu",
"5598899555544788889990999rqrrppppppp99uuurrrriiii9urrrrruuuurrpp",
"irrr90rrr999988000995145511d9>25947714rrrpppppaap93599iiuuuddggg",
"iggdaddapappprrr98544888990fauurriipaaaaaddffuppdddiur59rrirr99r",
"%@+--11455590r0e0iadddddffffffgggir9rauuurr9r3,225rr955599989rgd",
"<>1,,<1600ru999ruurrrrrr999999ruiiirr99gggggdt8r99,,159rrrrrr9gg",
"59799983111-,111%>114499999999955558885rrrrrr0rurrur99779rrr9999",
"ddapurri755455555444444448889qqrrrreuiiiiiiippaaaaaaaaapitrrrrrr",
"fdripapppssapurpiddappur9559880rruu99rrrrrrruutt9999859rriiee989",
"u9gdr140848uuppiaipaaaaapppuuw952511ddurrr77>>1111>><<uuu9799uur",
"8915rppaapr598589gdr44957t9uriiuiuuuututrruuppppdd4144999ru81dda",
"4415rruppppir9erqurrrrq54709r779rupppddauuiiaaarpiuuuuurrr997555",
"5553553314375531559779riir9ridffdddddddirrrtrrrrruiiuuuiupppaaai",
"r411,<<,,>,>,114349upppppp111<,115559999999rrrrrrrrruruuutttrtup",
"%+>=-->>11151<>=%+XO->>,1111111>>444444444411111111,,,>>>--->>==",
"XXO+@O@@-XXXXX%%++OooX..XXX...X.@@%%@@@@@@@@+@@@@@@%%%%%=>>>>>>>",
"X%44444449999998<<<<<<>4---<>>-%>>---------->>>---------====%%%%",
"11uuuuuuuuudddddddddddddddd->>1111333444443333377777799999999999",
"r1444444444>>>>><<<111111141113333111114445999999rrrrfaappuurrri",
"fuuuuuuuuuuiiiiurrr000rrrrr99r999rffdddaappuurrr0999rer999padffg",
"gu311>444988999ruiipppppppd5545884449999999uiippppipuugggdiu979u",
"fuiddrepppuuuuuu97744411,,,,aduuuuuurrr939ruuppppiidddggggggggdu",
"ttr995<42244444499999999rrrripppppaaiiur0diuar999994441111114411",
"rrrrr09rrrrriiuuuuuutuuruuuuur9991>>>>@>199999uuuuuuuuuur95w6311",
"gggiuadppppaaipppipiiuripu9994949uuudd9uuuddggggdduuu99799uuudgg",
"d=%,13139ereriiiipddddrs89rrupippidddgdiuu9979-->>399rruuuuuuddd",
"uafddddar9741>1144><11,;;ddirru9rr999799rrruu097795>,>>111344,,,",
"iiuurr9rrrrppptt99r9499rrag11,,144499999rrr99rrrr99rrrrr00q559rr",
"99rrrq9uuuuuuuiuuuiiiuurrrdfffffd99599985441111,,rrrrrrrrdpapirr",
"555455522111<<4555555445559977555599999eer99rr99999999542313999r",
">1;-=-->%::>=%%@@@++O+O+o+O+%%=--------%O%--->111222228855878848",
"                                                              ++",
"5,>->1--==--%%==>>,;;;;;;;&--%%%%%%%@%%+++++++++@@++,--,,,,>>>=%",
"1557759999988895555555588443333333333334777775544555999999999977",
"ddddduuuuuuuuutuuuuuuuurruuuuiiiiiuuuuurerrrruuurrrre99raaaappaa",
"49999>>144999999999999rrrrrrrrrruuuruuuuurrrdappppuuuuuuuut0r955",
"auurruapiurupaduuuiipu9rrrrrr99711<11-%=%%%1,14111524944147tr9ir",
"ddfffdaapauur9r99e90909255559rrrt9r99>446rr9rr99799uitiiprrriapd",
"9977777777799951>>-%-;,333513459riierurrrrruiupparuururrriiiuuuu",
"rpppdgdduuu9449rr8rr2>>-=>9>-113rrp995999truruupp9998ruuiiuuuuuu",
"arrr989ruuidu997ruupdggggdu9431>;>uuaffaauurrr95,,1,1>>>,39uuuui",
"1448raiirr9919wrrrr9rrriiipppurr534,215118rruuupddddaaaaiurrrrua",
"111>>-->>>>--111,11349998rrrrruiiiturrrrrr99rtur999ttriippapuur9",
"dddddddddddddaaaaiw98iii999999944411111>44415590riuruurrr9rurrii",
"4414999999999999999rrrrrr5iarrrrrrrrrrr9994441%>>11547779r99rr99",
"59ir888888888888888333333*+$%--------------,,11,>--%%%-->>><5559",
"14-><<>>>>>>11>>>>-+,,33333,1-14999999999994444443331,-=*->=@@@4",
"                                                                ",
"4999777977777777777777741,,,%*===%##,,>>-%%%%%%%@@%%===%==>&%=#>",
"7884633ipiiutrr099555555545,2<>1<1,>>>11>>O+#+--<<<<21411447733,",
"664-@%%--115799wrryrr99943374588999rrrrrrr954354454113121>>>1339",
"59rrr99,<,%*$%%=>==><579rriiptw9893,377999u3544445799999rrrrr998",
"1,,117r99rr0r89544<3<,*%$@+%*-19r0rrq9qrig98773,>>;19rruu999799r",
"uur<<,>,-----,>111548451141urrrrwww9991<1,,448859541<*>->3499999",
"14r995415535rudgdda944890598955122><>->uuar,411458rrui0997845999",
"gdddaaaurrrr9999959rrurrrrrruuupuuirrre995354335rr77417757155547",
"rrrrrrr5454,211,>44355758889887111145559959ryyr9ruuuiirrrtiutruu",
"843333332248990rttr995583544449999rrruuuppdd499updddaairr5<,*->-",
"4>,,<>-%-*-*%*%@@++-;<<157999954497875qrrrqrrrrr9995559r9ruiiu09",
"re8555577778999999999999899999rrrrriiuirrr997759999rrrrriuuippaa",
"4479erriidddddddddddppppree<194<<<>%*---->>>->=>>->---==*,,14659",
"42444,,444444443344444444547444999qrr999999575858899994434344448",
">+%%%@+++@+o+++@o+++OoOO%+%@%-%-%%%%%%+%%@%#=+@+++%+%-<,>,>99554",
"                                                                "
};
