/* XPM */
static char *e0174ab8f4d24d4ba01bdd4c597f6976uD73Otas6dL0iMJW[] = {
/* columns rows colors chars-per-pixel */
"32 32 38 1 ",
"  c #4A2B0F",
". c #4A2C0F",
"X c #4C2E12",
"o c #4E3116",
"O c #513115",
"+ c #523417",
"@ c #543417",
"# c #523418",
"$ c #55371A",
"% c #56371B",
"& c #56381C",
"* c #58381B",
"= c #5B3B1F",
"- c #5D3C1F",
"; c #5F3F21",
": c #613F21",
"> c #5F4023",
", c #634122",
"< c #634223",
"1 c #634224",
"2 c #664324",
"3 c #674425",
"4 c #684526",
"5 c #6B4728",
"6 c #6E4A2A",
"7 c #704B2B",
"8 c #714D2B",
"9 c #724D2C",
"0 c #744F2E",
"q c #74502E",
"w c #765130",
"e c #785230",
"r c #795432",
"t c #7C5533",
"y c #7D5734",
"u c #7F5834",
"i c #805935",
"p c #815B36",
/* pixels */
"uiiiiiiiiiiiiiiiiiiiiqrriiiiiiii",
"iiiiiiiiiiiiiiiiiiiiir0riiiiuuii",
"uiii,6iiiiiiieuiiiiiiiiiiiii9rii",
"uiiiyiiiiiiii99iiiiiiiiiiiiiq9ii",
"yiiiiiiiiiiiieiiiiiiiiiiiiiiiiii",
"tiiiiiiiiiiiiiiiiiiiiiiiiiiiiiii",
"yiu9eqq9qqqqqqqq6qqqq99:6yyyyiii",
"o&%;144=4444444#Ooooo##o#,,::--5",
"irriiiiiiiiiiiirryyyyyyyyyyiiiiu",
"iiiiiiiiiiiiiiiiiiiiiiiiiiiiiiii",
"it2eiiiiiiiiiiiiiiiiiii85iiiiiii",
"iu,eiiiiiiiiiiiiiiiiiiie6yiiiiii",
"iiiiiiiiiiiiiiiiiiiiiiiiiiiiiiii",
"iiiiiiiiiiiiiiiiiiiiiiiiiiiiiiii",
"iiirq9qqrwwyyyuiiiiiiiiiiiiiiiiu",
">=+%=o==,ooXXX:,******XooooXXX,#",
"iqiiiiiiiiiiiiiy6666664wwwwrrrr9",
"iiiiiiiiiiiiiiiiiiiiiiiiiiiiiiii",
"iiiiiiiiiiiiiiiiiiiiiiiiiiiuuiii",
"ui6iiiiiiiiiiiyqyiiiiiiiiii99iii",
"uiuriiiiiiiiiit66iiiiiiiiii88iii",
"iiuriiiiiiiiiiiuuiiiiiiiiiiiiiii",
"uiiiiiiiiiiiiiiiiiiyyyyyyyyyyyrw",
"X%%%%%O%. . ...    ....@@@@%%%%=",
"i77999999w09000eerrrrrrrrrriiiiy",
"iiiiiiiiiiiiiiiiiiiiiiiiiiiiiiiu",
"iiiiiiiiiiiiiiiiiiiiiiiiiiiiiiii",
"iiiiiy9iiiiiiiiiiiiiiiiiiiiiyiiu",
"iiiiir3iiiiiiiiii06iiiiiiii94iiu",
"iiiyiiiiiiiiiiiiit0iyyeeiii46iii",
"ee66469wrrrtre9qq88688qq6qquyyyi",
":;344==X===OOOOOO=====%%%OOOO;;%"
};
