/* XPM */
static char *cd4c8aa3d1d747b6d20c7e81dea8bbd9EuzJ3l4MyWLmTHmT[] = {
/* columns rows colors chars-per-pixel */
"32 32 59 1 ",
"  c #4A2B0E",
". c #4A2C0F",
"X c #4C2E12",
"o c #4C2F13",
"O c #4F3014",
"+ c #4E3116",
"@ c #503014",
"# c #503115",
"$ c #523216",
"% c #523417",
"& c #543417",
"* c #523418",
"= c #533418",
"- c #573619",
"; c #55371A",
": c #56371B",
"> c #56381C",
", c #58381B",
"< c #5A381C",
"1 c #5B3B1F",
"2 c #5D3C1F",
"3 c #5F3D20",
"4 c #5F3F21",
"5 c #603F21",
"6 c #5F4023",
"7 c #634122",
"8 c #634224",
"9 c #664324",
"0 c #664424",
"q c #674425",
"w c #684526",
"e c #6B4727",
"r c #6B4728",
"t c #6C4828",
"y c #6C4929",
"u c #6E4A2A",
"i c #6F4B2A",
"p c #6F4B2B",
"a c #704B2B",
"s c #714D2D",
"d c #724D2C",
"f c #744F2E",
"g c #74502E",
"h c #75512E",
"j c #765130",
"k c #775130",
"l c #785230",
"z c #785330",
"x c #7B5432",
"c c #7B5532",
"v c #7C5633",
"b c #7D5633",
"n c #7D5734",
"m c #7F5834",
"M c #7F5935",
"N c #805935",
"B c #815A36",
"V c #815B36",
"C c #815B37",
/* pixels */
"mBBBBBBBBBBBBBBBBBBBBfccBBBBBBBB",
"BBBBBBBBBBBBBBBBBBBBBvscBBBBvBBB",
"mBBB7uBBBBBBBgBBBBBBBBBBBBBBdvBB",
"mBBBnBBBBBBBBssBBBBBBBBBBBBBfdBB",
"mBBBBBBBBBBBBjBBBBBBBBBBBBBBBBBB",
"cBBBBBBBBBBBBBBBBBBBBBBBBBBBBBBB",
"nBmslggsgggggggguggggss5tvvNmBBB",
"+>:48ww1wwwwwwq$+$+++&%+&774722w",
"BccBBBBBBBBBBBBclnnnnnnvmvmmCBBm",
"BBBBBBBBBBBBBBBBBBBBBBBBCmBBCBCm",
"Bn9lBBBBBBBBBBBBBBBBBBBsumBBBBCB",
"Bm7lBBBBBBBBBBBBBBBBBBBlumBBBBBm",
"BCBBBBCBBBBBBBBBBBBBBBBBBBBBBBBB",
"CCCmBBCCBBBBBBBBBBBBBBBBBBBBBBBm",
"CCCcgsggcggmvvvBBBBBBBBBBBBBBBBm",
"6>*;;$,,7+$ooo74,,,1;>Oo+o+oo+8*",
"NhVCBBBBBBBBBBBmuuueuuwfkkgvcckg",
"NVVCBBBBBBBBBBBBBBBBBBBBBBBBBBBB",
"NVBBBBBBBBBBBBBBBBBBBBBBBBBBNBBB",
"mVaBBBBBBBBBBBvdvBBBBBBBBBBssBBB",
"mCNzBBBBBBBBBBvuuBBBBBBBBBBasBBB",
"mNNzBBBBBBBBBBBNNBBBBBBBBBBNBBBB",
"NCCCBBBBBBBBBBBBBBBvnnnnmvvNmvcg",
"@&,&::@: X    .X    ...%%&$:*$:1",
"NdddddhtdkdsggfkkxxxxxvvcclBBBBB",
"BNBBNCCNBBBBBBBBBBBBBBBBBBBBBBBm",
"BBBBCNCCBBBBBBBBBBBBBBBBBBBBBBBB",
"BBBBNNdNBBBBBBBBBBBBBBBBBBBBnBBn",
"BBBBCc0NBBBBBBBBBftBBBBBBBBdwBBB",
"BBBvNCNCBBBBBBBBBvfBvvkzBBBtsBBm",
"kzuuwtdgkvkvvkdgfadtduggwgsBvvvB",
"570tw2,@<25$@@$$@<,222&$,$$$$45:"
};
