/* XPM */
static char *_cf76d7409784a5dc4fd488da7ca760et6iAzuvYgeuwn87g[] = {
/* columns rows colors chars-per-pixel */
"32 32 15 1 ",
"  c mask",
". c #7C4600",
"X c #4F473E",
"o c #BF6900",
"O c #7EF05B",
"+ c #FFA200",
"@ c #FFA914",
"# c #FFAC1C",
"$ c #FCAE29",
"% c #FFB22E",
"& c #FCAF32",
"* c #FABA52",
"= c #FFD07F",
"- c #FF9CD4",
"; c #FAE3C0",
/* pixels */
"                                ",
"                                ",
"                                ",
"                                ",
"                                ",
"                                ",
"                                ",
"                 ...      ..    ",
"                .o##.    .#o.   ",
"                .+@=#.  .#=#.   ",
"                .+@==#..#==#.   ",
"                .+@===o#===#..  ",
"                .oo+***o*o*o*$. ",
"                .++o@%%o%%o%%&. ",
"                .+++@%o%%o%o&%. ",
"                .oo+@%o%%o%%o%. ",
"                .++oo%O%%%%%O&. ",
" ................+++@%O%%%;%O&. ",
".;o+o+o+oo+oo+o+.+XXX%%%%--;%XXX",
" ......+o++oo+o+.+++@%;;;%%;%o. ",
"      .+o++o++o+.+XXX@;;;;;;@XXX",
"      .++++o+++++.............  ",
"      .+++++++++++++@@;;;@.     ",
"      .++++;;;;;;;++@;;;;;.     ",
"      .++;;;;;;;;;;;;;;;;;.     ",
"      .+;;;;;;;;;;;;;;;;;@.     ",
"      .+;..........;;...;@.     ",
"      .+;. .;+.   .+;. .;@.     ",
"      .+;. .;+.   .+;. .;+.     ",
"      .;;. .;+.   .+;. .;+.     ",
"      .;;. .;;.   .;;. .;;.     ",
"      .;;. .;;.   .;;. .;;.     "
};
