/* XPM */
static char *_e30f60f8b334cc6b7258628a8f70698QzCe7d7XdSTK7uUX[] = {
/* columns rows colors chars-per-pixel */
"32 32 141 2 ",
"   c #4A2C0F",
".  c #4F2F13",
"X  c #4E3116",
"o  c #513115",
"O  c #553519",
"+  c #56381C",
"@  c #5A3A1E",
"#  c #5F3E21",
"$  c #603F20",
"%  c #7C4600",
"&  c #7D470C",
"*  c #7E480C",
"=  c #5F4023",
"-  c #4F473E",
";  c #644223",
":  c #694627",
">  c #694728",
",  c #6E492A",
"<  c #714D2C",
"1  c #75502E",
"2  c #78502C",
"3  c #775130",
"4  c #7B5532",
"5  c #7F5935",
"6  c #9F3F00",
"7  c #8E341A",
"8  c #AB3D02",
"9  c #BF3600",
"0  c #B43A00",
"q  c #AC391E",
"w  c #A43E22",
"e  c #BB3B20",
"r  c #B03730",
"t  c #FE0300",
"y  c #F40E04",
"u  c #FD0B02",
"i  c #EB1105",
"p  c #F61300",
"a  c #FE1301",
"s  c #FF1C02",
"d  c #F31408",
"f  c #FB140A",
"g  c #F51C0D",
"h  c #ED1B16",
"j  c #FF1611",
"k  c #FF1C16",
"l  c #FE1F18",
"z  c #D52D00",
"x  c #DD2800",
"c  c #CB3100",
"v  c #CF361D",
"b  c #DE351E",
"n  c #FF2202",
"m  c #F62B00",
"M  c #FF2D01",
"N  c #FF3600",
"B  c #FF3C00",
"V  c #FF3F0A",
"C  c #EB2110",
"Z  c #E52815",
"A  c #ED2815",
"S  c #E52F1A",
"D  c #E82C18",
"F  c #F22111",
"G  c #FF241C",
"H  c #E2311B",
"J  c #D23D23",
"K  c #FF2C24",
"L  c #FF3027",
"P  c #FF372D",
"I  c #FF3D32",
"U  c #904300",
"Y  c #BF6900",
"T  c #8F5332",
"R  c #815A36",
"E  c #945633",
"W  c #AD4E2E",
"Q  c #B64B2C",
"!  c #D15C00",
"~  c #E94200",
"^  c #E24C00",
"/  c #FF4402",
"(  c #FF4F00",
")  c #FF420B",
"_  c #FF4F0F",
"`  c #FF500F",
"'  c #FE481C",
"]  c #C66400",
"[  c #FF6200",
"{  c #FF6800",
"}  c #FF7400",
"|  c #FF7C0C",
" . c #FF6D19",
".. c #FF751B",
"X. c #C84327",
"o. c #C14629",
"O. c #FF532F",
"+. c #FF483C",
"@. c #FE5E4E",
"#. c #FE7C68",
"$. c #7EF05B",
"%. c #FF8E00",
"&. c #FF860E",
"*. c #FF9400",
"=. c #FF9B00",
"-. c #FFA200",
";. c #FFA914",
":. c #FFAC1C",
">. c #FF8721",
",. c #FF9525",
"<. c #FF9D27",
"1. c #FC903E",
"2. c #FEAC2B",
"3. c #FFB22E",
"4. c #FCAF32",
"5. c #FF8B53",
"6. c #FABA52",
"7. c #FD8E77",
"8. c #FD927B",
"9. c #FFB76F",
"0. c #FFC779",
"q. c #FFD07F",
"w. c #FF6C95",
"e. c #D4B999",
"r. c #FCA78D",
"t. c #FCAF93",
"y. c #ECBC9D",
"u. c #F1B89B",
"i. c #FCBFA1",
"p. c #DAC09F",
"a. c #DFC5A4",
"s. c #E7CEAC",
"d. c #FBC6A7",
"f. c #FBC8A9",
"g. c #E8D0AE",
"h. c #EED5B4",
"j. c #F1D9B7",
"k. c #FAD9B7",
"l. c #F5DDBB",
"z. c #FF9CD4",
"x. c #FAE3C0",
/* pixels */
"R R R R R R R R 4 4 1 R R R R R R R R R R R R R R R R R R R R 5 ",
"R R 5 5 R R R R 4 < 4 R R R R R R R R R R R R R R R R R R R R R ",
"R R 4 < R R R R R R R R R R R E E T 3 R R R R R R R , ; R R R 5 ",
"R R < 1 % % R R R R R R % % 0 A g C e R R R R R R R R 5 R R R 5 ",
"R R R % Y :.% R R R R % :.:.~ t t t Z R R R R R R R R R R R R 5 ",
"R R R % :.q.:.% R R % :.0.| / t t t f W R R R R R R R R R R R 4 ",
"R R R % :.q.q.:.% % :.q.5./ u t t t u v 1 1 1 1 < 1 1 3 < 5 R 5 ",
"> @ % % :.q.q.q.:.Y q.9.O.a u t t t t d q > > > + > > ; # O + X ",
"5 % 2.6.Y 6.Y 6.Y 6.1.' a t t t t u t u b E R R R R R R R 4 4 R ",
"R % 4.3.3.Y 3.3.Y 2...s t N M t t f F t F J R R R R R R R R R R ",
"R % 3.4.Y 3.Y 3.3.^ ` s n [ N t t H o.F t g X.R R R R R 3 ; 4 R ",
"R % 3.Y 3.3.Y 3.>.m n / } ! a t u J R S t t A Q R R R R 3 ; 5 R ",
"R % 4.$.3.3.3.,._ n s ~ Y -.n t u W R X.F t u g W R R R R R R R ",
"R % 4.$.3.x.3. .n s ) &.-.=.s t t 6 % % 9 y t t z 8 % % % % % R ",
"- - - 3.x.z.w.V a M ..- - r s t n ] -.Y Y ( a u M ~ -.Y -.Y x.% ",
"O % Y 3.x.<._ k K #.<.;.-.[ a t M Y -.Y Y %.{ a a p c % % % % = ",
"- - - ;.x.8.L k +.i.;.- - h u t M Y -.-.Y -.%.m u t H R R R 1 R ",
"R R % % z u t t x U % % % p t u N -.-.-.Y -.-.} N t H R R R R R ",
"R R R 5 D t u @.f.x.;.;.-.M u u B -.-.-.-.-.-.=.} c o.R R R R R ",
"R R R < Z t I 8.x.x.x.;.-.M j k 7.x.x.x.x.-.-.-.-.% R R R , R 5 ",
"R R R < e c r.k.x.x.x.x.x.P j G t.x.x.x.x.x.x.-.-.% R R 4 5 R 5 ",
"R R R R R % ;.x.s.h.l.x.x.K f l y.s.s.s.a.j.x.x.-.% R R 4 5 R R ",
"3 4 5 5 5 % ;.x.% % % x.x.t t t U % % % % % % x.-.% R R R R R 5 ",
"+ O O O O % ;.x.%   % x.-.t t t   % -.x.%   % x.-.% O O O O O . ",
"5 R R R R % -.x.% 4 % x.=.t t u 3 % -.x.% < % x.-.% < < < < < R ",
"5 R R R R % -.x.% R % x.*.t t u R % -.x.% R % x.x.% R R R R R R ",
"R R R R R % x.x.% R % x.d.t t u R % x.x.% R % p.x.% R R R R R R ",
"5 R R 5 R % h.x.% R % l.u.t t u R % s.s.% R % g.e.% 5 R R R R R ",
"5 R R > < % % % % R % % 8 t t u R % % % * R % & % % 4 R R R R R ",
"R R R , > R R R 2 3 5 4 W t t u R R R R R R R R R R R R 5 R R R ",
"R 5 5 5 5 1 1 , 1 1 < < w u t f 1 < 3 4 4 4 4 4 3 < , > , , 3 3 ",
"O # # o o o o O O O + + 7 y t i o o o o o + + + . + + > > : # $ "
};
