/* XPM */
static char *f3b6654276754f81f2c75a3a6d22662d02yFb3gAzmaQrAVl[] = {
/* columns rows colors chars-per-pixel */
"32 32 62 1 ",
"  c #4A2B0F",
". c #4A2C0F",
"X c #4E2F13",
"o c #4E3116",
"O c #513115",
"+ c #523418",
"@ c #56371B",
"# c #56381C",
"$ c #5B3B1F",
"% c #5D3C1F",
"& c #5F3F21",
"* c #603F20",
"= c #7C4600",
"- c #7D4707",
"; c #7D470C",
": c #7E480C",
"> c #5F4023",
", c #4F473E",
"< c #634122",
"1 c #634224",
"2 c #664324",
"3 c #674425",
"4 c #684526",
"5 c #694728",
"6 c #6E4A2A",
"7 c #774C24",
"8 c #704B2B",
"9 c #714D2B",
"0 c #724D2C",
"q c #744F2E",
"w c #74502E",
"e c #78502C",
"r c #775130",
"t c #785230",
"y c #795432",
"u c #7C5533",
"i c #7D5734",
"p c #7F5834",
"a c #BF6900",
"s c #805935",
"d c #815B36",
"f c #7EF05B",
"g c #FFA200",
"h c #FFA914",
"j c #FFAC1C",
"k c #FCAE29",
"l c #FFB22E",
"z c #FCAF32",
"x c #FABA52",
"c c #FFD07F",
"v c #D4B999",
"b c #DAC09F",
"n c #DFC5A4",
"m c #E7CEAC",
"M c #E8D0AE",
"N c #ECD3B2",
"B c #EFD7B5",
"V c #F1D9B7",
"C c #F3DBB9",
"Z c #F6DFBC",
"A c #FF9CD4",
"S c #FAE3C0",
/* pixels */
"psssssssssssssssssssswyyssssssss",
"sssssssssssssssssssssyqyssssppss",
"psss<6ssssssstpsssssssssssss0yss",
"psssissssssss00ss===ssssss==w0ss",
"isssssssssssstss=ajj=ssss=ja=sss",
"usssssssssssssss=ghcj=ss=jcj=sss",
"isp0tww0wwwwwwww=ghccj==jccj=sss",
"o#@&144$4444444+=ghcccajcccj==%5",
"syyssssssssssssy=aagxxxaxaxaxk=p",
"ssssssssssssssss=ggahllallallz=s",
"su2tssssssssssss=ggghlallalazl=s",
"sp<tssssssssssss=aaghlallallal=s",
"ssssssssssssssss=ggaalflllllfz=s",
"s================ggghlflllSlfz=s",
"=Sagagagaagaagag=g,,,llllAASl,,,",
">======gaggaagag=ggghlSSSllSla=+",
"swssss=gaggaggag=g,,,hSSSSSSh,,,",
"ssssss=ggggaggggg=============ss",
"ssssss=ggggggggggggghhSSSh=ppsss",
"ps6sss=ggggSSSSSSSgghSSSSS=00sss",
"pspyss=ggSSSSSSSSSSSSSSSSS=99sss",
"sspyss=gSSVnmmmmmmSSSZBmSh=sssss",
"psssss=gS==========SS===Sh=iiiyr",
"X@@@@@=gS=.=Sg=   =gS=.=Sh=@@@@$",
"s88000=gS=q=Sg=tty=gS=y=Sg=ssssi",
"ssssss=SS=s=Sg=sss=gS=s=Sg=ssssp",
"ssssss=Sb=s=SS=sss=SS=s=SS=sssss",
"sssssi=vM=s=mm=sss=NC=s=SN=sissp",
"sssssy-=;=s:-==ssq--==s====04ssp",
"sssisssssssssssssu7suitesss46sss",
"tt66460ryyyuyt0ww99699ww6wwpiiis",
"*&344$$X$$$OOOOOO$$$$$@@@OOOO&&@"
};
