/* XPM */
static char *_dc52d67347d475fe2efc858a1d0a06fhaAU0wLQBbxshojh[] = {
/* columns rows colors chars-per-pixel */
"32 32 156 2 ",
"   c #4F2F13",
".  c #4F3116",
"X  c #513216",
"o  c #543519",
"O  c #56381C",
"+  c #5A391D",
"@  c #5F3E21",
"#  c #603F20",
"$  c #7C4600",
"%  c #7B4A16",
"&  c #7D4C19",
"*  c #5F4023",
"=  c #4F473E",
"-  c #644223",
";  c #694526",
":  c #66472D",
">  c #694728",
",  c #6D4929",
"<  c #7E4F20",
"1  c #724D2D",
"2  c #74502E",
"3  c #775130",
"4  c #7B5532",
"5  c #7F5835",
"6  c #775F54",
"7  c #79675D",
"8  c #7B6D66",
"9  c #6E6C75",
"0  c #BF6900",
"q  c #B96709",
"w  c #B26619",
"e  c #815A36",
"r  c #815F4F",
"t  c #806557",
"y  c #8C6B53",
"u  c #846859",
"i  c #836D60",
"p  c #967967",
"a  c #947C6C",
"s  c #847475",
"d  c #807679",
"f  c #877A7B",
"g  c #887B7B",
"h  c #7EF05B",
"j  c #FFA200",
"k  c #FFA914",
"l  c #FFAC1C",
"z  c #D99328",
"x  c #E49A26",
"c  c #EEA62C",
"v  c #FCAE29",
"b  c #FFB22E",
"n  c #FCAF32",
"m  c #968278",
"M  c #9E8778",
"N  c #A18B7D",
"B  c #F7A449",
"V  c #FEAA4C",
"C  c #FDAB51",
"Z  c #FABA52",
"A  c #CC997F",
"S  c #D3A966",
"D  c #EBA873",
"F  c #FFB877",
"G  c #FBB97F",
"H  c #FBCC7D",
"J  c #FFD07F",
"K  c #757E90",
"L  c #8A8388",
"P  c #918781",
"I  c #978E8A",
"U  c #988A8B",
"Y  c #9B918B",
"T  c #8C8A94",
"R  c #8E8E9B",
"E  c #A28E81",
"W  c #A2958D",
"Q  c #A8978E",
"!  c #AA9A8F",
"~  c #AC9C91",
"^  c #A69E9F",
"/  c #AEA09A",
"(  c #B6A79F",
")  c #B6A89F",
"_  c #8E93A2",
"`  c #8E97A8",
"'  c #9C9BA3",
"]  c #8E9DB3",
"[  c #919DB2",
"{  c #9DA1AD",
"}  c #93A3BA",
"|  c #AAA3A0",
" . c #A9A8AF",
".. c #B5A9A1",
"X. c #B0A9A9",
"o. c #B8ADA8",
"O. c #BDB3AE",
"+. c #B4B1B5",
"@. c #BBB6B5",
"#. c #B1B4BE",
"$. c #D7AE9A",
"%. c #C0B5AE",
"&. c #C2B6B0",
"*. c #C5BBB5",
"=. c #C5BEBC",
"-. c #C8BFB9",
";. c #E2BFB0",
":. c #DAC4A7",
">. c #C3C0BF",
",. c #CBC2BD",
"<. c #D8C6B7",
"1. c #D7C9B8",
"2. c #E7CEAC",
"3. c #F0C3A5",
"4. c #FFC9A0",
"5. c #FFD6BB",
"6. c #A9B6C8",
"7. c #B5BBC7",
"8. c #FF9CD4",
"9. c #CBC6C3",
"0. c #C8C5C8",
"q. c #CECBCA",
"w. c #D3CBC7",
"e. c #D5CFCB",
"r. c #D7D0CD",
"t. c #D9D2CC",
"y. c #C8CED8",
"u. c #D5D1D1",
"i. c #DBD5D2",
"p. c #DED9D6",
"a. c #DCDBDC",
"s. c #E7D9C6",
"d. c #EEDEC9",
"f. c #EBDCD2",
"g. c #E2DEDC",
"h. c #F7E2C4",
"j. c #FAE3C0",
"k. c #EDE2D4",
"l. c #E5E1DE",
"z. c #FFE5D5",
"x. c #FBEAD2",
"c. c #FBECDD",
"v. c #E6E3E2",
"b. c #E9E6E5",
"n. c #EBE8E6",
"m. c #E7E7E9",
"M. c #E7E8EC",
"N. c #EEECEB",
"B. c #F1EEED",
"V. c #FDF3E5",
"C. c #F2F0EF",
"Z. c #FCF5EC",
"A. c #F4F3F2",
"S. c #F9F7F6",
"D. c #FFF9F5",
"F. c #FCFBFB",
/* pixels */
"e e e e e e e e 4 4 2 e e e e e e e e e e e e e e e e e e e e 5 ",
"e e 5 5 $ $ e e 4 1 4 e $ $ $ e e e e e e e e e e e e e e e e e ",
"e e 4 $ 0 l $ e e e e $ z x q $ e 5 3 e e e e e e e , - e e e 5 ",
"e e 1 $ l J l $ e e $ l S k j $ e 1 1 e e e e e e e e 5 e e e 5 ",
"e e e $ l J J l $ $ l S H k j $ e e 3 e e e e e e e e & e e e 5 ",
"e e $ $ l J J J l 0 H J J k j $ e e e e e e e e e e & j.& e e 4 ",
"e $ v Z 0 Z 0 Z q Z Z Z j 0 0 $ 2 2 2 2 2 2 2 2 1 2 & 0 & 5 e 5 ",
"> $ n b b 0 c b 0 b b k 0 j j $ o > > > > > > > + > & j j & O . ",
"5 $ b n w b 0 b b 0 b k j j j % 4 e e e e e e e e e e & 0 & 4 e ",
"e $ b 0 b b 0 b b 0 b k j 0 0 & e e e e e e e e e e e %.G & e e ",
"e $ n h b b b b b h b 0 0 j j & e e e p -.e e e e e & 0 A *.%.e ",
"e $ n h b j.b b b h b k j j j $ < y ( ( ~ &.a & & & 0 j & : ~ e ",
"= = = b j.8.8.b b b b = = = j $ j $.C 0 0 V <.0 j w j & e e e e ",
"e $ 0 b j.b b j.j.j.b k j j j $ j 0 j 0 0 j j 0 j & & e r.e e e ",
"= = = k j.j.j.j.j.j.k = = = j $ j 0 j j 0 j j 0 j & 1 2 ~ 9.M e ",
"o - $ $ $ $ $ $ $ $ $ $ $ $ $ j j j j 5.f.j j j j & . + P P 9.* ",
"1 ! *.e.4 % k j.j.j.k k j j j j j 4.z.z.F j j j j & e e e e 2 e ",
"e ~ p N e s j.j.j.j.j.k j j j.j.j.Z.x.j.j.j B $.D U ^ g e e e e ",
"e e g f { 7.S.c.V.j.j.j.j.j.j.j.j.j.j.j.s.t.t.;.3.v.g.q.a.e e e ",
"e } L a.p.v.c.l.k.Z.h.j.j.j.2.2.2.1.1.q.<.d.x.Z.z.b.A...=.#.g 5 ",
"e _ ~ b.N.p.D.Z.y.0.a.:.:.r s s #.M.g.A.B.S.n.f.5.,.p.w.O.) X.f ",
"u T b.l.l.w.w.F.r.m u.m.6.+.X.S.B.A.C.B.N.i.l.A.n.v.p.p.N.*.v.[ ",
"d ^ N.n.p.e.i.g.F.S.n.r.A.B.B.A.A.r.%.~ *.,.*.p.A.g.p.w.N.,.p._ ",
"9 9 v.n.9.N.g.v.N.A.a.q.q.A.b.A.u.@.>.9.v.@.X.q.N.b.N.S.v.g.b.K ",
"` L e A.g.N.N.B.S.v.r.n.p.p.( Q e.g.v.p.A.N.n.A.9.p.B.p.N.g.+.g ",
"5 g g E S.F.F.F.S.n.B.N.p.w.l.p.p.B.B.l.e.b.p.N.n.n.n.i.w.g.g g ",
"e e g L E i.A.S.F.n.a.q.b.u.r.A.n.g.~ p.*.e.B.n.B.N.A.i.,./ [ g ",
"5 e e [ R g l.l.@._ R g g ' o.b.b.A.B.l.v.i.N.l.*.,.%.9.u.' e e ",
"5 E e > 6 g  .6.g e e e e , ] ' 9.@.9.=.i.b.n.=.X.0.{ } g e e e ",
"e i.~ , > e e e 3 3 5 5 e 1 t u g g T T _ _ T g g u e e 5 y y e ",
"e 5 ! v.! 2 2 , a ..g.W W 1 1 2 2 1 3 a a 4 4 4 3 1 , W O.e.E 3 ",
"o @ @ X I =.X o 8 | 7 Y Y + + X X X X 8 8 + + +   + + W i ; @ # "
};
