/* XPM */
static char *_71ec9b52aa44feee169e83241841fe4W81g4zV5DzREZd0e[] = {
/* columns rows colors chars-per-pixel */
"64 64 222 2 ",
"   c #4A2C0F",
".  c #4C2E11",
"X  c #4F3013",
"o  c #523316",
"O  c #553619",
"+  c #57381B",
"@  c #5B3B1D",
"#  c #6F3F05",
"$  c #5F3E20",
"%  c #603F21",
"&  c #7C4601",
"*  c #7A470A",
"=  c #6F4214",
"-  c #764716",
";  c #7B4812",
":  c #7A4A1B",
">  c #4F473E",
",  c #52463C",
"<  c #654324",
"1  c #6B4827",
"2  c #6A4728",
"3  c #6D4A2A",
"4  c #794D24",
"5  c #724E2D",
"6  c #7E5123",
"7  c #75502F",
"8  c #775230",
"9  c #7B5532",
"0  c #7F5935",
"q  c #5B5C5F",
"w  c #6D5545",
"e  c #665D5A",
"r  c #6F625A",
"t  c #78675D",
"y  c #6A6B6F",
"u  c #766963",
"i  c #7B6B61",
"p  c #894E09",
"a  c #955403",
"s  c #A55B00",
"d  c #BC6600",
"f  c #BF6900",
"g  c #BD710E",
"h  c #855727",
"j  c #815A36",
"k  c #C97601",
"l  c #D37C00",
"z  c #896C57",
"x  c #816B5D",
"c  c #8A7262",
"v  c #83756E",
"b  c #7EF05B",
"n  c #DC8400",
"m  c #DC8A0E",
"M  c #D78718",
"N  c #DF901E",
"B  c #E58C00",
"V  c #E88F00",
"C  c #ED9200",
"Z  c #EA950B",
"A  c #F19600",
"S  c #F39A01",
"D  c #FA9E00",
"F  c #E3951D",
"G  c #F19C11",
"H  c #F19F1A",
"J  c #FFA200",
"K  c #FFA90F",
"L  c #F9A616",
"P  c #FFA914",
"I  c #DB942F",
"U  c #E59721",
"Y  c #E89A23",
"T  c #E39D3D",
"R  c #EDA026",
"E  c #F1A427",
"W  c #FAAD2C",
"Q  c #FFB22E",
"!  c #93857D",
"~  c #F1AF49",
"^  c #F9A956",
"/  c #FABA52",
"(  c #CE936F",
")  c #F5C374",
"_  c #FFD07F",
"`  c #7C848B",
"'  c #7D8D9B",
"]  c #7796AB",
"[  c #75A1BC",
"{  c #81878B",
"}  c #84898C",
"|  c #8B8C8E",
" . c #968A84",
".. c #9C8D83",
"X. c #9C918B",
"o. c #88949D",
"O. c #98999B",
"+. c #A7958A",
"@. c #A3958C",
"#. c #A59B95",
"$. c #ADA29D",
"%. c #B4A79D",
"&. c #8F9DA8",
"*. c #8EA1AB",
"=. c #97A3AB",
"-. c #81A3BB",
";. c #97A9B6",
":. c #9DAAB4",
">. c #9BB1BD",
",. c #A9A7A6",
"<. c #B5ABA5",
"1. c #B4ADAA",
"2. c #B9B1AD",
"3. c #A3ADB5",
"4. c #ABB4BB",
"5. c #B4B4B4",
"6. c #BCB6B2",
"7. c #BBBABA",
"8. c #D3A690",
"9. c #ECB48A",
"0. c #F5B988",
"q. c #DBBDAF",
"w. c #C0B7B1",
"e. c #C1BAB6",
"r. c #C3BEBB",
"t. c #FFD386",
"y. c #FAC49A",
"u. c #C6C0BD",
"i. c #CAC1BB",
"p. c #D6C5B5",
"a. c #EBC9A9",
"s. c #F8C9A7",
"d. c #FCCFAF",
"f. c #E3C7B6",
"g. c #FCD4B7",
"h. c #87AFC9",
"j. c #97B4C6",
"k. c #99BCD2",
"l. c #A6B9C6",
"z. c #ABBECA",
"x. c #B2BDC5",
"c. c #B5BEC7",
"v. c #FF9CD4",
"b. c #98C3DD",
"n. c #BAC2C8",
"m. c #A8C5D7",
"M. c #B3C7D3",
"N. c #BDCAD3",
"B. c #B7CBD9",
"V. c #8BC6E7",
"C. c #99CAE7",
"Z. c #A6CCE4",
"A. c #B3D7EE",
"S. c #B9D6E9",
"D. c #AAD9F5",
"F. c #BEE2F8",
"G. c #CBC6C4",
"H. c #CEC8C5",
"J. c #C5C6C8",
"K. c #CDCBCA",
"L. c #D6CCC5",
"P. c #D2CDCB",
"I. c #D5D1CF",
"U. c #DAD2CB",
"Y. c #C5CED4",
"T. c #CCD1D4",
"R. c #C5D2DB",
"E. c #CED6DB",
"W. c #CFD8DD",
"Q. c #D5D3D2",
"!. c #DAD6D4",
"~. c #DCD9D7",
"^. c #D3D8DC",
"/. c #DCDBDA",
"(. c #EAD3C7",
"). c #E6DACB",
"_. c #F8DBC5",
"`. c #E6DBD1",
"'. c #E1DEDC",
"]. c #F6E4C5",
"[. c #FAE3C0",
"{. c #FAE6CD",
"}. c #E3E3DD",
"|. c #ECE5D9",
" X c #FAEBD9",
".X c #C7DAE6",
"XX c #D3DDE4",
"oX c #DADEE1",
"OX c #D3DFE9",
"+X c #C1DEF1",
"@X c #CCE1EF",
"#X c #D7E0E5",
"$X c #DDE2E4",
"%X c #D4E3EB",
"&X c #DBE4EB",
"*X c #CBE3F2",
"=X c #C9E6F9",
"-X c #D5E8F5",
";X c #DCEAF3",
":X c #E4E3E2",
">X c #E9E6E5",
",X c #E5E8E6",
"<X c #EAE8E6",
"1X c #E2E6E9",
"2X c #E5EAEC",
"3X c #EDEBEB",
"4X c #F7ECE3",
"5X c #F0EFEE",
"6X c #EBF0EE",
"7X c #FCF2E3",
"8X c #F4F1EE",
"9X c #FDF5EC",
"0X c #FDF8EF",
"qX c #E3EDF3",
"wX c #EBEEF1",
"eX c #EBF1F4",
"rX c #E6F2FA",
"tX c #F4F3F3",
"yX c #F9F7F5",
"uX c #FDFAF5",
"iX c #F6F8F9",
"pX c #FBFBFB",
/* pixels */
"< 3 7 7 7 7 7 0 0 0 0 j j j j j j j j j j 7 9 7 9 3 7 7 8 8 8 8 8 8 8 7 8 8 8 8 8 8 8 8 8 5 5 5 5 5 5 7 7 7 7 5 5 5 7 7 8 8 7 7 ",
"2 2 3 2 2 3 3 2 2 2 2 < < 2 2 2 2 2 3 3 3 3 3 3 3 5 3 5 5 8 8 8 8 8 8 8 3 3 7 7 7 5 5 5 5 8 8 8 8 3 7 5 5 5 5 5 7 7 7 7 5 5 8 8 ",
"8 5 5 5 3 3 5 5 5 3 3 3 3 2 2 3 3 3 3 3 2 < < 2 2 < < 0 3 @ < 2 3 < 2 2 < < 5 5 5 8 8 8 8 8 9 9 8 3 < 2 3 3 8 8 7 7 7 0 0 j j j ",
"8 j j 0 9 0 0 9 8 9 8 8 8 5 5 5 3 2 2 < < 2 2 2 3 3 3 0 9 7 7 5 5 7 7 * & a & 9 9 0 0 0 0 7 8 8 0 0 0 8 7 : - - 5 5 8 5 5 3 3 5 ",
"O o o @ @ < < < 2 2 2 3 3 5 3 5 3 8 9 0 0 0 0 0 0 0 0 0 0 0 j j j 8 ; a J B B : 7 5 5 3 5 < % < < 2 5 5 p n J J * 3 3 2 3 5 j 0 ",
"% @ < $ $ % < 1 3 3 5 7 3 3 3 5 7 7 5 5 5 5 5 5 3 3 3 3 3 3 5 7 8 : f f J B A A 6 j j j 0 5 2 5 3 3 $ = A n f f f : 5 5 5 3 j j ",
"2 3 2 3 3 3 2 < < < < @ $ < < < O @ < < < < 3 3 3 3 3 3 3 3 3 2 2 - f f B B _ f f & 5 5 5 3 5 7 5 5 4 A A W f f f * 5 5 3 3 3 3 ",
"0 0 9 8 7 5 5 8 2 2 2 < 2 2 2 2 2 < < < < < < < < 2 2 2 3 3 3 5 5 : f J G G _ _ A f : 8 8 8 9 9 9 h J f J J ) ) J & 5 5 5 5 5 5 ",
"0 0 5 8 8 9 8 8 8 9 9 9 8 7 5 8 8 0 0 9 8 8 7 5 3 2 2 3 3 2 3 5 5 : f f G G _ _ _ D B : 8 8 5 5 6 & f A _ _ t.) A * 4 5 5 3 2 3 ",
"7 3 j 0 5 < < 3 2 < 2 7 7 8 8 8 9 8 8 9 9 9 9 9 8 8 8 7 7 5 3 2 < ; J f f G _ _ _ _ J B ; @ % : & A f _ _ _ t.t.B J - 3 3 7 7 5 ",
"2 3 < 2 5 8 8 9 9 8 5 2 3 2 2 2 3 j 0 5 < < 3 2 2 5 5 7 5 8 8 7 8 : D D f L _ _ t.t._ J V p : & J f f t._ _ t.t.D f & 1 < 0 0 9 ",
"< < < 2 5 5 7 8 8 8 8 & & 3 5 5 3 7 5 5 5 5 3 2 < 2 3 3 5 2 2 3 5 : C C Z f _ t._ _ _ _ f f V A n D _ _ t._ t.t.f f f : 2 2 2 2 ",
"2 2 2 < 2 2 < < < < & pXpX& < < 2 2 3 2 2 3 5 8 7 5 3 5 8 0 0 0 0 ; A A B J / _ _ _ _ / f f D B B _ _ _ t.t.t.t.f f B J : 9 9 8 ",
"5 < < < $ % % $ $ & pXpXpX& < 2 < < 3 7 8 8 8 8 8 8 < < < % $ @.e.; f f f f J J / / T T ~ ~ f f ~ ~ f f / / f f / / W Y : 5 7 8 ",
"O o @ + @ @ @ @ < : f f pX& @ + O o . X @ @ @ $ < < < < < < < 7.$.; f f f f J J / / T T I I f f I T f f ~ ~ f f / / Q f p @ + + ",
". . X o o v /.~.@ & f f & . O O o o X X X . . . . . . . . . $.e 1.; A C V J f f H Q W E F E f f N M M N f f Y F Y E f F = @ @ @ ",
". O < < < v Y.1.& J A q.& 3 3 2 % % % % % % @ <  .<.@ % @ G.7.I. .; A B S J f f Z m Y E Q Q f f W E Y U f f N N W U U F & O O O ",
"< < 7 7 7 ,.W.2.& J f P.P.0 0 0 0 0 0 0 c +.m.c.1.2.9 @ @ 5.z.4. .; A B A J L G G Z E Y f f F Y Y E f f E W f f R f f f & 3 3 3 ",
"5 < < < < =.T. .& f f & Q.,.@ @ % % G.e.,.:.} 4.N.c.x.E.:.N.z.4.t ; ^ B A J Z S G L E W f f Q Q Q Q f f Q Q f f N R W f & 5 5 7 ",
"0 7 7 7 7 3.R.<.& f A & +.:X8 7 5 ..#.v ;.1...u.I.,X.XT.J.H.c.J...; f f f f P P K P Q Q f f Q Q Q Q f f Q Q Q Q f f f f * 0 0 j ",
"j 7 < < < $.B. .& l D & 3 3 3 5 ..G.R.c.N.M.M..Xz.3.R.R..X&XS.<.<.; f f f f P P P H Q Q f f Q Q Q Q f f Q Q Q Q f f W Y * 2 3 7 ",
"0 7 8 0 0 H.XX,.& D f & 7 7 7 7 3 w x.P.I.}.P.P.Q.Q.5.1.1.E.XX<XG.; A n D J f f f f Q Q b b Q Q Q Q Q Q Q Q Q Q b b E E * j 0 7 ",
"5 5 5 3 3 ..~.B.< & f f & < < < 3 3 3 3 x ..e.x u.....H.<.H.H.e.H.; A n J J f f f f Q Q b b Q Q Q Q Q Q Q Q Q Q b b E E * < < < ",
"5 5 5 5 5 3 I.n.4.& f V D ; ; ; ; ; ; ; ; ; ; ; ; ; ; ; ; ; ; ; ; ; A n J J J J P P Q Q b b Q Q Q Q Q Q [.[.Q Q b b E E * < < < ",
"j j j 8 7 9 #.:Xl.w.; D l f f V V f f f A A A f f f A A f f B B B & A n J J J J P P Q Q b b Q Q Q Q Q Q [.[.Q Q b b E E * 0 j j ",
"0 + O $ < < < 2.E.W.<.; f f B B f f f f B B B f f f n n f f B B B & C n > > > > > > Q Q Q Q Q Q Q Q v.v.v.v.[.[.Q Q > > > > > 0 ",
"7 9 0 0 0 0 0 9 X.R.P.; V V k B f f f f A A A f f f J J f f D l J & C n > > > > > > Q Q Q Q Q Q Q Q v.v.v.v.[.[.Q Q > > > > , $ ",
"8 8 7 7 5 5 3 5 5 4.z.I.; C k l f f f J J J J f d f J J f f J n C & B B J J J J P P Q Q [.[.[.[.[.[.Q Q Q Q [.[.Q W g a & 3 5 5 ",
"3 3 5 5 5 c 3 7 7 i N.7 ; n n n f f J J J J f ( ( 8.J {.f f J n l p B B J J J J P P Q Q [.[.[.[.[.[.Q Q Q Q [.[.Q E g a & 8 5 5 ",
"2 2 2 < 2 G.6.t t < < < % ; B B f f J J J >XA.B.(.d. Xd.).( J C n a B B > > > > > > Q Q [.[.[.[.[.[.[.[.[.[.[.[.Q E > > > > > 5 ",
"@ < @ @ t 1.O.N.N.@ @ @ + & n C f f J J J s.>XB.'.&X;XP.8.`.J S n a B B > > > > > > Q Q [.[.[.[.[.[.[.[.[.[.[.[.Q Y > > > > > 3 ",
"      r Q.r C.;.=.        & n C J J J J J J 8.*X3Xy.g.0.J J J J l D a J J J J J J J J J [.[.[.[.[.[.[.[.[.[.[.[.J B #       o o ",
"2 $ @ @ ,.+X' @ + + @ @ O & n S J J J J J J f.(._.0.J J J J J J J D l s a a a a p & & & & & & & & & & & & & & & & * 1.X.@ @ + O ",
"< 2 2 2 J.h.3 3 3 3 3 2 2 & l D J J J J J J J J g.^ J J J J J J J ^ 0.9.9.8.i.) V B B B A a.[.[.[.[.U k - 3 2 3 3 $.$.:.I.6.2 2 ",
"0 0 0 0 0 7 7 7 7 7 | m.=.l.~.P.A.9.0.0.0.f.J J J J J J J f.L.f.f.a.s.s._.y.g.{.f.0.^ D a.a.[.[.[.[.[.I : 3 3 5 +.B.Z.4.c.Q.9 9 ",
"< 3 3 3 3 @ @ < { l.4.m.Z.Y.1X>XtXOXE.q.0.f.}.].[.[.[.[.].$X{.{. XuXrX8XiX9XuX7XuXd.a.%X[.[.[.[.[.[.[.[.: 7 7 7 7 ' u <.R.+X$.2 ",
"9 7 7 5 5 i | W.J..XJ.N.7.w.y. Xd.g._.1XQ.}.].:X|.[.[.[.}. XpXiXrX=X*X;XoX-X-XF. Xg.9X|.}.[.[.[.[.[.[.[.- 3 < < < < 2 5 5 ,.H.5 ",
"0 0 0 0 0 m.K.n.m.l.@.:XI.<X4X4X_.9X7X X4X2X4X{.|.%X[.<XyXiXF.;X,X7XuXpX9XpX9XuX;XiX7X X}.].[.[.[.[.[.[.: 5 8 8 8 5 i 5 8 9 8 0 ",
"3 3 2 2 O.T.V.m.O.$X:XiX8XyXiX4X'.:X*X8X7X X7X X6X8XiXpXeX;X|.9X7X7X7X X7XuX X X9X*XuX9X].}.[.[.[.[._..X3.l.N.n.N.W.m.| 7 7 7 7 ",
"5 8 8 x /.n.z.1.,.@XqX*X*XS.;X&X2X2XqX*X0X7X7X7X7X8X0X=X;X}.;X0X2X8XrX,X2XqX{.7X{. X=XpX{.`.`.`.$X|.{.|.tX!.Q.Q.Q.OX5X7.| 7 7 7 ",
"9 5 5 m.n.B.,X>X,Xm.n.r./.U.yXyX XpX(.U.+X,Xp.p.|.eXZ.M.S.Y.%.#XS.-XE.K.^.*XtX8X|.|.L..X:X%X7.i.tX8X:X-XD.*XA.m.j.j.4.'.tXn.7 8 ",
"< < < z.F.6.'.iXyX~.tX~.tX8X3X'.'.~.'.P.,.C.K.e.;XrXeX:XK.5..X;X6.iXyXyXiXtX*Xn.>XP.!.eX,X/.iX&X-XqXwX$XtXtXiX8X:X%.k.H.!.oX! 9 ",
"< < r k.S.7.tX3XiX>X,X'.P.~.tX>X,XtXtXtX:Xm.7.S.B.$.6.'.5X%XR.%XtXtX}.3X<X:X<X*XW.7.n.I.<XeXOXoX:X3XyXtX'.tXtX:X5X'.n.3.>X/.i 3 ",
"0 0 o.h.&XyXyX~.P.tX>X5X5X3X>XpX3Xi.tX3X3X.XD.eXI.J.K.^.*XW.:X3X,Xx.x.O.*.*.>.*.Z.Q.>X:X:XA./.<XtXtXyX#XF.I.3X>X3XP.5X-X/.Y.i 8 ",
"< < b.2XyXpXtX!.,X$XtXyX3X~.:X3X2.I.3XyXtXeXwX8X3X>X:XqXn.3XX.1.:X'.'./.!.P.~.:XtXiX!.iXP.<X6.!.6.c.rX1XiX;X4.1X3XtXtXpX@XT.i 3 ",
"2 3 =.h.1XyXyX:XwX:XpX3X/.,X:XpX3X>XyXpXtX/.C.$Xe.H.~.3X3X3XpX/.Q.K.~.~.:XtXpXyXyXQ.<X~.Q.u.u.eX;XeX3X3X:X1.E.rX;XtXiX3XS.Z.t 3 ",
"< < *.[ W.,X:X$XoX3X3XyX,XtXiXtX,X'.3XpX3X'.-XG.'.>X:XP.3XQ.tX!.Q.I.!.!.yXiX3X~.~.iX3X:X~.$X;XqX3X:X'.5Xr.>XyX&XR.tX,X5XS.c.e < ",
"    ` ] %Xn.3X/.:X1X#./.tX/.yXyX/.3XiXpX3X3X;X3X!.:X*X1XK.,X3X~./.tXtX3XiXtXtXtXyX3XyXyX.X>.,XtXtX!.yXP.>XiXK.N..XiX3XqX;XB.q   ",
"< 3 ;.l.qXY.tXyXyXJ.1.3X:XpX3X>X1.5XtX~.>X:XqX3X~./.2X;X/./.:X3Xu.oX,X~.yX~.~.~.K.tX!.-XiXQ.3XtXyX~.3XtXyXK.e.D.n.3XiX.X&X` O @ ",
"2 2 u T.;X$X5.3XP.'.3X1X3XiXP.>XI.8Xe./.P.n.OX@.2.$.}.OX2X5XtX:X!./.K.Q.P.3XyX8X!.1.N.%X6.P.:XpXiX~.tX$Xe.r.OXN.1.tXyXm./.{ < $ ",
"1 1 < ` b.m.^.'.3XK.:XyXiX'.3X5XpX:X'.3XiX&XN.Q.1.G.G.6.+X:XG.tX:X,X~.3X!.wXXX:XyXyX;XrXtXiXyXpXyX5XOX.X'.%XN.6.>XtXm.5.l.< < 3 ",
"2 3 5 5 l.:.m.n.3XK.K.3XpXyX/.tX:XoX3X~.~.;X-X&X1X:XtXtX;X;X3X}.3X,XI.tXR.S.%X:X}.~.D.*X&XwX3X,XqX-X.X~.&XT.<X'.3X7.m.5.| 3 3 2 ",
"< $ $ < A.j.5.F.1X'.tX'.!.3XyXiX:X/.5X!.5.:XK.!./.3X3XeXoXD.A.S.m.Z.B.D.c.6.'.5X~.'.:X1X&X.X.X=X%X:X3X/.Y.:X~.'.%..X.X;.} 3 3 5 ",
"7 7 5 % % ` ` ,.A.m.>.^.1X1X;Xc.K.5XwXT.~.,XwXY.c.>.m.1.7.J.tX5./.!.7.,.2././.z.O.7.X.6.u.$.,..XG.'.,XS.yX!.3XN.S.D.3.} 3 3 3 3 ",
"< < 5 3 3 2 { >.4.m.;.j.j.D.OX=XqXQ.,X~.^.oX$Xi i 2 i >.} !.u.r.G.3X:XI.,X:.*.O.| =.>.` { #.~.u.u.e.A.n.M.M.A.B.o.u 2 < 2 3 3 3 ",
"j 0 0 9 9 9 9 7 l.N.$X^././.qX'.>XE.Y.3.i 7 5 5 5 5 5 5 | x.O.| | O.:.>.| i 5 3 3 2 < } { *.:.;.=.V.b.Z.%Xl.k.2 2 2 < 2 2 2 < 2 ",
"5 5 5 @.@.5 5 2 < t XX4.M.N.&X3.l.;.t < 2 2 2 2 2 2 2 3 2 u j.{ { { ;.< 2 2 2 3 3 2 3 5 7 7 i ;.i 7 7 7 8 8 5 5 5 5 8 7 5 5 @.7 ",
"2 < < e.Y.h.< < < < < 2 3 i ;.| 5 5 5 3 3 2 2 2 < 2 < < < < 3 3 3 3 5 5 5 7 7 c I.c 0 0 < 3 3 7 8 0 0 0 9 9 8 5 5 2 % t X.!.J.] ",
"< @ $ G.e.S.-.O @ + @ + O + O o o o o + @ % e o.j.h.3 3 3 3 2 < < 3 2 2 2 x @.Y.Z.K.$.c 5 5 5 5 3 3 3 2 2 2 3 %.m.c.I.!.'.&X] r ",
"5 5 @.@.G.Y.D.;.! 2 2 2 3 3 3 3 3 3 3 3 3 3 b.z.O.2.G.I.3 3 5 5 5 5 5 8 2.oXk.:.>.j.B.%X:X2 2 3 3 3 3 5 5 5 5 P.*XZ.k.l.Z.3.9 9 ",
"< < 2 3 $.:.>.*XS.:X:X0 0 0 0 0 0 0 0 0 z 3.4.2.@.2.$.X.< 3 < % % % @ O + y ] @ @ @ e *.[ @ + @ @ @ @ @ @ @ + + t 1.G.,.x.1 2 3 ",
"< < < < < $ $ < < < < < < < < < < < < < &.C.$.1.X.x 2 2 < < < 3 3 3 3 5 5 3 3 3 3 3 3 2 2 2 2 2 2 2 3 3 3 3 < < < < $.~.x < < 2 ",
"@ o O O O o o o o o o X o o o o X o o o q m.G.r O o O o O @ O @ O O O O O O o O O o O O + o o o o o O o O @ % $ @ $ @ 3 3 2 2 < ",
"                                          5.                                                                                    "
};
