/* XPM */
static char *_5216eaf318e4271debec6a827b2f1d4Qsh4bhl1jSGndhht[] = {
/* columns rows colors chars-per-pixel */
"32 32 51 1 ",
"  c #4E2F13",
". c #4E3116",
"X c #513115",
"o c #523417",
"O c #543417",
"+ c #533418",
"@ c #55371A",
"# c #56371B",
"$ c #56381C",
"% c #5B3B1F",
"& c #5D3C1F",
"* c #5F3F21",
"= c #603F20",
"- c #7C4600",
"; c #5F4023",
": c #4F473E",
"> c #634122",
", c #634224",
"< c #664324",
"1 c #674425",
"2 c #684526",
"3 c #6B4728",
"4 c #6E4A2A",
"5 c #704B2B",
"6 c #704C2B",
"7 c #724D2C",
"8 c #744F2E",
"9 c #74502E",
"0 c #775130",
"q c #785230",
"w c #7A5432",
"e c #7C5533",
"r c #7D5734",
"t c #7F5834",
"y c #BF6900",
"u c #805935",
"i c #815B36",
"p c #F99E09",
"a c #FFA200",
"s c #FFB22E",
"d c #F8AC43",
"f c #F7B253",
"g c #FABA52",
"h c #F9BB60",
"j c #FCBA76",
"k c #B6DB4B",
"l c #FBC36E",
"z c #FDCB79",
"x c #FECC7A",
"c c #FF9CD4",
"v c #FAE3C0",
/* pixels */
"tuuuuuuuuuuuuuu-uuuuu9wwuuuuuuuu",
"uuuuuuuuuuuuuu-v-uuuuw8wuuuuttuu",
"tuuu>4uuuuuuuq-y-uuuuuuuuuuu7wuu",
"tuuuruuuuuuu--7-a---uuuuuuuu97uu",
"ruuuuuuuuuu-vv--y-vv-uuuuuuuuuuu",
"euuuuuuuuuu-av-a--aa-uuuuuuuuuuu",
"rut7q997999---yyy----77=4rrrruuu",
".$#*,22%2222-aaaaaa-.++.+>>==&&3",
"uwwuuuuuuuuu-ayyyya-rrrrrrruuuut",
"uuuuuuuuuuuu-yyaayy-uuuuuuuuuuuu",
"ue<quuuuuuuu-aayaaa-uuu63uuuuuuu",
"ut>quuuuuuuu-yyyayy-uuuq4ruuuuuu",
"uuuuuuuuuu---ayayaa---uuuuuuuuuu",
"uuuuuuuuu-ya-yayaay-ay-uuuuuuuuu",
"uuuw9799w-aha-yyyy-azy-uuuuuuuut",
";%o#%.%%>-axfa----ajla-....   >+",
"u9uuuuuuu-ylgyaayadgza-0000wwww7",
"uuuuuuuu-aayggyasyggyya-uuuuuuuu",
"uuuuuuuu-yasssyssysssaa-uuuttuuu",
"tu4uuuuu-yyssksssskssay-uuu77uuu",
"tutwuuuu-ayyskssvsksyyp-uuu66uuu",
"uutwuuu:::assssssvvsaa:::uuuuuuu",
"tuuuuuuu-a::sssccvvs::p-rrrrrrw0",
" #####X#:aaasvvvvvvssaa:OOO####%",
"u557777:7:::vvvvvvvv:::w:wwuuuur",
"uuuuuuuuuu------------uuuuuuuuut",
"uuuuuuuuuuu-av-uu-aa-uuuuuuuuuuu",
"uuuuur7uuuu-av-uu-va-uuuuuuuruut",
"uuuuuw1uuuu-vv-uu-vv-uuuuuu72uut",
"uuuruuuuuuu-vv-uu-vv-rqquuu24uuu",
"qq442470www----99----699499trrru",
"=*122%% %%%XXXXXX%%%%%###XXXX**#"
};
