/* XPM */
static char *_5b16a9ce32b4fb38a42899649628c82EuepzSu6yIj66Nqb[] = {
/* columns rows colors chars-per-pixel */
"64 64 207 2 ",
"   c #4A2C0F",
".  c #4D2F12",
"X  c #4F3114",
"o  c #523316",
"O  c #553619",
"+  c #58381B",
"@  c #5B3B1D",
"#  c #5F3E20",
"$  c #603F21",
"%  c #7C4600",
"&  c #4F473E",
"*  c #654324",
"=  c #6A4827",
"-  c #6A4728",
";  c #6D4A2A",
":  c #724E2D",
">  c #75512F",
",  c #775230",
"<  c #7A5532",
"1  c #7F5935",
"2  c #76583E",
"3  c #6B5140",
"4  c #735C4C",
"5  c #7A624F",
"6  c #786559",
"7  c #796C65",
"8  c #6D7278",
"9  c #7B7778",
"0  c #844A00",
"q  c #BF6900",
"w  c #815A36",
"e  c #D37C00",
"r  c #805D4B",
"t  c #86654C",
"y  c #866950",
"u  c #8E6A54",
"i  c #846D5D",
"p  c #88715F",
"a  c #8C7260",
"s  c #88786A",
"d  c #937C67",
"f  c #867B76",
"g  c #C37A41",
"h  c #7EF05B",
"j  c #DD8400",
"k  c #E38A00",
"l  c #E88F00",
"z  c #ED9200",
"x  c #F19600",
"c  c #F59A00",
"v  c #FA9E00",
"b  c #FFA200",
"n  c #9A826C",
"m  c #8E8279",
"M  c #998679",
"N  c #A68B6E",
"B  c #A38C77",
"V  c #F09E41",
"C  c #FBA742",
"Z  c #FBAD59",
"A  c #C98F67",
"S  c #CC9874",
"D  c #ECA867",
"F  c #F9B167",
"G  c #EFAF72",
"H  c #798791",
"J  c #8C8787",
"K  c #948A85",
"L  c #9B8E86",
"P  c #9D9086",
"I  c #9E9088",
"U  c #8A8E94",
"Y  c #9A9796",
"T  c #AA9886",
"R  c #AD9887",
"E  c #A3938A",
"W  c #A39A95",
"Q  c #A99D95",
"!  c #A59E9A",
"~  c #B7A38E",
"^  c #AAA29C",
"/  c #B7A798",
"(  c #8B9AA5",
")  c #9A9DA2",
"_  c #9BA3A9",
"`  c #8BA3B3",
"'  c #9AAAB6",
"]  c #ADA6A2",
"[  c #A6A7A8",
"{  c #B4A8A2",
"}  c #B4ABA5",
"|  c #B9AEA6",
" . c #B4AEAB",
".. c #B5B0AD",
"X. c #BBB3AD",
"o. c #A4AEB6",
"O. c #A8B2B9",
"+. c #B3B5B7",
"@. c #BCB6B2",
"#. c #BDB9B6",
"$. c #B5BABD",
"%. c #BCBCBD",
"&. c #D0A384",
"*. c #C2B39F",
"=. c #D6B499",
"-. c #ECB686",
";. c #F3BB87",
":. c #E7BE9A",
">. c #C8B8A7",
",. c #D5BDA4",
"<. c #C4BAB2",
"1. c #C3BBB5",
"2. c #C3BDBA",
"3. c #BFC0BD",
"4. c #FFD284",
"5. c #EEC39C",
"6. c #F1C398",
"7. c #DAC3AC",
"8. c #CDC0B1",
"9. c #C6C1BD",
"0. c #CAC3BE",
"q. c #D7C9B9",
"w. c #EBC8A7",
"e. c #EACDB0",
"r. c #E6D4BB",
"t. c #9DB9CB",
"y. c #A5BAC7",
"u. c #ACBAC3",
"i. c #B4BDC3",
"p. c #B6BFC5",
"a. c #A0BED0",
"s. c #FF9CD4",
"d. c #ACC1CD",
"f. c #BEC2C4",
"g. c #B5C3CC",
"h. c #BBC4CB",
"j. c #BDC5CB",
"k. c #AAC6D6",
"l. c #B4C6D1",
"z. c #B4C9D6",
"x. c #BBCBD5",
"c. c #B5CDDB",
"v. c #BCCDD9",
"b. c #BCD1DD",
"n. c #BCD4E3",
"m. c #C4C4C3",
"M. c #CBC5C2",
"N. c #CEC9C5",
"B. c #C5C8C8",
"V. c #C6CBCD",
"C. c #CDCBCA",
"Z. c #D4CCC3",
"A. c #DACFC4",
"S. c #D2CDCA",
"D. c #D5D1CD",
"F. c #DCD4C9",
"G. c #DCD4CC",
"H. c #C3CDD3",
"J. c #CACED2",
"K. c #C1CFDA",
"L. c #CCD2D5",
"P. c #C4D3DC",
"I. c #C9D4D9",
"U. c #CCD5DB",
"Y. c #D4D4D3",
"T. c #D9D5D3",
"R. c #D6D8D7",
"E. c #DDD9D6",
"W. c #D3D6D9",
"Q. c #D4DADD",
"!. c #DDDBDA",
"~. c #E5D8C8",
"^. c #E6DACD",
"/. c #E3DDD5",
"(. c #E9DFD3",
"). c #E1DEDC",
"_. c #DDE0DF",
"`. c #FAE3C0",
"'. c #F2E1C9",
"]. c #ECE2D5",
"[. c #E4E0DD",
"{. c #EBE4DC",
"}. c #F3E9DC",
"|. c #C4D6E1",
" X c #C8D9E4",
".X c #CCDAE4",
"XX c #D3DCE3",
"oX c #D9DEE2",
"OX c #D0DEE8",
"+X c #DCE1E4",
"@X c #D7E3EA",
"#X c #DBE4EA",
"$X c #E5E3E3",
"%X c #E9E6E4",
"&X c #ECE9E5",
"*X c #E3E6E9",
"=X c #E5E9EC",
"-X c #EDEBEB",
";X c #F3ECE3",
":X c #F9EFE2",
">X c #F1EEEC",
",X c #F5F1ED",
"<X c #EBEEF1",
"1X c #EFF0F2",
"2X c #F4F3F3",
"3X c #F8F7F5",
"4X c #F9F8F8",
/* pixels */
"* ; > > > > > 1 1 1 1 w w w w w w w w w w > < > < ; > > , % % % % % , > , , , , , < < , , : : : : : : > > > > : : : > > , , > > ",
"- - ; = = ; ; 4 - - 5 * * - = = = = ; ; ; ; ; ; ; : ; % % q q x e q % , , ; > > > : : : : , , , , ; > : : : : : > > , 6 t : , , ",
", : : : ; t E i.i.l.f.Y 7 = = ; ; ; ; ; - * * - - * % `.x x q x x q x t n n ; : : , , , , , < < , ; * - ; ; , , > > y y.X.w w w ",
", w w 1 u 9.+...[ @.u.y.u.: : : ; = - * * = = = ; ; % `.`.% % % % A -.-.n R n < < 1 1 1 1 > , , 1 1 1 , > : - ; : >.~ Y Y ] t : ",
"O o o i j.Y O.^ T *.9.' R : ; : ; , < 1 1 1 1 1 1 1 1 % % 1 w w R B V q q % / B > : : ; : * $ * * - : : ; - - - ; a T o.s U d.u ",
"$ @ 5 >.$.[ / M *.| ' o.; ; ; : > > : : : : Q i ; ; ; ; ; ; : R y , % q v % ; ,.w w w w 1 : = : ; ; # # * - ; : : : : [ ) 9 o.N ",
"- ; = ; $.>.~ >.0.u.) @ # * * * O @ * * L O.g.} %.V.[ M i i ; - - - % x l % : t : : : : : ; E M.N.T.<.<.M.i - - ; : : : 9 ' _ M ",
"1 1 < < > : M 9.u.! - * - - - - - * * f k.y.Y.i.o.V.V.S.} $X; : % % q x q % : : : i 1.1.-X-X>X,X$XE.).0.S.M.^ a , : : : : / ] Y ",
"1 < : , , < , U P < < < , > : , , 1 f g.o.$.~.M.T.[.Y.I 1.X.% % q k q q % : : : E !.$XT.1.+.[ R.Q.c.$X$XN.D.!.%X: , , : : ; O.O.",
"> ; w 1 : * * ; = * = > > , , , f ( g.u.N.[.+X!.T.E 1.E % % b q q b b % : , E @.X.$X*X+.' u.V. X#XQ.z.D.%X].0.M., ; - ; ; > 6 L ",
"= ; * - : , , < < , : - ; = - 9 O.D.J.oX$X!.$.Q.b.a.f % q b k j q q % % % i T.1.2.S.+Xm.+XU.T.*X Xf.j.y.u.W.2X/ I : > = * 1 1 < ",
"* * * - : : > , , , , ^ E I J.i.f.U.%X$Xk.z.@XU.Y >.F b b q q q q q q b b % | X.M.M.XX<XP.[.&X.X1X%XD.K.J.l.&X;X/.: ; ; - - - - ",
"- - - * - - * * )  .%.9.^ u.l.+.-X}.k.z.+X).oXW n 6.5.;.b j x b b x x b b b % M.S.M.2X2XI.-Xo.W.>X%XM./.W.z.P.-Xq.N , , < < < , ",
": * * * # $ 6 !.x.h.J.=Xn.n.2X{.~.j.n.].;X$X$XS.% F 6.5.G l j b b b x e b b % E Y.R.=X4X X-XI.>X3X).-X>X+Xi.oX XW =.: : : > > , ",
"O o @ + @ @ N.Y.i.R.i.h.] q.[.&XT. XU.[.E.*XN.E b b e F =.=.q x b b v l q b b M T.K.OX2X@X#X=X2X4X).T.&X!.oXU.u.g.n @ @ @ @ + + ",
". . X o o X K U.m.y.E.;X,X,X).Y.U.b.<X/.XX$X#.u b v l b b G q q q q q q b b b t T..X X2XOXXXA.Y.>X$XR.E.n.-Xt.i.].@ @ @ @ @ @ @ ",
". O * * * * { G.K.<.D.).2X!.[.-X XH.-X-XW.$X$X<.b x x b b l v x x b x x b b b t 1.*Xv.2X#X.XD.R.W.#XU.$X-XXXg.G.[.+ + + O O O O ",
"* * > > > p q.0.I.-X).!.T.0.F.L.P.S.,X$XJ.$X$X% b x x b b l v b e b l v b b b % %.*X!.#Xn.b.B.P.oX-X).&X$Xz.!.^.; ; ; ; ; ; ; ; ",
": * * * * L q.d.[.=X2X$Xq.q.{.XXk.+X2X%./.-X9.% b x x b b l v q q q q q v l b % p.$X%X.X=XR.C.W.K.+X=X!. X&X{.<., , > > : : : , ",
"1 > > > > @.@.<.d.[ B.$XT.E.).U.z.>X,Xf.%X$X| % b l q q q q q q q q q b x x b % <.!.,XOX#XR.&XT.Y.-X$Xn.1X&X~.X.i ; , < 1 1 1 w ",
"w > * * * @ 6 X.2.<.J *X$X$X-Xc.$.,X^.Q.-XS.| % q q q q q q q q q v l b x x b % @.!.2XU.#X.X{.$X).,X{.!.&XU.K.| T 1 , > ; - ; > ",
"1 > , 1 1 : : a E.q.>.S.%X%XC.|.+X].[.-X&X{ { % b k b b b x x v l x x b x x b % @.G.2XS.|..X{.$X).,XA.T.>XP.x.1.1.w w w w w 1 > ",
": : : ; ; - $ * 6 oX&X(.2X).oXn.-X}.$X=X%X] } % v l b b b x x x x x x ;.-.D Z % { >X2XJ.XX|.{.T.].;X(.A.&X-X$.>XS. .* * * * * * ",
": : : : : ; ; E W.oX>X)./.[.#X.X/.;X-XQ.>XS.| % k k b b b x q q q q q &.=.=.7.~ <.[.4XJ.T.n.&X!.D.;X].r.3X2X$.{.M.I - : = * * * ",
"w w w , > < | k.K.#X$X[.T.{.@X.X}.%X).+X{.@.| % v l b b q q q q q q q b D ;.C ~ <.(.2XS.oX XoXG.D.;X].r.*X&Xz.W.Z.} > > > 1 w w ",
"1 + O # L %.@XH.%X~.^.E.>X4X2X,X>XT.&XoX3XE.Q % b k q q b x x x z l b b l C ;.% <.A.3X).-X-X$XT.2.{.}.F.$X-XI.{.r.<.> > > 1 1 1 ",
"> < 1 1 S.x.U.^.&X$X!.M.-X-X2X:X%X!.).2X>XT.] % b l v b b k k x k x b b k b C ~ Q Z.,X%X!.-X&X*XN.{.:X~.!.H.!.G./ !.* * * # # # ",
", , > > 1.v.[.%X-X!.T.).3X3X3X).-X$X$X2X(.@.{ % b x x b b x x l z x b b k b b % 8.N.!.>X).,X2X*XE.].:X^.P.x.>X<.^ M.; - - ; >._ ",
"; ; : i C.OXq.-X2X%X&X&X>X2X%X&X&XS.3X*Xq.<.0.% b x x b b l q q q q b b k b b % W S.[.).2X&X2X*X*X].}.{.K.D.,XE.| 1 , < , ~ @.Y ",
"- - - i d.H.%X[.!.$X$XT.>X4XT.-X2X3X2XV.~.q.8.7.e.G x q q q q q q q q q q b b % Q C.0.%X{.}.2X-X-X].(.+XQ.D.>XX.L * * * 5 T $.M ",
"@ * @  . .c.Z.M.&X!.-X!.3X-X-X2X-X2XL.` ] K K 8.w.=.=.F F l b k b x q q q q q % K W ' 2XY.:X,X2X-XC.E.U.oX].Z.S.- - = = n M y.~ ",
"        [ b.R./.$XS.!.&X2X%X2X,X3X-X`  .T.N.K % 5.b G e.5.x b k b b k b b b b % K 2.O.-X&X!.-X2X2XN.I._.*X-X#.          s $.m >.",
"- # @ @ 9 v.k.&X&XR.$X2X$X).3X$X3XoX+.$XL % % % F F l ;.-.x v l b b x x b b b % % % H o.2X&X>X3X2X%Xl.&X-X%X .# # # # @ @.^ ~ 4 ",
"p X.3 - - L h.P.=X{.%X[.[.3X[.2X3XO. .i % l q q % F -.:.:.q q q q q b l v b % b q q r ' !.3XE.3X2X=XV.=X-XS.I ; ; ; 2 ^ %.n - - ",
"1 f.] 1 1 > E j.#X=X].E.3X3X$X$XXXO.E % b b q q b % w.,.=.=.q q q q q q k 0 b v q q b _ 1.%X&X3X3X-Xx.&X-XD.I : < < 7.o.Y , < < ",
"* R B.6 ; @ @ 6 U.XXn.&X4X,X-X%XU.R.S.% b 4.4.q v % q w.w.C b b l v q q q 0 b q 4.l v U 2./.&X2X4X%XoX+X-X).E > > > > ; : ; - - ",
"< ,.8.B.4 > < , , o.P.<X3X$XE.R.J.D.1.% v 4.4.4.k b % 6.G b c b b k b b % b x 4.4.4.x f O.Z.&XT.4X-X$XOX%X$X{ * * * - : : ; , : ",
"1 1 1 W J 1 < < E E !.@X3X=X$XH.N.| i % x 4.4.4.v l C >.b k l x x l e % b v l 4.4.4.l f [ >.&X$X2X2X).OX{.W.!.a , : : : , < , 1 ",
"; ; - - U 4 L $XXXQ.|.n./.2X=X*X%X&X% q q 4.4.4.4.x x % b k x x x v v % b l 4.4.4.4.l C o.7.[.-X[.$X$XL.T.q.Q. .i , , , > > > > ",
": , , , a | a.c.|.#X1X1X}.2X!.oXN.Y.% q q v 4.4.4.4.z k 0 % % % % % % b x 4.4.4.4.x e D y.Z.(.&X$X$X).$Xc.q.E.x.| a > > > > > > ",
"< : : i C.a.L.$X:X,X{.4X-X-Xo.T.X.E % x q q 4.4.4.4.l z l q q q v b b v l 4.4.4.4.D :.7./ V.^.%X>X-XM.2XJ.B./.R.p.{ i > > > > , ",
"* * *  .P.E.{./.$X2XT.2X3XT.d.D.M.X.% k q q v b b b b l v q q q l l x k c x l D ;.A S S ~ #.%.;X>X-X-X3X-Xf.9.[.R.m.S.M : : > < ",
"* * ) z.*XT.T.$X&X!.!.-X3X9.J.M. .E v l v q q b b b b b l x q b b v j e l x ;.F g A 7.r.>.X.x.{.{.$X&X>X-XD.+.G.T.Q Q E > > : ; ",
"1 1 T.U.U.~.E.2XS.X.!.2X>XT.).X.0.u x x x x q b b b b b b x q v x k x v b b w.6.&.A V z j { !.j.&X,X| %X).-XM.V.G.M.E | : : , , ",
"* * m.l.V.~.2XN.).Q ).3X!.N.2XX.S.% l v l v b b b b b b b b x l x b b b b b C q b x x x x u !.f.L.:X$X).M.>X] m.R.T.N.1.: : ; ; ",
"- ; [.d.oX}.[.E.C.{ $X$X%X2X2XD.9.0 j v l b b b b b b b b b b b b b b b b b b b b x x x x u #.m v.^.3X$X!.!.!.3.Y.{ N.9.Q - - ; ",
"* * C.d.b.U.|.b.X.$X&X9.2X[.1.2XM.% q q x b b b b b b b b b b b b b b b b b b b b l v x x % 1.W O.C.-X>X$XT.T.I.M.L m #.o o o * ",
"      J $.i.>X,XC.S.[.[.-XT.%XC. .% q q q q b b b h h b b b b b b b b b h h b b b k b x x % ..Y 2.B.Q.3X!.$X!.U.{ @._ ]         ",
"* ; ; ; - y.*X3X}.{.-X).$X$XX.L L % l z x b q b b h h b b b b b b b b b h h b b q q q q q % 7 7 f Z.$.R.S.>X$Xv.F.H.) + O + O @ ",
"- = = * = 4 J 2X>X&X;X^.$X& & & & & x x k b b b b h h b b b b b b b b b h h b b v l q & & & & & & 0.q.O.C.=XOX9.z.Y * - - * * # ",
"= = * @ o O K &X1XXX[.%X1.& & & & & & & & & & b b h h b b b b b `.`.`.b h h b & & & & & & & & & & S.:XS.n.W.#.J.f @ @ @ * * * ; ",
"- ; : : : } I [.$X$XY.).m.6 6 ! ! % & & & & & b b b b b b b b b `.`.`.`.b b b & & & & x x % C.L M.S.T.q.+Xj.+.; : : : : : ; ; = ",
"* # # * L / L.&XD.-X$X$X1.[.@.[.{ % q q q q x b b b b b b b b b b b b `.`.`.`.b q q b x x % 9.] 2. .Y.Y.[.#.: > > ; ; ; - ; = : ",
"> > : $ L '.I.8.J.#Xc.!.2.W $X .L % q q b v l b b b b b b b s.s.s.s.b `.`.`.`.b x q q q q % I C.M ] D.U.m.6 @ @ @ * * ; ; ; ; ; ",
"* * : ; I q..Xm. XO.P.$XD.^ $X0.E % v j x b x x b `.`.`.`.b s.s.s.s.b `.`.`.`.& & & & q q % 6 { W 2.W.B.1., ; ; ; - = n *.n ; ; ",
"w 1 1 1 X.0.V.@XH.1.g.-X$XM.).Q I % b b x & & l b `.`.`.`.`.b b b `.`.`.`.`.`.& & & & & & & & 2.Y.2.XXQ { * - - - 5 T n t.M * - ",
": : : : : j.<.OXH.@.u.=XS.-X9.W L & & & & & & j v `.`.`.`.`.`.`.`.`.`.`.`.`.`.b k x k & & & & 1.S.h.=XM.X., : : : >.d ] +.Y > > ",
"= * * * 9 u.7.j.b.9.c.+XN.N.& & & & & & & b b z e `.`.`.`.`.`.`.`.`.`.`.`.`.`.b e x % % { @.S.!.2.l.%.1.< < , : : T p O.Y Y @ @ ",
"* @ # # $ L u.,.P.c.%XW #.T.& & & o 6 K 6 % % % % % % % % n u u u u u u % % % % % u 0.1.0.E.@.S.g.[ Y L - - ; : ; R ] J X.! ; ; ",
": : = - - - C.u.K.W.U.f.E.!.1.X.} S.} I } } I i P I I } 1.S. .#.h.0.T.T.T.1.1.D.).).!.T.!.^ N.%.O.E S.: : : : : , / [ M n , < < ",
"* * - ; : : : a k.X.].R.v..XY.M.0.E 1.| X.M E T.E E a.a.|.l.H.H.l.u.) L ! C.$XD.#.] ] ]  .+XU.z. .K L @ @ @ + + + %._ d * = - ; ",
"* * * * * # # * * ) L.~.G.P.l.Y * * * 6 X.{ #.S.M.S.Q.V.L Q m i i W [ o.[ ! !.C.XXJ.*Xj.u.[ f m = = ; ; ; ; * * * 2 3 * * * * = ",
"@ o O O O o o o o o K 6 6 6 Y o . o o o X . X ! @.f f o O @ O @ O O O O 8 ` H H 8 8 8 8 + o o o o o O o O @ $ # @ # @ ; ; - - * ",
"                                                                                                                                "
};
