/* XPM */
static char *f64d76fad12c461f88ff422603c69c68Z8wFRUAZPgzKjVyX[] = {
/* columns rows colors chars-per-pixel */
"32 32 62 1 ",
"  c #4A2B0F",
". c #4A2C0F",
"X c #4F2F13",
"o c #4E3116",
"O c #523317",
"+ c #523418",
"@ c #533418",
"# c #543518",
"$ c #56381C",
"% c #58391C",
"& c #5D3C1F",
"* c #5F3E21",
"= c #603F20",
"- c #7C4600",
"; c #7D4704",
": c #7D470C",
"> c #7E480C",
", c #5F4023",
"< c #4F473E",
"1 c #634122",
"2 c #634224",
"3 c #664324",
"4 c #674425",
"5 c #6A4727",
"6 c #694728",
"7 c #6F4B2A",
"8 c #774C24",
"9 c #704B2B",
"0 c #704C2B",
"q c #724D2C",
"w c #744F2E",
"e c #75502E",
"r c #78502C",
"t c #765130",
"y c #785230",
"u c #7A5431",
"i c #7E5632",
"p c #7D5734",
"a c #7F5935",
"s c #BF6900",
"d c #815B36",
"f c #7EF05B",
"g c #FFA200",
"h c #FFA914",
"j c #FFAC1C",
"k c #FCAE29",
"l c #FFB22E",
"z c #FCAF32",
"x c #FABA52",
"c c #FFD07F",
"v c #D4B999",
"b c #DAC09F",
"n c #DFC5A4",
"m c #E7CEAC",
"M c #E8D0AE",
"N c #ECD3B2",
"B c #EFD7B5",
"V c #F1D9B7",
"C c #F3DBB9",
"Z c #F6DFBC",
"A c #FF9CD4",
"S c #FAE3C0",
/* pixels */
"dddddddduuedddddddddddddddddddda",
"ddaadddduwuddddddddddddddddddddd",
"dduqdddddddddddddpyddddddd71ddda",
"ddqe--dddddd---ddq9ddddddddpddda",
"ddd-sj-dddd-jjs-ddyddddddddddddp",
"ddd-jcj-dd-jchg-dddddddddddddddi",
"ddd-jccj--jcchg-eeeewewwqeeyqadp",
"6&--jcccjsccchg-@5555555%552*#$o",
"a-kxsxsxsxxxgss-udddddddddddduud",
"d-zllsllsllhsgg-dddddddddddddddd",
"d-lzslsllslhggg-ddddddddddddy3id",
"d-lsllsllslhgss-ddddddddddddy1ad",
"d-zflllllflssgg-dddddddddddddddd",
"d-zflSlllflhggg----------------d",
"<<<lSAAllll<<<g-gsgssgssgsgsgsS-",
"@-slSllSSSlhggg-gsgssggsg------,",
"<<<hSSSSSSh<<<g-gsggsggsg-dddded",
"dd-------------gggggsgggg-dddddd",
"dddaa-hSSShhggggggggggggg-dddddd",
"dddqq-SSSSShggSSSSSSSgggg-ddd7da",
"ddd00-SSSSSSSSSSSSSSSSSgg-dduada",
"ddddd-hSmBZSSSmmmmmmnVSSg-dduadd",
"tuppp-hS---SS----------Sg-ddddda",
"%####-hS-.-Sg-   -gS-.-Sg-#####X",
"pdddd-gS-u-Sg-uyy-gS-w-Sg-qqq99d",
"adddd-gS-d-Sg-ddd-gS-d-SS-dddddd",
"ddddd-SS-d-SS-ddd-SS-d-bS-dddddd",
"addpd-NS-d-CN-ddd-mm-d-Mv-pddddd",
"add5q----d--;;wdd--;>d-:-;uddddd",
"ddd75dddrypid8idddddddddddddpddd",
"dpppaee7ee00700eeqyuiuuutq7577yy",
"#**OOOO###%%%%%OOOOOO%%%X%%554*="
};
