/* XPM */
static char *bf09b79c75414dfb8e9ebe29f34d1ee0zJfGHZyza8w33VmT[] = {
/* columns rows colors chars-per-pixel */
"32 32 78 1 ",
"  c #4A2B0F",
". c #4A2C0F",
"X c #4E2F13",
"o c #4E3116",
"O c #503014",
"+ c #523216",
"@ c #523418",
"# c #543518",
"$ c #573619",
"% c #55361A",
"& c #56371B",
"* c #56381C",
"= c #5A381C",
"- c #5B3A1D",
"; c #5B3B1F",
": c #5D3C1F",
"> c #5F3D20",
", c #5F3F21",
"< c #603F20",
"1 c #7C4600",
"2 c #7D4701",
"3 c #7D4704",
"4 c #7D4707",
"5 c #7D470C",
"6 c #7E480C",
"7 c #5F4023",
"8 c #4F473E",
"9 c #634122",
"0 c #634224",
"q c #664324",
"w c #674425",
"e c #684526",
"r c #6B4727",
"t c #694728",
"y c #6C4828",
"u c #6E4A2A",
"i c #6F4B2A",
"p c #774C24",
"a c #704B2B",
"s c #714D2D",
"d c #724D2C",
"f c #744F2E",
"g c #74502E",
"h c #75512F",
"j c #78502C",
"k c #775130",
"l c #785230",
"z c #795432",
"x c #7B5532",
"c c #7C5633",
"v c #7D5734",
"b c #7E5834",
"n c #7F5834",
"m c #7F5935",
"M c #BF6900",
"N c #815934",
"B c #805935",
"V c #815A36",
"C c #815B37",
"Z c #7EF05B",
"A c #FFA200",
"S c #FFA914",
"D c #FFAC1C",
"F c #FCAE29",
"G c #FFB22E",
"H c #FCAF32",
"J c #FABA52",
"K c #FFD07F",
"L c #D4B999",
"P c #DFC5A4",
"I c #E7CEAC",
"U c #E8D0AE",
"Y c #ECD3B2",
"T c #EFD7B5",
"R c #F3DBB9",
"E c #F6DFBC",
"W c #FF9CD4",
"Q c #FAE3C0",
/* pixels */
"nVVVVVVVVVVVVVVVVVVVVgxxVVVVVVVC",
"VVVVVVVVVVVVVVVVVVVVVxsxVVVVnnVV",
"nVVV9uVVVVVVVgVVVVVVVVVVVVVVsxVV",
"nVVVvVVVVVVVVssVV111VVVVVV11gsVV",
"nVVVVVVVVVVVVkVV1MDD1VVVV1DM1VVV",
"xVVVVVVVVCVVVVVV1ASKD1VV1DKD1VVV",
"vVnslggsgggggggg1ASKKD11DKKD1VVV",
"o*&,0ee;eeeeeww@1ASKKKMDKKKD11:t",
"VxxVVVVVVVVVVVVx1MMAJJJMJMJMJF1n",
"VVVVVVVVVVVVVVVV1AAMSGGMGGMGGH1V",
"VvqlVVVVVVVVVVVV1AAASGMGGMGMHG1n",
"Vn9lVVVVVVVVVVVV1MMASGMGGMGGMG1V",
"VCVVVVVVVVVVVVVV1AAMMGZGGGGGZH1n",
"C1111111111111111AAASGZGGGQGZH1V",
"1QMAMAMAMMAMMAMA1A888GGGGWWQG888",
"7111111AMAAMMAMA1AAASGQQQGGQGM1@",
"VgCCVV1AMAAMAAMA1A888SQQQQQQS888",
"NVVCVV1AAAAMAAAAA1111111111111VV",
"nVCCVV1AAAAAAAAAAAAASSQQQS1VnVVV",
"nCuVVV1AAAAQQQQQQQAASQQQQQ1ssVVV",
"nVnxVV1AAQQQQQQQQQQQQQQQQQ1asVVV",
"CCCgVV1AQQTPIIIIIIQQQETIQS1VVVVV",
"vNCCnV1AQ1111111111QQ111QS1vcvjl",
"o=#&&@1AQ1X1QA1X. 1AQ1 1QS1&@***",
"Naaaga2AQ1s1QA1klx1AQ1v1QA1VVVVv",
"VNVVNC2QQ1n1QA1VVV1AQ1V1QA1VVVVV",
"VVVVCn2QP1V1QQ1VVV1QQ1V1QQ1VVVVv",
"VVVVCn1LU1V1II1VVV1YR1V2QY1VvVVN",
"VVVVVx3164V6311VVs3322V2V11seVVN",
"VVVvVVVCCVVVVVVVVvpVnngjNVVraVVV",
"jluuttskjlvlvjagfaauaujj5rfvvvvN",
",9ete;*o&:,++++++==;--##+ +o+,,&"
};
