/* XPM */
static char *c754c4bbb11549fff6d3958107b88b95vLSJo4NvMv22zIHr[] = {
/* columns rows colors chars-per-pixel */
"64 64 196 2 ",
"   c #4A2C0F",
".  c #4D2F12",
"X  c #4F3114",
"o  c #523316",
"O  c #563619",
"+  c #57381B",
"@  c #5B3B1D",
"#  c #5F3E20",
"$  c #603F21",
"%  c #7C4600",
"&  c #7E4B1A",
"*  c #4F473E",
"=  c #5F4A3D",
"-  c #654324",
";  c #6B4827",
":  c #6A4728",
">  c #6D4A2A",
",  c #724E2D",
"<  c #75512F",
"1  c #6E4D32",
"2  c #775230",
"3  c #7B5532",
"4  c #7D5837",
"5  c #6B5B54",
"6  c #715F54",
"7  c #796558",
"8  c #78787A",
"9  c #834A00",
"0  c #985400",
"q  c #BF6900",
"w  c #815A36",
"e  c #855A3B",
"r  c #CC7500",
"t  c #D37C00",
"y  c #89654E",
"u  c #8E6953",
"i  c #826C5C",
"p  c #886F5E",
"a  c #89705E",
"s  c #8D7361",
"d  c #8F7867",
"f  c #847A76",
"g  c #C47D4F",
"h  c #7EF05B",
"j  c #DC8400",
"k  c #E58C00",
"l  c #E88F00",
"z  c #ED9200",
"x  c #F19600",
"c  c #F59A00",
"v  c #FA9E00",
"b  c #FFA200",
"n  c #8B817B",
"m  c #988579",
"M  c #A1887B",
"N  c #E5984F",
"B  c #F9A64B",
"V  c #FDAB4F",
"C  c #CA9376",
"Z  c #FBB26C",
"A  c #EBAD7C",
"S  c #FAB77B",
"D  c #7A7D80",
"F  c #7D8B95",
"G  c #89898B",
"H  c #958A84",
"J  c #9C8E86",
"K  c #9E9087",
"L  c #818D96",
"P  c #899299",
"I  c #9B9592",
"U  c #98999B",
"Y  c #A48D82",
"T  c #A19187",
"R  c #A59388",
"E  c #AA968C",
"W  c #A49A94",
"Q  c #AB9D96",
"!  c #A49D9B",
"~  c #ABA19B",
"^  c #B4A49C",
"/  c #8898A3",
"(  c #979DA2",
")  c #9DA2A7",
"_  c #9DAAB2",
"`  c #99ACB9",
"'  c #ADA6A3",
"]  c #A5A6A8",
"[  c #B4AAA4",
"{  c #B8ACA5",
"}  c #B5AEAA",
"|  c #B5B0AE",
" . c #BCB2AD",
".. c #A2ACB4",
"X. c #A9AEB3",
"o. c #ACB1B5",
"O. c #A6B2BB",
"+. c #ABB4BB",
"@. c #BDB6B3",
"#. c #B8B7B7",
"$. c #B2B6B9",
"%. c #BCBBBB",
"&. c #D0A692",
"*. c #D2AB9A",
"=. c #F8BD8A",
"-. c #E8B898",
";. c #D6B8AB",
":. c #C1B7B1",
">. c #C3BAB5",
",. c #C3BEBB",
"<. c #FFD284",
"1. c #F7C39C",
"2. c #FDD492",
"3. c #C6C0BD",
"4. c #CAC1BD",
"5. c #DBC4BA",
"6. c #F5C8A7",
"7. c #F4CDA4",
"8. c #EACAB7",
"9. c #F4CDB2",
"0. c #F2D2BD",
"q. c #9BB6C5",
"w. c #A5BAC7",
"e. c #ACBAC4",
"r. c #ACBECA",
"t. c #B3BDC4",
"y. c #B7BEC4",
"u. c #FF9CD4",
"i. c #9FC4DA",
"p. c #ABC1CE",
"a. c #BDC2C5",
"s. c #B3C3CD",
"d. c #BAC4CB",
"f. c #BBC5CC",
"g. c #A4C2D3",
"h. c #ABC4D3",
"j. c #A9C9DB",
"k. c #B4C5D1",
"l. c #B4CAD6",
"z. c #BCCAD4",
"x. c #B3CCDB",
"c. c #BACEDC",
"v. c #B7D0DF",
"b. c #BCD1DE",
"n. c #AECEE0",
"m. c #B7D2E1",
"M. c #BCD4E2",
"N. c #C5C2C1",
"B. c #CBC5C2",
"V. c #CEC9C6",
"C. c #C1C6CA",
"Z. c #C4CACE",
"A. c #CDCBCB",
"S. c #D0CAC7",
"D. c #DECBC3",
"F. c #D2CDCB",
"G. c #D5D1CF",
"H. c #C4CDD3",
"J. c #C9CED2",
"K. c #C2CFD8",
"L. c #C5D0D7",
"P. c #CCD2D6",
"I. c #C4D2DB",
"U. c #CCD5DB",
"Y. c #D5D3D2",
"T. c #D9D5D3",
"R. c #DCD8D6",
"E. c #D1D6DA",
"W. c #D8D7D9",
"Q. c #D3D9DD",
"!. c #DDDCDB",
"~. c #E9D4C8",
"^. c #F1DBC7",
"/. c #ECDFD6",
"(. c #E1DEDD",
"). c #FAE3C0",
"_. c #F5E5CC",
"`. c #F8E4C8",
"'. c #E2E0DF",
"]. c #EFE7DE",
"[. c #F2E5D4",
"{. c #C5D6E1",
"}. c #C8D8E3",
"|. c #CCDAE2",
" X c #D3DDE3",
".X c #D9DFE2",
"XX c #D0DFE8",
"oX c #DCE0E4",
"OX c #D8E2E9",
"+X c #E4E3E2",
"@X c #E8E7E6",
"#X c #E9E8E7",
"$X c #E5E7EA",
"%X c #E5E9EA",
"&X c #EBEBEB",
"*X c #F0F0F0",
/* pixels */
"- > < < < < < 4 i ` / n n w w w w w w w w < 3 < ..d.!.R.2 % % % % % % % % 2 2 2 2 2 2 2 2 , , , , , , < < < < , , , < < 2 2 < < ",
": : > : : > > 8 q.[ N.$.a._ U : : : > > > > > o.c.~ u % % b b q q x k q q % % < < , , , , 2 2 2 2 > < , , , , , < < < < , , 2 2 ",
"2 , , , > > 7 ) #.B.N.} N.V.Z.R.S.> > > : ( s.] W - % q q l k l q q v q b b ).% , 2 2 2 2 2 3 3 2 > - : > > 2 2 d ( 7 R 4 w w w ",
"2 w w 4 3 4 >.W a 3 2 2 2 , , , n : : - - : k.,.[ % b j q q % % u % % % b ).).% 3 4 4 m R Y.R 2 4 4 4 2 < , : > m .Xf T T > > , ",
"O o o @ @ - - - : : : > > , > > > 2 3 4 4 4 C.C.{ u b v 0 % w w  .Q m m Y % % < < ,.P.c.Q ] } +XW i , , > : : : > [ I.f } V.w 4 ",
"$ @ - # # $ - ; > > , < > > Q p p p Q , , , f d.} J % q q l % % & y y E T.,.@.d m J.a.j.l.U.r.U.@.,.} # - : > , , T ] E.3.> w w ",
": > : > > > : - - - - @ # H ,.' ] %.A.%.' U _ g.OXJ.Q % % v q q q b % % M  . .s +XI..Xk.O.N.@XQ.I.] (.p > > : : > m Z.c.R.> > > ",
"4 4 3 2 < , , 2 : : : 7 %..._ w.s.q.q.g.r.p.M.h.J.w.I !.E e q k v t x B 1.E { V.(.R.A.q.b.G.T.[ R.l.Q >.3 3 3 2 2 T k.N.T , , , ",
"4 4 , 2 2 d d T T 3 3 .XO.} _ O.h.p.p.h.b.f.x.oXB.T z.a.!.m % x x b x ~.~.~.6.M ^ 3.3.e.x.y.R.:.I.c.,.Q ,.: > , , d.T.{ , > : > ",
"< > w 4 , ! Q @.6 L h.P.+Xs.o.z.{.$X!.@X+XT...Q.!.T Q ` u 0 k z k j z ~.-.N t t b % : ] b.w.B.T.XXs.! H H $ < < G E.,.i > < < , ",
": > - : K T W ..P W z.Z.{.c.M.I.+X@X@XR. .K J..XB. .G f b k k j j q q q q j l k j j % p r.s.A.R.P.t.o.' 7 - > > p.T.{ : - 4 4 3 ",
"- - - n S.G w.7 m R.h.z.Y.I.OXo.R.(.G.+XB.@XL.&X[ ,.z.% b b q q q q q q q q q j z x % 3.C.w.H.+XQ.z.P.3.< < < , Z.R.i > : : : : ",
": : : - @.+.f - 7 #.x.V.@X|.U.$.B.V.+XV.B.B.f.&XY.e.F.u b b v l x b k z k t q q q b b Q A.q.k.F.E.t.z.T < < < 2 < 2 2 2 3 3 3 2 ",
", - - - d.d.$ # H U c.,.Y.f.|.O.F.3.(.V.F.B.g.@XJ.y.u b b b b b x j j t k x x b b b b u F.M.I.}.Y.H.I.K < , < < < , , , , , < 2 ",
"O o @ + o.o.@ @ } ) b.B.T.X.P.c.W Y.R.V.A.R.f.!.+.R.% b q q b b b j l v v l b b q q b % N.XXz.OXY.s.I.! # # @ @ @ @ @ @ @ @ + + ",
". . X o ( ( o o } g.q.C.+X$.f.I.%.,.R.(.} '.I.{.R.T % b b q q q x k x v l q q q q b b % N.%Xg.|.P.r.Z.o.O O O O + @ @ @ @ @ @ @ ",
"X O - : - - - - - J _ P z.y.d.d.oXB.@.&XY.@XU.h.E. .% b b b b q q q v q q q q b b b u Y.} !.x.+X{.z.z.s.@ @ @ @ + + + + O O O O ",
"- - < < < < < < < < T ..W P.s.{.!.#XF.'.R.+Xz.z.T.T % b b b b x k q q q q b b b b b % V.B.I.%.Z..X}.H.H.U [ > > > > J } J > > > ",
", - - - - - - - - - - H e.%.R.] Q.&XG.G.,.}.P.k.S.% b b b b v l l z x b b b b b V C V.!.Z.E.$.Z.!.M.OX#Xt.Q R 3 2 2 < p Y.p , 2 ",
"4 < < < < < < < < < < 2 2 ..%.) a.'.@XR.Y..XQ.z.B.% b q b b j k t k b b b 9.9.;.*.S ^ +XQ.@XY.U.R.|.f.&XG.` &XJ > > 2 Y.S.k.R w ",
"w < - - - @ - - - > : : > > ` _ o.R.R.@XF..XU.K.T.% b b q q b q q q q q q &.=.1.9.^  .c.Y.#X!.U.%XY.g.B.@X[ n.>.E 4 2 T J z.Q < ",
"4 < 2 4 4 , , 2 2 2 < < < < < G q.Y.+X+X+XoXI.%.'.u b b b b q q q q q q q q q q V :.B.R.E.F.(.oXQ.&Xk.y.@XY.&Xd.R +Xw s { y.A.< ",
", , , > > : $ - - - - - - - - - i F.!.(.+X.XU..X>.2 % S b b b b x x l k v b b b b u B.T.U.N.R..XoX'.I.z.+X@.!.a.X.Y.,.- [ _ V.- ",
", , , , , > > , , , , , 2 f < S.!.%.(.T.(.OX|.oX#XB.y ^.6.1.S b b x z l j z b b b b Y Y.W.R.N.,.|.'.|.Z.E.Q R.F.H.o. ., J X.Z.- ",
"w w w 2 < 3 4 2 2 2 2 f e.$.2 F.A..X,.B.#XI.M.V.(.S.4.0.1.^.6.S b b t x j v b b b b % e.!.!.@XB.XX!.Q.E.z.@.V.R.+X) } < < y.E.w ",
"4 + O # - - - - > 7 P $. .2 s  .h.I.T.+X@XQ.M.R.B.G.{ 4.V S &.*.q b t x r v b b b b %  .oXR.#XN. XQ.Q.Q.P.%.3.B.@XO.e.< < ] P.m ",
"< 3 4 4 i a.$.....d.z.!.- @ H H a.Q.G.@X+XA.M.R.S.Y.{ % q g 1.1.V q q q q q q q b V 4.G.G.z.+XG.!.K..XE.!.s.,.Y.a.P.V.- - G oXf ",
"2 2 < < %.f.Z.d.N.Q Q 2 2 2 T T z.Y.S.!.(.%.v.V.+XF.Q Y b b 0.D.5.q q q q q q g ;.D.C E V.T.W.R.+X{.R.|.[ H.C.J.%.@.p : : P x. .",
"> > , , , J } a < < < < < <  . .x.t.I.I..XZ.c.+X#X .S.% b b V b b l j k k l S 9.6.1.1.4.B.3.P.Q.3.I.Q.|.R.F.k.h.{ 4 2 3 2 ] ) , ",
": : : - : : : - - - - - $ $ V.} @XI +XY.E.Q.c.+X#XF.T % b b b b b k k z j l /.0.1.1.=. .3. .@.U.N..XoXI.+XP.r.w.- - - - > 6 1 , ",
"@ - @ @ + @ @ @ O @ @ @ + O O ' +X,.+X!.#X X@X@XR.Q % b b b b b x x k x r x A 6.=.6.S t % {  .Y.z.!.OXI.R.b.H.i.!.7 : : : : - : ",
"                                #.Y.+X#XoXQ.&X[ @.!.% x b b b b x z t k k x x b 9.v t b %  .>.3.!.I.|.OXI.b.g.g.}.T.3.5     o o ",
": # @ @ @ - @ @ + + @ @ O O + + @ R.#X+X|.+X&X>.Y E :.k r z b q q q q q q q l b x j 9 % %  .R.B.!..X}.n.c.+XQ.g.b.A.@.Y.@ @ + O ",
"- : : : : : > > > > > : : : > : :  .&X$Xf.&X[ ^ N *.g % k q q q q q q t q q q q j 9 b q q % H ,.!.#XI.n.z.+XQ.z.M.c.h.N.J > : : ",
"4 4 4 4 4 < < p T +XT F.a < , < < >.R.J.E.#X% S S ;.q b % j j t k v x t l x x j 0 b v q q b % F.!.&Xz.j.c.K.z.h.I.x.h.oX>.2 3 3 ",
"- > > > > @ F.V.F.3.N.Q V.> > > i { T.I.@XR.% V ^.7.q v % b j t j j z k v l k x % b q <.l v % ~ x.}.U.v.x.!.F.e.!.c.h.oX .} : : ",
"3 < < , , T &XF.F.V.T.%.] Y.s < T R .XE.#X .% v _.7.<.k b % v j z k j j l z x % b x <.<.<.x % R P.oX+XI.x.+XR.] U.oXj.{.{ p 2 , ",
"4 4 4 4 R R +XF.>.{ >.B.` y.8 > R ~ XXT.R.~ % x [.2.<.v l B % k x z t N x x % b v l <.<.<.l % m W.U.&XK.x.+X+X>.z.@Xl.x.3.3 2 4 ",
"> > : i ,.J ,.Q } Q [ [ ..o.8 - F.@.XX!.4.% q q <.<.<.<.x x 9 k x x -.-.A b % b l <.<.<.<.l B % S.XX.X@Xj.!.&XR.U.$XP.j.E.< < < ",
", 2 2 2 4 w.b.d.P.C.~ f w._ 8 T R P..XR.R % q q v <.<.<.<.z k 9 M S.E y E { Z x <.<.<.<.x t b % Q @X.X!.m. X#X'.Q.oXP.{.x.< < < ",
"3 , , , > : U _ r.r.q.w.z.` 7 [ m |.%XS.R % x q q <.<.<.<.l z N *.C C 9.1.6.0.l <.<.<.<.b b C M F.$X XF.|.OXR.Y.R.{.Q.a.s.a < 2 ",
"- - - : , 3 2 2 , , F > - 6 J K ,.XX!.F.4 % k q q v b b b b l v q q q A l x k c x l b b =.;.~.:.@.#X+X(.|.XX&XV.+X|.L.a.] ) < 3 ",
"- - - @ @ @ @ @ @ @ @ @ @ - V.H C.}.M.W.% B N v q q b b b b b l x q b b v j t l x b 9.~.5.;.*.6. .'.oXU.H.+X*X(.+X.XU.d.Q ` , > ",
"3 3 4 4 4 4 4 4 4 4 4 4 s { '.V.x.Q.XX3.^ 6.6.9.0.5.0.9.0.0.b b x q v x k x v Z 1.0.5.;.*.C A N % T Q.Q.z.oX#XG.#XoXz.t.[ z.P 2 ",
"- - - - > > > > > > > J  .E.P.z.U.R.|.(.F.8.9.~.~.^.S =.Z Z b b b x l x b b b 0.1.=.g q x x k k % H B.XXH.OXR.Y.+X&Xx.t.~ +.> > ",
": > 2 , : : : : : J @.} P.l.U.t.+X#XQ.(.:.8.0.-.=.Z b b b b b b b b b b b b b b b b b b x x k k % H F.OX|.f.+X+X%Xb.}.x.r.[ : > ",
"- - @ @ $ $ @ @ Y.H W P.o.F.$.f.#XR.oX>.M g q x b b b b b b b b b b b b b b b b b b b b l v k k % H } oXI.t.U.m.z.z.W.z.] ' o - ",
"              H I R.I.] [ '.y.J.@XQ.C.~ % q q q q b b b h h b b b b b b b b b h h b b b k b k q % R 4.,.n.{.e.{.g.Z. Xo.B.G.    ",
"- > > > : : : @.o.b.A. .#X[ z.(.Y..XZ.R % l z x b q b b h h b b b b b b b b b h h b b q q q q q % ^ (.P.H.+XX.l.H ` q.' H + O @ ",
": : : - ; - H 4.Q.Z.&X+XV.a.oXT.F..XJ.R % z l k b b b b h h b b b b b b b b b h h b b v q q q q % V.+XZ.J.+Xd.e.W B.[ i : - - # ",
"; ; - @ o O @X} ( f.+X*X[ t.%XS.B..XP.R * * * b b b b b h h b b b b b ).).).b h h b b b b * * x % s G.C.U.P.I.+.,.N.@ @ - - - > ",
": > , , , > J ,.f.] +XF.+XH.+XF.S.|.* * * * * * * * b b b b b b b b b ).).).).b b b b * * * * * * R. .oXf.XXXX#.K , , , , > > : ",
"- # # - - : J J $.H.3.G.H.$X>.F.* * * * % q q * * * q b b b b b b b b b b b ).).).).b * * b k * * * * }.e.R.U.!.< > > > : > > , ",
"< < , $ $ # 7 Y.G p.e.f.M.@X+X>.* * (.R % q q l c l b b b b b b b u.u.u.u.b ).).).).b x q q q q % * * * * G.I.W @ - - > > > > > ",
"- - , > > : - - o.w.e.w.'.!.+X(.(.z.@XR % v j z l x x b ).).).).b u.u.u.u.b ).).).).b * b b q q % R.#X* * &X}.n > : : - : > > > ",
"w 4 4 4 3 3 3 < , I 3.%.{.H.V.(.@XK.#XR % x * * j z l b ).).).).).b b b ).).).).).).b * * x x b % !.!.T.&X%XI.i : : - : : : 7 : ",
", , , , , , , : - - W '.' X..XF.$XK.S.R * * * * k k j v ).).).).).).[._._._.).).).).b k * * b b % * * +X*X!.U., , , 2 Q e.t.Y.< ",
": - - - - ( / ,.W - n V.J >.] d..XI.* * * * % % b b z t ).).).`._.[.[._._.[.]._._._.b t x * * * * * * @X*XJ..X, , : 7 +X` q.' @ ",
"- @ # 5 F C.| | = + @ + O 4 R Y.|.* * * } T.R.+X% % % % % % % 4.G.S.4.4.R.G.4.M M ^ M % % K * * * #XT.#X&Xl.s., > , $.h.g.$.J > ",
", , : L e.~ Q s.D : : : 4 4 4 s s * I.+XS.B.>.,.R R R R R R R R R R Q [ 4. .{ :. .4.'.S.'.} F.Q oX!.f.XX..%., , 2 < T ] E.S.R 3 ",
"- - : > N.t.K.G 2 4 4 4 4 4 3 4 4 4 $. .] g.L.a.$.~ I I I I I I ! o.+.!.a.a.C.E.a.f.d.( / ` r.s.z.K.k.R.' 7 + + + # # 8 8 ; : > ",
"- - - - - # 8 - - - - - - - - - - - - - - - 5 G ( +.h.e._ +.+.t.+.q.( ] G G 8 %.! 6 6 6 6 : : i ' @X!.(.i > - - - - - - - - - : ",
"@ o O O O o o o o o o X o o o o X o o o X X X X O o O } H 7 7 @ O O O O O O o O O o O O + o o o o o O } O @ $ # @ # @ > > : : - ",
"                                                                                                                                "
};
