/* XPM */
static char *bb3be3b4fda34d78c91aed52d217d28bPNBkVRe7Bo9JP1pN[] = {
/* columns rows colors chars-per-pixel */
"32 32 48 1 ",
"  c #482A0D",
". c #4A2C0F",
"X c #4C2E12",
"o c #4E3116",
"O c #513115",
"+ c #523417",
"@ c #543417",
"# c #533418",
"$ c #55371A",
"% c #56371B",
"& c #56381C",
"* c #58381B",
"= c #5B3B1F",
"- c #5D3C1F",
"; c #5F3F21",
": c #603F20",
"> c #7C4600",
", c #5F4023",
"< c #4F473E",
"1 c #634122",
"2 c #634224",
"3 c #664324",
"4 c #674425",
"5 c #684526",
"6 c #694728",
"7 c #6E4A2A",
"8 c #704B2B",
"9 c #704C2B",
"0 c #724D2C",
"q c #744F2E",
"w c #794F2A",
"e c #74502E",
"r c #765130",
"t c #785230",
"y c #7A5432",
"u c #7C5533",
"i c #7D5734",
"p c #7F5834",
"a c #BF6900",
"s c #80562F",
"d c #84552D",
"f c #805833",
"g c #805935",
"h c #815B36",
"j c #845B35",
"k c #F0880A",
"l c #FFA200",
"z c #FAE3C0",
/* pixels */
"pggggggggggggggggggggeyygggggggg",
"gggggggggg>>sggggggf>>eyggggppgg",
"pggg17ggg>al>digggj>la>ggggg0ygg",
"pgggigggg>lal>wggg>lla>ggggge0gg",
"igggggggg>lall>>>lalka>ggggggggg",
"ugggggggg>klalaklaakla>ggggggggg",
"igp0tee0>llkakalklakall>7iiiiggg",
"o&%;255=>lakkkallaklalk>#11::--6",
"gyyggggg>alaakaakalalkl>iiiggggp",
"gggggggg>laakakalklakla>gggggggg",
"gu3tggg<>kkkakkalkalaal><ggggggg",
"gp1tgggg>llkkkklklaalkk>7igggggg",
"gggggggg>aakkaaaaaalkkl>gggggggg",
"ggggggg<g>laaakkkklkll>g<ggggggg",
"gggye0eeyr>>>>>>>>>>>>gggggggggp",
",=+%=o==1ooX>kkklll>**XooooXXX1#",
"gegggggggggg>llaaak>775rrrryyyy0",
"gggggggggggg>aallaa>gggggggggggg",
"gggggggggggg>kkkkkl>gggggggppggg",
"pg7ggggggggg>aaalka>ggggggg00ggg",
"pgpygggggggg>llkaaa>ggggggg99ggg",
"ggpygggggggg>kklklk>gggggggggggg",
"pggggggggggg>laaaal>iiiiiiiiiiyr",
"X%%%%%O%. . >alklaa>...@@@@%%%%=",
"g88000000rq0>lkaakl>yyyyyyyggggi",
"ggggggggggg>>aalla>>>ggggggggggp",
"ggggggggggg>l>>l>>ll>ggggggggggg",
"gggggi0gggg>zz>l>>zz>gggggggiggp",
"gggggy4gggg>>>g>l>>>>gggggg05ggp",
"gggiggggggggggg>aa>giittggg57ggg",
"tt77570ryyyuyt0e>z>799ee7eepiiig",
":;455==X===OOOOOO>====%%%OOOO;;%"
};
