/* XPM */
static char *b1d3dbd9c97f47a9ed323dc92cd306c4SQbQP60q5J5tFF8C[] = {
/* columns rows colors chars-per-pixel */
"64 64 218 2 ",
"   c #4A2C0F",
".  c #4C2E11",
"X  c #4F3114",
"o  c #523316",
"O  c #553619",
"+  c #57381A",
"@  c #5B3B1D",
"#  c #5F3E20",
"$  c #603F21",
"%  c #7C4600",
"&  c #4F473E",
"*  c #52463C",
"=  c #644324",
"-  c #694727",
";  c #6A4728",
":  c #6D4A2A",
">  c #724E2D",
",  c #75502F",
"<  c #775230",
"1  c #7A5532",
"2  c #7F5935",
"3  c #6C5444",
"4  c #6B5D56",
"5  c #7A624E",
"6  c #7B675A",
"7  c #6E6C6B",
"8  c #75777C",
"9  c #945609",
"0  c #BF6900",
"q  c #BD710E",
"w  c #815431",
"e  c #815A36",
"r  c #BD7037",
"t  c #CE7700",
"y  c #CC7906",
"u  c #866C5A",
"i  c #8D715B",
"p  c #8B7463",
"a  c #8A796D",
"s  c #7EF05B",
"d  c #DC8400",
"f  c #DC8A0E",
"g  c #D6881C",
"h  c #DF901E",
"j  c #E08700",
"k  c #E58C00",
"l  c #E88F00",
"z  c #ED9200",
"x  c #EA950B",
"c  c #F19600",
"v  c #F39A01",
"b  c #FA9E00",
"n  c #E3951D",
"m  c #F19C11",
"M  c #F19F1A",
"N  c #FFA200",
"B  c #FFA90F",
"V  c #F9A616",
"C  c #FFA914",
"Z  c #D88F32",
"A  c #E59721",
"S  c #E89A23",
"D  c #E39D3D",
"F  c #EDA026",
"G  c #F1A427",
"H  c #FCA72A",
"J  c #FAAD2C",
"K  c #FFB22E",
"L  c #8E8077",
"P  c #978575",
"I  c #A78F79",
"U  c #C68154",
"Y  c #DCA348",
"T  c #ECA946",
"R  c #F7B24E",
"E  c #FEAD55",
"W  c #FABA52",
"Q  c #FFBA5C",
"!  c #CC9476",
"~  c #E9AD7D",
"^  c #FCB675",
"/  c #F5C374",
"(  c #FFD07F",
")  c #757C83",
"_  c #7C8189",
"`  c #799AB0",
"'  c #878485",
"]  c #958B84",
"[  c #9C8E82",
"{  c #918F90",
"}  c #989899",
"|  c #A39284",
" . c #A3948C",
".. c #AA9788",
"X. c #B2978A",
"o. c #A39A92",
"O. c #AA9D91",
"+. c #A39E9B",
"@. c #AFA093",
"#. c #ACA49D",
"$. c #B7A795",
"%. c #B5A99E",
"&. c #BAAB9D",
"*. c #889AA7",
"=. c #9C9EA1",
"-. c #9AA2A9",
";. c #91A8B8",
":. c #99ABB8",
">. c #A7A8A9",
",. c #B4ACA3",
"<. c #BAADA2",
"1. c #B4AAAA",
"2. c #BCB1A6",
"3. c #BCB3AB",
"4. c #A6ADB3",
"5. c #A8B2B9",
"6. c #ACB6BD",
"7. c #B6B7B6",
"8. c #BBB6B3",
"9. c #BBBDBC",
"0. c #D2B59B",
"q. c #F0BE90",
"w. c #C6B7A8",
"e. c #C3B9AF",
"r. c #DDBDAE",
"t. c #C4BCB3",
"y. c #C5BEB7",
"u. c #FFD386",
"i. c #FAC69A",
"p. c #D4C4AE",
"a. c #CAC1B6",
"s. c #C5C2BB",
"d. c #CCC4BB",
"f. c #D9CAB4",
"g. c #D1C6BC",
"h. c #D2C9BE",
"j. c #F4D0AE",
"k. c #FBD8B8",
"l. c #9CB5C7",
"z. c #94B4C9",
"x. c #AABBC8",
"c. c #B3BDC4",
"v. c #A2BFD2",
"b. c #FF9CD4",
"n. c #ADC1CF",
"m. c #BCC1C4",
"M. c #B5C2CB",
"N. c #BBC5CD",
"B. c #ACC4D4",
"V. c #A7C7DB",
"C. c #B3C6D2",
"Z. c #BCCAD3",
"A. c #B6CBD9",
"S. c #BDD1DE",
"D. c #A6CCE3",
"F. c #B8D5E7",
"G. c #BCD5E4",
"H. c #B3D6EB",
"J. c #C4C5C5",
"K. c #CDCAC5",
"L. c #C6C7C8",
"P. c #CACCCC",
"I. c #D4CCC3",
"U. c #DCCCC4",
"Y. c #D9D1C7",
"T. c #D6D1CA",
"R. c #DCD5CB",
"E. c #DFD8CF",
"W. c #C3CDD3",
"Q. c #C5CFD9",
"!. c #CCD1D2",
"~. c #C3D3DD",
"^. c #C9D3D9",
"/. c #CAD5DB",
"(. c #D2D5D4",
"). c #D9D7D5",
"_. c #D6DBDB",
"`. c #DCDDDC",
"'. c #E5D9C9",
"]. c #E1D9CF",
"[. c #FADCC4",
"{. c #E4DDD3",
"}. c #E6DDD8",
"|. c #FAE3C0",
" X c #FBE6CC",
".X c #E7E0D7",
"XX c #E6E1DB",
"oX c #EBE4DB",
"OX c #EFE8DF",
"+X c #F4E8D6",
"@X c #FBEBD3",
"#X c #F8E8D7",
"$X c #FBEEDB",
"%X c #C3D6E2",
"&X c #C5D8E4",
"*X c #CCDBE3",
"=X c #C4DDEC",
"-X c #CCDEE9",
";X c #D2DDE3",
":X c #DCDFE2",
">X c #CDE0EB",
",X c #DBE2E4",
"<X c #D4E3EB",
"1X c #DBE5EA",
"2X c #DAE6EA",
"3X c #C9E5F5",
"4X c #D7E9F3",
"5X c #E2E5E4",
"6X c #E5E8E6",
"7X c #EEEAE3",
"8X c #E5EAEA",
"9X c #ECEDEA",
"0X c #F2ECE3",
"qX c #F0EBE6",
"wX c #F5F0E7",
"eX c #F8F2E8",
"rX c #FAF4EB",
"tX c #E8EFF0",
/* pixels */
"= : , , , , , 2 2 2 2 e e e e e e e e e e , 1 , 1 : , , < < < < < < < < < < < < < < < < < > > > > > > , , , , > > > , , < < , , ",
"- - : ; ; : : - - - - = = - ; ; ; ; : : : : : : : > : > > < < < < < < < : : , , , > > > > < < < < : , > > > > > , , , , > > < < ",
"< > > > : : > > > : : : : ; ; : : : : : - = = - - = = 2 : @ = - : = - - = = > > > < < < < < 1 1 < : = - : : < < , , , 2 2 e e e ",
"< e e 2 1 2 2 1 < 1 < < < > > > : ; - = = ; ; ; : : : 2 1 , , > > < < < 1 1 1 1 1 2 2 2 2 , < < 2 2 2 < , > - : > > < > > : : > ",
"O o o @ @ = = = - - - : : > : > : < 1 2 2 2 2 2 2 2 2 2 2 2 e e e < > : > 1 , , , > > : > = $ = = - > > : - - - : : : ; : > e 2 ",
"$ @ = # # $ = ; : : > , : : : > , , > > > > > > : : : : : : > , < < < > > : : e e e e e 2 > ; > : : # # = - : > > > > > > : e e ",
"- : - : : : ; = = = = @ # = = = O @ = = = = : : : : : : : : : - - - - % % % % > > > > > > : > , > > , > : % % % : > > > : : : : ",
"2 2 1 < , > > < - - - = - - - - - = = = = = = = = ; ; ; : : : > > > % 9 N k k % < < < < < < 1 1 1 1 1 1 % d N H % > > > > > > > ",
"2 2 > < < 1 < < < 1 1 1 < , > < < 2 2 1 < < , > : - - : : ; : > > % 0 0 N k c c % > > > < < > > : : : % c d 0 0 N % , > > : ; : ",
", : e 2 > = = : ; = ; , , < < < 1 < < 1 1 1 1 1 < < < , , > : - = % 0 0 k k ( 0 0 % - - @ @ = = = = @ % c J 0 0 0 % - : : , , > ",
"; : = - > < < 1 1 < > - : ; - ; : e 2 > = = : - - > > , > < < , < % 0 g m m ( ( c 0 % , < < < < 2 2 % 0 N N / / N % , ; = 2 2 1 ",
"= = = - > > , L 8.u < < > : > > : , > > > > : - = - > : > - - : > % 0 0 m m ( ( ( b N % 1 1 1 > < % 0 c ( ( u./ c % : : - - - - ",
"- - - = - - = I.w.s.P - - - = = - - : - - : > < < > : > < 2 2 2 2 % N 0 0 m ( ( ( ( N N % > > > % c 0 ( ( ( u.u.k N % < 1 1 1 < ",
"> = = = # $ 2.a.&..XR.'.= = = = = = : , < < < < < < = = = $ # = = % b b 0 V ( ( ( ( ( N l % % % N 0 0 u.( ( u.u.b 0 % > > > , < ",
"O o @ + @ a t.% % % = w.p $ @ + O o . X @ @ @ # = = = = = = = @ P % z z x 0 ( u.( ( ( ( 0 0 N c d b ( ( u.( u.u.0 0 0 % @ @ + + ",
". . X o % w 0.0.l b % . . . O O o o X X X . . . . . . . . . . p.p.% c c k N W ( ( ( ( W 0 0 b k k ( ( ( ( ( u.u.0 0 k N % @ @ @ ",
". O = % q.j.0 0 b d 0 % : : : ; $ $ $ $ 5 p 5 a @ @ @ = @ @ 4 f.5 % 0 0 0 0 N N W W D D T T 0 0 R R 0 0 Y Y 0 0 W W J S % O O O ",
"= = , % k.|.% % % 0 0 % 2 2 2 2 2 2 I f.2.P.2.f.$.i 1 @ 8 *.5.R.$.% 0 0 0 0 N N W W D D Z Z 0 0 Z D 0 0 T T 0 0 W W K 0 % : : : ",
"> = = = % % = = = % k % @ @ @ @ 3 4.9.6.5.e.h.,.@.h.8 *.9.K.2.f...% c z l N 0 0 M K J G n G 0 0 h y g h 0 0 S n S G 0 n % > > < ",
"2 , , , , , , , , % c c % < < , &.Z.J.+.4.4.7.m.Z.^.(.K.t.$. Xf...% c k v N 0 0 x f S G K K 0 0 J G S A 0 0 h h J A A n % 2 2 e ",
"e , = = = @ = 8 8 % 0 0 % : : > I w.$.f.w.w.w.P.$.I '.#.P ..p.f.; % c k c N V m m x G S 0 0 n S S G 0 0 G J 0 0 F 0 0 0 % - : , ",
"2 , < 2 2 > 8.x.< % 0 l N % % % % % % % % % % % % % % % % % % % % % c k c N x v m V G J 0 0 K K K K 0 0 K K 0 0 h F J 0 % e 2 , ",
"> > > : : 8.v. .= = % d 0 0 0 l l 0 0 0 c c c 0 0 0 c c t t k k k % 0 0 0 0 C C B C K K 0 0 K K K K 0 0 K K K K 0 0 0 0 % = = = ",
"> > > > I.A.y.> > > % b 0 0 j k 0 0 0 0 k k k 0 0 0 d d ! r.k k k % 0 0 0 0 C C C M K K 0 0 K K K K 0 0 K K K K 0 0 J S % = = = ",
"e e e p ~.8...< < < < % 0 k t t 0 0 0 0 c c c 0 0 r. XeX9X/.q.t N % c d b N 0 0 0 0 K K s s K K K K K K K K K K s s G G % 2 e e ",
"2 + +.N.-.K.= = : > > > % z t t 0 0 0 N N N N 0 r.7X=X{.R./.E c z % c d N N 0 0 0 0 K K s s K K K K K K K K K K s s G G % 2 2 2 ",
", 1 >.>...I...1 > : - = % d d d 0 0 N N N N 0 U 7X8.~ ~ Q.:XE c t % c d N N N N C C K K s s K K K K K K |.|.K K s s G G % # # # ",
"< < , , > > : > > > > < 5 % ~ k 0 0 N N N N 0 eXU.E N N 1.=XE b d % c d N N N N C C K K s s K K K K K K |.|.K K s s G G % : > > ",
": : > > > : : | | | <.<.<.w.[.i.U 0 N N N N }.c.E N N N t r.j.b d % z d & & & & & & K K K K K K K K b.b.b.b.|.|.K K & & & & & > ",
"- - - = - - [ 2.G.#.O.O.3.'.~ ~ i.^ N N N N r X.N N N N N N N N t % z d & & & & & & K K K K K K K K b.b.b.b.|.|.K K & & & & * > ",
"@ = @ @ + 6 m.S.qX;XL.<.4.a.#X[.[.i.j.E N N 0 0 N N N N N N N N N % k k N N N N C C K K |.|.|.|.|.|.K K K K |.|.K J q 9 % ; - y.",
"        4 `._.3.0X`.D.~.c.Q.I.XXk. XE j.k.N N N N H N N N N N N N % k k N N N N C C K K |.|.|.|.|.|.K K K K |.|.K G q 9 % . ] ;.",
"- # @ @ y.C.oXR.0XeX9X<X=Xn.U._.}.j. X^ i.N N N N N ^ N N N N N N % k k & & & & & & Q j. X X|. X|.|.|.|.|.|.|.|.K G & & 7 L.~.` ",
"= - - R.} `.%.Y.R.OX0X0XeX3X6X{.5X7X}.oX@X X@X@X$X$X$X@X X|.N N N % k k & & & 7 ] ,.k. XeX$X$XeX@X X|.|.|.|.|.|.K S & & ).5.C.8 ",
"2 2 2 ..7.P.e.d.@.oXeX{..X0XtXtX6X8XrX9X4X7X+X@X@X@X@X@X@X$X@X| < < % N N  Xk.k.k.k.i. X$XeXrXrX$X@X$X X|.|.|.|.K K K ..>.M.D.p ",
"= : : | 7.m.OXd.;X[ Y.0X7XoXoX9X9X,X,XrX7X6X,X-X(.(.Y.I.R.oXoXY.h.@.P @.].R.].@.w.I.a.&.].g.i w.g.I &.&.&.R.% % % % % m.4.x.} - ",
"1 , , i ^.7X(.>X&.| <.R.h.g..XR.6X,X,X<X0XOXOXL.m.c.M./.~.8.h.oXOX.X0XOXe.I.9X9X7X9X7X6X<X7X$X$XrX@X^ [.u O.[ = = = 4.W.;X-.< > ",
"2 2 2 2 ~._.XX5.{.@.| 2.g.I..XR.oX7X,X5X*XrX0X8X<X=X/.*X=X^.J..X].%.Y.].K.1X9X7X9X9X8X6X1X1X4X1X6X7XOXi.w.@.<.< < > `.x.A.1 < 1 ",
": : - - 3.Z.].;X2.a.| | e.E.oX0XE..X0X9X4X-XeX9XF.-X*X%X%XA.M.;XwXY.{.5X1XeX6XG.-X%X*X6X_._.N.^.%X*X1X-X(.2.h.P > < < < , , , , ",
"> < < < $.)./.W.y.{.a.I.{.2.t.&.{.Y.oX6X<X5XD.F.A.%X-X>X;X-X=XtX6XOX4X9X5X>X:X6X6X6X;XD./.,X_.R.).T.G.B.<Xg.rXY.< < , , , , , > ",
"1 > > > p d.~.W.P.R.OXt.| OX<.2.<.Y.m.c.C.W.&XqX0Xh.a.OXY.{.}.3XtXrX1X<X-X=X/.-X6X6X7XwXqX6X,X*XH.,XrX>X~.;Xa.oXR.6 : , , , , < ",
"= = = ; > 1 i >.A.M.Q.;X1X,XQ.W.F.v.n.J.<.oXI.{.OX0X7XI.OXoX{.6X>XoX;X8X1X<XXXI.d.Y.].oX0XwXrXOX0XP.6XOX%X*X,X(.>.<.| > > > , 1 ",
"= = = @ @ @ @ @ e.+.} J.K.N.Z.B.:.!.d.Y.].%.Y.oX{.{.OXwXrXOX.X9X<X1X5X-X6XoX].{.{.oXd.2.2.a.R.{.wXrX,X*X_.Z.3XE.P.1.| <., , > : ",
"2 2 2 2 2 2 2 1.%XA.N.:.V.7.o.w.Y.I.&.Y.3.<.w.t.<.].{.oXOX2.Y.<X&XR.V.Z.y.e.O.d.2.g.Y.d.d.e.2.I.7XeXrX7X-XB.8X`.&.=X7.&.| > < < ",
"= = = = : : 7.Q.A.-XP | I.2.oXOXe.I.{.e.@.| 2.2.@.Y.0X{.@.2.oX>X(.9._.R.E.d.d.| | | [ 2.2.3.y.3.<.O.{.rX0XZ.S./.e.P.7.Y.| > : : ",
"- : < > ; P 6X:.A.h.{.OXh.2.| t.2.I.R.a.[ [ e.d.a.I.oX#.E.I.!.Z.s.*X3.I.e.%.[ [ [ [ [ [ [ ,.,.3.{.y.0XrX0XI.D.H.).7.m.e.2.- - : ",
"= = @ @ $ $ 4.!.6.).rX{.d.a.I.a.d.I.I.{.%.a.R.2.[ [ 6 ,.#.<X&XG.m.J.K.t.Y.d.h.t.t.<.<.[ [ 2.[ ,.3.Y.0X0Xe.0XW.V.;X>.!.] ] o o = ",
"            ) Z.} ^.] #.E.{.,.3.3.,.R..X0X{.s.R.K./.(.*X<X%X#.E.F.>.`.I.d.oXT.T.,.o.o.#.,.d.a.d.Y.Y.I.h.] d.y.V.C.J.=X] ]       ",
"= : : : - - - >.Z.c.x.y.2.a.a.2.a.3.| e.{..X9XP.;X%XZ.Z.F.9.3X#.>.B.Z.a.} P.{.R.OX0XoXoXoX7XR..X{.oXI.e.y.E.a.x.G.Z.9.oXa + O @ ",
"- ; ; = ; = = < | 6.W.N.~.c.P.K.8.s.!.(.9.P.W.N.=X5.S.~.;X6X6.>.6.} A.>.t.8.O.O.[ O.I..XE.I.{.y.e.d.e.a.a.7X0XE.6X3Xa.{.u = = # ",
"; ; = @ o O O @ @ = ' :.5.7.J.-XN.Q.P.L.Q.~.G./.!.6XXXa.I.R.2.F.c.O.h.=XO.R.@.| | | 2.Y..XoXoXI.a.2.2.O.%.3.{.R.P.<Xc.[ = = = : ",
"- : > > > : : # # # O 4 l.*.:.x.6.n.n.N._.T.a.d.{.%.i < p d.| <.B.;XK.L.=X_.(.Y.Y.d.g.d.%.[ [ [ [ [ | | T.9X(.W.=X<XM.> > : : ; ",
"= 6 # = = - > : : > > : > ; : - 6 { $ = $ # + O O o o O + [ 2.P 9.5.^.N.7.S.Z.&XW.P.I.R..X8.9.N.%X%X=X3X3X!.M.G.P.oX: : - : : > ",
"s.Z.+.$ $ # @ # @ @ ] J.4.4.@ = = = - = ; = - = = =  .e.> > | <.<.N.3.,.6.c.*XN.~.F.F.F.F.F.H.F.n.~.N.m.W.W.9.3.R.6 = : : : : : ",
"= B.8.: : - = =  .XXv.x.4.4.2 e 2 2 1 : = = u  .3.y.C.8.: - - = 6 o.S.(.>.6.C.>.} >.c.6.5.>.4._.1X/.~.=X3.| | u : - ; = - : : : ",
"=.,Xt.2 1 1 1 ).(.B.3.3.: : : : : - : > p G.F.:.6.C.{ > , , , < , , L >.`.N.Z.F.Z.6.6.A.>.>.>.7.L L u P = = - - - u = - - - = - ",
"x.x.> > > > > } ` - = # = = = # @ = = L K.:.' 7.N.8 ; : 4 ; - = = = = = - - - : : - : > , , > : > , , , < < > a :.L. ., > > , , ",
"; = = = = = = 3 3 = = ; : : : > > > > ).J.:.3.u = - = -.:.= : : : : > > > , > , < < 1 2 = : : , < 2 2 2 6 { :.x.:.m.$ # + @ @ @ ",
"= @ # # $ @ @ O 8 O @ + O + O o o o o @ *.C.$ = - - ) -. .: - = = : ' >. .z.6.J.`.p : > > > > > : 5.5.z.C./.!.`.5.9.< < < , : : ",
"> > ; - - 4 8 ;._ - - ; : : : : : : : : 3 3 : : 4 ;.-.T. .: > > > > ' l. . .*.l. .> : : - - - : : l.5. .#.> > > v.K.< < < < 1 1 ",
"= = - 3 :.x.m.5X[ 2 2 2 2 2 2 2 2 2 2 2 < < < 8 z.K. .$ = : = $ $ $ @ 8 C.] B.K.@ @ @ @ @ @ + @ @ @ @ @ @ @ + + + # # = = ; - : ",
"= = = 3 :.6 # = = = = = = = = = = = = = = = = 3 7 - = - = = = : : : : > 4.C.{ u : : : ; - - ; - ; ; : : : : = = = = = = = = = ; ",
"@ o O O O o o o o o o X o o o o X o o o X X X X O o O o O @ O @ O O O O O z.-.O O o O O + o o o o o O o O @ $ # @ # @ : : - - = ",
"                                                                                                                                "
};
