/* XPM */
static char *_cf30830c1cb4214ff9de40c1d2d941fCXz1uJONuQIkjTAJ[] = {
/* columns rows colors chars-per-pixel */
"64 64 205 2 ",
"   c #4A2C0F",
".  c #4D2E12",
"X  c #4E3014",
"o  c #523316",
"O  c #563619",
"+  c #58371A",
"@  c #57381A",
"#  c #5B3B1D",
"$  c #5F3E20",
"%  c #603F21",
"&  c #7B4811",
"*  c #654324",
"=  c #694627",
"-  c #6B4827",
";  c #6A4728",
":  c #6D4A2A",
">  c #724E2D",
",  c #75512F",
"<  c #775230",
"1  c #7B5532",
"2  c #7F5935",
"3  c #705B4E",
"4  c #735C4D",
"5  c #695B54",
"6  c #7B6453",
"7  c #786458",
"8  c #5F666E",
"9  c #727173",
"0  c #864D0F",
"q  c #91520E",
"w  c #844C10",
"e  c #A55C09",
"r  c #B06105",
"t  c #BF6900",
"y  c #815A36",
"u  c #C26C00",
"i  c #CC7500",
"p  c #D37B00",
"a  c #876A56",
"s  c #846B5B",
"d  c #8B715D",
"f  c #91705B",
"g  c #87756A",
"h  c #927D6E",
"j  c #877B75",
"k  c #C47D50",
"l  c #D68000",
"z  c #DC8300",
"x  c #E08700",
"c  c #E48A00",
"v  c #E88F00",
"b  c #ED9200",
"n  c #F19600",
"m  c #F59A00",
"M  c #FA9E00",
"N  c #FFA200",
"B  c #8C817C",
"V  c #978478",
"C  c #A1897E",
"Z  c #C5825A",
"A  c #E49750",
"S  c #FCAB52",
"D  c #DC9C6D",
"F  c #CA977D",
"G  c #DAA17D",
"H  c #ECAC79",
"J  c #FAB77D",
"K  c #787B81",
"L  c #79848E",
"P  c #8A8787",
"I  c #958982",
"U  c #938A86",
"Y  c #9C8C83",
"T  c #9D938D",
"R  c #899199",
"E  c #96979A",
"W  c #A08E83",
"Q  c #A49389",
"!  c #A29790",
"~  c #A59992",
"^  c #AA9C94",
"/  c #A79D99",
"(  c #ACA099",
")  c #ADA39D",
"_  c #B1A59E",
"`  c #8B9DAB",
"'  c #969CA3",
"]  c #9E9EA1",
"[  c #A09FA1",
"{  c #96A2AB",
"}  c #99A8B3",
"|  c #96ABB9",
" . c #A9A6A5",
".. c #A1A6AB",
"X. c #ABAAAB",
"o. c #B7AAA3",
"O. c #B4AAA5",
"+. c #B4AEAA",
"@. c #B9AEA9",
"#. c #B5B0AE",
"$. c #BBB2AD",
"%. c #A5ACB2",
"&. c #ABAEB2",
"*. c #ABB0B5",
"=. c #A5B1BC",
"-. c #ADB4BA",
";. c #B2B2B4",
":. c #BCB6B3",
">. c #BEB8B5",
",. c #B2B6BA",
"<. c #B4B9BE",
"1. c #BCBBBC",
"2. c #CEA18C",
"3. c #D2AB99",
"4. c #DFB49B",
"5. c #F8BD8D",
"6. c #EFB991",
"7. c #D5B8AC",
"8. c #C1B7B2",
"9. c #C2BAB5",
"0. c #C4BDBA",
"q. c #D7BDB3",
"w. c #E6BDA4",
"e. c #F6C29B",
"r. c #C6C1BE",
"t. c #C9C2BE",
"y. c #DAC4BB",
"u. c #F6C6A3",
"i. c #F4C8AA",
"p. c #F0C8AE",
"a. c #E8C8B5",
"s. c #F0D2BE",
"d. c #8DAEC2",
"f. c #9AB6C8",
"g. c #A9BBC7",
"h. c #ABBDCA",
"j. c #B4BCC3",
"k. c #BBBEC2",
"l. c #B0BFC9",
"z. c #A0BED1",
"x. c #C0BFC1",
"c. c #FEB0D0",
"v. c #ADC1CD",
"b. c #B7C0C6",
"n. c #BDC0C4",
"m. c #B3C1CB",
"M. c #BCC5CC",
"N. c #A9C4D6",
"B. c #B4C6D3",
"V. c #B8C6D1",
"C. c #B5C9D6",
"Z. c #BCCAD5",
"A. c #B5CBDA",
"S. c #BACDDB",
"D. c #BFD0DC",
"F. c #9FC8E1",
"G. c #B7CFE1",
"H. c #BCD2E1",
"J. c #C4C3C3",
"K. c #CBC5C2",
"L. c #CEC8C6",
"P. c #C4C7C9",
"I. c #C4C9CD",
"U. c #CCCBCB",
"Y. c #D7CBC6",
"T. c #D2CECB",
"R. c #D5D1CE",
"E. c #D8D2CF",
"W. c #C3CCD3",
"Q. c #CACED2",
"!. c #C1CFD8",
"~. c #CDD1D4",
"^. c #C4D2DC",
"/. c #CCD4DA",
"(. c #CFD8DE",
"). c #D3D3D3",
"_. c #D9D5D3",
"`. c #DCD8D7",
"'. c #D2D6D9",
"]. c #D5D9DC",
"[. c #DCDBDB",
"{. c #F9CEC9",
"}. c #E1DEDC",
"|. c #FAE3C0",
" X c #E3E0DF",
".X c #C7D8E3",
"XX c #CCDAE4",
"oX c #D3DDE4",
"OX c #DADEE2",
"+X c #D2DFE8",
"@X c #DCE1E5",
"#X c #D6E2EA",
"$X c #DCE5EB",
"%X c #E4E3E3",
"&X c #E8E6E5",
"*X c #EAE8E7",
"=X c #E3E6E9",
"-X c #E5E9EC",
";X c #EBEBEB",
":X c #F0EFEE",
">X c #F1F0EF",
",X c #E7EDF1",
"<X c #EEF0F2",
"1X c #F3F3F3",
"2X c #F8F7F7",
/* pixels */
"* : , , , , , 2 2 2 2 y y y y y y y y y y , 1 , 1 : , , < < < < < < < < < < < < < < < < < > > > > > > , , , , > > > , , < < , , ",
"; ; : ; ; : : ; ; ; ; * * = ; ; ; ; : : : : : : : > : > > < < < < < < < : : , , , > > > > < < < < : , > > > > > , , , , > > < < ",
"< > > > : : > > > : : : : ; ; : : : : : ; * * ; ; * * 2 : # * ; : * = = * * > > > < < < < < 1 1 < : * ; : : < < , , , 2 2 y y y ",
"< y y 2 1 2 2 1 < 1 < < < > > > : ; ; * * ; ; ; : : : 2 1 , , > > < < < 1 1 1 1 1 2 2 2 2 , < < 2 2 2 < , > ; : > > < > > : : > ",
"O o o # # * * * ; ; ; : : > : > : < 1 2 2 2 2 K.& & K.2 2 2 y y y < > : > & & & , > > : > * % * * ; > > : ; ; ; : : : ; : > y 2 ",
"% # * $ $ % * - : : > , : : : > , , > > > > > w p N & K.: : > , < < < > & N t z & f f Q Q Y s > : : $ $ * ; : > > > > > > : y y ",
"; : = : : : ; * * * * # $ * * * O # * =.7 * & v m v & K.: : : ; ; ; h I & N t v & _ _ Y Y Y @._.Y s , > : : = = : > > > : : : : ",
"2 2 1 < , > > < = ; ; * ; ; ; ; ; * ] +XM.I w v N n n & K.: : > T <.K.& t t N c N & ).@.W W `._.K.9.@.1 1 1 1 < < > > > > > > > ",
"2 2 > < < 1 < < < 1 1 1 < , > < B -.~.@X^.& t t v N c & & ~ _ 1.%.:.Y w v N v v t & h.S.j.Q.OX`.R.>XR.$.; ; : > > < < > > : ; : ",
", : y 2 > 6 Y :.; * ; , , < < } E T.'.%XQ.& v t t c m v & & & & & w r v N v t t t & A.A.+X+XA.S.B.U ].[.~ % , , , : = : : , , > ",
"; : * ; V ^ ( Q 1 < > ; : ; ; | U.=X$X-X1.& v b t t v c z N t t t x p N v M t t n & $.%X'.U.0.&.H.S.C.T.>.I : : : > , ; * 2 2 1 ",
"* * * ~ Y 8.K.} < < < < > : > v.]./.;XT.^ C A M v c t v z N t t t c b v M t t t v & _.;Xt.m.'.1X@XK.%.$.K.T., > > > : : = ; ; ; ",
"; ; ) N.` X.#...K * * = = = g S.=X~.*XL.`.o.a.e.w.J N n p z N t b n v n N t t n n & `.T.O.M.[.;X].).J.$.$.$.9.< , < < < 1 1 1 < ",
"> * * * =.f.z.{ { 5 $ # $ % *.W./._._.[. XK.D S y.7.p.N n c i t N v v N t N N n n & r.}.).^.}.*XI.[.;.L.T.$., , , > > o.Q > , < ",
"O o # @ # ! } f.F.| * ; * I ] oX1X;X&X+X~.w t F 2.7.2.t M c z z n N N N N N N n n C L.%XO.=.>X$X&.].J.L._.( # # # # 3 0.#.4 @ @ ",
". . X o o X o o 9 9 . . . B D.,X*X&X .W.P.f F Y.u.n N t t v i m v N N N N t t k 3.o.`.T.U Q.:XOX/.XX+.0.=X .O O @ R f.O.! 4 $ # ",
"X O * ; * * * * * : : : : s M.+X_.%X1.@X]._ w.u.n n N N N n p M c N t t t t J 4.6.C T [.:.;X_.T.*.~.-XO.T.I # # j =.L M.+.I O O ",
"* * , , , , , , , , , 2 2 2 M.$XR.}.).=X=X9.G N M v N N N M i M n n N N N J u.H H w ) *X*X).&X;X[ '.[.P.>.$.: : ;.z._ K X.$.: : ",
"> * * * * * * * * * * # # # W.$X X%X~.<.$X~ c N N c N N N M u n n n N N S e.J w.H w 9.}.1.OXT.%XT.S.@X/.>.t.d 1 V a , , R  .^ < ",
"2 , , , , , , , , , , < < < 9.-XT.%XU.<X*X& t t N v M N N M u v N p N N u.5.e.4.A w $._.x.P.%X%X$.0.P.1XI.T.O.: : : < 1 2 2 V y ",
"y , * * * # * * * : ; ; : : _ @X).=X]. X9.& n t t t t t t t p p n t t S y.3.k 3.t w [.}.[.P.;X}.T.~ K.-XI.I.@.Q y 2 < , : = : , ",
"2 , < 2 2 > > < < < , , , , $.=X<XoX%X%XT.& n n t t t t t n c i c M N k 3.3.F w.v w 9.T.'.I.}.K.%XV _ *XT.-Xj.^ Q y y y y y 2 , ",
"> > > : : ; % * * * * * * 7 O.%XXX-X&X}.T.& M z N M v N N v b p p N N N N S p.6.w.C [.9.].P.`.&X&X#._ _.) OX].M.^.7 * * * * * * ",
"> > > > > : : > > > s Y ,.n.L.`..X*X[.&X8.& N n c b v N N c M p c v N N N b z a.w.t.%X=X*X&X&X1X;X%X0.`.B.<.'.M.;.s ; > - * * * ",
"y y y < , 1 2 d K.$.j.Z.m.Z.C.#X+X=X:Xt.$.9.& & & q z N m c z l b n N v p e q a & 9.$.E.!.K.*X}.`.^ O.$XM.h.@X_.#.Y , , , 2 y y ",
"2 @ O $ * 7 ) X.v.A.C.Z.oX@XB.$X[.%X&XV E.$.! oX).& n N c p z z b n N v M & @.$.9.~ O.) Q.I.=.].~.] h.@XC.K.}._.O.O., , , 2 2 2 ",
", 1 2 2 2 Q...C.W.L.%X[.L.;X%X,X&XL.1XL.#.Q.W.[.T.& N N t t t t Z 7.t N N & R.T.R.[.t._. .M.M.C.H.A.S.'.M.Q.'.! ( * * * * $ % $ ",
"< < , , s @.XX=X;XL.T.$.}.%X].%X9.R.R.}.].P. X_.0.& t t t t t t Z 7.F t t & K.h O.$.%X%XI.Q.oXJ.Z.G.I.,XW.].S.W.E : : ; ; : > > ",
": : > > Y -.@XT.R.$.}.T.K.T.-X%XK.$.9.1X@X;Xo.R.Y & t t N S v i z M J F t & I _.}.L. X:./.'.k.L.;.oX=X_.=XW...;.B 2 < 1 < < > > ",
"; ; ; * T -.W.U.K.~ =XL.O.*X%X! L.}.T.-X}. X_.T.T.8.e.u.s.p.p b z M N J 5.& O.9._.}.%XJ.1XP.}.T.).oXOXL._.9.T %.* * * * : : : > ",
"# * # # V.&.W.OX>.O.*XT ;.].[.K.:.}.&X%Xr.U.T [._._ u.u.F F t t t t t N p.C T r.L.%Xj =.OX:.j :X].Z.Z.K.%XI #.j j ; ; = ; ; * ; ",
"        5 l.P.oX#.}.J.j.} &X_.>.[.;XI.[.%XL.J.).=XK.k t 5.J z v p M N t t C L.0.:.:.X.j.K.1.[.j Q..X'.'.%X+.B L {     5 d.8 o o ",
"; $ # # # P.n.W.*X%XL.;.X._.%X`.[.;X~.T.O.;XO.%X&X& u.e.s.A v v p v N N N & 5 `.*XK.[.@X_.1X&X`.k.^.%XoX%X}.O.R 5 $ $ Y { 9 @ O ",
"* ; ; = = T j.W.[.}.T.+.,.[.;X[.#.%X@X`.L.:X9.}.%X_ u.S N n n v z n N N N & ) [.}.*X:.X.J.;XT.}.@X$X*X~.%X9.0.k.I : : : ~ f.V = ",
"2 2 2 2 2 s <.,.@X*XT._.I. X[.&X9.-X;X[.&X>X}.=X%Xa N N N t t t t t t N N & Y O.t._.O.T.^.%X`.9. .=XOX .'.9.=X9.9.d 1 1 V ,.X.a ",
"* : : : : # J.=.-X[.[.T.I.=XL.}.L.@XL.L.}.2X1XR.0.& t t t q q N t t t t t & T.$._.;X*X*XX.-Xt.O.P./.XX1.S.W.1.T.}.0., : > 6 h.:.",
"1 h 8.> > , d m.#X,XT.}.=X). X_.;X[.E.R.1X;X9.L.$.& N N & |.|.& c v M N N & _.R.%X X;XI.S.+X#XH.A.=XB.^.^./.S.0.&XO.#.> > > Q a ",
"2 V k.P 2 2 1 ! -..X-X:X*XP.9._.[.-X;X1X}.:.R.T.0.& N & t |.|.& c n n N N & T.T.[.[.].1.O.}.;Xj.B.P.OXS.S.h.j.[.T.0._ K.< 1 < 2 ",
": ^ K.{ = = = = 9.Q.B.,X1X;XO.L.L.;X-X%X/ }.).[.& N N & t t 0 t t t t N N N & k.OX0.>.R.K.[.%XC.1._.@.V M.D.S.U.&X~ T.$., , , , ",
"> a @.} s y 2 2 Y `.^ =X#X].O.L.R._.1XI.L.=XK._.& N N & N b q t t t t t t t & ].0.`.[.@XC.XX<X.X#XB.k.<.1.).S.1XP.@.Y 9.d , , , ",
"1 > ^ %.K ; : > , T.9.;X;XoXM.L.R.&X1X@XU.E.T.T.& N t t & M v & p t t t t t & t.`.U.v.$X$X@X$XS.@XA.G.v.].K.).$XB.T._ `.9., , < ",
"* * g k.d.1 < < > _ ;XI.OX#.U.0. X;X XK.r.R.T.O.& t t N n q t w M v v N N N & _.(.XX!.).).OX%X/.t.j./.H.A./.-X^.C.-.n./.V > , 1 ",
"* * * :.4 # # # # +.L.-.%Xt.t.T.&Xr.@XZ.$XA..X0.& N 5.S n q t t & b z N N S C W.XX].[.K.;X;X*X~.'.K.`.s P.$X+X~ ;.C. .).s , > : ",
"1 1 2 2 2 2 2 2 2 t.O.n.*XM.).}.-X.X+X$XoXS.H.H.C {.5.S t t w t & Z Z 3.{.e.~ /.M.OX' m.T.R.[.$X/ 9.K.0.@X=X^.m. .Y L.~ > > < < ",
"* * * * : : : : : #.1.<.@XO.=X^.#X^.OX1XW.M..X^.8.J t t t z & c N f 3.2.q.F a Z.@X1.U L.t.*X+X=X0.) '.1Xt.%X=.Z. .Y 9.s > > : : ",
"; : < > ; ; ; ; ; %XW. .[.>.#XH.oXI.[.=X) 9.%X~.C t t N n n & n n & a.i.i.u.8.%X;X*X%X*X].,X[.&X=X].;XL.;.W.I 7 g.;.L.% ; ; ; : ",
"* * # # % % # # # M.M.P ].XX#X@X_.:.J.&XO.( t.r.& N N N z M & t t & c p.5.J C $.) K.).<.h.T.1XT.1.=X X,.].I ( ( B 7 # @ o o o * ",
"                  +.Q.{ XXXX*.@X).U.L.[.T. .:.K.& N N M z & t N & N m N N N & :.k.W.;Xm.R.1X1X'.*X0.W.j.+. .5                   ",
"* : : : = = = : = #.K.D.$X-XO.J.%X).[.&X#XI.L.9.O.& N N N |.|.{.|.|.N N N N & v.-.;.M.K.r.).W.[.U.@XQ.L.+.@ @ O # # # + O @ O # ",
"= ; ; * T v.6 < d K./.-Xv.$XK.#.].%XM.-X1X1.(.(.n.& N N |.|.{.c.{.|.|.N N & m.J.~.B.j.m./.n.R.O.%.j.[.[.* * * * * * * = = * * $ ",
"- - * # E h.3 # # * ) I.^.W.&XO.Q.=X9.%X9.K.T.U.M.S.& & |.|.{.c.|.|.|.& & j.n.j.C._ #._.:.L.) E Q.! ) * * * * * * $ # # * * * : ",
"; : > > ) m.g $ % $ O ,././.'.+.L.L.T.`.[.O._.~ ~.<.V.M.& & & & & & & =.h.O.7 K.O.t.T.0.}.) %.V.) ) = : : : : 4 9 7 > > > : : ; ",
"* $ $ * &.*.> : : > > P A.%X#X[.T.) [.;X;X:.1.=X[.R.[.oXZ.H.M.+.+.+.Z.&.U I _.@.O.t.T.O.O.,.] #.#.# # * : > > ~ %.L : : = : : > ",
", , > 4 ..&.# $ # # # 5 C.! 0.$X[.( ;X_._.OX-.L.&X#.&X_.1X.XoXW.M.,.g.9._.}.>.#.L.R./ k.k.j ! t.: ; * * % @ # I W.K * : : : : : ",
"* * > ^ *...* * ; ; * ; v.O.d }.<X-.&.J.=X[.%X$.9.I s I #.oXP.). X_.T O.0.L.#.`._.V M.] I 0._.* ; ; > > , < : _ l.U ; * ; : : : ",
"y 2 h 8.} m.1 , > > > > E E ) V 1X%X/.*X=XL.9.Y > > > > , Y n.j.M.P.1X=X%XT.&XP...S.0.t.t.T.* ; > > = = * * 6 ( g.~ * ; ; ; * = ",
"> > a ~ } U > ; * ; * % * * * L.K.>X`.[._.I = ; ; ; ; : ; ; = I b.] ]  . .V.).n.[.}.O.Y , , > : > , , , < < V 8.N.( a , > > , , ",
"; * B B B.5 * * * * ; - : : : > s Y Y O.s * ; ; * ; * * * * : : : Y Y Y Y _ _ K.W d 2 2 * : : , < 2 2 2 1 1 < a ~ g.O.$ @ # # # ",
"* # ~ ) f.8 # O # @ # @ O @ O o o o o # # $ % * V O.I g : : ; * ; : = ; = ; : > > > : > > > > > : : : ; ; ; : > 6 0.B.a < , : : ",
"> > ; ^ ..3 ; = = = = ; : : : : : : : : : : : ..| { ..-.E : > > > > > < < , < > > > : : = = ; : : : : > > > > > < , a ` < < 1 1 ",
"* * = : > > > < < 2 2 2 2 2 2 2 2 2 2 2 < < ( k.` j.&.h.E : * % % % # O @ # # # # # # # # # @ # # # # # # # @ @ @ $ $ * * - ; : ",
"* * * * * $ $ * * * * * * * * * * * * * * 6 O.Y O.Y } U * * * ; : : : > > : : : : : : ; = ; ; ; ; ; : : : : * * * * * * * * * ; ",
"# o O O O o o o o o o X o o o o X o o o X X t.+.E d.P o O # O # O O O O O O o O O o O O @ o o o o o O o O # % $ # $ # : : ; ; * ",
"                                            I O.d.`                                                                             "
};
