/* XPM */
static char *_a5a890754d9460cee9c4f97051d505d6IzSGEyZzjbVAjSb[] = {
/* columns rows colors chars-per-pixel */
"64 64 221 2 ",
"   c #4A2C0F",
".  c #4D2E11",
"X  c #4F3114",
"o  c #523316",
"O  c #553619",
"+  c #57381A",
"@  c #5B3B1D",
"#  c #6F3F05",
"$  c #5F3E20",
"%  c #603F21",
"&  c #7C4600",
"*  c #7A4A19",
"=  c #4F473E",
"-  c #52463C",
";  c #654324",
":  c #6B4827",
">  c #6A4728",
",  c #6D4A2A",
"<  c #724E2D",
"1  c #784F28",
"2  c #75512F",
"3  c #7B522A",
"4  c #775230",
"5  c #7A5532",
"6  c #7F5935",
"7  c #5B5C5F",
"8  c #645D5C",
"9  c #7E604C",
"0  c #6F625A",
"q  c #75655B",
"w  c #7D6A5E",
"e  c #766963",
"r  c #7B6B61",
"t  c #65727E",
"y  c #844A00",
"u  c #955609",
"i  c #BC6600",
"p  c #BF6900",
"a  c #BC7513",
"s  c #885523",
"d  c #815A36",
"f  c #CA7C0A",
"g  c #D37C00",
"h  c #826C5E",
"j  c #8B715F",
"k  c #897364",
"l  c #83756E",
"z  c #7EF05B",
"x  c #DC8400",
"c  c #D88307",
"v  c #D68718",
"b  c #D78918",
"n  c #E38B00",
"m  c #E88F00",
"M  c #E28E0C",
"N  c #EC9300",
"B  c #ED980F",
"V  c #F19600",
"C  c #F39A02",
"Z  c #FA9E00",
"A  c #E3941C",
"S  c #F19F1A",
"D  c #FFA200",
"F  c #FFA90F",
"G  c #F7A416",
"H  c #FFA914",
"J  c #DC9632",
"K  c #E49621",
"L  c #E69821",
"P  c #E99B24",
"I  c #E39D3D",
"U  c #F1A427",
"Y  c #F8AB2B",
"T  c #FFB22E",
"R  c #93847A",
"E  c #C68257",
"W  c #E9A543",
"Q  c #EDAA47",
"!  c #FAAA56",
"~  c #FABA52",
"^  c #C79176",
"/  c #E8B064",
"(  c #F1BD6F",
")  c #F7C573",
"_  c #FFD07F",
"`  c #7C848B",
"'  c #7D8D9B",
"]  c #7697AC",
"[  c #7995A9",
"{  c #75A1BC",
"}  c #81868B",
"|  c #84898C",
" . c #8B8C8E",
".. c #988C86",
"X. c #9C928C",
"o. c #88949D",
"O. c #99999A",
"+. c #A49389",
"@. c #A3958C",
"#. c #A49C98",
"$. c #ADA29C",
"%. c #B4A79C",
"&. c #919DA6",
"*. c #8EA1AB",
"=. c #96A3AC",
"-. c #81A3BB",
";. c #95A8B4",
":. c #9DAAB4",
">. c #9CAEBB",
",. c #9BB1BD",
"<. c #A8A5A5",
"1. c #ACAAAA",
"2. c #B5ABA5",
"3. c #B4ADAA",
"4. c #BBB1AC",
"5. c #A3ACB4",
"6. c #ABAEB1",
"7. c #AAB4BB",
"8. c #B3B3B4",
"9. c #BCB6B2",
"0. c #B9B9BA",
"q. c #BBBBBC",
"w. c #D2A792",
"e. c #EBB68F",
"r. c #F1B788",
"t. c #FFBE88",
"y. c #C2BAB5",
"u. c #C4BEBB",
"i. c #DDBFB0",
"p. c #FFD386",
"a. c #FAC49A",
"s. c #C7C1BC",
"d. c #D6C5B5",
"f. c #F8C9A7",
"g. c #F3CAAD",
"h. c #E3C7B6",
"j. c #FCD4B7",
"k. c #88B1CA",
"l. c #97B3C6",
"z. c #99BCD2",
"x. c #A7BAC7",
"c. c #B4BDC4",
"v. c #B6BEC5",
"b. c #FF9CD4",
"n. c #98C3DD",
"m. c #BDC1C4",
"M. c #B8C3CB",
"N. c #A6C2D3",
"B. c #A8C6D9",
"V. c #B5C9D4",
"C. c #BCC9D3",
"Z. c #B7CBDA",
"A. c #8BC6E7",
"S. c #99CAE7",
"D. c #A6CCE4",
"F. c #B3D7EE",
"G. c #B8D6EA",
"H. c #AAD9F5",
"J. c #BFE2F8",
"K. c #CBC6C3",
"L. c #C8C7C8",
"P. c #CDCBCA",
"I. c #D7CCC4",
"U. c #D2CDCB",
"Y. c #D4D1CF",
"T. c #C5CED4",
"R. c #CAD2D7",
"E. c #CED6DC",
"W. c #D5D3D2",
"Q. c #DAD6D4",
"!. c #DCD9D7",
"~. c #D4D9DC",
"^. c #DCDBDA",
"/. c #EAD3C7",
"(. c #F8DBC5",
"). c #E6DBD1",
"_. c #E1DEDC",
"`. c #F6E4C5",
"'. c #FAE3C0",
"]. c #FAE6CD",
"[. c #E3E3DD",
"{. c #ECE5D9",
"}. c #FAEBD9",
"|. c #C7DAE7",
" X c #D2DDE5",
".X c #DADEE1",
"XX c #D3DFE9",
"oX c #C1DEF1",
"OX c #CCE1EF",
"+X c #D7E0E5",
"@X c #DDE2E4",
"#X c #D4E3EB",
"$X c #DBE4EB",
"%X c #CBE3F2",
"&X c #C9E6F9",
"*X c #D1E6F4",
"=X c #DCEAF3",
"-X c #D8EAF6",
";X c #E4E3E2",
":X c #E9E6E5",
">X c #E5E8E6",
",X c #EAE8E6",
"<X c #E2E6E9",
"1X c #E5EAEC",
"2X c #EDEBEB",
"3X c #F7ECE3",
"4X c #F0EFEE",
"5X c #EBF0EE",
"6X c #FCF2E3",
"7X c #F4F1EE",
"8X c #FDF5EC",
"9X c #FDF8EF",
"0X c #E3EDF3",
"qX c #EBEEF1",
"wX c #EBF1F4",
"eX c #E6F2FA",
"rX c #F4F3F3",
"tX c #F9F7F5",
"yX c #FDFAF5",
"uX c #F6F8F9",
"iX c #FBFBFB",
/* pixels */
"; , 2 2 2 2 2 6 6 6 6 d d d d d d d d d d 2 5 2 5 , 2 2 4 4 4 4 4 4 4 4 4 4 4 4 4 4 4 4 4 < < < < < < 2 2 2 2 < < < 2 2 4 4 2 2 ",
"> > , : : , , > > > > ; ; > : : : : , , , , , , , < , < < 4 4 4 4 4 4 4 , , 2 2 2 < < < < 4 4 4 4 , 2 < < < < < 2 2 2 2 < < 4 4 ",
"4 < < < , , < < < , , , , : : , , , , , > ; ; > > ; ; 6 , @ ; > , ; > > ; ; < < < 4 4 4 4 4 5 5 4 , ; > , , 4 4 2 2 2 6 6 d d d ",
"4 d d 6 5 6 6 5 & & & 4 4 < < < , : > ; ; : : : , & & & & 2 2 < < 4 4 4 5 5 5 5 5 6 6 6 6 2 4 4 6 6 6 4 2 < > , < < 4 < < , , < ",
"O o o @ @ ; ; & D g Z & , < , < , 4 5 6 6 6 6 6 & Z x D s * d d d 4 < , < 5 2 2 2 < < , < ; % ; ; > < < , > > > , , , : , < d 6 ",
"% @ ; $ $ % & p p p n D & , , < 2 2 < < < < < & D n g n p p & 2 4 4 4 < < , , d d d d d 6 < : < , , $ $ ; > , < < < < < < , d d ",
"> , > , , , & p p p U m D & ; ; O @ ; ; ; ; & p p ) n g p p & > > > > : : : > < < < < < < , < 2 < < 2 < , , > > , < < < , , , , ",
"6 6 5 4 2 < & V ) p.D Z p D & > > ; ; ; ; & p n _ ( B f V p & < < < < < 2 4 4 4 4 4 4 4 4 4 5 5 5 5 5 5 5 5 5 4 4 < < < < < < < ",
"6 6 < 4 4 5 & n p.p._ ) V p & 3 4 6 6 5 & V m _ _ ( B v p p & < < 2 2 , , < < < < < < < 4 4 < < , , , , : > , < < 4 4 < < , : , ",
"2 , d 6 < & V V p.p._ _ _ p V & 1 4 4 & V V _ _ _ ( B p p Z & > ; > ; ; 6 6 2 < < < > > @ @ ; ; ; ; @ @ % % 2 2 2 , > , , 2 2 < ",
": , ; > < y p D p.p._ _ p.p p V & * * n V _ _ _ _ ( v p m Z & 2 4 2 2 2 2 < 2 < < < 2 2 4 4 4 4 6 6 ; ; ; ; , , , < 2 : ; 6 6 5 ",
"; ; ; > & p p p p.p._ p._ _ D V N V p p _ _ _ _ p./ p M V V & , < 2 4 4 4 6 6 5 2 2 4 4 5 5 5 < 4 4 2 & & 2 2 < < < , , > > > > ",
"> > > & D n p p p.p._ _ _ _ _ D x N p p ~ _ _ _ _ I Z g V V & 6 6 6 6 6 6 6 6 4 < < < < < < < < < 2 & iXiX& 2 4 2 4 4 4 5 5 5 4 ",
"< ; ; & L L ~ Q p p Q Q p p Q Q p p Q Q W I J ~ D m p p p p & ; ; > > > , , , , , , , < < < < < < < & iXiXiX& 2 2 < < < < < 2 4 ",
"O o @ & p U Q I p p Q Q p p Q Q p p J J J I W ~ D g p p p p & @ @ ; ; ; ; > ; ; ; ; ; ; ; ; ; ; ; ; & iXp p & @ @ @ @ @ @ @ + + ",
". . X & U p U U T T p p U U b v p p U P P v T S p p D m Z n &   o ..O O o o o o o o o o o o o o o o o & p p & + + q K.q @ @ @ @ ",
". O ; & U U K T U U p p U U U P p p U Y Y L G B p p D C V m & O ..3.W.=.q @ @ @ @ @ @ @ @ @ @ @ @ @ @ & p D D & + ..c.` O O O O ",
"; ; 2 & p p p T p p Y T p p T T T T p p T P G H H M D V V V & q.O.W.8.c.2.W.; ; ; ; ; ; ; ; ; > > > ..9.& p x & , 3.>..., , , , ",
"< ; ; & p L U T p p T T p p T T T T p p T U G H D M D V V V & O.1._...U.u.U.; ; ; ; > , , , , , R 7.;.< & p p & j x.O.+.< < < 4 ",
"6 2 2 & p p p p T T T T p p T T T T p p T U G F H M p p p p & U.u.Q.s.#.$.:X6 5 5 4 4 2 2 < < < Q.l.O., & x p & >.;.j 2.6 6 6 d ",
"d 2 ; & U b p p T T T T p p T T T T p p T P c H H M p p p p & 9.c.K.K.x.} Y.h , , , , 2 4 4 4 4 P.l.+.4 & n V & W.9 4 2 , > , 2 ",
"6 2 4 & P A z z T T T T T T T T T T z z T U p p p p D Z x m & U.T.#.4.K.u.;Xj , ; , < 2 2 4 4 4 #.B.j 6 & p C & d d d d d d 6 2 ",
"< < < & L L z z T T T T T T T T T T z z T U p p p p V n Z m & U.;Xu.s.y.U.4 2 < , 6 4 2 5 < , , , Y.h & p p & ; ; ; ; ; ; ; ; ; ",
"< < < & L L z z T T '.'.T T T T T T z z T P G H Z x V D D n & & & & & & & & & & & & & & & & & & & & & n V p & 2 < , > < : ; ; ; ",
"d d d & T T z z T T '.'.T T T T T T z z T P G H D V D D D n & m N V f p V V p p p n n x p p p x x p p n x & , > , , 2 2 2 6 d d ",
"6 = = = = = A T '.'.b.b.b.b.T T T T T T T A = = = = = = Z m & g x x f p g g p i p x x n p p p p n x p p u < < 2 2 2 2 2 2 6 6 6 ",
"2 - = = = = A T '.'.b.b.b.b.T T T T T T Y P = = = = = = V V & N n n p p V V p i p V V V p p p p n g N p & @ @ ; ; ; ; ; ; $ $ $ ",
"4 4 2 & u a A T '.'.T T T T '.'.'.'.'.'.U U H H D D D D V V y g n g p p D D p i p D D x Z p p p V g Z & < < < < , , , > > , < < ",
", , < & u a P Y '.'.T T T T '.'.'.'.'.'.U U H H D D D D V V & n V N p p ].D w.E ^ p D N x V p p n x D & < < < < < 6 k 5 4 4 < < ",
"> = = = = = P Y '.'.'.'.'.'.'.'.'.'.'.'.T T = = = = = = V V & x m D ^ ).j.}.j./.Z.G.:XD Z x p p x n & , , , > w w 9.K.; , , , < ",
"@ = = = = = P Y '.'.'.'.'.'.'.'.'.'.'.'.T T = = = = = = x Z & x C D ).w.P.=X$X_.Z.,Xf.D D Z p p g N & ; ; ; : C.C.O.3.q : : ; : ",
"          # N N '.'.'.'.'.'.'.'.'.'.'.'.D D D D D D D D x & V x Z D D D t.j.a.,X&Xw.D D D D Z m n x y         =.;.S.0 W.0   o o ",
"> $ @ @ l 3.y y & & & & & & & & & & & & & & & & & & & & & Z x C D D D D D D t.(./.h.D D D D D C g m & o $ @ @ $ $ ' oX<.@ @ + O ",
"; > 9.Y.:.$.$., , , , & f K '.'.'.'.'.D D D D D r.Y.i.r.r.r.! D D D D D D D ! j.D D D D D D D D N x & > , , , , , , k.L., , > > ",
"6 6 W.c.7.D.c.@.2 2 2 & J '.'.'.'.'.'.'.D ! r.h.].j.a.(.f.f.g.h.h.I.h.D D D D D D D h.r.r.r.e.F.U.I.x.=.N. ., < 5 5 5 5 4 4 5 5 ",
"; $.oXR.2.e [ ; ; ; , & '.'.'.'.'.'.'.'.#Xh.g.yX6XyX8XuX7XeXyX}.].].@X`.'.'.'.'.`.[.h.r.i.E. XrX,X>XT.D.B.7.x.| 2 2 2 , < , > > ",
"5 K.1.< < 2 5 4 2 2 < & '.'.'.'.'.'.'.[.{.8Xj.}.J.%X*X.X=X%X&XeXrXiX}.[.'.`.`.{.;X`.[.W.>X(.j.f.}.a.y.0.C.L.|.L.c. .r < < , 4 < ",
"6 6 6 6 6 r 5 5 4 5 2 & '.'.'.'.'.'.`.[.}.6XrX=XyX8XiX8XiXyX6X1X-XJ.uXuX,X'.#X{.].3X1X3X}.6X8X(.3X3X,XY.;X@.x.B.M.L.N.< 4 5 4 6 ",
", , > >  .B.E.C.C.C.x.5.|.(.'.'.'.'.[.`.8XyX%X8X}.}.yX6X}.6X6X6X8X{.=XwXiXrX7X5X}.6X}.6X7X%X;X_.3XrXiX7XrX;X@XO.N.A.P.O.2 2 4 2 ",
"< 4 4  .q.4X XW.W.Y.Q.rX{.].{.@X).).).].iX*X}.].6X].0X1X1XeX7X1X9X-X[.-X&X8X7X6X6X6X6X8X%X0X1X1X+X=XG.%X%X0XOX<.1.x.M.^.h 4 2 2 ",
"5 < M.rX_.7.l.l.N.G.&XH.-X;X7XrXs.q.#X;X|.I.{.{.7XrX&X~.P.E.*XG.+X%.T.G.V.D.wX{.d.d.>XoXI./.iX}.tXtXY.^.u.M.B.:X:X:XZ.M.N.2 4 4 ",
"; R .XQ.K.z.%.;X7XrXrXrX@XqX0X*X$XrX^.:XwXQ.U.:Xm.%XrXrXiXiXrX9.=X|.8.P.<XwXeX=Xu.P.S.<.U._.!._._.2X7XrX^.rXQ.tXtX[.9.x.x.< 4 5 ",
"; r ^.:X5.M._.4X;XrXrX_.rXiX,X;X X XwX,XY.M.q.E.%X,X;X,X2X[.rXrX#XR.#X4X_.9.$.Z.G.q.B.;XrXrXrX:X:XrX^.U._.;X:XrX2XrX9.G.z.0 < , ",
"6 r 1.^.*X4XU.2X:X2XY.J.+XtXrXrX,X^.F.;X;X:XW.D.*.>.*.*.O.c.c.:X2X;XE.*X~.P.L.Y.wXH.|.,X2XrXs.2XiX:X2X2X4X:XrXU.!.iXiX$Xk.o.4 4 ",
"; e 8.OXiXrXrX,X>X7.=XrX<XeXc.9.Q.9.,XU.rXQ.rXrX;X!.U.Q.^.^._.;X3.X.2Xm.qX;X:X,X7XqXwXrXiX2XY.3.2X:X^.2XiXrX@X:XQ.rXiXiX1Xn., , ",
"> q >.G.2XrXrX-XeXE.3.;X2X2XwX-XwXs.s.W.!.,XW.iXtXiXrX;X^.!.P.W.^.iX,X2X,X!.K.y.@XS._.rXiXrX:X2XiX;X:X^.,XiX;XqX;XtXiX<X[ =.> , ",
"; 8 =.G.4X:XrXR.$XiX:Xu.4X_.;X2XqX-X@X^.;X2XrX!.^.2XrXiXQ.Q.Y.W.Q.rXW.2XU.<X:X_.K.-X_.2XiX2X_.:XrXrXrX:XiX,X,X.X@X;X:XE.] &.o ; ",
"  7 &.=X0X2XrX|.C.P.rX:XU.iXQ.rXrX:X>.|.iXtX2XiXrXrXrXrX2XrXrX^.^.2X1XP.<X%X<XQ.,X=X2X2XiXrX2X^.iXiX^.rX^.#.>X;X^.2Xm.#X] `     ",
"; , ` $X|.rX2Xm.H.u.P.iXrX2X^.iXrX2XY.rX-XQ.rXP.^.^.^.tX^.,X.Xs.2X;X^.^.-X1X_.^.2X0X<X:X!.rX4X3.:X2XiX;X2X3.L.iXuXrXT.0Xx.;.O @ ",
"> : } ^.B.iXrX3.C. Xu.y.@XrX^.rXiX;XU.9.#XC.3.Q.7XiX2XU.W.P.^.Q.;XrX4X1XXX[.$.4.@. XM.U.^.y.7XY.:XU.rX2X:X2X_.U.2X8.@X=XR.e ; $ ",
": : ; x.8.B.rX:X9.C.#X^.|.XX4XiXiXiXrXrXeX=XiXtX;X XqXQ.2X^.:X;XrXK.;XoX9.K.K.3.W.C.+XiX2X_.;XiX4X2X_.rXiX;XP.2X_.~.N.n.` ; ; , ",
"> , <  .1.B.q.,X_.,XT.$X^.|.*X0X:X,XqX$X%XH.^.[.;X#XG.R.rXY.1X2X[.,X=X=XrXrX<X<X$X-X=X^.^.,X.X;XrX^.iXiX2XP.L.2Xm.B.:.x.< , , : ",
"; $ $ | | |.|.%._.Q.;XT.^.2X;X+X&X|.|.$X<X;X_.!.4X_.9.c.H.Z.D.B.G.F.H..XwX2X2X^.W.L.;X8.Q.4X^.;XrXtX,XQ._.rX_.<XJ.1.l.F.> , , < ",
"2 2 < $ | 5.H.G.5.2XQ.iXJ.:X_.K.|.1.$.s.9...$.O.x.^.^.3.1.q.Q.^.8.rXL.q.1.N.;.6.T.qX;X^.Y.qX4XL.c.=X<X<X~.>.N.F.<.` ` , , , , , ",
"; ; < , , > e o.Z.F.M.V.m.F.y.s.s.^.#.| ` ,.=. .O.*.:.:XK.;X2XK.u.y.<.| ,.e @ e e @X.X~.!.:XW.0X&XXXH.l.l.;.B.7.>.| : ; > , , , ",
"d 6 6 6 5 5 5 2 < z.x.#XB.n.A.=.;.:.*.| | 2 < < < < r  .,.:.O. . .l c. .< < < , , > ; r 5.m.E.:X_.0X^.^.~.@XZ.x.> > ; > > > ; > ",
"< @.< < < < < > ; > ; $ ; ; ; e ;.e ; ; > > > > : : : , : ;.} } } l.e ; > > > , , > , < 2 q ;.x.6.+XZ.V.7. Xw < < < 4 @.@.< 2 2 ",
"] L.Q.X.w ; ; ; ; ; ; : , , , < < < < , , > k Y.k > ; ; ; ; , , , , < < < 2 2 2 4 4 6 6 ; , , 2  .;.e 6 5 5 4 < < > k.T.y.@ @ @ ",
"; [ 0._.Q.Y.c.N.%.+ @ + O + O o o o o @ k $.P.D.T.@.h , , , > ; ; , > : > > k.l.o.8 , < < < < < , , , > > > , < , -.x.y.K.2 , , ",
"< < 5.D.x.z.D.%XU.> > : , , , , , , , ;X#XZ.l.>.:.z. X4., , < < < < < 4 Y.K.4.O.x.n., , > > > , , , , < < < < R ;.H.T.K.@.@.5 5 ",
"; ; > x.<.K.3.q 4 6 6 6 6 6 6 6 6 6 6 { &.8 4 4 < [ t % ; , ; % % % @ O X.$.4.@.4.7.5.@ @ @ + @ @ @ @ @ @ ;X;XG.%X>.:.$.; : > , ",
"; ; ; h ^.$.$ ; ; ; ; ; ; ; ; ; ; ; ; ; ; ; ; ; ; > ; > ; ; ; , , , , < < , h X.3.$.S.&.> > : > : : , , , , ; ; ; ; ; ; ; ; ; : ",
"@ o O O O o o o o o o X o o o o X o o o X X X X O o O o O @ O @ O O O O O O o O q K.=.7 + o o o o o O o O @ % $ @ $ @ , , > > ; ",
"                                                                                    8.                                          "
};
