/* XPM */
static char *dbb49bb0b5924d19c9ec90e307d42d3cG2Nj12pKXzDVAI01[] = {
/* columns rows colors chars-per-pixel */
"32 32 124 2 ",
"   c #4A2B0E",
".  c #4F2F13",
"X  c #4E3116",
"o  c #513216",
"O  c #553519",
"+  c #56381C",
"@  c #5A3A1E",
"#  c #5F3E21",
"$  c #603F20",
"%  c #7C4600",
"&  c #7D470C",
"*  c #5F4023",
"=  c #4F473E",
"-  c #644223",
";  c #694626",
":  c #694728",
">  c #6E492A",
",  c #714D2C",
"<  c #74502E",
"1  c #78502C",
"2  c #775130",
"3  c #7B5532",
"4  c #7F5935",
"5  c #972A11",
"6  c #992E15",
"7  c #AA3D00",
"8  c #BE3700",
"9  c #C01E08",
"0  c #E90F03",
"q  c #FD0301",
"w  c #F20D03",
"e  c #FB0B02",
"r  c #E61003",
"t  c #EB1F00",
"y  c #EB1E0E",
"u  c #F41401",
"i  c #FA1107",
"p  c #F01900",
"a  c #FF1D00",
"s  c #F21609",
"d  c #F91509",
"f  c #F31D0E",
"g  c #FF1510",
"h  c #FF1D17",
"j  c #D32E00",
"k  c #D4220F",
"l  c #C33400",
"z  c #D4371F",
"x  c #DB351D",
"c  c #DA381F",
"v  c #E32502",
"b  c #FC2400",
"n  c #F52D00",
"m  c #FF2D00",
"M  c #F33100",
"N  c #FF3E00",
"B  c #EC2513",
"V  c #EB2916",
"C  c #E62E19",
"Z  c #E82D18",
"A  c #F12212",
"S  c #FF241D",
"D  c #C33F24",
"F  c #D23D23",
"G  c #DA3820",
"H  c #FF2B23",
"J  c #FE3127",
"K  c #FF352B",
"L  c #FF382E",
"P  c #BF6900",
"I  c #815A36",
"U  c #935633",
"Y  c #A54426",
"T  c #AB4D2D",
"R  c #B34528",
"E  c #CD5F00",
"W  c #FF4300",
"Q  c #FF4B00",
"!  c #FF5B00",
"~  c #C66400",
"^  c #FF6800",
"/  c #FF7600",
"(  c #FF7D00",
")  c #CB4126",
"_  c #C44528",
"`  c #FF463A",
"'  c #FE493C",
"]  c #FE4F42",
"[  c #FE5446",
"{  c #FD6756",
"}  c #FE6B59",
"|  c #FD7561",
" . c #7EF05B",
".. c #FF8D00",
"X. c #FF840E",
"o. c #FF9400",
"O. c #FF9B00",
"+. c #FFA200",
"@. c #FFA914",
"#. c #FFAC1C",
"$. c #FCAE29",
"%. c #FFB22E",
"&. c #FCAF32",
"*. c #FABA52",
"=. c #FE826D",
"-. c #FD947D",
";. c #FFD07F",
":. c #D4B999",
">. c #E4A98C",
",. c #FDA087",
"<. c #FCA88E",
"1. c #EEB496",
"2. c #FCB095",
"3. c #FCBFA1",
"4. c #DFC5A4",
"5. c #E7CEAC",
"6. c #FBC5A6",
"7. c #FBCCAC",
"8. c #E8D0AE",
"9. c #ECD3B2",
"0. c #F1D9B7",
"q. c #FAD9B7",
"w. c #FF9CD4",
"e. c #FAE3C0",
/* pixels */
"I I I I I I I I 3 3 < I I I U U U I I I I I I I I I I I I I I 4 ",
"I I 4 4 I I I I 3 , 3 I I I _ V Z F I I I I I I I I I I I I I I ",
"I I 3 , I I I I I I I I I I ) i q C 2 I I I I I I I > - I I I 4 ",
"I I , < % % I I I I I I % % 8 d e f , I I I I I I I I 4 I I I 4 ",
"I I I % P #.% I I I I % #.#.~ u q A 2 I I I I I I I I I I I I 4 ",
"I I I % #.;.#.% I I % #.;.@.+.u q f I I I I I I I I I I I I I 3 ",
"I I I % #.;.;.#.% % #.;.;.@.+.u q f < < < < < < , < < 2 , 4 I 4 ",
": @ % % #.;.;.;.#.P ;.;.;.@.+.u q s : : : : : : + : : - # O + X ",
"4 % $.*.P *.P *.P *.*.*.+.P P u q f I I I I I I I I I I I 3 3 I ",
"I % &.%.%.P %.%.P %.%.@.P +.+.u q f I I I I I I I I I I I I I I ",
"I % %.&.P %.P %.%.P %.@.+.+.O.u q A I I I I I I I I I I 2 - 3 I ",
"I % %.P %.%.P %.%.P %.@.+.P E u e B I I I I I I I I I I 2 - 4 I ",
"I % &. .%.%.%.%.%. .%.P P +...u e V I I I I I I I I I I I I I I ",
"I % &. .%.e.%.%.%. .%.@.+.+...u q t % % % % % % % % % % % % % I ",
"= = = %.e.w.w.%.%.%.%.= = = ..u a M +.P P +.P P +.P +.P +.P e.% ",
"O % P %.e.%.%.e.e.e.%.@.+.+.o.u a n O.P P +.+.P +.% % % % % % * ",
"= = = @.e.e.7.2.2.6.@.= = = O.p a b O.+.P +.+.P +.% I I I I < I ",
"I I % % % % 8 p u j % % % % % W e N O.+.P +.+.+.+.% I I I I I I ",
"I I I 4 4 % X.[ L { X.@.+.+.+.W e N O.+.+.+.+.+.+.7 ) ) T I I I ",
"I I I , , % 7.-.K H | @.+.+.e.} H [ 7.e.e.+.+.+.+.v d d _ > I 4 ",
"I I I , , % e.3.' h [ 6.e.e.e.| H [ 6.e.e.e.e...^ u q d D 4 I 4 ",
"I I I I I % @.q.| J L =.e.e.5.{ H ' 1.5.4.0.6.-.m q f C T 4 I I ",
"2 3 4 4 4 % @.e.7 u q } e.% % t q u 7 % % % j [ b u c I I I I 4 ",
"+ O O O O % @.e.% 0 e ] ( %   r q u ..e.7 9 t K Q l 6 O O O O . ",
"4 I I I I % +.e.% z e H ! % 3 B e u ..q.t e e | / % , , , , , I ",
"4 I I I I % +.e.% _ e S W % I V e u ..,.e q e <.q.% I I I I I I ",
"I I I I I % e.e.% T u g ` l I C e u | { q e p >.e.% I I I I I I ",
"4 I I 4 I % 9.e.% I t S S j I x i q K h u c 7 8.:.% 4 I I I I I ",
"4 I I : , % % % % I j e e t Y _ e q q e v I % & % & 3 I I I I I ",
"I I I > : I I I 1 2 T x d s x V e q e G T I I I I I I I 4 I I I ",
"I 4 4 4 4 < < > < < , Y y q s i q q B R 3 3 3 3 2 , > : > > 2 2 ",
"O # # o o o o O O O + + k q q q q w 5 o o + + + . + + : : ; # $ "
};
