/* XPM */
static char *_3ebef8c7ef045fbcaac3045eda369a16yaoOMjgyGGBxHyx[] = {
/* columns rows colors chars-per-pixel */
"32 32 156 2 ",
"   c #4F2F13",
".  c #4F3116",
"X  c #513216",
"o  c #543519",
"O  c #56381C",
"+  c #5A391D",
"@  c #5F3E21",
"#  c #603F20",
"$  c #7C4600",
"%  c #7B4A16",
"&  c #7D4C19",
"*  c #5F4023",
"=  c #4F473E",
"-  c #644223",
";  c #694526",
":  c #66472D",
">  c #694728",
",  c #6D4929",
"<  c #7E4F20",
"1  c #724D2D",
"2  c #74502E",
"3  c #775130",
"4  c #7B5532",
"5  c #7F5835",
"6  c #775F54",
"7  c #79675D",
"8  c #7B6D66",
"9  c #6E6C75",
"0  c #BF6900",
"q  c #B96709",
"w  c #B26619",
"e  c #815A36",
"r  c #815F4F",
"t  c #806557",
"y  c #8C6B53",
"u  c #846859",
"i  c #836D60",
"p  c #967967",
"a  c #947C6C",
"s  c #847475",
"d  c #807679",
"f  c #877A7B",
"g  c #887B7B",
"h  c #7EF05B",
"j  c #FFA200",
"k  c #FFA914",
"l  c #FFAC1C",
"z  c #D99328",
"x  c #E49A26",
"c  c #EEA62C",
"v  c #FCAE29",
"b  c #FFB22E",
"n  c #FCAF32",
"m  c #968278",
"M  c #9E8778",
"N  c #A18B7D",
"B  c #F7A449",
"V  c #FEAA4C",
"C  c #FDAB51",
"Z  c #FABA52",
"A  c #CC997F",
"S  c #D3A966",
"D  c #EBA873",
"F  c #FFB877",
"G  c #FBB97F",
"H  c #FBCC7D",
"J  c #FFD07F",
"K  c #757E90",
"L  c #8A8388",
"P  c #918781",
"I  c #978E8A",
"U  c #988A8B",
"Y  c #9B918B",
"T  c #8C8A94",
"R  c #8E8E9B",
"E  c #A28E81",
"W  c #A2958D",
"Q  c #A8978E",
"!  c #AA9A8F",
"~  c #AC9C91",
"^  c #A69E9F",
"/  c #AEA09A",
"(  c #B6A79F",
")  c #B6A89F",
"_  c #8E93A2",
"`  c #8E97A8",
"'  c #9C9BA3",
"]  c #8E9DB3",
"[  c #919DB2",
"{  c #9DA1AD",
"}  c #93A3BA",
"|  c #AAA3A0",
" . c #A9A8AF",
".. c #B5A9A1",
"X. c #B0A9A9",
"o. c #B8ADA8",
"O. c #BDB3AE",
"+. c #B4B1B5",
"@. c #BBB6B5",
"#. c #B1B4BE",
"$. c #D7AE9A",
"%. c #C0B5AE",
"&. c #C2B6B0",
"*. c #C5BBB5",
"=. c #C5BEBC",
"-. c #C8BFB9",
";. c #E2BFB0",
":. c #DAC4A7",
">. c #C3C0BF",
",. c #CBC2BD",
"<. c #D8C6B7",
"1. c #D7C9B8",
"2. c #E7CEAC",
"3. c #F0C3A5",
"4. c #FFC9A0",
"5. c #FFD6BB",
"6. c #A9B6C8",
"7. c #B5BBC7",
"8. c #FF9CD4",
"9. c #CBC6C3",
"0. c #C8C5C8",
"q. c #CECBCA",
"w. c #D3CBC7",
"e. c #D5CFCB",
"r. c #D7D0CD",
"t. c #D9D2CC",
"y. c #C8CED8",
"u. c #D5D1D1",
"i. c #DBD5D2",
"p. c #DED9D6",
"a. c #DCDBDC",
"s. c #E7D9C6",
"d. c #EEDEC9",
"f. c #EBDCD2",
"g. c #E2DEDC",
"h. c #F7E2C4",
"j. c #FAE3C0",
"k. c #EDE2D4",
"l. c #E5E1DE",
"z. c #FFE5D5",
"x. c #FBEAD2",
"c. c #FBECDD",
"v. c #E6E3E2",
"b. c #E9E6E5",
"n. c #EBE8E6",
"m. c #E7E7E9",
"M. c #E7E8EC",
"N. c #EEECEB",
"B. c #F1EEED",
"V. c #FDF3E5",
"C. c #F2F0EF",
"Z. c #FCF5EC",
"A. c #F4F3F2",
"S. c #F9F7F6",
"D. c #FFF9F5",
"F. c #FCFBFB",
/* pixels */
"5 e e e e e e e e e e e e e e e e e e e e 2 4 4 e e e e e e e e ",
"e e e e e e e e e e e e e e e e e $ $ $ e 4 1 4 e e $ $ 5 5 e e ",
"5 e e e - , e e e e e e e 3 5 e $ q x z $ e e e e $ l 0 $ 4 e e ",
"5 e e e 5 e e e e e e e e 1 1 e $ j k S l $ e e $ l J l $ 1 e e ",
"5 e e e & e e e e e e e e 3 e e $ j k H S l $ $ l J J l $ e e e ",
"4 e e & j.& e e e e e e e e e e $ j k J J H 0 l J J J l $ $ e e ",
"5 e 5 & 0 & 2 1 2 2 2 2 2 2 2 2 $ 0 0 j Z Z Z q Z 0 Z 0 Z v $ e ",
". O & j j & ; + ; ; ; ; ; ; ; o $ j j 0 k b b 0 b c 0 b b n $ > ",
"e 4 & 0 & e e e e e e e e e e 4 % j j j k b 0 b b 0 b w n b $ 5 ",
"e e & G %.e e e e e e e e e e e & 0 0 j k b 0 b b 0 b b 0 b $ e ",
"e %.*.A 0 & e e e e e -.p e e e & j j 0 0 b h b b b b b h n $ e ",
"e ~ : & j 0 & & & a &.~ ( ( y < $ j j j k b h b b b j.b h n $ e ",
"e e e e & j w j 0 <.V 0 0 C $.j $ j = = = b b b b 8.8.j.b = = = ",
"e e e r.e & & j 0 j j 0 0 j 0 j $ j j j k b j.j.j.b b j.b 0 $ e ",
"e M 9.~ 2 1 & j 0 j j 0 j j 0 j $ j = = = k j.j.j.j.j.j.k = = = ",
"* 9.P P + . & j j j j f.5.j j j j $ $ $ $ $ $ $ $ $ $ $ $ $ - o ",
"e 2 e e e e & j j j j F z.z.4.j j j j j k k j.j.j.k % 4 e.*.! 1 ",
"e e e e g ^ U D $.B j j.j.x.Z.j.j.j.j j k j.j.j.j.j.s e N p ~ e ",
"e e e a.q.g.v.3.;.t.t.s.j.j.j.j.j.j.j.j.j.j.j.V.c.S.7.{ f g e e ",
"5 g #.=...A.b.z.Z.x.d.<.q.1.<.2.2.2.j.j.j.h.Z.k.l.c.v.p.a.L } e ",
"f X.) O.w.p.,.5.f.N.S.B.A.g.M.#.s s r :.:.a.0.y.Z.D.p.N.b.~ _ e ",
"[ v.*.N.p.p.v.N.A.l.i.N.B.C.A.B.S.X.+.6.m.u.m r.F.w.w.l.l.b.T u ",
"_ p.,.N.w.p.g.A.p.*.,.*.~ %.r.S.S.B.B.A.r.N.S.F.g.i.e.p.N.N.^ d ",
"K b.g.v.S.N.b.N.q.X.@.v.9.>.@.u.A.b.S.q.q.a.A.N.v.g.N.9.N.v.9 9 ",
"g +.g.N.p.B.p.9.A.n.N.A.p.v.g.e.Q ( p.p.N.r.v.S.B.N.N.g.A.e L ` ",
"g g g.w.i.N.n.N.N.p.b.e.l.B.B.p.p.l.w.p.N.B.N.S.F.F.F.S.E g g 5 ",
"g [ / ,.i.A.N.B.N.B.e.*.p.~ g.n.A.r.u.b.q.a.b.S.S.A.i.E L g e e ",
"e e ' u.9.%.,.*.l.N.i.v.l.B.A.b.b.o.' g g R _ @.v.l.g R [ e e 5 ",
"e e e g } { 0.X.=.N.b.i.=.9.@.9.' ] , e e e e g 6. .g 6 ; e E 5 ",
"e y y 5 e e u g g T _ _ T T g g u t 1 e 5 5 3 3 e e e ; , ~ i.e ",
"3 E e.O.W , 1 3 4 4 4 a a 3 1 2 2 1 1 W W g...a , 2 2 ! v.! 5 e ",
"# @ ; i W + +   + + + 8 8 X X X X + + Y Y 7 | 8 o X =.I X @ @ o "
};
