/* XPM */
static char *_e6f9f8da51041a58f0bc782a42ed1ecC3VzfqACuI3EqscK[] = {
/* columns rows colors chars-per-pixel */
"64 64 208 2 ",
"   c #4A2C0F",
".  c #4C2E12",
"X  c #4F3114",
"o  c #523316",
"O  c #553619",
"+  c #57381A",
"@  c #5B3B1D",
"#  c #5F3E20",
"$  c #603F21",
"%  c #7B4811",
"&  c #654324",
"*  c #6B4827",
"=  c #6A4728",
"-  c #6D4A2A",
";  c #724E2D",
":  c #75512F",
">  c #6E4F32",
",  c #765230",
"<  c #7A5532",
"1  c #7F5935",
"2  c #715A4B",
"3  c #6E6059",
"4  c #74645B",
"5  c #78675C",
"6  c #7D6A5D",
"7  c #7B6B64",
"8  c #955511",
"9  c #BF6900",
"0  c #AF671A",
"q  c #815A36",
"w  c #CB7400",
"e  c #CF7800",
"r  c #C7770E",
"t  c #D27B00",
"y  c #C17438",
"u  c #866953",
"i  c #8D6B56",
"p  c #816C5F",
"a  c #846E60",
"s  c #877061",
"d  c #8B7262",
"f  c #86746B",
"g  c #907664",
"h  c #937865",
"j  c #857C78",
"k  c #C47D50",
"l  c #DC8400",
"z  c #E08700",
"x  c #E48B00",
"c  c #E88F00",
"v  c #ED9301",
"b  c #F19600",
"n  c #F59A02",
"m  c #FA9E00",
"M  c #E28F17",
"N  c #FFA200",
"B  c #DE8B38",
"V  c #8E817B",
"C  c #98877C",
"Z  c #A0897E",
"A  c #CF8750",
"S  c #E09350",
"D  c #FDAB50",
"F  c #CD9170",
"G  c #CA977D",
"H  c #FBB26D",
"J  c #E7A97B",
"K  c #FAB77D",
"L  c #7E8188",
"P  c #948983",
"I  c #968E8A",
"U  c #988F8A",
"Y  c #96908D",
"T  c #9D918B",
"R  c #898E96",
"E  c #989798",
"W  c #A28C81",
"Q  c #A2958C",
"!  c #A8978E",
"~  c #A9988E",
"^  c #A79C95",
"/  c #A49D9B",
"(  c #ACA29C",
")  c #B2A59D",
"_  c #899CAC",
"`  c #979EA5",
"'  c #9CA0A6",
"]  c #9DA5AE",
"[  c #98AAB8",
"{  c #9EB1BF",
"}  c #A5A9AF",
"|  c #A9A8A9",
" . c #B7ABA6",
".. c #B5AEAA",
"X. c #BAB1AC",
"o. c #A5ADB5",
"O. c #A8ADB5",
"+. c #A7B1B8",
"@. c #ADB4BA",
"#. c #B6B2B1",
"$. c #BCB5B1",
"%. c #BCB8B6",
"&. c #BDBBBA",
"*. c #CDA18D",
"=. c #D8AA91",
"-. c #D1AB9B",
";. c #ECB389",
":. c #F8BD8C",
">. c #E9BA9B",
",. c #D5B7AC",
"<. c #C1B7B3",
"1. c #C2BAB6",
"2. c #C3BEBB",
"3. c #C8BFBC",
"4. c #EABEA3",
"5. c #F6C29B",
"6. c #C7C0BC",
"7. c #C8C1BE",
"8. c #DAC4BC",
"9. c #F5C5A2",
"0. c #F4C9AB",
"q. c #EBCAB6",
"w. c #F3CDB3",
"e. c #F7E0BD",
"r. c #9CB4C4",
"t. c #98B6CA",
"y. c #A4B5C3",
"u. c #A8B9C7",
"i. c #AABECC",
"p. c #B4BBC2",
"a. c #B9BEC4",
"s. c #A3BFD3",
"d. c #FDBDCD",
"f. c #FDA9D1",
"g. c #ADC0CF",
"h. c #BCC0C5",
"j. c #B3C2CE",
"k. c #BCC3CB",
"l. c #ACC4D5",
"z. c #A4C4DA",
"x. c #AAC6DA",
"c. c #ADCADE",
"v. c #B3C5D2",
"b. c #B3C7D6",
"n. c #B6C8D5",
"m. c #BCC9D4",
"M. c #B4CADB",
"N. c #BCCEDB",
"B. c #BED1DF",
"V. c #A4CCE6",
"C. c #ACCDE4",
"Z. c #B3CEE0",
"A. c #ABD5EE",
"S. c #B5D1E4",
"D. c #BDD4E5",
"F. c #B4D5EB",
"G. c #BBD6E8",
"H. c #BBD9ED",
"J. c #AED8F2",
"K. c #B6DAF2",
"L. c #C4C3C3",
"P. c #CBC6C4",
"I. c #CCC8C6",
"U. c #C5C7CB",
"Y. c #CCCAC9",
"T. c #DFCBC2",
"R. c #D1CCCA",
"E. c #D5D1CF",
"W. c #DFD1CD",
"Q. c #C4CCD3",
"!. c #CACED3",
"~. c #D0CFD0",
"^. c #CAD1D7",
"/. c #C4D2DC",
"(. c #CBD4DB",
"). c #D5D3D2",
"_. c #D9D6D5",
"`. c #D6D7D9",
"'. c #DCDBDA",
"]. c #EED6C8",
"[. c #F7D8C3",
"{. c #EBDBD4",
"}. c #E1DEDD",
"|. c #FAE2C0",
" X c #E2E0DF",
".X c #C4D6E3",
"XX c #C4D8E7",
"oX c #CCDAE5",
"OX c #C4DBEB",
"+X c #CCDEEB",
"@X c #D3DCE3",
"#X c #D7DEE4",
"$X c #C3DEF1",
"%X c #E0DFE0",
"&X c #CFE0ED",
"*X c #D4E1EB",
"=X c #DBE4EB",
"-X c #DDE4EB",
";X c #CDE2F1",
":X c #D4E4F1",
">X c #E4E3E3",
",X c #E2E6E9",
"<X c #E7E7E9",
"1X c #EBEBEB",
"2X c #F0EFEF",
"3X c #E1EAF2",
"4X c #EEEFF0",
"5X c #F2F2F2",
/* pixels */
"& - : : : : : 1 1 1 1 q q q q q q q q q q : < : < - : : , , , , , , , , , , , , , , , , , ; ; ; ; ; ; : : : : ; ; ; : : , , : : ",
"= = - * * - - = = = = & & = * * * * - - - - - - - ; - ; ; , , , , , , , - - : : : ; ; ; ; , , , , - : ; ; ; ; ; : : : : ; ; , , ",
", ; ; ; - - ; ; ; - - - - * * - - - - - & & & = = & & 1 - @ & = - & = = & & ; ; ; , , , , , < < , - & = - - , , : : : 1 1 q q q ",
", q q 1 < 1 g '.X.X.R.s , ; ; ; - * = & & * * * - - - 1 < : : ; ; , , , < < < < < 1 1 1 1 : , , 1 g ) , : ; = - ; ; , ; ; - - ; ",
"O o o @ @ & 6 ..` Z.L.s - ; - ; - , < 1 1 1 1 1 1 1 1 1 1 1 q q q , ; - ; < : : : ; ; - ; 6 #.( 2..._.P.- = = = - - - * - ; q 1 ",
"$ @ & # # $ T ( (.` [ p.Q - - ; : : ; ; ; ; ; ; - - - - - - ; : , , , ; ; - - q q q q q 1 _.'._.M.L.p.2.$.T - ; ; ; ; ; ; - q q ",
"= - = - - - * ..] D.+.] v.E.& & O @ & 6 T T / Q./ R.Q - - - - = = = = * * * = ; ; ; ; ; ( R.i.G.Z.C.l.@.$._.a = - ; ; ; - - - - ",
"1 1 < , : ; ; d Q P.*X.X.XT = = = & T H.D.i.+.p.U.Y.'.$.- - - ; ; ; ; ; : , , , , , , ) I.<XH.@X`.>X@XH.#X<.<., , ; ; ; ; ; ; ; ",
"1 1 ; , , < , , , < d ) n.).; , , ~ &.v.6.I.P.P.a % % E.* > C ; ; : : - - ; % % % 2 2._.X.#Xy.s P.<X_.a.M.+._.( ; , , ; ; - * - ",
": - q 1 ; & & - * & * : : d , , d >Xv./ ! ! ) < % 0 M % >XR.&XL.2.).6 & 1 % M N N % 2XP L.(.(.T P.2.T T U.V.'.: : - = - - : : ; ",
"* - & = ; , , < < , ; = - * = * }.U.h. X>X1X3.% N N c % ; ) <XN.@.X.Q : : % n 9 c % $.O.h.D.R.<.>X_.T 6 <Xx.H.5 - ; : * & 1 1 < ",
"& & & = ; ; : , , , , , ; - ; ; }._...U.D.$.$.% c N b b % = = ( +X.X>Xd % 0 9 N x m % Q.N.G.E.1.).R.$.1XN.+XQ.s ; ; - - = = = = ",
"= = = & = = & & & & & = = = & 6 _.1X<XS.Y.Q % 9 9 c N x % % 1 1 ) M.( 1 % c N c c w % M.b.@X<X<X_.$.#X.XoX@.: , : , , , < < < , ",
"; & & & # $ $ # # @ # @ # & & T $.E.N.(.H.$.% c 9 9 x n c % % % % % % % r N c 9 w w % (.B.a.<X<X3.D././ H.; : : : ; ; ; ; ; : , ",
"O o @ + @ @ @ @ & & & = & $ @ U / +X,XS.(.#.% c v 9 9 c x l N 9 9 9 z t N c m 9 9 b % E x.] E.$.oXu.k.n.j # @ @ @ @ @ @ @ @ + + ",
". . X o o X o o @ . . . . 3 O 4 v.h.OXl.I.#.% x m c x 9 c l N 9 9 9 x v c m 9 9 9 x % I z.k.L.Y.t.l.] O O O O O + @ @ @ @ @ @ @ ",
"X O & = & & & & & - - - Q ).Q R p./.oX+._.#.% c N x N N b t l N 9 v b c b N 9 9 b b % U z.O.P.z.!.5 @ @ @ @ @ @ + + + + O O O O ",
"& & : : : : : : : : Q 7.~ s.p.a.oX~.oX%.1X<.% l N 9 9 N N b x w 9 N c c N 9 N N b b % T T T G.R 2 = = = = - - - - - - - - - - - ",
"; & & & & & & & & p P.'.Z.i.oXk.(.&.J.2.>X( % 9 9 9 9 9 9 m x l l b N N N N N N b b % a X.x.l.Q - ; ; ; ; 1 < < , , : : ; ; ; , ",
"1 : : : : : : : : X.( u.u.{ Q.@X_./.H.p.<X( % 9 9 b b N 9 9 c w n c N N N N F *.k k % s ^.N.} Q - - - - ; ; ; - - - , < 1 1 1 q ",
"q : & & & @ & & T Q S.s..Xr.(.R.( OX3XC.<X) % c N b b N N N b t m x N 9 9 k }.{.q.4.6.#XXX} y.} , , , , : : q g q 1 , : - = - : ",
"1 : , 1 1 ; ; , >XQ c.(.M.@.5X<X+.$X=Xl.5XT % =.q.9.c N N N m w m b b N N N 0.H J >.) ^.-Xy.u./ , , , 1 1 1 X.>X$.~ h q q q 1 : ",
"; ; ; - - = $ T ( XXz.&.c. X_.'.!.XX1Xi.<XQ % M 9.{.J N N N m w b b b N N N 5.D c c i (.,Xx.} Q - - - & & & ^ h.Z.a.R.'.p & & & ",
"; ; ; ; ; - - X.C v.v.B.+X<XX.}.p.Z.5Xv.<XQ % 9 9 ].0.9.N N m A >.N t N N N K :.l x % Y.;Xc.) P.: : : : : : : $..Xp.;X( Q & & & ",
"q q q , : < g X.Q x.$X+X.XP.C }.i.N.5XM.1XQ % b 9 *.,.8.y F k -.t b 9 9 N 9 9 -.G 9 X.'.F.x.X.h 1 1 : : : - - = a j.).N.1.g q q ",
"1 + O # & & P.( Q A.D.&.oXQ P.).l.m.2X*X1X~ % b b 9 8.,.8.,.>.x w x m N 9 9 9 9 J >.W ,XA.] 2.@ @ @ & - - ; ; : : Q /.#XF...1 1 ",
": < 1 1 1 1 g X.$.H.oXp.D.P.Y.'.G.*X5X/.,X( % m l v ;.{.J ].l x w e b b b b b x c S P.@XXXr.X.= = - = @ # @ @ & & 6 >XQ.D.`.# # ",
", , : : ; ; - X.V M.(.g.h.3X7.Y.l.^. Xj.U.( % r t t =.T.J l t x w t l b b b x t w l % .X>Xi.Q ; ; - - ; ; ; ; ; - - - p y.L ; ; ",
"- - ; ; ; - - ^ p.XXj.k.M.;X2.'.x.&.>Xz.j.1X<X8 % % 9.4.l v b b b l m N m e 0 l m i % c.E.).V # # ; ; s s Q Q ; ; 1 , < , , ; ; ",
"= = = & = = = f <Xl.o.( l.F.U.*Xx.%.>X} +X=X5X<XY.C R.N N b c c b t t l l b l v % % c.a._.X.- - - - '.<X6./ E.& & & & & - - - ; ",
"@ & @ @ + @ @ @ I E H.1X] S.B.oXS.] <XE M.v.&.j 5X<XI % N N m 9 9 9 9 9 9 9 N N % '.o.k._.T & & & T a.C..XD.p.p = = * = * * & * ",
"                  &.l.D./ G.Z.+X.Xr.&XI v.j.n./ L._.).i N 9 9 9 9 9 9 9 9 9 9 9 % ..b.$.1X      3 Z.l.r.#.P.g.E             o o ",
"= # @ @ @ & @ + +  .oXU.u.a.OXH.+Xa.+Xi.n.@Xk.u.P.}.4 '.% 9 9 N m c e l m N 9 9 % ` G.Y.L.o o o '.XX~.;X<X<Xm.OX3 # # @ @ @ + O ",
"& = = = = = - - - Q v.v.(.p.S.G.&X@X=XC m.C.L.-Xc.'.p ..% N N N n t v l m N N N % T *X`.2.= = = %.N.L.N.'.P.y.`.- - - * - - = = ",
"1 1 1 1 1 P.O.2 : : 6.p.^.^.n.F.F.=X-Xs E.V.Q.Q.a.E.s X.% N N 9 9 9 9 9 9 9 N N % Q } Q.( : : : ^ OXX.XX_./ j.1.d < < < , , < < ",
"& - - - R.<XO.2 & & Q ( Q.*Xa.J.S.j.3X6.~.i.Y.Q.p.P.s X.% 9 9 N N l c t m N 9 k i Q Q M.1.< , , / z.1.;XE.E k.X.: : : - ; - = = ",
"< : : ; 6.G.| , , : s ).) @X@XH.H.n.3XX.#XU.P./.&.1.Q Q % N N N c c c F q.0.0.5.<.T ..p.Q.& & & T ] (.H.Q.z.E.& & & = ; ; - , ; ",
"1 1 1 ~ } Q.X.< , < : : X.$.@X(.'.s.+X( +X`.<XD.P...( P.% N N N b b c B ;.].K N Z <XX.p.k.s - - = Q C.s.@.-X) , , ; ; ; , < , 1 ",
"- - = 3.u.~.).p = = = - - $.>X@XoXu.F.4 D.T ,X*X%...T T % N N N 9 9 9 9 9 *.w.9. .<X6.X.g.Q , , < ; Y.P.P.$.; ; ; , , , : : : : ",
"; , Q } a.) ~ 1 : : : - & & ).5X#Xx.N.} Q.E H.p.#.T >X% N 9 9 9 N % % 9 9 9 k ,. .>X6.X.n.v.: , , - - - * ; : : , , : : : : : : ",
"< s '.z.&.Q - ; : : , 1 : - Q Y.a.M.v.} .Xp._.<.R.R.Q % N N N N % e.e.% c m N N  .>X1.1.[ #.- = # # & # & @ @ @ $ & - : : : : , ",
"& & 2.M.1.< , , ; ; - - & - ; Q }.P.M.x.Q...'.1.R.X.% N N N N % 9 e.% x b b N N % _.7.1..XL.s , 1 1 1 1 < < < < , : ; ; ; ; : < ",
"& & _.&X@ @ @ @ @ @ @ @ @ & & & 2.$.C.| N.M.XXP.'.% v N N N % 9 9 % N N N N N N % )...}.H.a.Q ; - - - ; ; ; , , u u < , : : ; - ",
"1 1 _.X.1 1 1 1 1 1 1 1 1 < < < Q R.$.$.a.Q.H.1XQ % N N N 9 % x % 9 9 9 N N N N % )...I./.&.Q - ; , : ; : : ; ; X.&.7 : ; ; , , ",
"& & & & - - - - - - - - - - - - - <XP.$.k.^.OXP.Q % D G G 9 % b % t 9 9 9 9 N N % $.Y.Y.!.] }.@ @ & & = & = = = ( +X[ - ; ; - - ",
"= - , ; * * * * * * * * * * = = * <XQ L./.(.OXT / I.-.*.w.% 9 9 % b c c N 9 9 N % #.I.Y.!.] 2.# #.P.U I I 4 5 5 P...N.$ = = = - ",
"& & @ @ $ $ @ @ @ @ @ @ & & @ @ @ <XT *XOX+.N.f Y.P.].D 5.% c % N b l l N N N 9 % $.2.'.(.} ..p 2.( T ( 2.>X).+ U #.a.] o o o & ",
"                                &.1X..-X;Xp.+X'.P.X.w.H ].% l % 9 9 n A ].N N N % #.Y.<XU.y...j F.-X@X,X/ Y.#.    &.`.H.3       ",
"& - - - = = = - _ r.4 = = = = = _.5X| s.,X/.#X&.&.2.:.-.k % 9 9 % 9 9 9 w.:.N N % #.<X_.| *X2.y.E /.o.Z.] U R.O + U (.(.O + O @ ",
"= * * & * & 6 } :XD.6 : ; ; ; - }.>Xu.).-X@X@X| 1.'.G G N b % 9 % 9 9 9 G 9.K N % #.4XI.| ;Xi.| T h.#.k.p.T P.6 & & N.| = & & # ",
"* * & @ o ^.b.Q./ N.( = = - - P.'.OX( 1.&.,Xj.L.Y.3.K N N l % b % 9 c 9 9 W.5.D % R.5X%.$.J.o./.XXc.u.G.+XI P.T & @ @ @ & & & - ",
"= - ; ; s v.$.T E +XR.+ O 4 2.U C.<XP.2...XX.X>X%X<.N N m l % b b c c t N G 0.) f '.3Xx.F.OXv.'.y.OXK.h.$XQ P.( ; ; ; ; ; - - * ",
"& # # & ..( R.3.a.S.s - ; P.Q p.#X_.....%.N.oX>X<X/ % N e.e.|.d.[.|.N N N 9 q. .6.X.).J.&.Q v.D.F.;X2.j.D.P.2. X: - - - = - - ; ",
": : ; P.2.).#.#.{ @ @ @ @ ..5 (.@X_.( ( ( u.i.l.Y._.% e.e.|.d.f.d.|.|.N N N % P 2...U.H.&.` S.C.*X2.(.C.S.'.'.I.@ & & - - - - - ",
"& & ; a ..U.>X6 = = & = ; X.C B.~ ) <.$.P./.).Y.v.!.Q % % |.|.d.[.|.|.N N % # X.<.) +XD.Z.] c.G.Z.S.G.V.@X7.P.- - = * & = - - - ",
"q 1 1 1 f f < : ; ; ; ; -  X&.D.).P.$.$.( } E s C ' !.'.( % % % % % % % % Q 7.<X}.1XH.B.j.A.F.x.V.*XO.S.'.T T = = = & = = = & = ",
"; ; ; ; ; ; ; = & = & # & <X>X/.N..X!.Q.P.(.@X'.).).@Xv.(.Q C T T ..2.R.Y.<X'.Y...E.3X3XJ.K.y.&.}.>X*Xv.E.1.s ; ; ; , : ; ; : : ",
"* & & & & & & & & & & * - - R._.2.( k.Q.N.x.v.Q T T T ( S.oX:X2.'.'.1X1X<X'._.~.@X*Xm.#XOX/.$.E.6.) G.| <X'., ; ; = $ # + @ @ @ ",
"& @ # # $ @ @ O @ + @ + O + O 4 ..#.I U U | k.$.( ( Q X.X.,X+X;X.X(.Y Q.k.n.N.n.^.~.E.}.E.P.E.).P.Q 3.T p = - ; - ; : , , : - - ",
"; ; * = = = = = = = = * - - - - - $.Q Q Q Q $.Q ..X.3.>XX._.R.P.&.a.F.Q.Q.Y.1.1.1.P.Q Q T ....2._.Q - ; ; ; ; ; , : : , , , < < ",
"& & = - ; ; ; , , 1 1 1 1 1 1 1 1 1 1 1 , , , , ; ; ; $ 6 a 6 5 T T T I U U ....).T @ @ @ @ 5 #.@ @ @ @ @ @ + + + # # & & * = - ",
"& & & & & # # & & & & & & & & & & & & & & & & & & = & = & & & - - - - ; ; - - - a - - * = = * = * * - - - - & & & & & & & & & * ",
"@ o O O O o o o o o o X o o o o X o o o X X X X O o O o O @ O @ O O O O O O o O O o O O + o o o o o O o O @ $ # @ # @ - - = = & ",
"                                                                                                                                "
};
