/* XPM */
static char *_83ddcd83412463ee083f4be5496acc40qG3osF6NUlpiKHr[] = {
/* columns rows colors chars-per-pixel */
"64 64 214 2 ",
"   c #4A2C0F",
".  c #4D2E11",
"X  c #4F3114",
"o  c #523316",
"O  c #553619",
"+  c #57381A",
"@  c #5B3B1D",
"#  c #5F3E20",
"$  c #603F21",
"%  c #7C4600",
"&  c #4F473E",
"*  c #554538",
"=  c #644324",
"-  c #694627",
";  c #6B4827",
":  c #6A4728",
">  c #6D4A2A",
",  c #724E2D",
"<  c #75512F",
"1  c #775230",
"2  c #7A5532",
"3  c #7F5935",
"4  c #675043",
"5  c #755A45",
"6  c #6D5E57",
"7  c #7B6759",
"8  c #716C69",
"9  c #74777C",
"0  c #945609",
"q  c #BF6900",
"w  c #BD7210",
"e  c #815A36",
"r  c #BD7037",
"t  c #CE7700",
"y  c #CC7906",
"u  c #856C5B",
"i  c #8B715D",
"p  c #887467",
"a  c #8D7564",
"s  c #8B786A",
"d  c #7EF05B",
"f  c #DC8400",
"g  c #DB870A",
"h  c #D58719",
"j  c #DF901E",
"k  c #E58C00",
"l  c #E38C07",
"z  c #E88F00",
"x  c #ED9200",
"c  c #EA950B",
"v  c #F19600",
"b  c #F39A04",
"n  c #FA9E00",
"m  c #E3951D",
"M  c #F19C11",
"N  c #F19F1A",
"B  c #FFA200",
"V  c #FFA90F",
"C  c #F9A616",
"Z  c #FFA914",
"A  c #D88F32",
"S  c #E59721",
"D  c #E89A23",
"F  c #E39D3D",
"G  c #EDA026",
"H  c #F1A427",
"J  c #FCA72A",
"K  c #FAAD2C",
"L  c #FFB22E",
"P  c #8E8178",
"I  c #968578",
"U  c #A48E7D",
"Y  c #C68154",
"T  c #DCA348",
"R  c #EAA947",
"E  c #F7B24E",
"W  c #FEAD55",
"Q  c #FBBA53",
"!  c #CC9476",
"~  c #E9AD7D",
"^  c #FCB675",
"/  c #F5C374",
"(  c #FFD07F",
")  c #757C83",
"_  c #7C8189",
"`  c #799AB0",
"'  c #878485",
"]  c #958B84",
"[  c #9C8E82",
"{  c #97918E",
"}  c #888C92",
"|  c #989899",
" . c #A39284",
".. c #A3948C",
"X. c #A9968B",
"o. c #AE9589",
"O. c #A49A92",
"+. c #AA9D92",
"@. c #A39D9B",
"#. c #AFA093",
"$. c #ACA59E",
"%. c #B1A59A",
"&. c #B4A99F",
"*. c #BAAB9E",
"=. c #8D9BA7",
"-. c #9AA2A9",
";. c #91A8B8",
":. c #99AAB8",
">. c #A7A8A9",
",. c #B5ACA3",
"<. c #B3A9A7",
"1. c #BAADA2",
"2. c #BCB1A6",
"3. c #BDB3AB",
"4. c #A6ADB4",
"5. c #A9B2B8",
"6. c #ABB6BD",
"7. c #B6B6B6",
"8. c #BBB6B3",
"9. c #BBBDBD",
"0. c #F0BE90",
"q. c #C3B6AB",
"w. c #C3B9AF",
"e. c #DDBDAE",
"r. c #C5BCB3",
"t. c #C5BEB7",
"y. c #FFD386",
"u. c #FAC69A",
"i. c #CBC1B7",
"p. c #C6C2BC",
"a. c #CCC4BB",
"s. c #D1C6BC",
"d. c #D2C9BE",
"f. c #FCD0A9",
"g. c #FBD8B8",
"h. c #96B5C9",
"j. c #AABBC8",
"k. c #B4BDC4",
"l. c #A2BFD2",
"z. c #FF9CD4",
"x. c #ADC1CF",
"c. c #BCC1C4",
"v. c #B5C2CB",
"b. c #BBC5CD",
"n. c #ACC4D4",
"m. c #A7C7DB",
"M. c #B3C6D2",
"N. c #BCCAD3",
"B. c #B6CBD9",
"V. c #BDD1DE",
"C. c #A6CCE3",
"Z. c #B8D5E7",
"A. c #BCD5E4",
"S. c #B3D6EB",
"D. c #C4C5C5",
"F. c #CDCAC5",
"G. c #C6C7C8",
"H. c #CACCCC",
"J. c #D4CCC3",
"K. c #DCCCC4",
"L. c #D7D0C6",
"P. c #D9D1C7",
"I. c #D6D2CB",
"U. c #DCD4CB",
"Y. c #DFD8CF",
"T. c #C3CDD3",
"R. c #C5CFD9",
"E. c #CBD2D5",
"W. c #C3D3DD",
"Q. c #CAD5DB",
"!. c #D2D5D5",
"~. c #D9D7D5",
"^. c #D6DBDB",
"/. c #DCDDDC",
"(. c #E1D7CD",
"). c #E1D9CF",
"_. c #FADCC4",
"`. c #E4DDD3",
"'. c #E6DDD8",
"]. c #FAE3C0",
"[. c #FBE6CC",
"{. c #E7E0D7",
"}. c #E5E1DB",
"|. c #EBE4DB",
" X c #EFE8DF",
".X c #FBEBD3",
"XX c #F8E8D7",
"oX c #FBEEDB",
"OX c #FBF0DF",
"+X c #C3D6E2",
"@X c #C5D8E4",
"#X c #CCDBE3",
"$X c #C4DDEC",
"%X c #CCDEE9",
"&X c #D2DDE3",
"*X c #DCDFE2",
"=X c #CDE0EB",
"-X c #DBE2E4",
";X c #D4E3EB",
":X c #DBE5EA",
">X c #DAE6EA",
",X c #C9E5F5",
"<X c #D7E9F3",
"1X c #E2E5E4",
"2X c #E5E8E6",
"3X c #EEEAE3",
"4X c #E5EAEA",
"5X c #ECEDEA",
"6X c #F2ECE3",
"7X c #F5F0E7",
"8X c #FBF2E4",
"9X c #F6F2EB",
"0X c #FAF4EB",
"qX c #E8EFF0",
/* pixels */
"= > < < < < < 3 3 3 3 e e e e e e e e e e < 2 < 2 > < < 1 1 1 1 1 1 1 1 1 1 1 1 1 1 1 1 1 , , , , , , < < < < , , , < < 1 1 < < ",
": : > : : > > : : : : = = - : : : : > > > > > > > , > , , 1 1 1 1 1 1 1 > > < < < , , , , 1 1 1 1 > < , , , , , < < < < , , 1 1 ",
"1 , , , > > , , , > > > > : : > > > > > : = = : : = = 3 > @ = : > = - - = = , , , 1 1 1 1 1 2 2 1 > = : > > 1 1 < < < 3 3 e e e ",
"1 e e 3 2 3 3 2 1 2 1 1 1 , , , > : : = = : : : > > > 3 2 < < , , 1 1 1 2 2 2 2 2 3 3 3 3 < 1 1 3 3 3 1 < , : > , , 1 , , > > , ",
"O o o @ @ = = = : : : > > , > , > 1 2 3 3 3 3 3 3 3 3 3 3 3 e e e 1 , > , 2 < < < , , > , = $ = = : , , > : : : > > > : > , e 3 ",
"$ @ = # # $ = ; > > , < > > > , < < , , , , , , > > > > > > , < 1 1 1 , , > > e e e e e 3 , : , > > # # = : > , , , , , , > e e ",
": > - > > > : = % % % @ # = = = O @ = = = = > > > % % % % > > : : : : : : : : , , , , , , > , < , , < , > > - - > , , , > > > > ",
"3 3 2 1 < , , % J B f % : : : : : = = = = = = = % g g b 0 % > , , , , , < 1 1 1 1 1 1 1 1 1 2 2 2 2 2 2 2 2 2 1 1 , , , , , , , ",
"3 3 , 1 1 2 % B q q f v % < , 1 1 3 3 2 1 1 < % l l w b q q % , , < < > > , , , , , , , 1 1 , , > > > > > - > , , 1 1 , , > : > ",
"< > e 3 , = % q q q K v % 1 1 1 2 1 1 2 2 2 % q q ( g g q q % : = : = = 3 3 < , , , - - @ @ = = = = @ @ $ $ 1 1 1 > - > > < < , ",
": > = : , 1 % B / / B B q % : : > e 3 , = % q v ( ( M M h q % < 1 < < < < , < , , , < < 1 1 1 1 3 3 = = = I I > > , < : = 3 3 2 ",
"= = = : , , % v / y.( ( v q % , > < , , % B n ( ( ( M M q q % > , < 1 1 1 3 3 2 < < 1 1 2 2 2 , 1 1 < < <  . .I , , > > - : : : ",
": : : = : % B k y.y.( ( ( q v % : : > % B B ( ( ( ( M q q B % 3 3 3 3 3 3 3 3 1 , , , , , , , , , < 1 1 a a s #.< 1 1 1 2 2 2 1 ",
", = = = # % q n y.y.( ( y.q q B % % % z B ( ( ( ( ( C q n n % = = : : : > > > > > > > , , , , , , , , , a I a a a , , , , , < 1 ",
"O o @ + % q q q y.y.( y.( ( n f v B q q ( ( ( ( y.( q c x x % @ @ = = = : : = = = = = = = = = = = = = # O.u % % % % @ @ @ @ + + ",
". . X % B k q q y.y.( ( ( ( ( k k n q q R ( ( ( ( Q B k v v %   o o O O o o o o o o o o o o o o 7 * o 7 I % n z q q % % @ @ @ @ ",
". O = % D K Q Q q q T T q q E E q q R R F F Q Q B B q q q q % O @ @ @ @ @ @ @ @ @ @ @ @ @ @ @ @ P p @ @ % q f n q q f.0.% O O O ",
"= = < % q L Q Q q q R R q q F A q q A A F F Q Q B B q q q q % = = = = = = = = 5 $.= = = = = = - - p s - % q q % % % ].g.% > > > ",
", = = % m q H D m D q q j h y j q q H m H K L N q q B z x v % = = = = = = = 7 5 $.[ : > > > > > > 5 +.[ % k % 2 a  .% % , , , 1 ",
"3 < < % m D D K j j q q S D H K q q L L H D g c q q B b g v % > > , 3 3 +.t.r.t. .1.3.< < , , , > > > % v v % > : p a 2 3 3 3 e ",
"e < = % q q q G q q K H q q H D D m q q D H c M M C B v g v % : : = = = r.%.F.%.a.a.I.}.q.q.&.&.1 1 1 % q q % 9 9 3 a a > - > < ",
"3 < 1 % q K G j q q L L q q L L L L q q K H C M b c B v g v % % % % % % % % % % % % % % % % % % % % % B z q % e j.7.e  .e e 3 < ",
", , , % q q q q L L L L q q L L L L q q L L Z V Z Z q q q q % k k k q q v v q q q v v v q q q z z t q q f % = = { l.8.5 I = = = ",
", , , % D K q q L L L L q q L L L L q q L L N Z Z Z q q q q % k k k e.! f f q q q k k k q q q q k k q t h % < < , t.B.J.; = = = ",
"e e e % H H d d L L L L L L L L L L d d L L q q q q B n f v % B t 0.Q.5X8X[.e.q q v v v q q q q t t k q % > > - > X.9.W.a 3 e e ",
"3 + O % H H d d L L L L L L L L L L d d L L q q q q B B f v % x v W Q.U.'.$X3Xe.q B B B B q q q t t x % > , , < < < D.-.b.@.3 2 ",
"< 2 3 % H H d d L L ].].L L L L L L d d L L Z Z B B B B f v % t b W *XR.~ ~ 8.3XY q B B B B t q f f f % # @ @ = = X.J.X.>.>.# # ",
"1 1 < % H H d d L L ].].L L L L L L d d L L Z Z B B B B f v % f n W $X<.B B W K.9Xq B B B B t t k ~ % 5 , , , , , , , : : > , , ",
"> & & & & & L L ].].z.z.z.z.L L L L L L L L & & & & & & f x % f n f.e.q B B B W k.'.B B B B q Y u._.w.1.1.1. . . .3 1 2 1 1 , , ",
": * & & & & L L ].].z.z.z.z.L L L L L L L L & & & & & & f x % t B B B B B B B B o.r B B B B ^ u.~ ~ U.3.+.+.$.A.2.[ = = > > > , ",
"t.= @ % 0 w K L ].].L L L L ].].].].].].L L Z Z B B B B k k % B B B B B B B B B q q B B W f.u._._.XXi.5.1.G.&X5XB.c.7 - : : = : ",
";.{   % 0 w H L ].].L L L L ].].].].].].L L Z Z B B B B k k % B B B B B B B J B B B B g.f.W [.g.}.F.R.k.W.C.^.7X3.^.^.6     o o ",
"` W.G.8 & & H L ].].].].].].].].[.].[.[.f.Q & & & & & & k k % B B B B B B ^ B B B B B f.^ [.g.'.!.K.x.$X;X2X9X6XU.|.M.t.@ @ + O ",
"9 M.5.!.& & D L ].].].].].].[..X8XoXoX8X[.g.,.{ 8 & & & k k % B B B ].[..XOX.X.X.X.X[..X|.'.3X1X`.1X,X9X6X6X XU.P.&./.| U.> - - ",
"a C.v.>.X.L L L ].].].].[.oX.XoX0X8X8XoX[.f.g.g.g.g.[.B B % 1 1  ..XoX.X.X.X.X.X.XXX3X>X5X0X4X4XqXqX6X{.`.7X{.#.a.w.H.7. .1 2 2 ",
"= | j.4.c.% % % % % U.*.*.*.U s.q.% s.).*.i.J.w.#.(.U.(.#.I #.d.P.|.|.U.J.P.!.!.%X-X4X X0X-X-X5X5X{.{.3X6XP.[ &Xa. Xc.7. .> : : ",
"2 < -.&XT.4.1 1 1 [ +.u _.^ .X0XoXoX3X;X4X3X5X3X5X5Xd.w. X6X{. X{.d.8.W.Q.v.k.c.G. X X6X;X-X-X1XU.{.s.d.U.1. .*.=X!.1XQ.i > 1 , ",
"3 3 3 B.j./.1 2 1 1.#.q.u. X3X2X<X>X>X>X1X4X5X5X3X5X>XJ.).P.&.).{.G.E.$X#X#X$X;X4X6X0X#X2X-X3X{.U.{.J.s.2. .#.`.5.}.!.W.1 2 1 3 ",
"> > - - - - - - I d.2.!.%X-X%X+XQ.N.^.^.1X#X@X%XA.4X9X>X1X`.P.7X&Xv.B.+X+X%X%XZ.5X7X$X<X5X6X{.Y.6X{.Y.w. . .i.2.&X).N.3.< < < < ",
", 1 1 1 3 e 3 3 P.0Xs.;Xn.A.I.~.I.^.-XQ.C.&X1X1X2X*X=X1X5X<X X4XqX$X%X&X=X=X@XB.Z.C.1X;X2X{.U.`.*.r.2.`.J.i.`.t.T.Q.~.U < < < < ",
"2 , , , > : 7 U.{.i.&XW.=X0X-XS.#X-X1X5X7X3X1X1X%XQ.$X%X;X>X0XqX,X'.`.U. Xi.d.6X5X@XT.M.k.c.P.1.2.1. X .r. XU.H.T.W.a.a < < < 1 ",
"= = = ; ,  .1.>.!.-X#X+X X4XH.6X X0X7X6X|.).P.a.J.}.;X>X4X&X{.=X4X`.{. XJ.3X6X X`.L.{.1.D.x.l.A.T.R.-X>X&XR.v.B.>.i , , , , < 2 ",
"= = = @ 1. .>.H.Y.,XN.^.#X-X0X7X`.U.i.2.2.a.{.`.`.).{.1X%X2X>X;X5X{. X0X7X X`.`.|.P.&.).P.a.E.:.n.B.b.F.D.| @.q.1 1 2 1 < < , > ",
"3 3 3  .*.8.$X*./.4Xn.%X3X0X7X3XJ.2.w.a.a.P.s.2.a.+.r.t.N.m.U.@X;XP.2. X{.`.).1.r.q.1.3.P.*.J.U.q.O.7.m.:.b.B.+X>.> , < , , 1 1 ",
"= = =  .P.7.H.w.Q.V.N.6X0X`.+.1.3.t.3.2.2.[  . . .a.a.Y.U.^.9.!.=X|.2.#.`.6XP.#.2.2. .#.r.`.J.w. X{.2.J. .I %XB.c.7.> > , , > > ",
": > 1 2.w.c.7.~.S.C.J.6X0X6Xt.`.3.,.,.[ [ [ [ [ [ [ &.w.J.3.#Xp.B.E.J.Y.$.|.J.i.a.w.[ [ i.U.J.2.r. .2.d. X`.d.B.:.2XI $ : : : > ",
"= = @ ] ] E.>.&Xm.T.6Xw.6X6XL.3.,.[ 2.[ [ 1.1.r.r.d.a.P.w.D.D.c.A.@X;X$.,.7 [ [ 2.U.i.&.`.J.J.a.i.J.i.a.`.0X~.6.E.5.@ + o o o = ",
"      ] ] $XD.M.m.t.a.] J.J.U.U.a.i.a.,.$.O.O.,.L.L.|.a.J./.>.Z.Y.$.+X;X#X!.Q.F.I.p.`.6X{.U.,.3.3.,.`.Y.$.] Q.{ N.)             ",
"= > > s {.9.N.A.j.i.Y.t.w.J.|.`.{.U.3X|.{.|.6X XU.`.H.| i.N.n.>.%.,X9.A.N.N.+X&XH.2X{.`.w. .3.i.2.i.i.2.t.j.k.N.>.+ @ + O + O @ ",
"- : : u `.i.,X2XY.6X3Xi.i.w.a.w.t.`.J.Y.{.J.+.[ +.+.8.r.>.B.O.6.>.6.1X&XW.W.5.$Xb.T.H.9.!.E.p.8.F.H.k.W.b.T.6. .= = = - - = = # ",
"; ; = @ [ k.;XH.U.`.3.&.+.2.2.i.J.{.{.{.U.2. . . .#.U.O.$Xd.+.k.Z.2.U.J.i.}.4X!.Q.A.W.R.G.H.R.b.%XD.8.4.:.' = = = @ @ @ = = = > ",
": > , , , v.;X$XT.!.5XI. . .[ [ [ [ [ &.a.s.a.P.P.!.^.$XG.F.&Xn.1. .a.a = i *.`.a.i.L.^.b.x.x.6.j.:.} h.6 > > > , , , , , > > : ",
"= # # = = - |.H.A.v.E.,X,X$X+X+Xb.9.8.{.U.J.H.T.@XN.V.8.b.Q.5.9.I 1.[ , > > > , 1 e > : - - } 7 @ @ @ = > , , < < > > > - > 7 , ",
"< < , $ $ # 7 U.3.9.T.T.c.b.W.x.Z.S.Z.Z.Z.Z.Z.W.b.#Xj.6.,.3.b.1.1. ., > w.{ = $ = # # = = : : : : = 4.4.G.{ @ @ @ = = > > @.N.p.",
"= = , > > : = = u  . .3.$XW.Q.-X^.4.>.4.6.k.>.| >.M.6.>.!.V.O.7 = = @ $ 8.M.t.,...u , # = = = = : : 4.4.j.l.}...> - : = : 8.n.> ",
"e 3 3 3 2 2 u < , , , , I u P P 7.>.>.>.B.6.6.N.A.N.b.^.>.P < 1 < < 1 , , } M.6.:.Z.A.p = = = : , , - - 3.3.n.!.~.- = : : r.>X-.",
", , , , , X.G.:.s : = # = = = # # = = = : : - : : : : > : : - = = = = 6 : : 9 b.7.' :.D.P < , > , < < < 1 1 , ` | , 1 < , , j.j.",
": = = = = = c.:.j.:.} 7 > > > , < < , > > : : : = : = = = = > > > > , :.-.< < < u 2.:.G.~.> > < 1 3 3 3 2 2 1 4 4 : $ # + @ @ @ ",
"= @ # # $ @ 9.5./.E.k.M.=.5.5.o o o o @ @ $ p /.D.4.h...>.' : = = > - ..-.) > , , , M.=., , , , > > > : : : > 9 > , < 1 1 < > > ",
", , : : : : F.l.: - - O.X.5.-.> > > > > > > > ..h.=.X.X.l.' , , , , , ..I.-.;.6 , , > > - - : > > > > , , , , _ ;.9 6 1 1 1 2 2 ",
"= = - > , , , 1 1 3 3 3 3 3 3 3 3 3 3 3 1 1 1 1 D.n.{ M.9 > = $ $ $ @ O + ..F.h.9 # @ @ @ @ + @ @ @ @ @ @ @ + [ 1Xc.j.:.5 ; : > ",
"= = = = = # # = = = = = = = = = = = = = = = = = u } M.4.= = = > > > > , , > > 8 4 > > : - : : : : : > > > > = = = = 7 :.4 = = : ",
"@ o O O O o o o o O o X o o o o X o o o X X X X O -.h.o O @ O @ O O O O O O o O O o O O + o o o o o O o O @ $ # @ # @ > > : : = ",
"                                                                                                                                "
};
