/* XPM */
static char *_f0ccbaa1ce344c5a7bc5df80918266f9fF74m9Ka3ZvFSn2[] = {
/* columns rows colors chars-per-pixel */
"64 64 3 1 ",
"  c #472D3C",
". c #5E3643",
"X c #7A444A",
/* pixels */
"XXXXXXXXXXXXXXXXXXXXXXXXXXXXXXXXXXXXXXXXXXXXXXXXXXXXXXXXXXXXXXXX",
"XXXXXXXXXXXXXXXXXXXXXXXXXXXXXXXXXXXXXXXXXXXXXXXXXXXXXXXXXXXXXXXX",
"XXX...............XXXXXXXXXXXXXXXX......XXXXXXXX..XXX.XXXX.....X",
"X..XXXXXXXXXXXXXXXXXXXXXXXX.XXXXXXXXXXXXXXXXXXXXXXXXXXXXXXXXXXXX",
"XXXXXXXXXXXXXXXXXXXXXXXXXXXXXXXXXXXXXXXXXXXXXXXXXXXXXXXXXXXXXXXX",
"XXXXXXXXXXX        XXXXXXXXXXXXXXXXXXXXXXXXXXXXXXXXXXXXXXXXXXXXX",
"XX         XXXXXXXXXXXXXXXXXXX         XXXXXXXXXXXX     XXXXXXXX",
"XXXXXXXXXXXXXXXXXXXXXXXXXXX   XXXXXXXXX            XXXXXXXXXXXXX",
"XXXXXXXXXXXXXXXXXXXXXXXXXXXXXXXXXXXXXXXXXXXXXXXXXXXXXXXXXXXXXXXX",
"XXXXXXXXXXXXXXXXXXXXXXXXXXXXXXXXXXXXXXXXXXXXXXXXXXXXXXXXXXXXXXXX",
"XXXXXXXXXXXXXXXXXXXXXXXXXXXXXXXXXXXXXXX.XXXXXXXXXXXXXXXXXXXXXXXX",
"XXXX......XXXXXXXXXXXX......XXXXXXXXX..XXXXXXXXXXXXXXXXXX..XXXXX",
"XX..XXXXXX......XXXXXXXXXXXX......XX.XXXXX.........XXXXXXXX...XX",
"XXXXXXXXXXXXXXXXXXXXXXXXXXXXXXXXXXXXXXXXXX.XXXXXXXXXXXXXXXXXXXXX",
"XXXXXXXXXXXXXXXXXXXXX      XXXXXXXXXXXXXXXXXXXXXXXXXXXXXXXXXXXXX",
"XXXXXXXXXXXXXXXXXXXXXXXXXXX      XXXXXXXXXXXXXXXXXXXXXXXXXXXXXXX",
"XXXXXXXXXXXXXXXXXXXXXXXXXXXXXXXXXXXXXXXXXXXXXXXXXXXXXXXXXXXXXXXX",
"XXX...............XXXXXXXXXXXXXXXX......XXXXXXXX..XXX.XXXX.....X",
"X..XXXXXXXXXXXXXXXXXXXXXXXX.XXXXXXXXXXXXXXXXXXXXXXXXXXXXXXXXXXXX",
"XXXXXXXXXXXXXXXXXXXXXXXXXXXXXXXXXXXXXXXXXXXXXXXXXXXXXXXXXXXXXXXX",
"XXXXXXXX       XXXXXXXXXXXXXXXXXXXXXXXXX   XXXXXXXXXXXXXXXXXXXXX",
"XXXXXX  XXXXXXX        XXXXXXXXXXXXXXX  XXX    XXXXXXXX     XXXX",
"XXXXX XXXXXXXXXXXXXXXXXXXXXXXXXXXXXX  XXXXXXXXX        XXXXXXXXX",
"XXXXXXXXXXXXXXXXXXXXXXXXXXXXXXXXXXXXXXXXXXXXXXXXXXXXXXXXXXXXXXXX",
"XXXXXXXXXXXXXXXXXX          XXXXXXXXXXXXXXXXXXXXXXXXXXXXXXXXXXXX",
"XXXXXXXXXXXXXXXXXXXXXXXXXXXXXXXXXXXXXXX.XXXXXXXXXXXXXXXXXXXXXXXX",
"XXXX......XXXXXXXXXXXX..X...XXXXXXXXX..XXXXXXXXXXXXXXXXXX..XXXXX",
"XX..XXXXXX......XXXXXXXXXXXXX.....XX.XXXXX.........XXXXXXXX...XX",
"XXXXXXXXXXXXXXXXXXXXXXXXXXXXXXXXXXXXXXXXXX.XXXXXXXXXXXXXXXXXXXXX",
"XXXXXXXXXXXXXXXXXXXXXXXXXXXXXXXXXXXXXXXXXXXXXXXXXXXXXXXXXXXXXXXX",
"XXXXXXXXXXXXXXXXXXXXXXXXXXXXXXXXXXXXXXXXXXXXXXXXXXXXXXXXXXXXXXXX",
"XXXXXXXXXXXXXXXXXXXXXXXXXXXXXXXXXXXXXXXXXXXXXXXXXXXXXXXXXXXXXXXX",
"XXX...............XXXXXXXXXXXXXXXX......XXXXXXXX..XXX.XXXX.....X",
"X..XXXXXXXXXXXXXXXXXXXXXXXX.XXXXXXXXXXXXXXXXXXXXXXXXXXXXXXXXXXXX",
"XXXXXXXXXXXXXXXXXXXXXXXXXXXXXXXXXXXXXXXXXXXXXXXXXXXXXXXXXXXXXXXX",
"XXXXXXXXXXXXXXX   XXXXXXXXXXXXXXXXXXXXXXXXXXXXXXXXXXXXXXXXXXXXXX",
"XXXXXXXXXXX    XXX  XXXXXXXXXXXXXXXXXXXXX    XXXXXXXXXXXXXX  XXX",
"XXXXXXXXX  XXXXXXXXX   XXXXXXXXXXXXX     XXXX  XXXXXXXX    XXXXX",
"    XXXXXXXXXXXXXXXXXXX  XXXXXXXXXXXXXXXXXXXXXX  XX    XXXXXXXXX",
"XXXXXXXXXXXXXXXXXXXXXXXXXXXXXXXXXXXXXXXXXXXXXXXXX  XXXXXXXXXXXXX",
"XXXXXXXXXXXXXXXXXXXXXXXXXXXXXXXXXXXXXXX.XXXXXXXXXXXXXXXXXXXXXXXX",
"XXXX......XXXXXXXXXXXX......XXXXXXXXX..XXXXXXXXXXXXXXXXXX..XXXXX",
"XX..XXXXXX......XXXXXXXXXXXX......XX.XXXXX.........XXXXXXXX...XX",
"   XXXXXXXXXXXXXXXXXXXXXXXXXXXXXXXXXXXXXXX.XXXXXXXXXXXXXXXXXXXXX",
"XXX   XXXXXXXXXXXXXXXXXXXXXXXXXXXXXXXXXXXXXXXXXXXXXXXXXXXXXXXXXX",
"XXXXX XXXXXXXXXXXXXX XXXXXXXXXXXXXXXXXXXXXXXXXXXXXXXXXXXXXXXXXXX",
"XXXXXXXXXXXXXXXXXXXXX XXXXXXXXXXXXXXXXXXXXXXXXXXXXXXXXXXXXXXXXXX",
"XXX...............XXXX XXXXXXXXXXX......XXXXXXXX..XXX.XXXX.....X",
"X..XXXXXXXXXXXXXXXXXXX XXXX.XXXXXXXXXXXXXXXXXXXXXXXXXXXXXXXXXXXX",
"XXXXXXXXXXXXXXXXXXXXXXX XXXXXXXXXXXXXXXXXXXXXXXXXXXXXXXXXXXXXXXX",
"XXXXXXXXXXXXXXXXXXXXXXXX   XXXXXXXXXXXXXXXXXXXXXXXXXXXXXXXXXXXXX",
"XXXXXXXXXXXXX      XXXXXXXX      XXXXXXXXXXX        XXXXXXXXXXXX",
"XXXXXXX      XXXXXX XXXXXXXXXXXXX   XXXXXXXXXXXXXXXX XXXXXXXX   ",
"     XXXXXXXXXXXXXXX XXXXXXXXXXXXXXXXXXXXXXXXXXXXXXX XXX     XXX",
"XXXXXXXXXXXXXXXXXXXX XXXXXXXXXXXXXXXXXXXXXXXXXXXXXXXX   XXXXXXXX",
"XXXXXXXXXXXXXXXXXXXXX XXXXXXXXXXXXXXXXX.XXXXXXXXXXXXXXXXXXXXXXXX",
"XXXX......XXXXXXXXXXXX......XXXXXXXXX..XXXXXXXXXXXXXXXXXX..XXXXX",
"XX..XXXXXX......XXXXXXXXXXXX......XX.XXXXX.........XXXXXXXX...XX",
"XXXXXXXXXXXXXXXXXXXXXXX     XXXXXXXXXXXXXX.XXXXXXXXXXXXXXXXXXXXX",
"XXXXXXXXXXXXXXXXXXX    XXXXX    XXXXXXXXXXXXXXXXXXXXXXXXXXXXXXXX",
"XXX         XXXXXXXXXXXXXXXXXXXX    XXXXXXXXXXXXXXXXXXXXXXXXXXXX",
"XXXXXXXXXXXXXXXXXXXXXXXXXXXXXXXXXXXX   XXXXXXXXXXXXXXXXXXXXXXXXX",
"XXX...............XXXXXXXXXXXXXXXX......XXXXXXXX..XXX.XXXX.....X",
"X..XXXXXXXXXXXXXXXXXXXXXXXX.XXXXXXXXXXXXXXXXXXXXXXXXXXXXXXXXXXXX"
};
