/* XPM */
static char *_100d375f74d41049f2d949631f7adb4bWlcHyQ3AH9DFCQB[] = {
/* columns rows colors chars-per-pixel */
"66 64 49 1 ",
"  c None",
". c #090908",
"X c #0D0D0C",
"o c #1C1C1B",
"O c #371602",
"+ c #022737",
"@ c #6A040B",
"# c #680F15",
"$ c #612400",
"% c #622500",
"& c #472D3C",
"* c #472D3D",
"= c #495917",
"- c #62732C",
"; c #2C1855",
": c #39314B",
"> c #342560",
", c #5E3643",
"< c #00435F",
"1 c #4D4D43",
"2 c #7A444A",
"3 c #93060F",
"4 c #AE0712",
"5 c #8B3137",
"6 c #A34F07",
"7 c #C9752D",
"8 c #53871A",
"9 c #708111",
"0 c #71AA34",
"q c #EC8F26",
"w c #FEB664",
"e c #A2EC52",
"r c #6234BD",
"t c #6852A7",
"y c #1B31C5",
"u c #5B56F8",
"i c #B0689B",
"p c #827FDC",
"a c #F969CF",
"s c #ADAFAC",
"d c #FCE8A6",
"f c #8D88FE",
"g c #B089FE",
"h c #CC9EFF",
"j c #D8D8D1",
"k c #FEF0C3",
"l c #FCD3FF",
"z c #F9F9E0",
"x c #E9F2FF",
/* pixels */
"  2222222222222222222222222222222222222222222222222222222222222222",
"  2222222222222222222222222222222222222222222222222222222222222222",
"  222,,,,,,,,,,,,,,,2222222222222222,,,,,,22222222,,222,2222,,,,,2",
"  2,,222222222222222222222222,222222222222222222222222222222222222",
"  2222222222222222222222222222222222222222222222222222222222222222",
"  2222222222222222222222222222222222222222222222222222222222222222",
"  2222222222222222222222222222222222222222222222222222222222222222",
"  2222222222222222222222222222222222222222222222222222222222222222",
"  2222222222222222222222222222222222222222222222222222222222222222",
"  2222222222222222222222222222222222222222222222222222222222222222",
"  222222222222222222222222222222222222222,222222222222222222222222",
"  2222,,,,,,222222222222,,,,,,222222222,,222222222222222222,,22222",
"  22,,222222,,,,,,222222222222,,,,,,22,22222,,,,,,,,,22222222,,,22",
"  222222222222222222222222222222222222222222,222222222222222222222",
"  2222222222222222222222222222222222222222222222222222222222222222",
"  &&&&&&&&&&&,,,&&&&&&&&&&&,,,,,,&&&&,,,&&&&&&&&&&&&&&&,,,,&&&&&&&",
"  &&&&,,,,&&&&&&&&&&&&&&&&&&&&&&&&&&&&&&,,,,&&&&&&&,,,,&&&&&&&&&&&",
"  &&:wqwwqw::::::::ll::l:::::::::&&&::::::::::::::::::::::::::::&&",
"  &&fwqqwwqf::::::fl:ll:f::::::::,&&::::::::fwqqwf::::::::::::::&&",
"  &&ffffffff:::::::f:l:f:::::::::,&&:::::::::fwqf:::::::::::::::&&",
"  &&fwwqqwwf::::::::f:f::::::::::,&&::::::::f::::f::::::::::::::&&",
"  &&:fwqwwf:::::::::f:f::::::::::&,&:::::::f::::x:f:::::::::::::&&",
"  &&fyffffyf:::::::f:::f:::::::::&,&::::::f::::xxx:f::::::::::::&&",
"  &&fyyyyyyf::::::fl:l:lf::::::::&,&:::::f000800xxx0f:::::::::::&&",
"  &&fulluuuf:::::f:l:l:::f:::::::&&&::::f00e000800xx0f::::::::::&&",
"  &&fuluuulf:::::f444ll:4f:::::::&&&:::f00080e00000xx0f:::::::::&&",
"  &&fxuugllf:::::fx444444f:::::::&&&::f0000000000e000x0f::::::::&&",
"  &&fxgggggf:::::f4x44333f:::::::&&&:f800e08000800008000f:::::::&&",
"  &&fxgghhhf:::::f33xxx33f:::::::&&&:f0080008e0e00ee0800f:::::::&&",
"  &&fhxxhhhf::::::f33333f::::::::&&&::f0800000008000000f::::::::&&",
"  &&:ffffff::::::::fffff:::::::::&&&:::ffffffffffffffff:::::::::&&",
"  &&&&&&&&&&&&,,&&&&&&&&&&&,,,&&&&,,,&&&&&&&&&&&&&&&&&,,,,,,&&&&&&",
"  &&&&&&&&&&&&&&,,&&&&&&&&&&&&,,,&&&&,,,&&&&&&&&,,,,,,&&&&&&&&&&&&",
"  &&:::::::::::::::::::::::::::::&&&::::---+++:::s::::::::::::::&&",
"  &&:::XXXXXXX::::::::::fwqf:::::&,&::::---+++:::s::::::::::::::&&",
"  &&::XXjjzzzXX::::::::ffqwff::::&,&::::===+++:::s::::::::::::::&&",
"  &&:XXjzzzzzzXX:::::ff::::::ff::&&,::::===+++:::s::::::::::::::&&",
"  &&:XjzzzzzzzzX::::f:::xrrx:::f:&&,::::---++X:::s:::X::::::::::&&",
"  &&:XjzjjzzzjjX::::f:::rrrr:x:f:&&&::::---+X+:::s:iiiXiiiiaaiii&&",
"  &&:XjzXXzzzXXX::::f999rxxr9exf:&&&::::---X<<:XXXXXiiiXiiiaaiii&&",
"  &&:XjzXXzjzXXX::::fre9999999rf:&&&::::---X<<XXX44XX4#X44444#44&&",
"  &&:XjjzzzXzzzX::::f9rr99e9rrxf:&&&::::---X+XXXXX44XX#X44444#44&&",
"  &&:XXjjzzzzzzX::::f999rrrr99xf:&&&::::---X+XXXXXX4XX#X44444#44&&",
"  &&::XXjjzzzzjX::::f9rre999rr9f:&&&::::---X+XoXXXXXXX6X67766666&&",
"  &&::XXXjXjXjXX::::fr99999999rf:&&&::::---X+XooXXXXXX6X67766666&&",
"  &&:::XXXXXXXX::::::ffffffffff::&&&::::---+XXXooXXXXXX667766666&&",
"  &&,,&&&&&&&&,,,,,&&,,&&,,,,,,&&&&&,,,,,&&,,,XXooXXX,,,,,,&&&&&&&",
"  &&&&&&&&&&&&&&&&&&&&&&&&&&&&&&&&&&&&&&&&&&&&&XXXXX&&&&&&&&&&&&&&",
"  &&::>>>$$@@@:::::::::::::::::::&&&::::::XXXXX:XXX:XXXXX:::::::&&",
"  &&::>>>$$@@@:::::::::::::::::::&&&:::::X:::::XXXXX:::::X::::::&&",
"  &&::>>>$$@@@::::::::.::.:::::::&&&::::X::XXXXXXXXXXXXX::X:::::&&",
"  &&::>>>OO@@@::::::::....:::::::&&&::::::X::::X4X4X::::X:::::::&&",
"  &&::>>>$$@@@@:::::::.e.e:::::::&&&:::::X:::XXXXXXXXX:::X::::::&&",
"  &&::>>>$$@@@@:::::::....:::::::&&&:::::X::X:::XXX:::X::X::::::&&",
"  &&::>>>$$:@@@::::::::..::::::::&&&uuuppXuuXuuXu::X::X::X7:::::&&",
"  &&:>>>>$$:@@@::.:::::..::::::::&&&uuuppuuuXuuuX:X:::X::7::::::&&",
"  &&:>>>>$$:@@@:::.:::...::::::::&&&rrrrrrrr;X;rr::::X7:kkk:7:::&&",
"  &&:>>>:$$:@@@@::.:::...::::::::&&&rrrrrrrr;;;rr:::::7:kdkkkk::&&",
"  &&:ttt:$$:5555:.:::....::::::::&&&rrrrrrrr;;;rr::::kkdkdkkkd::&&",
"  &&:ttt:OO::555:.:::....::::::::&&&jjj111jjjjjjj::::kkdkdkkdk::&&",
"  &&:>>>:$$::@@@::.::....::::::::&&&jjj111jjjjjjj::::kkdkkdkdk::&&",
"  &&:>>>:$$::@@@:::......::::::::&&&jjj111jjjjjjj::::kdkkkdkdk::&&",
"  &&&&&&&&&&&&&&&&&&&&&&&&&&&&&&&&&&&&&&&&&&&&&&&&&&&&&&&&&&&&&&&&",
"  &&&&&&&&&&&&&&&&&&&&&&&&&&&&&&&&&&&&&&&&&&&&&&&&&&&&&&&&&&&&&&&&"
};
