/* XPM */
static char *_10f9f915c074809d5fc634710a0e7a6Pd1wZySFFuAwh1NS[] = {
/* columns rows colors chars-per-pixel */
"64 64 46 1 ",
"  c #090908",
". c #0D0D0C",
"X c #1C1C1B",
"o c #371602",
"O c #022737",
"+ c #6A040B",
"@ c #680F15",
"# c #612400",
"$ c #472D3C",
"% c #495917",
"& c #62732C",
"* c #2C1855",
"= c #39314B",
"- c #342560",
"; c #5E3643",
": c #00435F",
"> c #4D4D43",
", c #7A444A",
"< c #93060F",
"1 c #AE0712",
"2 c #8B3137",
"3 c #A34F07",
"4 c #C9752D",
"5 c #53871A",
"6 c #708111",
"7 c #71AA34",
"8 c #EC8F26",
"9 c #FEB664",
"0 c #A2EC52",
"q c #6234BD",
"w c #6852A7",
"e c #1B31C5",
"r c #5B56F8",
"t c #B0689B",
"y c #827FDC",
"u c #F969CF",
"i c #ADAFAC",
"p c #FCE8A6",
"a c #8D88FE",
"s c #B089FE",
"d c #CC9EFF",
"f c #D8D8D1",
"g c #FEF0C3",
"h c #FCD3FF",
"j c #F9F9E0",
"k c #E9F2FF",
/* pixels */
",,,,,,,,,,,,,,,,,,,,,,,,,,,,,,,,,,,,,,,,,,,,,,,,,,,,,,,,,,,,,,,,",
",,,,,,,,,,,,,,,,,,,,,,,,,,,,,,,,,,,,,,,,,,,,,,,,,,,,,,,,,,,,,,,,",
",,,;;;;;;;;;;;;;;;,,,,,,,,,,,,,,,,;;;;;;,,,,,,,,;;,,,;,,,,;;;;;,",
",;;,,,,,,,,,,,,,,,,,,,,,,,,;,,,,,,,,,,,,,,,,,,,,,,,,,,,,,,,,,,,,",
",,,,,,,,,,,,,,,,,,,,,,,,,,,,,,,,,,,,,,,,,,,,,,,,,,,,,,,,,,,,,,,,",
",,,,,,,,,,,,,,,,,,,,,,,,,,,,,,,,,,,,,,,,,,,,,,,,,,,,,,,,,,,,,,,,",
",,,,,,,,,,,,,,,,,,,,,,,,,,,,,,,,,,,,,,,,,,,,,,,,,,,,,,,,,,,,,,,,",
",,,,,,,,,,,,,,,,,,,,,,,,,,,,,,,,,,,,,,,,,,,,,,,,,,,,,,,,,,,,,,,,",
",,,,,,,,,,,,,,,,,,,,,,,,,,,,,,,,,,,,,,,,,,,,,,,,,,,,,,,,,,,,,,,,",
",,,,,,,,,,,,,,,,,,,,,,,,,,,,,,,,,,,,,,,,,,,,,,,,,,,,,,,,,,,,,,,,",
",,,,,,,,,,,,,,,,,,,,,,,,,,,,,,,,,,,,,,,;,,,,,,,,,,,,,,,,,,,,,,,,",
",,,,;;;;;;,,,,,,,,,,,,;;;;;;,,,,,,,,,;;,,,,,,,,,,,,,,,,,,;;,,,,,",
",,;;,,,,,,;;;;;;,,,,,,,,,,,,;;;;;;,,;,,,,,;;;;;;;;;,,,,,,,,;;;,,",
",,,,,,,,,,,,,,,,,,,,,,,,,,,,,,,,,,,,,,,,,,;,,,,,,,,,,,,,,,,,,,,,",
",,,,,,,,,,,,,,,,,,,,,,,,,,,,,,,,,,,,,,,,,,,,,,,,,,,,,,,,,,,,,,,,",
"$$$$$$$$$$$;;;$$$$$$$$$$$;;;;;;$$$$;;;$$$$$$$$$$$$$$$;;;;$$$$$$$",
"$$$$;;;;$$$$$$$$$$$$$$$$$$$$$$$$$$$$$$;;;;$$$$$$$;;;;$$$$$$$$$$$",
"$$=989989========hh==h=========$$$============================$$",
"$$a988998a======ah=hh=a========;$$========a9889a==============$$",
"$$aaaaaaaa=======a=h=a=========;$$=========a98a===============$$",
"$$a998899a========a=a==========;$$========a====a==============$$",
"$$=a9899a=========a=a==========$;$=======a====k=a=============$$",
"$$aeaaaaea=======a===a=========$;$======a====kkk=a============$$",
"$$aeeeeeea======ah=h=ha========$;$=====a777577kkk7a===========$$",
"$$arhhrrra=====a=h=h===a=======$$$====a770777577kk7a==========$$",
"$$arhrrrha=====a111hh=1a=======$$$===a77757077777kk7a=========$$",
"$$akrrshha=====ak111111a=======$$$==a77777777770777k7a========$$",
"$$aksssssa=====a1k11<<<a=======$$$=a577075777577775777a=======$$",
"$$akssddda=====a<<kkk<<a=======$$$=a775777507077007577a=======$$",
"$$adkkddda======a<<<<<a========$$$==a7577777775777777a========$$",
"$$=aaaaaa========aaaaa=========$$$===aaaaaaaaaaaaaaaa=========$$",
"$$$$$$$$$$$$;;$$$$$$$$$$$;;;$$$$;;;$$$$$$$$$$$$$$$$$;;;;;;$$$$$$",
"$$$$$$$$$$$$$$;;$$$$$$$$$$$$;;;$$$$;;;$$$$$$$$;;;;;;$$$$$$$$$$$$",
"$$=============================$$$====&&&OOO===i==============$$",
"$$===.......==========a98a=====$;$====&&&OOO===i==============$$",
"$$==..ffjjj..========aa89aa====$;$====%%%OOO===i==============$$",
"$$=..fjjjjjj..=====aa======aa==$$;====%%%OOO===i==============$$",
"$$=.fjjjjjjjj.====a===kqqk===a=$$;====&&&OO.===i===.==========$$",
"$$=.fjffjjjff.====a===qqqq=k=a=$$$====&&&O.O===i=ttt.ttttuuttt$$",
"$$=.fj..jjj...====a666qkkq60ka=$$$====&&&.::=.....ttt.tttuuttt$$",
"$$=.fj..jfj...====aq06666666qa=$$$====&&&.::...11..1@.11111@11$$",
"$$=.ffjjj.jjj.====a6qq6606qqka=$$$====&&&.O.....11..@.11111@11$$",
"$$=..ffjjjjjj.====a666qqqq66ka=$$$====&&&.O......1..@.11111@11$$",
"$$==..ffjjjjf.====a6qq0666qq6a=$$$====&&&.O.X.......3.34433333$$",
"$$==...f.f.f..====aq66666666qa=$$$====&&&.O.XX......3.34433333$$",
"$$===........======aaaaaaaaaa==$$$====&&&O...XX......334433333$$",
"$$;;$$$$$$$$;;;;;$$;;$$;;;;;;$$$$$;;;;;$$;;;..XX...;;;;;;$$$$$$$",
"$$$$$$$$$$$$$$$$$$$$$$$$$$$$$$$$$$$$$$$$$$$$$.....$$$$$$$$$$$$$$",
"$$==---##+++===================$$$======.....=...=.....=======$$",
"$$==---##+++===================$$$=====.=====.....=====.======$$",
"$$==---##+++======== == =======$$$====.==.............==.=====$$",
"$$==---oo+++========    =======$$$======.====.1.1.====.=======$$",
"$$==---##++++======= 0 0=======$$$=====.===.........===.======$$",
"$$==---##++++=======    =======$$$=====.==.===...===.==.======$$",
"$$==---##=+++========  ========$$$rrryy.rr.rr.r==.==.==.4=====$$",
"$$=----##=+++== =====  ========$$$rrryyrrr.rrr.=.===.==4======$$",
"$$=----##=+++=== ===   ========$$$qqqqqqqq*.*qq====.4=ggg=4===$$",
"$$=---=##=++++== ===   ========$$$qqqqqqqq***qq=====4=gpgggg==$$",
"$$=www=##=2222= ===    ========$$$qqqqqqqq***qq====ggpgpgggp==$$",
"$$=www=oo==222= ===    ========$$$fff>>>fffffff====ggpgpggpg==$$",
"$$=---=##==+++== ==    ========$$$fff>>>fffffff====ggpggpgpg==$$",
"$$=---=##==+++===      ========$$$fff>>>fffffff====gpgggpgpg==$$",
"$$$$$$$$$$$$$$$$$$$$$$$$$$$$$$$$$$$$$$$$$$$$$$$$$$$$$$$$$$$$$$$$",
"$$$$$$$$$$$$$$$$$$$$$$$$$$$$$$$$$$$$$$$$$$$$$$$$$$$$$$$$$$$$$$$$"
};
