/* XPM */
static char *_140a7e6858f4a73993e8696e6e1e293[] = {
/* columns rows colors chars-per-pixel */
"32 32 42 1 ",
"  c #3F3B3B",
". c #474646",
"X c #4D4B4B",
"o c #4F4D4D",
"O c #575656",
"+ c #585656",
"@ c #595858",
"# c #5C5B5B",
"$ c #5D5C5C",
"% c #5F5E5E",
"& c #636262",
"* c #656262",
"= c #676666",
"- c #6B6A6A",
"; c #6C6B6B",
": c #6D6C6C",
"> c #706F6F",
", c gray44",
"< c #767676",
"1 c gray47",
"2 c #7D7C7C",
"3 c #807F7F",
"4 c gray51",
"5 c #848383",
"6 c #868585",
"7 c #888787",
"8 c #8B8A8A",
"9 c #8C8B8B",
"0 c #8E8E8E",
"q c #929191",
"w c #949393",
"e c gray58",
"r c #9A9999",
"t c #9C9B9B",
"y c #9F9F9F",
"u c #A09F9F",
"i c gray63",
"p c #A7A7A7",
"a c #A9A9A9",
"s c #ACABAB",
"d c #AFAFAF",
"f c gray69",
/* pixels */
"1wp,paapi@O-e<wppp2raadddddffdaf",
"1:aadaaaapppapaaaaypddddd0dfd6@r",
"dddddddaaaaaaadddddddddfd0dffaey",
"fffddddaqpdddddddaddyydffdffffff",
"ffffddddqpdadffd8Xpdyydfffffffii",
"ffdfffffdfa$ydffd68ddfffffffffii",
"fa8dffffffd8dfffd$2dffffffffffff",
"a#Xaffffdffdfffffy,dfffffffffpff",
"2$pffffy3dfffffffa-ifffdfffff<df",
"3afffffy3dfffffffp4dffi<fffffdfa",
"dfdfffffdfffff00fffffffdfatffffq",
"fi<dfffffffffffffffffffffq&dffff",
"ffdffffffffffdfffdffffffffdfffff",
"ffaaffffdfffy=pff4yfffffpffffdqe",
"fdeefffq&dfd$$qfd4iffffd<dffaq$p",
"+:::,,:@#==::&&:-:>,,>:::>>>;$:,",
":ruifdi8aiifa62y5pfffd,8dfffffff",
"q2-,dp4,ffffaq8<ddpfff8&tfffffff",
"eaddfffdffiffffdfp6fffdqafffffff",
"esffffffff<dfffffffffffffiiffffi",
"eayiffffffdffffffffffffffiiffffy",
"ep.2dfffffffffffffffffffffffffd$",
"esdfffffffdffffffffdfffdffiifffy",
"esfffpfffdo0ffffffd&dfd$yfiifff,",
"0ffff6ifffdfffffaafdffd:9ffffff8",
"0ffffd4pffffdfffeefffffyyfffffff",
"8ffffd:ifffd&dfffffffffiifffffff",
"8fffffdfffffdffffffffffffffffffd",
"8dfffffddffffiyfffff6pfffffffdy:",
"qpddpad$#yfffyyd44dfpdffffffd&74",
"6adaqqda1:paaaaa2:apppy34yiuy40w",
" OO+OO++##$$$$$$$$$***-------,,,"
};
