/* XPM */
static char *_ada7c824a4c463cb419af47ca0f096e[] = {
/* columns rows colors chars-per-pixel */
"64 64 66 1 ",
"  c #4A2C0F",
". c #4C2E12",
"X c #4F3114",
"o c #523316",
"O c #553619",
"+ c #58371A",
"@ c #57381A",
"# c #5B3B1D",
"$ c #5F3E20",
"% c #603F21",
"& c #644324",
"* c #6B4827",
"= c #6A4728",
"- c #6D4A2A",
"; c #724E2D",
": c #75512F",
"> c #775230",
", c #7A5532",
"< c #7F5935",
"1 c #815A36",
"2 c #887060",
"3 c #887E79",
"4 c #8E817B",
"5 c #94857C",
"6 c #98877D",
"7 c #9C897E",
"8 c #9A8F89",
"9 c #9F948F",
"0 c #A18D80",
"q c #A3938B",
"w c #A4948B",
"e c #AB9B92",
"r c #ABA29F",
"t c #B3A7A1",
"y c #B5A9A2",
"u c #B9ABA3",
"i c #B9AFAA",
"p c #BFBBB9",
"a c #C2B9B5",
"s c #C0BBB9",
"d c #C2BCBA",
"f c #C4BDBA",
"g c #C8BFBB",
"h c #CAC0BB",
"j c #CFCAC9",
"k c #D0CBC9",
"l c #D4CFCD",
"z c #D9D1CE",
"x c #DED6D6",
"c c #E1DADA",
"v c #E1DEDE",
"b c #E5DEDE",
"n c #E3E0DE",
"m c #E5E0DE",
"M c #E7E1E1",
"N c #E7E5E4",
"B c #E9E3E3",
"V c #E8E5E4",
"C c #EEEAEA",
"Z c #F2EDED",
"A c #F4F1F1",
"S c #F7F4F4",
"D c #F8F5F5",
"F c #FAF8F8",
"G c #FDFBFB",
"H c #FDFCFC",
/* pixels */
"&-:::::<<<<xxx1111111:,:,-::>>>>>>>>>>>>>bxx>;;;;;;::::;;;::>>::",
"==-**--====xxMHVf6-------;-;;>>>>>>>-6gVGDDMw>>>>-:;;;;;::::;;>>",
">;;;--;;;--xxAAbCVGVf5&==&&<-#&=-6ffGVgbxbDZZ>,,>-&=-->>:::<<111",
">11<,<<,>,>>xbDx-xxbCVGVf6-<,:ggVVhCxxx,,CCxD7>><<<>:;=-;;>;;--;",
"Ooo##&&&===GxxDb->,<<xxbCVGAVGCCbxx-;,:::CCx6D%&&=;;-===---*-;1<",
"%#&$$%&*--fC-xCC::;;;;;;-xxZbx;:>>>;;--11CCx<gC;--$$&=-;;;;;;-11",
"=-=---*&&&Vb$xCCC5&&&&---------====***=;2ZCx;-H:;;:;--==-;;;----",
"<<,>:;;>=6Vx=xxHCDGVff6&&***---;;;;;7ggVGGVD>>hC,,,,,,,>>;;;;;;;",
"<<;>>,>>>hhx>:xDb<xbCCVGVfff6*-;6ggVVfCbxHxCh>;Cf---*=-;;>>;;-*-",
":-1<;&&-*Vb::>xCCx>,,,xxbChgVGFGDCCbxx:;xHxbD#&&H&##%%:::-=--::;",
"*-&=;>>,7Vx=-*xbDx<;&&-==;xxxxVx>::::;:;bDx:D7>>hC&&&&---;:*&<<,",
"&&&=;;:>hhx>;-xxHxx;;;-=&=;-;==-;:>>><<,bDx>7D,;>D7::::;;;--====",
"===&==&&Gx&==xVbCCx==-;>>;-;><<<<<<<<<<>ZCx;;D6;;7D>:::>:>>>,,,>",
";&&&$%%kdx$#$Cf&CCbSh7>>>>&&&%$&&===6fVHFCx;;6D;;;fC:;:::;;;;;:>",
"Oo#@4dVGb&&=bV#@bDxBCDHVf5&&&&&#5fVHDCb&CZM&&&D5&&&H$$########@@",
".3sVVCbo#..xG.OOxDZCX..bCDHNsvsHDCbOooooDAZooosCooorGOOO@#######",
"GDfbx&&&&6fFf--*%HACC%#&###bCACO########DbH####D4###dC##@@@@OOOO",
"HZx::7gDHDC0<<<<DbCCCC<<<<<###&&&&&&&&&xHxCC&&&fC====fC---------",
"xFFFHDC6&&&####Cd%xDbD5&&&&&&&&&&&&&5fDHHxxH----D6;;;<Ch>>::;;;>",
"xGAGZx:::::>>>Cg;;xCHxDa6;;--;---6hVDCbbDx>gC;;;fC--;;;D6->,<<<1",
"1ZCbHHC&&-6ffAf;:xhCxHbHDHVVffnVHDCb-xxFZ--:H>>>>H>>::11D0>:-=-:",
"<7DxxDAGDHDCCg::-Cf&xbDxH$bbCCAb::::xxDbx-;:Ch>>>>H0<<111H1111<:",
";;D6xxCADC&&&&&6Af---xCCbD;;>>>>>>,xxCCx-<>:,HC----D6&&&&&H&&&&&",
";;gC;cVCHZHf>hVFm:::;:HCCCg::;---&#xCCx5D-----gDx:::D7::;-6D*&&&",
"110D:eFxxDCCHZb>>>>>>D6xDbCf-&-&-:xCCx-:Cg<<1110GCx::Df=--:bV<11",
"<@OH&&D5xxCAVDC>>><<hC;xxHxCg>>>>xCCxx<>:Cf-xxxxxCVx-;CC::::Ch<<",
":,<Ch<hC;xxADDADb&#dC&$#xxHxCg:-xCCxx=--;;CAcxCDHCVHxx#fC&&&&Cd$",
">>:7D;-H;;;HxbCHFZbD&--;;xbDxGkxCCxx---xxxxGZHCbbCDHDCbxCC-==-Cf",
"--;;H--Vb::D7xxVHGHAxx:;;;xCCAzCCxx=-xxxbCHCCx&$xxxxbCDHDSDxxx;x",
"===&D6=fC&&fC%&xDbbAHZCxx=-xCZACxxxxxbCHDCxx;H-qqx--xxxxbCFHDCbx",
"#&##D4##H###HOOoADxxbFAHCbxxxFFGDCCAHDCxxO##Cd&VD&&5D&**xxxxbCDH",
"    Cp  pC  pC  vD  xxCHADDCxxxVbCCAxxxvA  3D  Gx  pC    Av xCCx",
"=$##dC##jF##rG@@Gx$####xCDVCHAAAxxxxoOOHoooCsossxooD5##$dC$##VbO",
"&===fC--fC-*Cf-6D======**bDCxAbHxx&&&&fC==6D==fC&=6D---6D---6D==",
"<<<<0D::Vb::D7;gC::xxxxxxxxCHAADCx::::D6;;D6;:Gx;;fC;--H,,,,Vb,,",
"&---tG#&H&-6D--DbxxxxbCCCDDHDFFVHxx;:7D::6D;<hC>>>H:::D7:::6D-==",
",::;gC,7D:;ChxxHCCDHHDCCCbbxxbDxCCx&&dC@OD4&$fC&&fC&&fC&&&=D6->;",
"<<<<D0,hC,:HbCFFCCVZx--&====xCC;xHxx-H&&fC;-;H--=D6:>Cg>>;bV>,><",
"--==H==fC=bCHZDxx#8lHC5&&&=&xDb-xCCxfC;;Gt;:yG>>,H::;D6;;>D7::::",
";>>hC1<CmDDCZDb;;*;;&dDD4#-xxHx&;xHxD6--D7;:Cg:>hC--6D::>bV:::::",
",;;Cf*-GZbCHFCb=;::><11uG<:xCCx##xCCx<<,H::;Cf-=D5&$Cd##%Cf::::>",
"&&&H;,DHCHCx&fVDb;;-;;;>Cg>xCC;;=xbDx&=5D*;xV7:7D<<<Am,,7D;;;;:,",
"&&5DbHCGCxx##&&5VDC&&---*H;xHx:>>>xCZx;Cg;-xG::fC--;Cg>>Ch,>::;-",
"<<xCDZGZCh00<,,,,7fHC>>>-CCVGV6CC6xbGCxDl=&xG=-H;>:;Cg;yG-;:;;>>",
"&xCAHCBCCCDVGVVfm--;gHg;;=DVGGDggDHDCCHGV-&6D&sH#&&=bV=AZ;--;;--",
"xAHCxx*****xxbbCmf*&&&H&&@xCC######bCxxCHCxCC&&Cd##OxG#4D##%===-",
"GAxxx%######&&##xCdo$$fC&&xCC#&&-----xxxxCHCxxxff&&&&D4@dC#@ooo&",
"VxxZx             CC   D3xxCC       3CCxxxxCHCxxH    D3  D3     ",
"xx-AGDCCbx=========fC==6DxxDbddCDDHHDdd##OxxxCHCCCxx@CdO@4D+O@O#",
"=**&*6fhVGDCb6;---==fC==fCxD5FZf55$###&&##XoObCAFFxxxxx&&&Cf=&&$",
"**&#oOO##&5fVHC;;;:;;fC-&HbHCf**---;;;6fgCDHHDCCbZGCbxxxx##D5&&-",
"=-;;;--$%$O@oOdC#@@#%=fC;ZBDH;;-*-CHHHDCCf7&=&&&&=VCDHZCbxxbFi-*",
"&$$&&=;--;;-;*-fCx%&%$@CoxbDM#&-bDg6---;>1-*==&$5dCDHZZCDHCCBcxx",
"::;%%$#$#####$#&fVx&*&=&x&CCx;;CV6;---&%&$$6ffDHDCf5%@#xxxCCDDCC",
"&&;--=&&==&=;:<1<0Vx&&*--xCCxCHf&&#%###7AVHDCC5&=*;;:>---6fDHbCC",
"1<<<,,,:;;;;-----=6Gb:;;;;ADDg:>::>;;gDDZb&=&&&=;;==&&6fDDCb==&x",
";;;;;;;=&=&$&&&$#&&&VC==**CZV*=&&&&CDC6--=-;::;-;:7gDHDC6;>:;;::",
"*&&&&&&&&&&*---;;;;--fC*&=bDxx---CHf6:::>><<&--7CDDC7,>;;=%$@###",
"&#$$%##O#@#@O@Ooooo##%dC==xDbx=fHf=*==-;;;-;CCHDf6-===-;-;:>>:--",
";;*========*-----------fD--CCCHC;;;>>:>;xCCHff=----;;;;;>::>>>,,",
"&&=-;;;>><<<<<<<<<<<>>>>6D;bDC&%%%#O@bCDGdd###@#######@@@$$&&*=-",
"&&&&&$$&&&&&&&&&&&&&&&&&&6HxHx&---6CDVf6---*==*=**----&&&&&&&&&*",
"#oOOOooooooXooooXoooXXXXOoOxCCc9CDDd4OoOOoOO@oooooOoO#%$#$#--==&",
"                           xxxVFp3                              "
};
