/* XPM */
static char *c049a4db988a4922d97db80704bec2e3sXCI058Lk68v1P5Q[] = {
/* columns rows colors chars-per-pixel */
"64 64 104 2 ",
"   c #1A341C",
".  c #1B3D1E",
"X  c #1F3621",
"o  c #263727",
"O  c #233A25",
"+  c #2B3D2C",
"@  c #2F3E30",
"#  c #343E34",
"$  c #3A3D3A",
"%  c #1B441F",
"&  c #1E4621",
"*  c #1E4B22",
"=  c #224525",
"-  c #224C25",
";  c #264629",
":  c #2B452C",
">  c #264C29",
",  c #2B4C2D",
"<  c #225026",
"1  c #26512A",
"2  c #2B512D",
"3  c #2F4430",
"4  c #2F4B31",
"5  c #334434",
"6  c #324C34",
"7  c #374438",
"8  c #3B453B",
"9  c #364C38",
"0  c #3B4C3C",
"q  c #2F5231",
"w  c #335335",
"e  c #365439",
"r  c #3A543C",
"t  c #375839",
"y  c #3B593D",
"u  c #3F4C40",
"i  c #3F5540",
"p  c #3F5A41",
"a  c #424642",
"s  c #434D43",
"d  c #474D48",
"f  c #4A4D4A",
"g  c #435544",
"h  c #435B44",
"j  c #475448",
"k  c #4B544B",
"l  c #475C48",
"z  c #4B5C4C",
"x  c #4F5750",
"c  c #4F5C50",
"v  c #525553",
"b  c #535C53",
"n  c #5A5D5A",
"m  c #456047",
"M  c #476049",
"N  c #4C614D",
"B  c #4F6250",
"V  c #536454",
"C  c #556856",
"Z  c #576558",
"A  c #5B645B",
"S  c #576858",
"D  c #5C6A5C",
"F  c #5F6560",
"G  c #5F6B60",
"H  c #626562",
"J  c #636C63",
"K  c #676D68",
"L  c #6A6C6A",
"P  c #657066",
"I  c #677268",
"U  c #677468",
"Y  c #687268",
"T  c #6A746B",
"R  c #6C706C",
"E  c #6E736E",
"W  c #6C746D",
"Q  c #6F786F",
"!  c #6F7570",
"~  c #6E7870",
"^  c #727372",
"/  c #707470",
"(  c #737774",
")  c #767676",
"_  c #777777",
"`  c #727B72",
"'  c #777B77",
"]  c #757D75",
"[  c #777C78",
"{  c gray48",
"}  c #787C78",
"|  c #7C7C7C",
" . c #7C7E7C",
".. c #7C817C",
"X. c #7F817F",
"o. c #808080",
"O. c #828382",
"+. c #818481",
"@. c gray52",
"#. c #868886",
"$. c #888888",
"%. c #898B89",
"&. c gray55",
"*. c #929292",
/* pixels */
"*.+.P 2 V $.*.&.Y a +./ $.W D e 2 w e r y r r y r r y e i l 0 Z Z V l z K ` / W Y , z D *.*.{ $.*.*.*.) W j 0 l l V Z r y h h V ",
"} z 1 2 P Y e h ' 3 n A O.+.E b A V V V l i i i w 2 2 w w , > y g h l P K G Y J g - J ` *.*.| O.$.O.*.^ *.s - N l D h w 2 e y V ",
"r w q h X.V V K A V , v A | | @.@.O.| P Y V h w e y N h e 2 1 h h r D ) O.@.O.J h 6 A | +.` V W O.| $.^ $.6 > Y ( K D / T ' b { ",
"g , 4 b O.X.K } Z h 2 , b } O.$.*.*.*.$.Y V T ` T N h e 1 > n &.^ ) ) $.*.*.*.Z p , w D P ` / $.+.K V V J A 6 z p N W T P / g $.",
"V 6 l g ^ { O.*.} z B i , z D $.^ $.$.&.U X.} E J h t t q y h J { &.^ { @.} +.K y > g J X.+.G P X.I S P N q e e y Y *.$.J E Z { ",
"W c 9 [ / ) { $.` z ' W l , i } *.$.) O.| | ) O.V U #.^ 6 y Y &./ ' ' K ] +.+./ D w g V D +.&.&.O.$.) ` D w y h P G T V z +.Z { ",
"W z b +.@.) @.$.{ D V / D y 6 k n O.D Y *.*.$.T D h 2 - 1 K *.] V D Z P P W | T e h > z V T P J W J H +.D g j P &.' D D ^ | K K ",
"Z z | @.$.{ O.*.] T J J D h p h - 2 l J Z q < 1 2 > q e h @.$.&.| $.L W Y E ' e p P > 4 S V N W J V C h P v 0 l V V z J D } D J ",
"g z @.) { *.*.*.&.` ` ` P h l h h , r h p p h J L E ^ k w H | &.} E E A z z V z ` i , q e D G y 2 2 w w w y z z r P J D V h N h ",
"6 9 &.) ^ | O.$.W D J h t h N D D r 2 D ` | | O.$.&.*.L 6 > V V D J ' z K Y K P V > , , w i w e y z z N Y T D #.H 0 y J B h y y ",
"Z g ^ &.*.*.&.$.$.E J P O.} v b w < N ! $.&.*.&.$.O.) ' 6 = r D V A A ) / z h 4 : 9 v 6 ; A &.| $.O.J J N z D I V 4 9 v g 0 0 0 ",
"V V L v L ^ ) ) Z A L | n g w h 2 l O.*.$.$.$.$.$.$.A K c g 9 e i r r i 8 9 r j P Q $.&.r j k L ^ / W ] #.#.*.} , > A Z N y Z X.",
"Z h X.a a 8 v A A z e 2 1 q h D X.&.O.$.O.$.$.$.$.$.Y F A +.n + 4 z h V z H E V { { ' | H k A b &.I ] I P I J D 0 y D ` | D X.) ",
"E h z s s 3 # g e e t p y z / J J } ` +.T ` +.*.&.O.*.E Y Y E g , z I J Y D K @.+.W E { H g J K ' *.+.V G V v z $ g p / I ` &.) ",
"V N w Z Q | , 7 a W ' K I r K Q h I J N K T } O.| | *.Z K g V r r W Z ` X.| *.*.*.+.W &.^ a v H b z h r w v 0 6 w y r J ` $.$.) ",
"K J w J p J h , j V D K N h , y e h y / / / / } ' K b A g W J a z S I X.O.&.&.$.+./ h H ^ n s s y e 6 w w e z V w e 2 ! &.O.&.L ",
"O.v z +.] N ` b , s *.O.J } 9 - 1 - - 4 e y g e e h h g B &.9 k b J b h V J / J J J J / W H G w < - 2 2 V X.` e w y V O.$.| &.) ",
") K ) ] P N X.} z # ' / b j l , - q y h y w q w y w p h j r r i r T V S E ' J J A A z J g w l z g , V I Y D V K e D N / ' ` ` / ",
"L L $.V E } J W A : g h r i D T w - > v H h h y r g r 6 0 k J k 0 g V X.X.L | z z r > - w y l V l A b Y V h C h w l V E Y } / / ",
") K $.J X.W J S y , w q V Y P D Z 0 o ) g k g 2 r y h e h h l j s v f A V j s > > > , q w z l l k b r h D z K W A 9 P ` / / K A ",
"L { ` E W J M q , z b | O.$.W D r 0 a | J ] X.+.+.T P Y h y e N r r N N y 9 , y } +.*.&.*.&.O.+.} w h N ] | ) Z N q - e h N p N ",
"{ ) I V N h y > z l *.| *.*.&.J N ; g V Y ' A D V D E D p h V h h q c V l G V ` $.$.$.$.$.| L *.P e w D A ) | ' D ' 6 > J &.D #.",
"V V D J h V q > h ` T O.) | ` h J @ z K E E } D ` P V N p y q y h 1 , W T K $.$.O.} { / / H K +.J r 0 h K H ^ K } O.^ 5 > L D &.",
"W D V V J m - z &.D $.@.| W B K ` ; n ^ { @.V h N D ` +.J V { D G y , J K ^ ! ` W T Q ] W H ! K s f j E z W V N V J J V q - j ` ",
"Z z J W W 1 r P Q I ! $.$.*.! J B , , ^ ) | ' | | | | | { V J z N w 4 l Z P ` ` ` P P ^ E b k F ` 0 r w G J K +.X.I V W N g , z ",
"b 9 j z h > h h W } D +.$.X.E T D r , n O.@.$.*.*.$.O.| ' } N D y 1 2 V J +.+.} Y B N y A 0 9 V V y , e W K &.&.D h T +.+.z j Z ",
"L ) x v b k k V J J / T W J } B y q 4 n &.{ O.O.| O.@.$.O.J ` ! z 2 r A L / S h y 0 5 A / h D P ' V - w V V N e N ^ *.*.J s 5 9 ",
"*.| O.) K A 5 J V V J y V ' V y 2 , + u P c c E | ) $.$.| O.O.l 2 , A z J V e 0 g j l w , > z D g D y - D G V W ` } D Z r = r P ",
"*.$.{ *.*.A u r r y z y t t 2 * & - : 3 7 Y ' +.*.@.E Z c 6 : 2 1 w , i J z 4 q q w e , > r e y 0 g b l - y z e 1 2 e ; 6 A ] J ",
"*.$.@.) *.' s k 0 4 4 > 9 = . ; 2 e y 0 5 5 9 4 4 , , r 6 6 h w N h p 0 Y , p w w B q r z V Y W X.{ ^ n , 6 g w y z j j Y I K S ",
"&.$.@.{ $.^ k l k 4 0 8 0 6 W / V D ' $.&.a # A A Y z l V N V h w y z V l 4 D 2 2 e N V / ` P D X.+.} Z b / Z J Y E ' K ) W T D ",
"` O.@.$.} A J L h h z V V h J / J T Z Z ] ) j D J J A D N V z y w 2 J D z 6 l > V { J V *.+.` ` J P ` P ) J J &.| L H 6 N P P ` ",
"l A | } W Z J e 1 V T ` Q } ` } ' ` V V D S l / ` P K Y | +.X.| z N V b G j r e $.O.$.O.| $.&.+.K l +.$.V V L *.{ z r s +.Y ' | ",
"6 l E &.O./ K w y h e z ` O.$.$.{ | ` Y W N z V } / $.*.| Y D B q y J J I W > y ' &.+.) $.+.K W W T D h E v &.*.J l k l Z B J $.",
"6 i { &.^ ^ l k J O.W E $.*.*.O.&.*.} D D V ^ K &.$.$.&.O.Y N N D B h V h N w , , g U ~ P K ' P D h y e I ^ L A h z q r V ] h O.",
"l 6 / *.O.K c k +.@./ | { | O.+.+.P J ` &.| &.L ) &.O.&.| *.' D J Z z l p N w - V j e l V N z V e w 9 W k 0 D P U V k n J W 9 &.",
"r 6 ) *.A 6 A 5 0 6 j K P N N D Y N T ` E ` ` A } O.$.| | | O.} { ) V l y q 2 y - V y w e g j l , w j w g V V D W K b k l y w *.",
"J 6 b A r | j l r 9 > r h e q V l h h h t y N i ` *.) ^ L K / { J D y y h h , w , = 6 0 r g g r j g 6 J Y I ~ ~ P Y j i z D 6 *.",
"V 6 6 h V 4 & = 4 , r , - r , N l h g r r 0 : 5 k / E J J K W J b 2 1 t w 4 K ) &.Z g b b K K b , g J L $.+.{ +.h I J f b V 9 *.",
"b , 4 j ; = r z Y J K J b ; : : : r g 0 0 b J J 0 0 0 c z , w w q e 2 2 w A ) &.*.&.l D W r l D r , A ' P V Y D &.+.V u 3 g V +.",
", % & ; , l V b l z D 4 6 : 0 Y X.J J J X.+.+.&.$.n v v 5 - 6 4 , , 2 z v ^ ^ *.$.O.$.l J r h l r = , z S J z J l q y & - , y +.",
"w l r J X.*.@.$.O./ +.Z , h z ] ] W W $.$.$.$.{ +./ v D N y w w l y w V D O.L ^ $.*.*.&.V z l z , ; e P V w y 6 4 w Y z - = n ) ",
"z l V X.Z K Z D N V D z 9 D h D D V G +.` P N V ] A E N y w y h h h 2 w V E n | &.$.O.| ! V A G j 4 r g j z r r 6 l ` J , & 0 O.",
"z e h N h y l V N M e q 4 2 p h w w h V D V J +.L K z H A Z W V t 1 q r s j b H ^ { O.| | K z l ' g 0 k P 9 4 9 z +.Y Z b : 0 P ",
", w z D W W Y Z S B I r z V B e y M V D N / &.K ^ K v X.@.$.$.W N W ` I z r q h z h p V $.+.Z h z 4 0 + o X , j L ' K J b / k V ",
"e y c J P J V D P ] X.a V r p C Z T N J Y D h h j n ^ O.$.$.P K N N N h 2 e e w w g 0 4 > u a a 7 0 0 3 o o , 6 J &.J A Z l } L ",
"y 6 r P C J K L ) L K 9 h h N N r w z Y V V i , r ^ *.*.*.} ` T J I V t y 6 , ` v O.v K | A &.$.J 5 5 H b z 0 , l &.{ A l e } | ",
"j r h A L L ) ) L ^ K v ' T J B N D z V @.H b A j | *.$.O.} T +.W V p e h 2 < w j D z P D V I | v + u A } L k ; j } &.O.i h z O.",
"z b 0 k | O.&.*.*./ A l i V N T ] ` K E D H / | b z J { D V D V V N w e 1 - i A L $.K O.&.$.V O.@ k s O.&.n L ; ; Z *.O.D r r Z ",
"I z g D ] ] ] ] ` I ` b j e h V L ) ^ H L H v n v 8 0 H | I I J h r r q , e P ` *.*.J $.} J / n + k k ^ L K f n   z *.$.O.Z j J ",
"/ n b / #.X.W Z Z L D h h V V X.O.^ L K K K k L L K j : s g , q y y y r > V V T X.$.J V } +.k + O + k K ^ L d H + ; ^ &.) J J Z ",
"K c h N ` b k z g z z g g z P w g k K ) O.*.' &.*.&.| K 6 e 9 z A E O.n 9 N y S U P G A J l s + + + J O.O.| ^ 8 f + 0 &.*.) | G ",
"h l V D I b z y w P } Z 0 r 1 q V K *.*.$.) O.E K E Y X./ 6 Y j } *.} z i K h h P V Y z 0 A 6 v 5 # E *.*.*.*.O.} k O A K L ^ ^ ",
"v H O.*.&.v w e l K J J J , 2 z J +.$.O.$.&.O.) } { $.E K g = A K V P +.L j y V A ) A $ 7 O v E 9 5 s $.$.$.O.O.) A 0 v A v ^ O.",
"L v *.*.O.J w q q h h V r w , h D V A X.+.J V X.+.&.! / K k : 4 a n n n s k E W z ) + k z n f { O + A { $.$.&.&.&.{ b + K 9 H &.",
"n n *.*.O.' j g e D V V T J r , +.} X.N q w h N K J G V z : k ^ L | | ^ L v s j e , ; J } J 8 A V 5 A A $.$.$.$.@.*.A v 7 r n *.",
"n H *.*.O.} K , e ` V W D B D r 5 v V V D D D D V D D e z v J L O.$.$.E L b a # + = z k s k n a K 9 6 5 J $.$.$.| $.s } 0 z j &.",
"f L *.&.^ E D 2 2 D l J P J h l j k 7 3 5 v H k J ' g F n H $.*.*.*.*.} A v b 0   o a v v v J v f 0 + O 0 O.*.*.*.$.8 @.c k g J ",
"v H L n H 1 - e > l D S Y X.&.{ E K b 0 5 o X O . O 0 7 j j J E | { ' k 5 7 k 5 o s / J L L | K ^ 8 5 O O K ^ $.&.*.k J / 7 g b ",
"f s V y t N l : 6 b { | *.O.+.+.A w , > - - 4 6 , : s g 0 J F n ) ) b v v v k k 7 u 7 x J A H { L O.k j   u +.{ O.' s } O.s s j ",
", h V h W } ` r , 6 K X.] W W z z Z z 6 : 5 3 9 s : : j b c v b Z z j 0 j g g L v v A J J { L O.| v A k s 5 b A 0 3 H K { J 5 A ",
"g X.! } X.} ` p - > y J ` ` P J z : - > : > = , i y - > 9 4 r A v v J J b s 0 8 v H O.$.$.| $.&.O.O.K s 5 : s j 9 ; : 6 g z 9 L ",
"n { *.*.*.&.] W > ; b O.&.V e 6 6 O . . % % & & & * * * & & % = > = & - , e J | L ^ *.*.*.*.$.O.O.W A V 9 : z z V h g A V Z 9 Z ",
"H &.*.*.*.*.*.O.V 4 z &.*.K V K J a 4 > > - - * * - = ; r r ; > - - , e h V P { L O.*.*.*.*.*.&.+.` ` Z g 0 6 Z r l l g z H K H "
};
