/* XPM */
static char *_a33bbea95b0462499314c398f524e05x8fznYduoFvHzl3W[] = {
/* columns rows colors chars-per-pixel */
"64 64 37 1 ",
"  c #371602",
". c #3D0E17",
"X c #022737",
"o c #353333",
"O c #6A040B",
"+ c #680F15",
"@ c #4F260E",
"# c #5B2503",
"$ c #5B230C",
"% c #612400",
"& c #753915",
"* c #591D29",
"= c #472D3C",
"- c #495917",
"; c #62732C",
": c #39314B",
"> c #342560",
", c #543240",
"< c #5E3643",
"1 c #5F3E4F",
"2 c #5C3B52",
"3 c #5F3D55",
"4 c #733460",
"5 c #00435F",
"6 c #7A444A",
"7 c #AE0712",
"8 c #813213",
"9 c #8B3137",
"0 c #A34F07",
"q c #C9752D",
"w c #BF7958",
"e c #877F7F",
"r c #2958AA",
"t c #6852A7",
"y c #B0689B",
"u c #F969CF",
"i c #5486DC",
/* pixels */
"6666666666666666666666666666666666666666666666666666666666666666",
"6666666666666666666666666666666666666666666666666666666666666666",
"666<<<<<<<<<<<<<<<6666666666666666<<<<<<66666666<<666<6666<<<<<6",
"6<<666666666666666666666666<666666666666666666666666666666666666",
"6666666666666666666666666666666666666666666666666666666666666666",
"6666666666666666666666666666666666666666666666666666666666666666",
"6666666666666666666666666666666666666666666666666666666666666666",
"6666666666666666666666666666666666666666666666666666666666666666",
"6666666666666666666666666666666666666666666666666666666666666666",
"6666666666666666666666666666666666666666666666666666666666666666",
"666666666666666666666666666666666666666<666666666666666666666666",
"6666<<<<<<666666666666<<<<<<666666666<<666666666666666666<<66666",
"66<<666666<<<<<<666666666666<<<<<<66<66666<<<<<<<<<66666666<<<66",
"666666666666666666666666666666666666666666<666666666666666666666",
"6666666666666666666666666666666666666666666666666666666666666666",
"===========<<<===========<<<<<<====<<<===============<<<<=======",
"====<<<<==============================<<<<=======<<<<===========",
":::::&&&:iiiiii::::::>>>%%OOO::===::::::::::::::::::::::::::::::",
":::::@@@:rrrrrr::::::>>>%%OOO::<==::::::::::::::::::::::::::::::",
":::::@@@:rrrrrr::::::>>>%%OOO::<==::::::::::::::::::::::::::::::",
":::::&&&:rrrrrr::::::>>>  OOO::<==::::::::::::::::::::::::::::::",
":::::&&&:rrrrrr::::::>>>%%OOOO:=<=::::::::::::::::::::::::::::::",
":::::&&&:rrrrrr::::::>>>%%OOOO:=<=::::::::::::::::::::::::::::::",
":::::&&&:rrrrrr::::::>>>%%:OOO:=<=::::::::yyyyyyyyuuyyy:::::::::",
":::::&&&:rrrrrr:::::>>>>%%:OOO:===::::::::yyyyyyyyuuyyy:::::::::",
":::::&&&:rrrrrr:::::>>>>%%:OOO:===::::::::777+777777+77:::::::::",
":::::&&&:rrrrrr:::::>>>:%%:OOOO===::::::::777+777777+77:::::::::",
":::::&&&:iiiiii:::::ttt:%%:9999===::::::::777+777777+77:::::::::",
":::::&&&:iiiiii:::::ttt:  ::999===::::::::000000qq00000:::::::::",
":::::@@@:rrrrrr:::::>>>:%%::OOO===::::::::000000qq00000:::::::::",
":::::@@@:rrrrrr:::::>>>:%%::OOO===::::::::000000qq00000:::::::::",
"============<<===========<<<====<<<=================<<<<<<======",
"==============<<===========<<======<<<========<<<<<<============",
":::::::;;;XXX:::::::::::****eee===88883221::::&&&:::::::::::::::",
":::::::;;;XXX:::::::::::****eee=<=88883333::::&&&:::::::::::::::",
":::::::---XXX::::::::::****:eee=<=88884444::::&&&:::::::::::::::",
":::::::---XXX::::::::::****:eee==<:88884444:::###:::::::::::::::",
":::::::;;;XXX::::::::::****:eee==<:88883333:::&&&:::::::::::::::",
":::::::;;;XXX::::::::::****:eee===:88883333:::&&&:::::::::::::::",
":::::::;;;555:::::::::****::eee===:88883333:::&&&:::::::::::::::",
":::::::;;;555:::::::::****::eee===::88883333::&&&:::::::::::::::",
":::::::;;;XXX:::::::::****::eee===::88883333::&&&:::::::::::::::",
":::::::;;;XXX:::::::::....::ooo===::88883333::&&&:::::::::::::::",
":::::::;;;XXX::::::::....:::ooo===::88884444::###:::::::::::::::",
":::::::;;;XXX::::::::****:::eee===:::$$$$4444:###:::::::::::::::",
":::::::;;;XXX::::::::****:::eee===:::$$$$3333:&&&:::::::::::::::",
"==<<========<<<<<==<<==,,,,,,=====,,,,<============<<<<<<=======",
"===========================================,,,==================",
"==<<<<<<<<<<<<<<<<<<<<<<<<<<<<<===<<<<<<<<<<<<<<<<<<<<<<<<<<<<==",
"==<<<<<<<<<<<<<<<<<<<<<<<<<<<<<===<<<<<<<<<<<<<<<<<<<<<<<<<<<<==",
"==<<<=======================<<<===<<<======================<<<==",
"==<<<=6666666666666666666666=<<===<<=666666666666666666666=<<<==",
"==<<<=66<<<<<<<<<<<<<<<<<666=<<===<<=666<<<<<<<<<<<<<<<<66=<<<==",
"==<<<=66<6666666666666666<66=w<===<w=66<666666666666666<66=<<<==",
"==<<<=66<6666666666666666<66=w<===<w=66<666666666666666<66=<<<==",
"==<<<=66<6666666666666666<66=w<===<w=66<666666666666666<66=<<<==",
"==<<<=66<6666666666666666<66=w<===<w=66<666666666666666<66=<<<==",
"==<<<=66<<<<<<<<<<<<<<<<<666=<<===<<=666<<<<<<<<<<<<<<<<66=<<<==",
"==<<<=6666666666666666666666=<<===<<=666666666666666666666=<<<==",
"==<<<=======================<<<===<<<======================<<<==",
"==<<<<<<<<<<<<<<<<<<<<<<<<<<<<<===<<<<<<<<<<<<<<<<<<<<<<<<<<<<==",
"==<<<<<<<<<<<<<<<<<<<<<<<<<<<<<===<<<<<<<<<<<<<<<<<<<<<<<<<<<<==",
"================================================================",
"================================================================"
};
